<?xml version="1.0" encoding="UTF-8" standalone="no"?>
<!-- Generator: Adobe Illustrator 16.0.3, SVG Export Plug-In . SVG Version: 6.00 Build 0)  -->

<svg
   xmlns:dc="http://purl.org/dc/elements/1.1/"
   xmlns:cc="http://creativecommons.org/ns#"
   xmlns:rdf="http://www.w3.org/1999/02/22-rdf-syntax-ns#"
   xmlns:svg="http://www.w3.org/2000/svg"
   xmlns="http://www.w3.org/2000/svg"
   xmlns:sodipodi="http://sodipodi.sourceforge.net/DTD/sodipodi-0.dtd"
   xmlns:inkscape="http://www.inkscape.org/namespaces/inkscape"
   version="1.1"
   id="Layer_1"
   x="0px"
   y="0px"
   width="200.20082"
   height="97.585182"
   viewBox="0 0 200.20082 97.585177"
   enable-background="new 0 0 841.89 595.28"
   xml:space="preserve"
   sodipodi:docname="Qwirklabs.svg"
   inkscape:version="0.92.4 (5da689c313, 2019-01-14)"><metadata
   id="metadata1013"><rdf:RDF><cc:Work
       rdf:about=""><dc:format>image/svg+xml</dc:format><dc:type
         rdf:resource="http://purl.org/dc/dcmitype/StillImage" /><dc:title></dc:title></cc:Work></rdf:RDF></metadata><defs
   id="defs1011" /><sodipodi:namedview
   pagecolor="#ffffff"
   bordercolor="#666666"
   borderopacity="1"
   objecttolerance="10"
   gridtolerance="10"
   guidetolerance="10"
   inkscape:pageopacity="0"
   inkscape:pageshadow="2"
   inkscape:window-width="1920"
   inkscape:window-height="1017"
   id="namedview1009"
   showgrid="false"
   fit-margin-top="0.1"
   fit-margin-right="0.1"
   fit-margin-bottom="0.1"
   fit-margin-left="0.1"
   inkscape:zoom="1.4245396"
   inkscape:cx="100.1001"
   inkscape:cy="48.793559"
   inkscape:window-x="-8"
   inkscape:window-y="-8"
   inkscape:window-maximized="1"
   inkscape:current-layer="Layer_1" />
<g
   id="g943"
   transform="matrix(0.50467097,0,0,0.50467097,-112.33845,-101.4181)">
	<linearGradient
   id="SVGID_1_"
   gradientUnits="userSpaceOnUse"
   x1="496.8252"
   y1="309.56149"
   x2="484.82529"
   y2="410.22699">
		<stop
   offset="0"
   style="stop-color:#359DD8"
   id="stop915" />
		<stop
   offset="1"
   style="stop-color:#625179"
   id="stop917" />
	</linearGradient>
	<path
   d="m 503.676,367.836 h -22.102 v -46.054 h 7.012 v 40.146 h 15.09 z"
   id="path920"
   style="fill:url(#SVGID_1_)"
   inkscape:connector-curvature="0" />
	<linearGradient
   id="SVGID_2_"
   gradientUnits="userSpaceOnUse"
   x1="534.11517"
   y1="314.00681"
   x2="522.11517"
   y2="414.67331">
		<stop
   offset="0"
   style="stop-color:#359DD8"
   id="stop922" />
		<stop
   offset="1"
   style="stop-color:#625179"
   id="stop924" />
	</linearGradient>
	<path
   d="m 549.053,367.836 h -7.51 l -5.16,-13.204 h -17.724 l -4.805,13.204 h -7.51 l 17.866,-46.054 h 6.762 z m -20.607,-34.984 c -0.119,-0.332 -0.267,-0.813 -0.444,-1.441 -0.177,-0.628 -0.326,-1.287 -0.445,-1.977 h -0.143 c -0.119,0.736 -0.267,1.418 -0.445,2.047 -0.178,0.629 -0.35,1.156 -0.516,1.584 l -5.588,15.446 h 13.418 z"
   id="path927"
   style="fill:url(#SVGID_2_)"
   inkscape:connector-curvature="0" />
	<linearGradient
   id="SVGID_3_"
   gradientUnits="userSpaceOnUse"
   x1="572.48541"
   y1="318.58011"
   x2="560.48541"
   y2="419.24661">
		<stop
   offset="0"
   style="stop-color:#359DD8"
   id="stop929" />
		<stop
   offset="1"
   style="stop-color:#625179"
   id="stop931" />
	</linearGradient>
	<path
   d="m 584.607,354.063 c 0,2.064 -0.338,3.951 -1.014,5.658 -0.677,1.709 -1.732,3.181 -3.168,4.414 -1.436,1.234 -3.263,2.195 -5.48,2.883 -2.22,0.688 -4.871,1.031 -7.954,1.031 -0.783,0 -1.691,-0.018 -2.724,-0.053 -1.031,-0.035 -2.076,-0.084 -3.132,-0.143 -1.056,-0.059 -2.07,-0.137 -3.043,-0.23 -0.974,-0.096 -1.804,-0.19 -2.491,-0.285 v -45.342 c 1.4,-0.119 3.09,-0.207 5.072,-0.268 1.98,-0.059 4.016,-0.088 6.103,-0.088 2.421,0 4.586,0.254 6.496,0.765 1.909,0.511 3.523,1.251 4.84,2.224 1.317,0.974 2.319,2.172 3.008,3.596 0.688,1.424 1.032,3.061 1.032,4.911 0,1.21 -0.167,2.343 -0.499,3.398 -0.332,1.055 -0.789,2.023 -1.37,2.901 -0.581,0.877 -1.275,1.66 -2.082,2.349 -0.807,0.689 -1.685,1.258 -2.634,1.708 1.258,0.309 2.438,0.766 3.542,1.37 1.103,0.605 2.063,1.353 2.883,2.242 0.818,0.89 1.459,1.917 1.922,3.079 0.462,1.163 0.693,2.456 0.693,3.88 z m -9.609,-20.429 c 0,-0.854 -0.143,-1.667 -0.427,-2.438 -0.285,-0.77 -0.754,-1.453 -1.406,-2.046 -0.652,-0.593 -1.494,-1.062 -2.526,-1.405 -1.032,-0.343 -2.296,-0.517 -3.79,-0.517 -0.926,0 -1.727,0.013 -2.403,0.036 -0.676,0.023 -1.287,0.059 -1.832,0.106 v 14.022 h 2.918 c 3.084,0 5.433,-0.664 7.047,-1.993 1.612,-1.329 2.419,-3.251 2.419,-5.765 z m 2.491,20.641 c 0,-2.49 -0.842,-4.329 -2.526,-5.516 -1.686,-1.187 -4.177,-1.779 -7.474,-1.779 h -4.876 v 15.232 c 0.759,0.07 1.584,0.125 2.473,0.16 0.89,0.035 1.881,0.053 2.972,0.053 2.966,0 5.279,-0.717 6.94,-2.152 1.661,-1.435 2.491,-3.435 2.491,-5.998 z"
   id="path934"
   style="fill:url(#SVGID_3_)"
   inkscape:connector-curvature="0" />
	<linearGradient
   id="SVGID_4_"
   gradientUnits="userSpaceOnUse"
   x1="607.57422"
   y1="322.7637"
   x2="595.57422"
   y2="423.43021">
		<stop
   offset="0"
   style="stop-color:#359DD8"
   id="stop936" />
		<stop
   offset="1"
   style="stop-color:#625179"
   id="stop938" />
	</linearGradient>
	<path
   d="m 619.095,354.952 c 0,1.875 -0.327,3.636 -0.979,5.285 -0.652,1.649 -1.613,3.085 -2.883,4.307 -1.27,1.222 -2.847,2.183 -4.733,2.883 -1.886,0.699 -4.075,1.05 -6.566,1.05 -1.21,0 -2.414,-0.077 -3.612,-0.231 -1.198,-0.154 -2.337,-0.38 -3.416,-0.677 -1.08,-0.296 -2.082,-0.641 -3.008,-1.031 -0.925,-0.392 -1.732,-0.813 -2.42,-1.264 v -7.118 c 0.759,0.546 1.655,1.085 2.687,1.62 1.032,0.533 2.118,1.008 3.257,1.423 1.139,0.415 2.271,0.753 3.398,1.015 1.127,0.262 2.142,0.391 3.043,0.391 1.376,0 2.581,-0.172 3.613,-0.516 1.031,-0.344 1.897,-0.836 2.598,-1.477 0.699,-0.641 1.222,-1.406 1.566,-2.296 0.343,-0.89 0.516,-1.868 0.516,-2.937 0,-1.209 -0.22,-2.229 -0.658,-3.061 -0.439,-0.83 -1.063,-1.553 -1.869,-2.171 -0.807,-0.616 -1.779,-1.175 -2.918,-1.673 -1.139,-0.498 -2.408,-1.02 -3.809,-1.565 -1.922,-0.759 -3.63,-1.524 -5.124,-2.296 -1.495,-0.771 -2.753,-1.648 -3.773,-2.634 -1.021,-0.983 -1.797,-2.123 -2.331,-3.417 -0.533,-1.293 -0.801,-2.829 -0.801,-4.608 0,-1.945 0.392,-3.707 1.175,-5.285 0.783,-1.577 1.851,-2.919 3.203,-4.021 1.353,-1.104 2.937,-1.958 4.751,-2.563 1.815,-0.604 3.755,-0.907 5.819,-0.907 2.206,0 4.199,0.201 5.979,0.604 1.779,0.403 3.404,0.913 4.875,1.53 v 6.406 c -0.688,-0.332 -1.482,-0.652 -2.384,-0.961 -0.902,-0.309 -1.851,-0.587 -2.848,-0.836 -0.996,-0.25 -1.993,-0.451 -2.989,-0.605 -0.997,-0.154 -1.946,-0.23 -2.848,-0.23 -1.258,0 -2.373,0.16 -3.346,0.48 -0.973,0.32 -1.797,0.765 -2.473,1.334 -0.677,0.569 -1.188,1.252 -1.53,2.047 -0.345,0.795 -0.517,1.666 -0.517,2.615 0,1.068 0.226,1.988 0.677,2.758 0.45,0.771 1.091,1.46 1.921,2.064 0.831,0.605 1.833,1.163 3.008,1.673 1.175,0.511 2.485,1.05 3.933,1.62 1.851,0.735 3.506,1.5 4.965,2.295 1.459,0.795 2.692,1.709 3.701,2.74 1.009,1.032 1.785,2.219 2.331,3.559 0.545,1.342 0.819,2.902 0.819,4.681 z"
   id="path941"
   style="fill:url(#SVGID_4_)"
   inkscape:connector-curvature="0" />
</g>
<g
   id="g973"
   transform="matrix(0.50467097,0,0,0.50467097,-112.33845,-101.4181)">
	<linearGradient
   id="SVGID_5_"
   gradientUnits="userSpaceOnUse"
   x1="508.3428"
   y1="244.4482"
   x2="487.6763"
   y2="377.78171">
		<stop
   offset="0"
   style="stop-color:#359DD8"
   id="stop945" />
		<stop
   offset="1"
   style="stop-color:#625179"
   id="stop947" />
	</linearGradient>
	<path
   d="m 527.666,277.786 -9.984,38.365 h -4.205 l -10.511,-34.686 -10.161,34.686 h -4.204 l -9.915,-38.365 h 2.979 l 9.039,34.686 10.16,-34.686 h 4.205 l 10.51,34.686 9.11,-34.686 z"
   id="path950"
   style="fill:url(#SVGID_5_)"
   inkscape:connector-curvature="0" />
	<linearGradient
   id="SVGID_6_"
   gradientUnits="userSpaceOnUse"
   x1="543.68262"
   y1="249.9258"
   x2="523.01611"
   y2="383.25931">
		<stop
   offset="0"
   style="stop-color:#359DD8"
   id="stop952" />
		<stop
   offset="1"
   style="stop-color:#625179"
   id="stop954" />
	</linearGradient>
	<path
   d="m 537.792,316.15 h -2.803 v -38.365 h 2.803 z"
   id="path957"
   style="fill:url(#SVGID_6_)"
   inkscape:connector-curvature="0" />
	<linearGradient
   id="SVGID_7_"
   gradientUnits="userSpaceOnUse"
   x1="570.93457"
   y1="254.1499"
   x2="550.26813"
   y2="387.4834">
		<stop
   offset="0"
   style="stop-color:#359DD8"
   id="stop959" />
		<stop
   offset="1"
   style="stop-color:#625179"
   id="stop961" />
	</linearGradient>
	<path
   d="m 579.695,316.15 h -3.083 l -3.818,-10.195 c -0.374,-0.981 -0.789,-1.904 -1.244,-2.768 -0.455,-0.864 -0.987,-1.617 -1.594,-2.26 -0.608,-0.643 -1.303,-1.15 -2.085,-1.525 -0.783,-0.373 -1.699,-0.56 -2.751,-0.56 h -13.419 v 17.308 h -2.803 v -38.365 h 17.273 c 1.611,0 3.171,0.146 4.677,0.438 1.507,0.292 2.85,0.812 4.029,1.559 1.179,0.747 2.12,1.781 2.82,3.101 0.701,1.32 1.052,3.008 1.052,5.063 0,1.285 -0.158,2.482 -0.474,3.591 -0.314,1.11 -0.794,2.103 -1.437,2.979 -0.643,0.875 -1.46,1.624 -2.452,2.242 -0.993,0.619 -2.154,1.068 -3.486,1.349 0.724,0.561 1.319,1.099 1.787,1.612 0.467,0.514 0.87,1.063 1.209,1.646 0.338,0.584 0.642,1.227 0.911,1.927 0.268,0.7 0.578,1.507 0.928,2.417 z m -27.994,-20.11 h 13.314 c 1.892,0 3.515,-0.14 4.87,-0.42 1.354,-0.28 2.47,-0.741 3.346,-1.384 0.876,-0.643 1.524,-1.477 1.944,-2.505 0.421,-1.027 0.631,-2.289 0.631,-3.784 0,-2.64 -0.835,-4.525 -2.505,-5.659 -1.671,-1.132 -4.164,-1.699 -7.48,-1.699 h -14.12 z"
   id="path964"
   style="fill:url(#SVGID_7_)"
   inkscape:connector-curvature="0" />
	<linearGradient
   id="SVGID_8_"
   gradientUnits="userSpaceOnUse"
   x1="608.77539"
   y1="260.01511"
   x2="588.10889"
   y2="393.3486">
		<stop
   offset="0"
   style="stop-color:#359DD8"
   id="stop966" />
		<stop
   offset="1"
   style="stop-color:#625179"
   id="stop968" />
	</linearGradient>
	<path
   d="m 617.886,316.15 h -3.749 l -15.312,-20.952 -7.813,7.568 v 13.384 h -2.803 v -38.365 h 2.803 v 21.092 l 21.758,-21.092 h 3.889 l -15.802,15.346 z"
   id="path971"
   style="fill:url(#SVGID_8_)"
   inkscape:connector-curvature="0" />
</g>
<linearGradient
   id="SVGID_9_"
   gradientUnits="userSpaceOnUse"
   x1="334.6973"
   y1="405.8623"
   x2="360.19559"
   y2="162.87621"
   gradientTransform="matrix(0.50467097,0,0,0.50467097,-112.33845,-101.4181)">
	<stop
   offset="0"
   style="stop-color:#359DD8"
   id="stop975" />
	<stop
   offset="1"
   style="stop-color:#52CAF5"
   id="stop977" />
</linearGradient>
<path
   d="m 106.64939,70.52785 c -0.0722,-0.009 -0.14282,-0.0116 -0.21448,-0.0238 -0.15293,-0.0247 -0.30129,-0.061 -0.44917,-0.0964 -0.0136,-0.003 -0.0278,-0.004 -0.0409,-0.007 -0.0162,-0.004 -0.0318,-0.009 -0.049,-0.0116 -0.0389,-0.0101 -0.0787,-0.0182 -0.11758,-0.0287 -2.14233,-0.46783 -4.17464,-1.18598 -6.085335,-2.11861 1.445385,1.37624 2.209965,3.41713 1.865785,5.53624 -0.55313,3.41057 -3.766375,5.72499 -7.175935,5.17187 -3.40955,-0.55413 -5.72498,-3.76636 -5.17136,-7.17692 0.55363,-3.40956 3.76637,-5.72499 7.17643,-5.17137 0.20893,0.0338 0.41332,0.0782 0.61367,0.13172 -1.97124,-1.25512 -3.78048,-2.75701 -5.40603,-4.46634 -0.82867,3.05074 -3.8456,5.04469 -7.03562,4.52639 -3.40955,-0.55311 -5.72498,-3.76636 -5.17136,-7.17642 0.52889,-3.25714 3.48475,-5.50949 6.72019,-5.22283 -2.87258,-5.75123 -4.26548,-12.55067 -3.77695,-19.66098 -8.56578,1.72043 -15.68568,1.71891 -15.68568,1.71891 l -1.70478,-0.27656 -1.70578,-0.27706 c 0,0 -13.71192,-4.56526 -23.99307,-13.24862 -10.28116,-8.68388 -26.87878,-2.02525 -35.0256797,12.80552 -8.14691,14.83228 -3.64119999,44.68306 8.5824297,47.94273 10.74141,2.86552 27.45663,-16.43613 41.47083,-17.06797 l -8e-4,-0.002 c 0,0 7.37072,-0.46833 11.65033,1.9869 0.003,0.002 0.007,0.004 0.0106,0.006 12.8898,5.35809 22.55274,28.47454 33.53236,29.14777 9.392435,0.57785 19.387945,-14.15451 22.643585,-28.59163 -4.87613,1.97175 -10.16408,2.6253 -15.45656,1.65027 z M 42.188265,53.57645 c -0.43856,2.70201 -2.98513,4.537 -5.68714,4.09844 l -6.52287,-1.0593 -1.0593,6.52337 c -0.43907,2.70252 -2.98513,4.537 -5.68714,4.09843 -2.70252,-0.43856 -4.5375,-2.98462 -4.09844,-5.68764 l 1.05931,-6.52338 -6.52337,-1.0598 c -2.70201,-0.43856 -4.5374997,-2.98463 -4.0984397,-5.68664 0.4385597,-2.702 2.9846197,-4.53698 5.6871397,-4.09843 l 6.52337,1.05931 1.0593,-6.52338 c 0.43907,-2.70201 2.98514,-4.53699 5.68765,-4.09843 2.70201,0.43906 4.53699,2.98462 4.09793,5.68663 l -1.0593,6.52388 6.52388,1.05931 c 2.7015,0.43956 4.53649,2.98562 4.09742,5.68763 z"
   id="path980"
   style="fill:url(#SVGID_9_);stroke-width:0.50467098"
   inkscape:connector-curvature="0" />
<g
   id="g989"
   transform="matrix(0.50467097,0,0,0.50467097,-112.33845,-101.4181)">
	<linearGradient
   id="SVGID_10_"
   gradientUnits="userSpaceOnUse"
   x1="425.60941"
   y1="328.08981"
   x2="463.30881"
   y2="227.2231">
		<stop
   offset="0"
   style="stop-color:#359DD8"
   id="stop982" />
		<stop
   offset="1"
   style="stop-color:#625179"
   id="stop984" />
	</linearGradient>
	<path
   d="m 456.438,261.759 5.387,-21.503 0.077,-0.307 0.312,0.078 5.819,1.458 -0.443,0.261 2.552,-10.185 0.319,0.542 -30.072,-7.534 0.831,-0.489 -2.555,10.185 -0.544,-0.924 5.332,1.347 0.762,0.192 -0.195,0.771 -5.435,21.522 -0.168,0.663 -0.695,0.024 c -8.385,0.295 -16.574,3.716 -22.697,9.395 -3.044,2.854 -5.566,6.252 -7.412,9.982 -1.861,3.735 -3,7.768 -3.439,11.957 -0.424,4.057 -0.117,8.308 0.931,12.303 1.035,4.015 2.856,7.811 5.24,11.182 2.389,3.372 5.384,6.299 8.784,8.618 l 1.274,0.873 c 0.436,0.273 0.9,0.5 1.348,0.753 0.908,0.485 1.787,1.027 2.756,1.386 l 1.422,0.602 c 0.47,0.21 0.946,0.403 1.446,0.536 l 1.477,0.455 0.736,0.228 0.369,0.114 0.092,0.029 c -0.018,-0.004 0.106,0.027 -0.029,-0.004 l 0.049,0.01 0.198,0.039 3.161,0.636 c 1.021,0.138 2.006,0.211 3.01,0.327 2.024,0.109 4.107,0.124 6.145,-0.135 4.089,-0.449 8.09,-1.654 11.774,-3.495 3.694,-1.825 7.068,-4.317 9.908,-7.328 2.858,-2.998 5.104,-6.568 6.684,-10.405 1.559,-3.827 2.521,-7.999 2.704,-12.129 0.182,-4.167 -0.35,-8.396 -1.688,-12.385 -1.33,-3.987 -3.341,-7.764 -5.953,-11.103 -2.616,-3.335 -5.839,-6.213 -9.476,-8.479 z m 0.345,-0.14 c 7.586,4.067 13.668,11.037 16.692,19.257 1.55,4.117 2.278,8.543 2.247,12.964 -0.035,1.106 -0.019,2.209 -0.182,3.33 l -0.187,1.678 c -0.06,0.564 -0.19,1.066 -0.29,1.601 l -0.32,1.58 c -0.151,0.624 -0.317,1.088 -0.476,1.64 -0.339,1.056 -0.588,2.146 -1.062,3.155 -1.604,4.139 -3.938,8.028 -6.949,11.326 -2.992,3.311 -6.582,6.084 -10.55,8.15 -3.975,2.057 -8.33,3.371 -12.78,3.895 -2.23,0.291 -4.464,0.296 -6.727,0.184 -1.132,-0.12 -2.295,-0.208 -3.4,-0.367 l -3.156,-0.663 -0.197,-0.042 -0.05,-0.01 c -0.169,-0.039 -0.075,-0.02 -0.126,-0.033 l -0.101,-0.031 -0.401,-0.127 -0.801,-0.254 -1.602,-0.509 c -0.54,-0.151 -1.058,-0.364 -1.568,-0.597 l -1.543,-0.668 c -1.049,-0.404 -2.005,-0.995 -2.987,-1.533 -0.485,-0.279 -0.986,-0.533 -1.458,-0.834 l -1.38,-0.959 c -3.673,-2.559 -6.863,-5.793 -9.393,-9.472 -2.523,-3.681 -4.421,-7.8 -5.473,-12.136 -1.062,-4.345 -1.339,-8.808 -0.802,-13.29 0.521,-4.346 1.784,-8.705 3.813,-12.643 2.013,-3.952 4.739,-7.535 8.004,-10.525 6.564,-5.951 15.259,-9.453 24.089,-9.661 l -0.863,0.687 5.683,-21.458 0.566,0.963 -5.315,-1.408 -0.739,-0.195 0.194,-0.729 2.703,-10.146 0.178,-0.664 0.653,0.174 29.953,7.993 0.433,0.116 -0.113,0.426 -2.708,10.145 -0.095,0.354 -0.35,-0.093 -5.797,-1.546 0.389,-0.229 z"
   id="path987"
   style="fill:url(#SVGID_10_)"
   inkscape:connector-curvature="0" />
</g>
<circle
   cx="124.99769"
   cy="6.1560502"
   id="circle991"
   r="0.96795893"
   style="fill:#309dd8;stroke-width:0.50467098" />
<circle
   cx="115.84852"
   cy="35.436554"
   id="circle993"
   r="0.96795893"
   style="fill:#309dd8;stroke-width:0.50467098" />
<circle
   cx="120.29771"
   cy="8.2070293"
   id="circle995"
   r="2.050983"
   style="fill:#309dd8;stroke-width:0.50467098" />
<circle
   cx="102.70438"
   cy="40.823425"
   id="circle997"
   r="2.050983"
   style="fill:#309dd8;stroke-width:0.50467098" />
<circle
   cx="117.20509"
   cy="1.4570602"
   id="circle999"
   r="1.3570602"
   style="fill:#309dd8;stroke-width:0.50467098" />
<linearGradient
   id="SVGID_11_"
   gradientUnits="userSpaceOnUse"
   x1="407.96579"
   y1="309.12109"
   x2="470.08591"
   y2="309.12109"
   gradientTransform="matrix(0.50467097,0,0,0.50467097,-112.33845,-101.4181)">
	<stop
   offset="0"
   style="stop-color:#359DD8"
   id="stop1001" />
	<stop
   offset="1"
   style="stop-color:#52CAF5"
   id="stop1003" />
</linearGradient>
<path
   d="m 109.22523,62.22652 c 8.65662,0 15.67508,-6.84132 15.67508,-15.27993 H 93.550135 c 0,8.43861 7.017965,15.27993 15.675095,15.27993 z"
   id="path1006"
   style="fill:url(#SVGID_11_);stroke-width:0.50467098"
   inkscape:connector-curvature="0" />
</svg>