<?xml version="1.0" encoding="utf-8"?>
<!-- Generator: Adobe Illustrator 16.0.3, SVG Export Plug-In . SVG Version: 6.00 Build 0)  -->
<!DOCTYPE svg PUBLIC "-//W3C//DTD SVG 1.1//EN" "http://www.w3.org/Graphics/SVG/1.1/DTD/svg11.dtd">
<svg version="1.1" id="Layer_1" xmlns="http://www.w3.org/2000/svg" xmlns:xlink="http://www.w3.org/1999/xlink" x="0px" y="0px"
	 width="68.625px" height="186.25px" viewBox="17.375 -51.75 68.625 186.25" enable-background="new 17.375 -51.75 68.625 186.25"
	 xml:space="preserve">
<g>
	<g>
		
			<linearGradient id="SVGID_1_" gradientUnits="userSpaceOnUse" x1="-55.9849" y1="55.0771" x2="-37.9238" y2="35.4653" gradientTransform="matrix(0.7071 -0.7071 0.7071 0.7071 57.7633 53.6339)">
			<stop  offset="0" style="stop-color:#FFFFFF;stop-opacity:0"/>
			<stop  offset="1" style="stop-color:#FFF100"/>
		</linearGradient>
		<polygon opacity="0.8" fill="url(#SVGID_1_)" points="50.409,85.217 49.611,86.016 44.324,92.813 48.33,91.564 48.855,95.439 
			50.333,93.963 51.713,148.604 54.194,103.404 55.718,135.402 56.929,95.502 57.605,138.473 59.193,103.676 59.658,139.342 
			60.438,93.943 62.047,95.553 62.352,91.336 66.682,92.906 60.332,84.928 		"/>
		
			<linearGradient id="SVGID_2_" gradientUnits="userSpaceOnUse" x1="-45.9355" y1="37.3574" x2="-26.4648" y2="19.3027" gradientTransform="matrix(0.7071 -0.7071 0.7071 0.7071 57.7633 53.6339)">
			<stop  offset="0" style="stop-color:#FFFFFF;stop-opacity:0"/>
			<stop  offset="1" style="stop-color:#FAAD18"/>
		</linearGradient>
		<polygon opacity="0.7" fill="url(#SVGID_2_)" points="51.528,85.184 51.502,131.621 53.934,85.113 		"/>
		
			<linearGradient id="SVGID_3_" gradientUnits="userSpaceOnUse" x1="-38.0732" y1="34.4834" x2="-24.1269" y2="20.9899" gradientTransform="matrix(0.7071 -0.7071 0.7071 0.7071 57.7633 53.6339)">
			<stop  offset="0" style="stop-color:#FFFFFF;stop-opacity:0"/>
			<stop  offset="1" style="stop-color:#FAAD18"/>
		</linearGradient>
		<polygon opacity="0.7" fill="url(#SVGID_3_)" points="54.334,85.104 55.355,119.604 56.77,85.029 		"/>
		
			<linearGradient id="SVGID_4_" gradientUnits="userSpaceOnUse" x1="-29.5742" y1="30.4009" x2="-21.8718" y2="22.9581" gradientTransform="matrix(0.7071 -0.7071 0.7071 0.7071 57.7633 53.6339)">
			<stop  offset="0" style="stop-color:#FFFFFF;stop-opacity:0"/>
			<stop  offset="1" style="stop-color:#FAAD18"/>
		</linearGradient>
		<polygon fill="url(#SVGID_4_)" points="57.933,84.998 57.889,101.58 59.141,84.963 		"/>
	</g>
	<g>
		<g>
			
				<linearGradient id="SVGID_5_" gradientUnits="userSpaceOnUse" x1="-60.9385" y1="32.0708" x2="-50.6535" y2="20.9028" gradientTransform="matrix(0.7071 -0.7071 0.7071 0.7071 57.7633 53.6339)">
				<stop  offset="0" style="stop-color:#FFFFFF;stop-opacity:0"/>
				<stop  offset="1" style="stop-color:#FFF100"/>
			</linearGradient>
			<polygon opacity="0.8" fill="url(#SVGID_5_)" points="33.529,92.666 33.074,93.121 30.063,96.99 32.345,96.281 32.645,98.486 
				33.484,97.646 34.271,128.762 35.684,103.023 36.551,121.244 37.24,98.521 37.627,122.992 38.531,103.178 38.795,123.486 
				39.24,97.635 40.156,98.551 40.33,96.15 42.795,97.045 39.18,92.502 			"/>
			
				<linearGradient id="SVGID_6_" gradientUnits="userSpaceOnUse" x1="-55.2153" y1="21.9805" x2="-44.1282" y2="11.6997" gradientTransform="matrix(0.7071 -0.7071 0.7071 0.7071 57.7633 53.6339)">
				<stop  offset="0" style="stop-color:#FFFFFF;stop-opacity:0"/>
				<stop  offset="1" style="stop-color:#FAAD18"/>
			</linearGradient>
			<polygon opacity="0.7" fill="url(#SVGID_6_)" points="34.166,92.646 34.15,119.09 35.535,92.607 			"/>
			
				<linearGradient id="SVGID_7_" gradientUnits="userSpaceOnUse" x1="-50.7393" y1="20.3447" x2="-42.7972" y2="12.6605" gradientTransform="matrix(0.7071 -0.7071 0.7071 0.7071 57.7633 53.6339)">
				<stop  offset="0" style="stop-color:#FFFFFF;stop-opacity:0"/>
				<stop  offset="1" style="stop-color:#FAAD18"/>
			</linearGradient>
			<polygon opacity="0.7" fill="url(#SVGID_7_)" points="35.764,92.602 36.346,112.248 37.15,92.559 			"/>
			
				<linearGradient id="SVGID_8_" gradientUnits="userSpaceOnUse" x1="-45.8994" y1="18.0195" x2="-41.513" y2="13.781" gradientTransform="matrix(0.7071 -0.7071 0.7071 0.7071 57.7633 53.6339)">
				<stop  offset="0" style="stop-color:#FFFFFF;stop-opacity:0"/>
				<stop  offset="1" style="stop-color:#FAAD18"/>
			</linearGradient>
			<polygon fill="url(#SVGID_8_)" points="37.813,92.541 37.787,101.984 38.5,92.521 			"/>
		</g>
		<g>
			
				<linearGradient id="SVGID_9_" gradientUnits="userSpaceOnUse" x1="-52.2651" y1="49.8633" x2="-41.9799" y2="38.695" gradientTransform="matrix(0.7071 -0.7071 0.7071 0.7071 57.7633 53.6339)">
				<stop  offset="0" style="stop-color:#FFFFFF;stop-opacity:0"/>
				<stop  offset="1" style="stop-color:#FFF100"/>
			</linearGradient>
			<polygon opacity="0.8" fill="url(#SVGID_9_)" points="52.243,99.113 51.789,99.568 48.777,103.439 51.059,102.729 
				51.358,104.936 52.199,104.094 52.986,135.209 54.398,109.471 55.266,127.691 55.955,104.971 56.341,129.439 57.245,109.625 
				57.51,129.936 57.954,104.084 58.87,105 59.044,102.598 61.51,103.492 57.895,98.949 			"/>
			
				<linearGradient id="SVGID_10_" gradientUnits="userSpaceOnUse" x1="-46.5425" y1="39.7744" x2="-35.4545" y2="29.4929" gradientTransform="matrix(0.7071 -0.7071 0.7071 0.7071 57.7633 53.6339)">
				<stop  offset="0" style="stop-color:#FFFFFF;stop-opacity:0"/>
				<stop  offset="1" style="stop-color:#FAAD18"/>
			</linearGradient>
			<polygon opacity="0.7" fill="url(#SVGID_10_)" points="52.881,99.096 52.865,125.539 54.25,99.055 			"/>
			
				<linearGradient id="SVGID_11_" gradientUnits="userSpaceOnUse" x1="-42.0659" y1="38.1377" x2="-34.1246" y2="30.4542" gradientTransform="matrix(0.7071 -0.7071 0.7071 0.7071 57.7633 53.6339)">
				<stop  offset="0" style="stop-color:#FFFFFF;stop-opacity:0"/>
				<stop  offset="1" style="stop-color:#FAAD18"/>
			</linearGradient>
			<polygon opacity="0.7" fill="url(#SVGID_11_)" points="54.479,99.049 55.06,118.695 55.865,99.008 			"/>
			
				<linearGradient id="SVGID_12_" gradientUnits="userSpaceOnUse" x1="-37.2251" y1="35.8115" x2="-32.8387" y2="31.573" gradientTransform="matrix(0.7071 -0.7071 0.7071 0.7071 57.7633 53.6339)">
				<stop  offset="0" style="stop-color:#FFFFFF;stop-opacity:0"/>
				<stop  offset="1" style="stop-color:#FAAD18"/>
			</linearGradient>
			<polygon fill="url(#SVGID_12_)" points="56.527,98.988 56.502,108.432 57.215,98.969 			"/>
		</g>
		<g>
			<polygon opacity="0.6" fill="#C1B49A" points="51.775,97.654 49.842,123.52 50.809,123.52 52.402,97.871 			"/>
			<polygon opacity="0.6" fill="#C1B49A" points="54.199,95.742 52.732,124.32 53.699,124.305 54.83,95.971 			"/>
			<polygon opacity="0.6" fill="#C1B49A" points="58.256,97.654 60.189,123.52 59.223,123.52 57.627,97.871 			"/>
			<polygon opacity="0.6" fill="#C1B49A" points="56.383,98.637 56.883,126.002 55.916,125.939 55.744,98.826 			"/>
			<path fill="#C1B49A" d="M61.852,113.791c0-0.592-0.414-1.1-1.01-1.334c0.012-0.205-0.066-0.465-0.232-0.707
				c-0.277-0.408-0.691-0.609-0.922-0.451c-0.232,0.158-0.195,0.615,0.084,1.023c0.016,0.025,0.035,0.047,0.053,0.068
				c-0.379,0.148-0.648,0.514-0.648,0.945c0,0.137,0.027,0.268,0.076,0.389c-0.395,0.084-0.705,0.398-0.783,0.795
				c-0.008,0-0.014-0.002-0.02-0.002c-0.307,0-0.576,0.139-0.762,0.352c-0.188-0.213-0.457-0.352-0.762-0.352
				c-0.561,0-1.016,0.455-1.016,1.016c0,0.008,0.002,0.016,0.002,0.023c-0.094-0.041-0.197-0.063-0.305-0.063
				c-0.154,0-0.299,0.047-0.422,0.127c-0.043-0.221-0.18-0.404-0.367-0.516c0.006-0.039,0.012-0.078,0.012-0.119
				c0-0.43-0.348-0.777-0.777-0.777c-0.338,0-0.625,0.219-0.73,0.521c-0.045-0.008-0.094-0.014-0.141-0.014
				c-0.277,0-0.518,0.145-0.654,0.359c-0.143-0.193-0.371-0.32-0.627-0.32c-0.195,0-0.371,0.074-0.508,0.193
				c-0.018-0.377-0.305-0.684-0.674-0.73c-0.008-0.037-0.018-0.072-0.029-0.109c0.135-0.139,0.217-0.326,0.217-0.535
				c0-0.43-0.348-0.777-0.777-0.777c-0.078,0-0.152,0.016-0.225,0.037c-0.021-0.059-0.047-0.115-0.08-0.168
				c0.127-0.096,0.246-0.242,0.326-0.428c0.174-0.4,0.107-0.816-0.15-0.928s-0.605,0.121-0.781,0.523
				c-0.074,0.17-0.102,0.34-0.092,0.492c-0.406,0.025-0.729,0.359-0.729,0.771c0,0.02,0.006,0.039,0.008,0.057
				c-0.365,0.271-0.596,0.666-0.596,1.107c0,0.615,0.447,1.141,1.08,1.363c-0.039,0.104-0.061,0.213-0.061,0.326
				c0,0.598,0.574,1.08,1.281,1.08c0.477,0,0.891-0.219,1.111-0.543c0.221,0.324,0.635,0.543,1.111,0.543
				c0.084,0,0.164-0.008,0.244-0.02c0.133,0.477,0.639,0.832,1.246,0.832c0.344,0,0.654-0.115,0.883-0.299
				c0.314,0.404,0.854,0.674,1.469,0.674c0.83,0,1.523-0.486,1.705-1.139c0.234,0.211,0.566,0.346,0.938,0.346
				c0.707,0,1.281-0.484,1.281-1.08c0-0.141-0.033-0.273-0.092-0.396c0.031,0.002,0.061,0.002,0.092,0.002
				c0.707,0,1.281-0.482,1.281-1.078c0-0.025-0.004-0.049-0.004-0.074C61.67,114.535,61.852,114.18,61.852,113.791z"/>
			<path fill="#C1B49A" d="M60.676,103.859c0-0.48-0.334-0.893-0.818-1.084c0.01-0.164-0.055-0.375-0.188-0.572
				c-0.227-0.332-0.563-0.494-0.75-0.367c-0.188,0.129-0.158,0.5,0.068,0.832c0.014,0.02,0.029,0.037,0.043,0.055
				c-0.309,0.119-0.527,0.418-0.527,0.768c0,0.111,0.023,0.217,0.064,0.314c-0.322,0.068-0.574,0.322-0.637,0.646
				c-0.006,0-0.012-0.002-0.018-0.002c-0.246,0-0.467,0.111-0.617,0.285c-0.152-0.174-0.371-0.285-0.619-0.285
				c-0.455,0-0.824,0.369-0.824,0.824c0,0.006,0.002,0.012,0.004,0.018c-0.076-0.031-0.16-0.049-0.248-0.049
				c-0.127,0-0.244,0.037-0.342,0.102c-0.037-0.178-0.146-0.328-0.299-0.418c0.006-0.031,0.01-0.064,0.01-0.096
				c0-0.35-0.283-0.631-0.631-0.631c-0.275,0-0.508,0.176-0.594,0.424c-0.037-0.008-0.074-0.014-0.115-0.014
				c-0.223,0-0.418,0.117-0.529,0.293c-0.115-0.156-0.301-0.26-0.51-0.26c-0.158,0-0.301,0.061-0.412,0.156
				c-0.014-0.307-0.246-0.555-0.547-0.592c-0.004-0.031-0.014-0.061-0.021-0.088c0.107-0.113,0.174-0.268,0.174-0.436
				c0-0.35-0.283-0.631-0.631-0.631c-0.063,0-0.123,0.012-0.182,0.029c-0.016-0.049-0.037-0.094-0.066-0.135
				c0.104-0.08,0.201-0.197,0.266-0.348c0.143-0.324,0.088-0.662-0.121-0.754s-0.492,0.1-0.635,0.426
				c-0.059,0.137-0.082,0.277-0.074,0.398c-0.33,0.021-0.59,0.293-0.59,0.627c0,0.016,0.004,0.031,0.004,0.047
				c-0.295,0.219-0.482,0.539-0.482,0.896c0,0.5,0.361,0.926,0.877,1.107c-0.033,0.084-0.049,0.172-0.049,0.266
				c0,0.484,0.465,0.877,1.039,0.877c0.387,0,0.723-0.18,0.902-0.443c0.18,0.264,0.516,0.443,0.9,0.443
				c0.068,0,0.135-0.006,0.199-0.018c0.107,0.387,0.52,0.676,1.01,0.676c0.279,0,0.531-0.092,0.719-0.244
				c0.254,0.33,0.691,0.549,1.191,0.549c0.674,0,1.236-0.396,1.383-0.924c0.191,0.172,0.461,0.279,0.762,0.279
				c0.572,0,1.039-0.393,1.039-0.877c0-0.113-0.025-0.221-0.074-0.322c0.025,0.002,0.049,0.004,0.074,0.004
				c0.574,0,1.041-0.393,1.041-0.877c0-0.02-0.002-0.039-0.004-0.059C60.529,104.463,60.676,104.176,60.676,103.859z"/>
			<path fill="#C1B49A" d="M63.27,121.727c0-0.67-0.498-1.246-1.213-1.514c0.014-0.232-0.08-0.527-0.279-0.803
				c-0.334-0.463-0.83-0.691-1.109-0.512s-0.232,0.699,0.102,1.162c0.02,0.027,0.041,0.053,0.063,0.078
				c-0.455,0.168-0.779,0.584-0.779,1.072c0,0.156,0.033,0.305,0.094,0.439c-0.477,0.096-0.85,0.453-0.943,0.904
				c-0.008,0-0.016-0.002-0.023-0.002c-0.367,0-0.691,0.156-0.916,0.398c-0.223-0.242-0.549-0.398-0.916-0.398
				c-0.674,0-1.219,0.516-1.219,1.152c0,0.008,0,0.016,0.002,0.025c-0.113-0.045-0.236-0.07-0.365-0.07
				c-0.189,0-0.361,0.053-0.508,0.145c-0.053-0.25-0.219-0.459-0.441-0.586c0.008-0.043,0.014-0.088,0.014-0.135
				c0-0.486-0.418-0.883-0.934-0.883c-0.408,0-0.752,0.248-0.879,0.594c-0.055-0.012-0.111-0.018-0.17-0.018
				c-0.332,0-0.621,0.164-0.787,0.41c-0.17-0.221-0.443-0.365-0.754-0.365c-0.234,0-0.445,0.084-0.609,0.219
				c-0.021-0.428-0.365-0.773-0.811-0.828c-0.006-0.043-0.02-0.082-0.033-0.123c0.16-0.158,0.26-0.373,0.26-0.607
				c0-0.488-0.418-0.885-0.934-0.885c-0.094,0-0.184,0.018-0.27,0.043c-0.025-0.066-0.057-0.131-0.1-0.189
				c0.156-0.109,0.297-0.275,0.395-0.484c0.209-0.457,0.129-0.928-0.18-1.055c-0.311-0.127-0.73,0.139-0.939,0.594
				c-0.09,0.193-0.123,0.387-0.111,0.559c-0.488,0.029-0.875,0.408-0.875,0.877c0,0.021,0.006,0.043,0.008,0.064
				c-0.438,0.307-0.715,0.756-0.715,1.256c0,0.697,0.535,1.295,1.299,1.547c-0.049,0.117-0.072,0.242-0.072,0.371
				c0,0.678,0.688,1.227,1.539,1.227c0.572,0,1.07-0.25,1.336-0.617c0.266,0.367,0.762,0.617,1.336,0.617
				c0.1,0,0.197-0.01,0.293-0.023c0.16,0.541,0.77,0.945,1.498,0.945c0.412,0,0.785-0.131,1.063-0.34
				c0.375,0.459,1.025,0.764,1.766,0.764c0.996,0,1.83-0.551,2.047-1.291c0.281,0.24,0.682,0.393,1.127,0.393
				c0.85,0,1.541-0.551,1.541-1.227c0-0.158-0.041-0.311-0.109-0.451c0.035,0.002,0.072,0.004,0.109,0.004
				c0.85,0,1.539-0.547,1.539-1.225c0-0.027-0.002-0.055-0.006-0.084C63.051,122.572,63.27,122.17,63.27,121.727z"/>
		</g>
		<g>
			<polygon opacity="0.6" fill="#C1B49A" points="33.281,91.6 31.346,117.465 32.313,117.465 33.908,91.816 			"/>
			<polygon opacity="0.6" fill="#C1B49A" points="35.703,89.688 34.236,118.266 35.205,118.25 36.336,89.916 			"/>
			<polygon opacity="0.6" fill="#C1B49A" points="39.762,91.6 41.695,117.465 40.729,117.465 39.133,91.816 			"/>
			<polygon opacity="0.6" fill="#C1B49A" points="37.889,92.582 38.387,119.947 37.422,119.885 37.248,92.771 			"/>
			<path fill="#C1B49A" d="M43.355,107.736c0-0.592-0.412-1.1-1.008-1.334c0.012-0.205-0.066-0.465-0.232-0.707
				c-0.279-0.408-0.691-0.609-0.924-0.451s-0.193,0.615,0.086,1.023c0.016,0.025,0.033,0.047,0.051,0.068
				c-0.379,0.148-0.648,0.514-0.648,0.945c0,0.137,0.027,0.268,0.078,0.389c-0.396,0.084-0.707,0.398-0.785,0.795
				c-0.006,0-0.012-0.002-0.02-0.002c-0.305,0-0.576,0.139-0.762,0.352c-0.186-0.213-0.457-0.352-0.762-0.352
				c-0.561,0-1.016,0.455-1.016,1.016c0,0.008,0.002,0.016,0.002,0.023c-0.092-0.041-0.195-0.063-0.303-0.063
				c-0.156,0-0.301,0.047-0.424,0.127c-0.043-0.221-0.18-0.404-0.365-0.516c0.006-0.039,0.012-0.078,0.012-0.119
				c0-0.43-0.348-0.777-0.777-0.777c-0.34,0-0.625,0.219-0.732,0.521c-0.045-0.008-0.092-0.014-0.141-0.014
				c-0.275,0-0.518,0.145-0.654,0.359c-0.143-0.193-0.369-0.32-0.627-0.32c-0.195,0-0.371,0.074-0.508,0.193
				c-0.018-0.377-0.305-0.684-0.672-0.73c-0.008-0.037-0.018-0.072-0.029-0.109c0.133-0.139,0.217-0.326,0.217-0.535
				c0-0.43-0.35-0.777-0.777-0.777c-0.08,0-0.154,0.016-0.225,0.037c-0.021-0.059-0.047-0.115-0.082-0.168
				c0.129-0.096,0.246-0.242,0.326-0.428c0.176-0.4,0.107-0.816-0.148-0.928c-0.258-0.111-0.607,0.121-0.783,0.523
				c-0.072,0.17-0.1,0.34-0.092,0.492c-0.406,0.025-0.727,0.359-0.727,0.771c0,0.02,0.004,0.039,0.006,0.057
				c-0.363,0.271-0.594,0.666-0.594,1.107c0,0.615,0.445,1.141,1.08,1.363c-0.041,0.104-0.061,0.213-0.061,0.326
				c0,0.598,0.572,1.08,1.279,1.08c0.477,0,0.891-0.219,1.111-0.543c0.223,0.324,0.637,0.543,1.111,0.543
				c0.084,0,0.166-0.008,0.244-0.02c0.135,0.477,0.641,0.832,1.246,0.832c0.344,0,0.654-0.115,0.885-0.299
				c0.313,0.404,0.854,0.674,1.469,0.674c0.828,0,1.523-0.486,1.705-1.139c0.232,0.211,0.564,0.346,0.936,0.346
				c0.707,0,1.281-0.484,1.281-1.08c0-0.141-0.033-0.273-0.09-0.396c0.029,0.002,0.061,0.002,0.09,0.002
				c0.709,0,1.281-0.482,1.281-1.078c0-0.025-0.002-0.049-0.004-0.074C43.174,108.48,43.355,108.125,43.355,107.736z"/>
			<path fill="#C1B49A" d="M42.182,97.805c0-0.48-0.336-0.893-0.818-1.084c0.008-0.164-0.055-0.375-0.189-0.572
				c-0.225-0.332-0.561-0.494-0.748-0.367c-0.189,0.129-0.158,0.5,0.068,0.832c0.014,0.02,0.027,0.037,0.043,0.055
				c-0.309,0.119-0.527,0.418-0.527,0.768c0,0.111,0.023,0.217,0.063,0.314c-0.322,0.068-0.572,0.322-0.637,0.646
				c-0.004,0-0.012-0.002-0.016-0.002c-0.248,0-0.467,0.111-0.619,0.285c-0.15-0.174-0.369-0.285-0.617-0.285
				c-0.455,0-0.824,0.369-0.824,0.824c0,0.006,0.002,0.012,0.002,0.018c-0.076-0.031-0.16-0.049-0.246-0.049
				c-0.129,0-0.244,0.037-0.344,0.102c-0.035-0.178-0.146-0.328-0.297-0.418c0.004-0.031,0.008-0.064,0.008-0.096
				c0-0.35-0.281-0.631-0.631-0.631c-0.275,0-0.506,0.176-0.592,0.424c-0.037-0.008-0.076-0.014-0.115-0.014
				c-0.225,0-0.42,0.117-0.531,0.293c-0.115-0.156-0.299-0.26-0.508-0.26c-0.158,0-0.303,0.061-0.412,0.156
				c-0.016-0.307-0.248-0.555-0.547-0.592c-0.006-0.031-0.014-0.061-0.023-0.088c0.109-0.113,0.176-0.268,0.176-0.436
				c0-0.35-0.283-0.631-0.631-0.631c-0.063,0-0.123,0.012-0.182,0.029c-0.018-0.049-0.039-0.094-0.066-0.135
				c0.104-0.08,0.199-0.197,0.266-0.348c0.141-0.324,0.086-0.662-0.123-0.754c-0.207-0.092-0.492,0.1-0.633,0.426
				c-0.061,0.137-0.082,0.277-0.076,0.398c-0.328,0.021-0.59,0.293-0.59,0.627c0,0.016,0.004,0.031,0.006,0.047
				c-0.297,0.219-0.484,0.539-0.484,0.896c0,0.5,0.363,0.926,0.877,1.107c-0.031,0.084-0.049,0.172-0.049,0.266
				c0,0.484,0.465,0.877,1.041,0.877c0.385,0,0.721-0.18,0.9-0.443c0.18,0.264,0.516,0.443,0.902,0.443
				c0.068,0,0.135-0.006,0.199-0.018c0.107,0.387,0.52,0.676,1.01,0.676c0.279,0,0.531-0.092,0.719-0.244
				c0.252,0.33,0.691,0.549,1.191,0.549c0.674,0,1.236-0.396,1.383-0.924c0.189,0.172,0.459,0.279,0.76,0.279
				c0.574,0,1.041-0.393,1.041-0.877c0-0.113-0.027-0.221-0.074-0.322c0.025,0.002,0.049,0.004,0.074,0.004
				c0.572,0,1.039-0.393,1.039-0.877c0-0.02-0.002-0.039-0.004-0.059C42.033,98.408,42.182,98.121,42.182,97.805z"/>
			<path fill="#C1B49A" d="M44.773,115.672c0-0.67-0.496-1.246-1.211-1.514c0.012-0.232-0.082-0.527-0.279-0.803
				c-0.336-0.463-0.832-0.691-1.111-0.512c-0.277,0.18-0.232,0.699,0.102,1.162c0.021,0.027,0.043,0.053,0.064,0.078
				c-0.455,0.168-0.779,0.584-0.779,1.072c0,0.156,0.031,0.305,0.092,0.439c-0.475,0.096-0.85,0.453-0.943,0.904
				c-0.008,0-0.016-0.002-0.021-0.002c-0.367,0-0.693,0.156-0.918,0.398c-0.223-0.242-0.549-0.398-0.914-0.398
				c-0.674,0-1.221,0.516-1.221,1.152c0,0.008,0.002,0.016,0.002,0.025c-0.111-0.045-0.234-0.07-0.365-0.07
				c-0.188,0-0.361,0.053-0.508,0.145c-0.053-0.25-0.217-0.459-0.441-0.586c0.008-0.043,0.016-0.088,0.016-0.135
				c0-0.486-0.418-0.883-0.936-0.883c-0.408,0-0.75,0.248-0.879,0.594c-0.055-0.012-0.111-0.018-0.17-0.018
				c-0.33,0-0.621,0.164-0.785,0.41c-0.172-0.221-0.443-0.365-0.754-0.365c-0.234,0-0.445,0.084-0.609,0.219
				c-0.023-0.428-0.367-0.773-0.811-0.828c-0.008-0.043-0.02-0.082-0.035-0.123c0.16-0.158,0.26-0.373,0.26-0.607
				c0-0.488-0.418-0.885-0.934-0.885c-0.094,0-0.184,0.018-0.268,0.043c-0.027-0.066-0.059-0.131-0.1-0.189
				c0.154-0.109,0.297-0.275,0.393-0.484c0.209-0.457,0.129-0.928-0.18-1.055s-0.73,0.139-0.939,0.594
				c-0.088,0.193-0.123,0.387-0.111,0.559c-0.486,0.029-0.873,0.408-0.873,0.877c0,0.021,0.004,0.043,0.006,0.064
				c-0.438,0.307-0.715,0.756-0.715,1.256c0,0.697,0.537,1.295,1.299,1.547c-0.047,0.117-0.072,0.242-0.072,0.371
				c0,0.678,0.689,1.227,1.539,1.227c0.572,0,1.07-0.25,1.336-0.617c0.266,0.367,0.764,0.617,1.336,0.617
				c0.102,0,0.199-0.01,0.293-0.023c0.16,0.541,0.77,0.945,1.5,0.945c0.41,0,0.785-0.131,1.061-0.34
				c0.377,0.459,1.025,0.764,1.766,0.764c0.996,0,1.83-0.551,2.049-1.291c0.281,0.24,0.682,0.393,1.125,0.393
				c0.852,0,1.541-0.551,1.541-1.227c0-0.158-0.039-0.311-0.109-0.451c0.037,0.002,0.072,0.004,0.109,0.004
				c0.852,0,1.539-0.547,1.539-1.225c0-0.027-0.002-0.055-0.004-0.084C44.557,116.518,44.773,116.115,44.773,115.672z"/>
		</g>
		<path fill="#231E1E" d="M55.227-27.896v-0.357c-0.044,0.057-0.085,0.115-0.129,0.18c-0.044-0.064-0.087-0.123-0.13-0.18v0.357
			C24.875,14.195,48.031,88.111,48.031,88.111h6.937h0.259h6.937C62.163,88.111,85.321,14.195,55.227-27.896z"/>
		<g>
			<defs>
				<rect id="SVGID_13_" x="40.571" y="-17.916" width="29.388" height="10.207"/>
			</defs>
			<clipPath id="SVGID_14_">
				<use xlink:href="#SVGID_13_"  overflow="visible"/>
			</clipPath>
			<path clip-path="url(#SVGID_14_)" fill="#F4F4F4" d="M55.227-27.896v-0.357c-0.044,0.057-0.085,0.115-0.129,0.18
				c-0.044-0.064-0.087-0.123-0.13-0.18v0.357C24.875,14.195,48.031,88.111,48.031,88.111h6.937h0.259h6.937
				C62.163,88.111,85.321,14.195,55.227-27.896z"/>
		</g>
		<g>
			<defs>
				<rect id="SVGID_15_" x="38.216" y="35.573" width="35.612" height="14.195"/>
			</defs>
			<clipPath id="SVGID_16_">
				<use xlink:href="#SVGID_15_"  overflow="visible"/>
			</clipPath>
			<path clip-path="url(#SVGID_16_)" fill="#F4F4F4" d="M55.227-27.896v-0.357c-0.044,0.057-0.085,0.115-0.129,0.18
				c-0.044-0.064-0.087-0.123-0.13-0.18v0.357C24.875,14.195,48.031,88.111,48.031,88.111h6.937h0.259h6.937
				C62.163,88.111,85.321,14.195,55.227-27.896z"/>
		</g>
		<g>
			<defs>
				<rect id="SVGID_17_" x="42.192" y="71.176" width="28.523" height="20.129"/>
			</defs>
			<clipPath id="SVGID_18_">
				<use xlink:href="#SVGID_17_"  overflow="visible"/>
			</clipPath>
			<path clip-path="url(#SVGID_18_)" fill="#F4F4F4" d="M55.227-27.896v-0.357c-0.044,0.057-0.085,0.115-0.129,0.18
				c-0.044-0.064-0.087-0.123-0.13-0.18v0.357C24.875,14.195,48.031,88.111,48.031,88.111h6.937h0.259h6.937
				C62.163,88.111,85.321,14.195,55.227-27.896z"/>
		</g>
		<linearGradient id="SVGID_19_" gradientUnits="userSpaceOnUse" x1="45.1318" y1="28.1372" x2="59.8264" y2="-30.3146">
			<stop  offset="0" style="stop-color:#FFFFFF;stop-opacity:0"/>
			<stop  offset="1" style="stop-color:#FFFFFF"/>
		</linearGradient>
		<path fill="url(#SVGID_19_)" d="M53.924-23.365c0,0-10.871,14.662-11.731,65.005h5.866C48.059,41.64,45.25,23.254,53.924-23.365z"
			/>
		<g>
			<ellipse fill="#FFFFFF" cx="44.142" cy="51.404" rx="0.935" ry="1.137"/>
			<ellipse fill="#FFFFFF" cx="46.844" cy="51.404" rx="0.934" ry="1.137"/>
			<ellipse fill="#FFFFFF" cx="49.546" cy="51.404" rx="0.934" ry="1.137"/>
			<ellipse fill="#FFFFFF" cx="52.249" cy="51.404" rx="0.934" ry="1.137"/>
			<ellipse fill="#FFFFFF" cx="58.39" cy="51.404" rx="0.934" ry="1.137"/>
			<ellipse fill="#FFFFFF" cx="55.443" cy="51.404" rx="0.934" ry="1.137"/>
			<ellipse fill="#FFFFFF" cx="61.092" cy="51.404" rx="0.934" ry="1.137"/>
			<ellipse fill="#FFFFFF" cx="63.795" cy="51.404" rx="0.934" ry="1.137"/>
			<ellipse fill="#FFFFFF" cx="66.498" cy="51.404" rx="0.934" ry="1.137"/>
		</g>
		<g>
			<path fill="#FFFFFF" d="M45.076,33.921c0,0.627-0.419,1.139-0.934,1.139c-0.517,0-0.936-0.512-0.936-1.139
				c0-0.626,0.419-1.136,0.936-1.136C44.657,32.785,45.076,33.295,45.076,33.921z"/>
			<path fill="#FFFFFF" d="M47.777,33.921c0,0.627-0.418,1.139-0.932,1.139c-0.518,0-0.936-0.512-0.936-1.139
				c0-0.626,0.418-1.136,0.936-1.136C47.359,32.785,47.777,33.295,47.777,33.921z"/>
			<path fill="#FFFFFF" d="M50.48,33.921c0,0.627-0.418,1.139-0.934,1.139s-0.935-0.512-0.935-1.139
				c0-0.626,0.419-1.136,0.935-1.136S50.48,33.295,50.48,33.921z"/>
			<path fill="#FFFFFF" d="M53.183,33.921c0,0.627-0.417,1.139-0.935,1.139c-0.516,0-0.934-0.512-0.934-1.139
				c0-0.626,0.418-1.136,0.934-1.136C52.766,32.785,53.183,33.295,53.183,33.921z"/>
			<path fill="#FFFFFF" d="M59.324,33.921c0,0.627-0.418,1.139-0.934,1.139s-0.935-0.512-0.935-1.139
				c0-0.626,0.419-1.136,0.935-1.136S59.324,33.295,59.324,33.921z"/>
			<path fill="#FFFFFF" d="M56.377,33.921c0,0.627-0.419,1.139-0.935,1.139c-0.515,0-0.934-0.512-0.934-1.139
				c0-0.626,0.419-1.136,0.934-1.136C55.958,32.785,56.377,33.295,56.377,33.921z"/>
			<path fill="#FFFFFF" d="M62.026,33.921c0,0.627-0.419,1.139-0.934,1.139s-0.935-0.512-0.935-1.139
				c0-0.626,0.42-1.136,0.935-1.136S62.026,33.295,62.026,33.921z"/>
			<path fill="#FFFFFF" d="M64.729,33.921c0,0.627-0.418,1.139-0.934,1.139s-0.934-0.512-0.934-1.139
				c0-0.626,0.418-1.136,0.934-1.136S64.729,33.295,64.729,33.921z"/>
			<path fill="#FFFFFF" d="M67.432,33.921c0,0.627-0.418,1.139-0.934,1.139c-0.517,0-0.935-0.512-0.935-1.139
				c0-0.626,0.418-1.136,0.935-1.136C67.014,32.785,67.432,33.295,67.432,33.921z"/>
		</g>
		<path fill="#A6A8AB" d="M53.291-25.43c0,0,0.271,1.049,1.807,1.049v-20.078h-0.455C54.643-44.459,54.361-27.932,53.291-25.43z"/>
		<path fill="#F4F4F4" d="M56.811-25.43c0,0-0.269,1.049-1.805,1.049v-20.078h0.455C55.461-44.459,55.742-27.932,56.811-25.43z"/>
		<g>
			<circle fill="#A6A8AB" cx="54.783" cy="9.146" r="6.491"/>
			<circle fill="#B9E3ED" cx="54.783" cy="9.148" r="5.798"/>
			<g>
				<defs>
					<path id="SVGID_20_" d="M47.148,13.445c0,0,13.727-3,14.125-9.492c0.398-6.49,3.32,6.006,3.32,6.006l-2.84,7.588l-10.225,1.176
						L47.148,13.445z"/>
				</defs>
				<clipPath id="SVGID_21_">
					<use xlink:href="#SVGID_20_"  overflow="visible"/>
				</clipPath>
				<circle clip-path="url(#SVGID_21_)" fill="#E5F3F2" cx="54.783" cy="9.148" r="5.798"/>
			</g>
		</g>
		<g>
			<path opacity="0.2" fill="#231E1E" d="M46.795,68.395c0,0,1.64,13.711,3.277,19.781l5.799-1.383L55.32,69.002L46.795,68.395z"/>
			<path opacity="0.2" fill="#231E1E" d="M63.758,68.395c0,0-1.64,13.711-3.277,19.781l-5.798-1.383l0.551-17.791L63.758,68.395z"/>
			<g>
				<path fill="#F4F4F4" d="M60.43,57.332c-0.042-0.197-0.098-0.389-0.164-0.578c-0.02-0.064-0.035-0.131-0.056-0.195h-0.021
					c-0.746-1.855-2.643-3.178-4.871-3.178s-4.125,1.322-4.87,3.178h-0.02c-0.02,0.064-0.036,0.127-0.056,0.191
					c-0.066,0.191-0.123,0.385-0.165,0.588c-5.428,18.943,1.878,42.295,1.878,42.295h3.174h0.118h3.175
					C58.553,99.633,65.861,76.277,60.43,57.332z"/>
				<g opacity="0.4">
					<defs>
						<path id="SVGID_22_" opacity="0.4" d="M60.43,57.332c-0.042-0.197-0.098-0.389-0.164-0.578
							c-0.02-0.064-0.035-0.131-0.056-0.195h-0.021c-0.746-1.855-2.643-3.178-4.871-3.178s-4.125,1.322-4.87,3.178h-0.02
							c-0.02,0.064-0.036,0.127-0.056,0.191c-0.066,0.191-0.123,0.385-0.165,0.588c-5.428,18.943,1.878,42.295,1.878,42.295h3.174
							h0.118h3.175C58.553,99.633,65.861,76.277,60.43,57.332z"/>
					</defs>
					<clipPath id="SVGID_23_">
						<use xlink:href="#SVGID_22_"  overflow="visible"/>
					</clipPath>
					<path opacity="0.4" clip-path="url(#SVGID_23_)" fill="#838383" d="M50.779,46.621c0,0,12.377,35.723,6.281,55.781l5.377-2.77
						l2.857-47.791L50.779,46.621z"/>
				</g>
			</g>
		</g>
		<g>
			<polygon fill="#231E1E" points="41.541,80.615 45.979,80.537 45.191,77.324 41.541,77.324 			"/>
			<g>
				<path fill="#F4F4F4" d="M31.586,51.057c0.042-0.195,0.098-0.389,0.164-0.576c0.02-0.066,0.035-0.132,0.056-0.197h0.021
					c0.744-1.856,2.643-3.178,4.871-3.178s4.125,1.321,4.869,3.178h0.021c0.019,0.063,0.035,0.128,0.056,0.193
					c0.065,0.191,0.123,0.385,0.165,0.586c5.428,18.945-1.878,42.297-1.878,42.297h-3.174h-0.118h-3.175
					C33.463,93.359,26.155,70.004,31.586,51.057z"/>
				<g opacity="0.4">
					<defs>
						<path id="SVGID_24_" opacity="0.4" d="M31.586,51.057c0.042-0.195,0.098-0.389,0.164-0.576
							c0.02-0.066,0.035-0.132,0.056-0.197h0.021c0.744-1.856,2.643-3.178,4.871-3.178s4.125,1.321,4.869,3.178h0.021
							c0.019,0.063,0.035,0.128,0.056,0.193c0.065,0.191,0.123,0.385,0.165,0.586c5.428,18.945-1.878,42.297-1.878,42.297h-3.174
							h-0.118h-3.175C33.463,93.359,26.155,70.004,31.586,51.057z"/>
					</defs>
					<clipPath id="SVGID_25_">
						<use xlink:href="#SVGID_24_"  overflow="visible"/>
					</clipPath>
					<path opacity="0.4" clip-path="url(#SVGID_25_)" fill="#838383" d="M41.236,40.345c0,0-12.377,35.726-6.28,55.782l-5.378-2.768
						l-2.857-47.791L41.236,40.345z"/>
				</g>
			</g>
		</g>
		<polygon fill="#231E1E" points="32.854,91.719 40.41,91.719 39.985,93.645 33.284,93.645 		"/>
		<polygon fill="#231E1E" points="51.477,97.992 59.033,97.992 58.608,99.918 51.908,99.918 		"/>
	</g>
</g>
</svg>
