<?xml version="1.0" encoding="utf-8"?>
<!-- Generator: Adobe Illustrator 16.0.3, SVG Export Plug-In . SVG Version: 6.00 Build 0)  -->
<!DOCTYPE svg PUBLIC "-//W3C//DTD SVG 1.1//EN" "http://www.w3.org/Graphics/SVG/1.1/DTD/svg11.dtd">
<svg version="1.1" id="Layer_1" xmlns="http://www.w3.org/2000/svg" xmlns:xlink="http://www.w3.org/1999/xlink" x="0px" y="0px"
	 width="45.471px" height="58.708px" viewBox="17.375 -51.75 45.471 58.708" enable-background="new 17.375 -51.75 45.471 58.708"
	 xml:space="preserve">
<g>
	<rect x="25.239" y="-51.75" fill="#002C3D" width="2.23" height="33.5"/>
	<rect x="52.679" y="-51.75" fill="#002C3D" width="2.23" height="33.5"/>
	
		<rect x="39.33" y="-55.175" transform="matrix(0.7067 -0.7075 0.7075 0.7067 36.4724 18.016)" fill="#002C3D" width="1.274" height="40.382"/>
	
		<rect x="39.328" y="-55.175" transform="matrix(0.7075 0.7067 -0.7067 0.7075 -13.0339 -38.4781)" fill="#002C3D" width="1.275" height="40.382"/>
	<rect x="25.979" y="-35.622" fill="#002C3D" width="28.334" height="1.275"/>
	<polygon fill="#002C3D" points="26.354,-50.416 17.375,-41.437 17.375,-36.083 23.479,-36.083 24.479,-33.833 24.479,-31.75 
		23.146,-30.417 23.146,-27.333 24.271,-26.208 24.271,-24.666 23.042,-23.437 23.042,-21.416 25.677,-18.781 	"/>
	<polygon fill="#002C3D" points="53.794,-50.416 62.773,-41.437 62.773,-36.083 56.669,-36.083 55.669,-33.833 55.669,-31.75 
		57.003,-30.417 57.003,-27.333 55.878,-26.208 55.878,-24.666 57.106,-23.437 57.106,-21.416 54.472,-18.781 	"/>
	<g>
		<rect x="52.751" y="-26.542" fill="#002C3D" width="2.229" height="33.5"/>
		<rect x="25.312" y="-26.542" fill="#002C3D" width="2.229" height="33.5"/>
		
			<rect x="39.616" y="-29.998" transform="matrix(-0.7071 0.7071 -0.7071 -0.7071 61.781 -45.2058)" fill="#002C3D" width="1.275" height="40.381"/>
		
			<rect x="39.618" y="-29.998" transform="matrix(-0.7071 -0.7071 0.7071 -0.7071 75.6544 11.7219)" fill="#002C3D" width="1.275" height="40.381"/>
		<rect x="25.907" y="-10.445" fill="#002C3D" width="28.334" height="1.275"/>
		<polygon fill="#002C3D" points="53.866,5.624 62.845,-3.355 62.845,-8.709 56.741,-8.709 55.741,-10.959 55.741,-13.042 
			57.075,-14.375 57.075,-17.459 55.949,-18.584 55.949,-20.126 57.179,-21.355 57.179,-23.376 54.543,-26.011 		"/>
		<polygon fill="#002C3D" points="26.427,5.624 17.446,-3.355 17.446,-8.709 23.551,-8.709 24.551,-10.959 24.551,-13.042 
			23.218,-14.375 23.218,-17.459 24.343,-18.584 24.343,-20.126 23.114,-21.355 23.114,-23.376 25.749,-26.011 		"/>
	</g>
</g>
</svg>
