<?xml version="1.0" encoding="utf-8"?>
<!-- Generator: Adobe Illustrator 16.0.3, SVG Export Plug-In . SVG Version: 6.00 Build 0)  -->
<!DOCTYPE svg PUBLIC "-//W3C//DTD SVG 1.1//EN" "http://www.w3.org/Graphics/SVG/1.1/DTD/svg11.dtd">
<svg version="1.1" id="Layer_1" xmlns="http://www.w3.org/2000/svg" xmlns:xlink="http://www.w3.org/1999/xlink" x="0px" y="0px"
	 width="21.125px" height="50.75px" viewBox="17.375 -51.75 21.125 50.75" enable-background="new 17.375 -51.75 21.125 50.75"
	 xml:space="preserve">
<g>
	<g>
		<polygon fill="#231E1E" points="31.998,-16.195 36.436,-16.273 35.65,-19.484 31.998,-19.484 		"/>
		<g>
			<path fill="#F4F4F4" d="M22.045-45.753c0.041-0.195,0.098-0.389,0.164-0.575c0.018-0.066,0.035-0.132,0.055-0.197h0.021
				c0.744-1.856,2.642-3.178,4.87-3.178s4.125,1.321,4.87,3.178h0.02c0.02,0.063,0.035,0.128,0.055,0.192
				c0.066,0.191,0.124,0.385,0.166,0.587c5.428,18.946-1.878,42.297-1.878,42.297h-3.173h-0.119h-3.175
				C23.921-3.449,16.613-26.805,22.045-45.753z"/>
			<g opacity="0.4">
				<defs>
					<path id="SVGID_1_" opacity="0.4" d="M22.045-45.753c0.041-0.195,0.098-0.389,0.164-0.575c0.018-0.066,0.035-0.132,0.055-0.197
						h0.021c0.744-1.856,2.642-3.178,4.87-3.178s4.125,1.321,4.87,3.178h0.02c0.02,0.063,0.035,0.128,0.055,0.192
						c0.066,0.191,0.124,0.385,0.166,0.587c5.428,18.946-1.878,42.297-1.878,42.297h-3.173h-0.119h-3.175
						C23.921-3.449,16.613-26.805,22.045-45.753z"/>
				</defs>
				<clipPath id="SVGID_2_">
					<use xlink:href="#SVGID_1_"  overflow="visible"/>
				</clipPath>
				<path opacity="0.4" clip-path="url(#SVGID_2_)" fill="#838383" d="M31.695-56.464c0,0-12.377,35.724-6.281,55.781l-5.377-2.766
					L17.18-51.241L31.695-56.464z"/>
			</g>
		</g>
	</g>
	<polygon fill="#231E1E" points="23.311,-5.091 30.868,-5.091 30.443,-3.165 23.742,-3.165 	"/>
</g>
</svg>
