<?xml version="1.0" encoding="utf-8"?>
<!-- Generator: Adobe Illustrator 16.0.3, SVG Export Plug-In . SVG Version: 6.00 Build 0)  -->
<!DOCTYPE svg PUBLIC "-//W3C//DTD SVG 1.1//EN" "http://www.w3.org/Graphics/SVG/1.1/DTD/svg11.dtd">
<svg version="1.1" id="Layer_1" xmlns="http://www.w3.org/2000/svg" xmlns:xlink="http://www.w3.org/1999/xlink" x="0px" y="0px"
	 width="37.965px" height="42.44px" viewBox="12.75 12.625 37.965 42.44" enable-background="new 12.75 12.625 37.965 42.44"
	 xml:space="preserve">
<g>
	<g opacity="0.4">
		<polygon fill="#020203" points="26.982,28.536 29.473,15.165 37.609,25.47 49.945,23.94 43.549,35.634 48.682,48.062 
			36.588,44.983 27.428,54.19 26.35,40.596 15.554,33.862 		"/>
	</g>
	<g>
		<polygon fill="#FCCD07" points="25.91,28.197 28.4,14.827 36.537,25.132 48.873,23.602 42.477,35.296 47.609,47.724 
			35.516,44.644 26.355,53.852 25.277,40.257 14.482,33.523 		"/>
		<path fill="#FFE682" d="M29.484,20.833l-1.723,8.67l-8.842,4.5c0,0,9.475-1.707,10.254-5.053
			C29.951,25.604,29.484,20.833,29.484,20.833z"/>
		<g>
			<defs>
				<path id="SVGID_1_" d="M23.092,51.625c0,0,21.727-18.079,21.961-30.235l4.172-0.031l2.816,6.701l-2.996,20.188L25.74,55.065
					L23.092,51.625z"/>
			</defs>
			<clipPath id="SVGID_2_">
				<use xlink:href="#SVGID_1_"  overflow="visible"/>
			</clipPath>
			<polygon clip-path="url(#SVGID_2_)" fill="#FABC14" points="25.91,28.197 28.4,14.827 36.537,25.132 48.873,23.602 
				42.477,35.296 47.609,47.724 35.516,44.644 26.355,53.852 25.277,40.257 14.482,33.523 			"/>
		</g>
	</g>
</g>
</svg>
