<?xml version="1.0" encoding="utf-8"?>
<!-- Generator: Adobe Illustrator 16.0.3, SVG Export Plug-In . SVG Version: 6.00 Build 0)  -->
<!DOCTYPE svg PUBLIC "-//W3C//DTD SVG 1.1//EN" "http://www.w3.org/Graphics/SVG/1.1/DTD/svg11.dtd">
<svg version="1.1" id="Layer_1" xmlns="http://www.w3.org/2000/svg" xmlns:xlink="http://www.w3.org/1999/xlink" x="0px" y="0px"
	 width="1806px" height="648px" viewBox="0 0 1806 648" enable-background="new 0 0 1806 648" xml:space="preserve">
<g>
	<g opacity="0.9936" enable-background="new    ">
		<polygon fill="#F9ED32" points="60.494,63.998 50.011,60.821 41.451,67.655 41.233,56.704 32.089,50.675 42.437,47.083 
			45.345,36.523 51.958,45.254 62.899,44.757 56.639,53.745 		"/>
	</g>
	<g opacity="0.9883" enable-background="new    ">
		<polygon fill="#FFDE17" points="734.263,461.732 723.78,458.556 715.221,465.39 715.002,454.438 705.857,448.409 716.206,444.818 
			719.113,434.258 725.727,442.99 736.669,442.492 730.408,451.479 		"/>
	</g>
	<g opacity="0.9921" enable-background="new    ">
		<polygon fill="#FFDE17" points="340.236,140.1 329.753,136.923 321.193,143.757 320.976,132.806 311.831,126.777 322.179,123.186 
			325.087,112.625 331.7,121.357 342.642,120.859 336.382,129.847 		"/>
	</g>
	<g opacity="0.9989" enable-background="new    ">
		<polygon fill="#F9ED32" points="497.097,382.253 486.614,379.076 478.055,385.91 477.837,374.959 468.691,368.93 479.04,365.338 
			481.947,354.778 488.561,363.51 499.503,363.012 493.242,372 		"/>
	</g>
	<g opacity="0.9851" enable-background="new    ">
		<polygon fill="#FFFFFF" points="862.733,172.147 852.25,168.971 843.69,175.805 843.473,164.854 834.328,158.824 844.676,155.233 
			847.584,144.673 854.197,153.405 865.14,152.907 858.878,161.895 		"/>
	</g>
	<g opacity="0.991" enable-background="new    ">
		<polygon fill="#FFFFFF" points="637.766,155.666 627.283,152.489 618.724,159.323 618.505,148.372 609.36,142.343 
			619.709,138.752 622.616,128.191 629.229,136.923 640.172,136.425 633.911,145.413 		"/>
	</g>
	<g opacity="0.9938" enable-background="new    ">
		<polygon fill="#F8F6C2" points="430.828,220.541 420.346,217.364 411.786,224.198 411.568,213.247 402.423,207.218 
			412.771,203.627 415.68,193.066 422.292,201.798 433.234,201.3 426.974,210.288 		"/>
	</g>
	<g opacity="0.9946" enable-background="new    ">
		<polygon fill="#F3F095" points="276.046,54.787 261.808,50.471 250.182,59.754 249.886,44.879 237.465,36.69 251.52,31.813 
			255.47,17.469 264.452,29.329 279.314,28.653 270.811,40.861 		"/>
	</g>
	<g opacity="0.9924" enable-background="new    ">
		<polygon fill="#F3F095" points="619.096,337.308 604.857,332.992 593.231,342.275 592.936,327.4 580.515,319.211 594.57,314.334 
			598.52,299.99 607.502,311.85 622.364,311.174 613.86,323.381 		"/>
	</g>
	<g opacity="0.9985" enable-background="new    ">
		<polygon fill="#FFDE17" points="811.574,609.979 797.337,605.664 785.71,614.947 785.414,600.072 772.993,591.883 
			787.049,587.005 790.998,572.662 799.98,584.521 814.843,583.846 806.339,596.053 		"/>
	</g>
	<path opacity="0.9992" fill="#F8F6C2" enable-background="new    " d="M882.797,63.968l-14.238-4.315l-11.626,9.283l-0.296-14.875
		l-12.421-8.189l14.055-4.878l3.95-14.344l8.982,11.86l14.861-0.676l-8.503,12.208L882.797,63.968z"/>
	<g opacity="0.9855" enable-background="new    ">
		<polygon fill="#F8F6C2" points="501.754,602.332 487.516,598.016 475.89,607.299 475.594,592.424 463.173,584.235 
			477.228,579.357 481.178,565.014 490.16,576.874 505.021,576.197 496.519,588.405 		"/>
	</g>
	<g>
		<polygon fill="#FFFFFF" points="309.795,276.302 311.538,264.729 300.052,262.486 311.625,264.229 313.868,252.743 
			312.124,264.316 323.61,266.559 312.038,264.815 		"/>
	</g>
	<g>
		<polygon fill="#FFFFFF" points="656.533,591.453 658.277,579.88 646.791,577.637 658.363,579.381 660.606,567.895 
			658.863,579.467 670.35,581.71 658.776,579.967 		"/>
	</g>
	<g>
		<polygon fill="#FFFFFF" points="514.764,251.143 516.508,239.57 505.021,237.328 516.595,239.071 518.837,227.585 
			517.094,239.158 528.579,241.401 517.007,239.657 		"/>
	</g>
	<g>
		<polygon fill="#FFFFFF" points="754.521,280.302 756.265,268.73 744.779,266.487 756.352,268.23 758.595,256.744 756.851,268.317 
			768.337,270.56 756.764,268.816 		"/>
	</g>
	<g>
		<polygon fill="#FFFFFF" points="413.052,59.571 414.795,47.999 403.31,45.756 414.882,47.5 417.125,36.013 415.381,47.586 
			426.867,49.829 415.294,48.085 		"/>
	</g>
	<g>
		<polygon fill="#FFFFFF" points="247.207,562.642 248.951,551.068 237.465,548.826 249.038,550.569 251.281,539.083 
			249.537,550.656 261.023,552.898 249.45,551.155 		"/>
	</g>
	<g>
		<polygon fill="#FFFFFF" points="692.041,83.191 693.785,71.618 682.299,69.375 693.872,71.119 696.115,59.632 694.371,71.205 
			705.857,73.448 694.284,71.705 		"/>
	</g>
	<g opacity="0.9896" enable-background="new    ">
		<polygon fill="#FFFFFF" points="1037.134,298.017 1026.65,294.839 1018.091,301.674 1017.873,290.722 1008.729,284.693 
			1019.076,281.102 1021.984,270.542 1028.598,279.273 1039.539,278.776 1033.278,287.764 		"/>
	</g>
	<g opacity="0.9634" enable-background="new    ">
		<polygon fill="#FFFFFF" points="1052.539,574.551 1042.057,571.374 1033.496,578.208 1033.278,567.256 1024.134,561.228 
			1034.481,557.637 1037.39,547.076 1044.003,555.808 1054.945,555.311 1048.685,564.298 		"/>
	</g>
	<g opacity="0.9936" enable-background="new    ">
		<polygon fill="#F9ED32" points="878.141,384.041 867.657,380.865 859.098,387.699 858.88,376.748 849.735,370.719 
			860.083,367.127 862.991,356.566 869.604,365.299 880.546,364.801 874.285,373.789 		"/>
	</g>
	<path opacity="0.9974" fill="#F9ED32" enable-background="new    " d="M1086.925,451.41l-10.482-3.178l-8.56,6.835l-0.218-10.952
		l-9.146-6.028l10.349-3.591l2.908-10.561l6.613,8.731l10.941-0.497l-6.261,8.987L1086.925,451.41z"/>
	<g opacity="0.9883" enable-background="new    ">
		<polygon fill="#FFDE17" points="955.598,513.83 945.115,510.653 936.556,517.487 936.337,506.536 927.192,500.507 
			937.541,496.916 940.448,486.355 947.062,495.088 958.004,494.59 951.743,503.577 		"/>
	</g>
	<g opacity="0.9921" enable-background="new    ">
		<polygon fill="#FFDE17" points="1243.159,140.1 1232.676,136.923 1224.116,143.757 1223.898,132.806 1214.754,126.777 
			1225.102,123.186 1228.01,112.625 1234.623,121.357 1245.564,120.859 1239.305,129.847 		"/>
	</g>
	<g opacity="0.9989" enable-background="new    ">
		<polygon fill="#F9ED32" points="1400.02,366.688 1389.537,363.51 1380.978,370.344 1380.76,359.393 1371.614,353.363 
			1381.963,349.772 1384.87,339.213 1391.483,347.943 1402.426,347.446 1396.165,356.434 		"/>
	</g>
	<g opacity="0.9851" enable-background="new    ">
		<polygon fill="#FFFFFF" points="1765.656,172.147 1755.173,168.971 1746.613,175.805 1746.396,164.854 1737.251,158.824 
			1747.599,155.233 1750.507,144.673 1757.12,153.405 1768.063,152.907 1761.801,161.895 		"/>
	</g>
	<g opacity="0.991" enable-background="new    ">
		<polygon fill="#FFFFFF" points="1436.35,99.292 1425.867,96.115 1417.308,102.949 1417.089,91.998 1407.944,85.968 
			1418.293,82.377 1421.2,71.817 1427.813,80.548 1438.756,80.051 1432.495,89.039 		"/>
	</g>
	<g opacity="0.9938" enable-background="new    ">
		<polygon fill="#F8F6C2" points="1333.751,220.541 1323.269,217.364 1314.709,224.198 1314.491,213.247 1305.346,207.218 
			1315.694,203.627 1318.603,193.066 1325.215,201.798 1336.157,201.3 1329.896,210.288 		"/>
	</g>
	<g opacity="0.9946" enable-background="new    ">
		<polygon fill="#F3F095" points="1036.271,149.717 1022.032,145.401 1010.406,154.685 1010.11,139.81 997.689,131.621 
			1011.744,126.743 1015.694,112.399 1024.677,124.259 1039.539,123.583 1031.035,135.791 		"/>
	</g>
	<g opacity="0.9924" enable-background="new    ">
		<polygon fill="#F3F095" points="1522.019,337.308 1507.78,332.992 1496.154,342.275 1495.858,327.4 1483.438,319.211 
			1497.493,314.334 1501.442,299.99 1510.425,311.85 1525.287,311.174 1516.783,323.381 		"/>
	</g>
	<g opacity="0.9985" enable-background="new    ">
		<polygon fill="#FFDE17" points="1714.497,609.979 1700.26,605.664 1688.633,614.947 1688.337,600.072 1675.916,591.883 
			1689.972,587.005 1693.921,572.662 1702.903,584.521 1717.766,583.846 1709.262,596.053 		"/>
	</g>
	<path opacity="0.9992" fill="#F8F6C2" enable-background="new    " d="M1785.72,63.968l-14.238-4.315l-11.626,9.283l-0.296-14.875
		l-12.421-8.189l14.055-4.878l3.95-14.344l8.982,11.86l14.861-0.676l-8.503,12.208L1785.72,63.968z"/>
	<g opacity="0.9855" enable-background="new    ">
		<polygon fill="#F8F6C2" points="1404.677,602.332 1390.438,598.016 1378.813,607.299 1378.517,592.424 1366.096,584.235 
			1380.15,579.357 1384.101,565.014 1393.083,576.874 1407.944,576.197 1399.441,588.405 		"/>
	</g>
	<g>
		<polygon fill="#FFFFFF" points="1212.718,276.302 1214.461,264.729 1202.975,262.486 1214.548,264.229 1216.791,252.743 
			1215.047,264.316 1226.533,266.559 1214.961,264.815 		"/>
	</g>
	<g>
		<polygon fill="#FFFFFF" points="1559.456,591.453 1561.2,579.88 1549.714,577.637 1561.286,579.381 1563.529,567.895 
			1561.786,579.467 1573.272,581.71 1561.699,579.967 		"/>
	</g>
	<g>
		<polygon fill="#FFFFFF" points="1417.687,251.143 1419.431,239.57 1407.944,237.328 1419.518,239.071 1421.76,227.585 
			1420.017,239.158 1431.502,241.401 1419.93,239.657 		"/>
	</g>
	<g>
		<polygon fill="#FFFFFF" points="1657.444,280.302 1659.188,268.73 1647.702,266.487 1659.274,268.23 1661.518,256.744 
			1659.773,268.317 1671.26,270.56 1659.687,268.816 		"/>
	</g>
	<g>
		<polygon fill="#FFFFFF" points="1315.975,59.571 1317.718,47.999 1306.232,45.756 1317.805,47.5 1320.048,36.013 1318.304,47.586 
			1329.79,49.829 1318.217,48.085 		"/>
	</g>
	<g>
		<polygon fill="#FFFFFF" points="1158.564,368.346 1160.309,356.773 1148.822,354.53 1160.395,356.274 1162.638,344.788 
			1160.895,356.361 1172.381,358.604 1160.808,356.86 		"/>
	</g>
	<g>
		<polygon fill="#FFFFFF" points="1315.974,461.603 1317.718,450.029 1306.231,447.787 1317.804,449.53 1320.047,438.045 
			1318.304,449.617 1329.79,451.859 1318.217,450.116 		"/>
	</g>
	<g>
		<polygon fill="#FFFFFF" points="1113.088,520.379 1114.832,508.806 1103.346,506.563 1114.919,508.307 1117.162,496.82 
			1115.418,508.394 1126.904,510.637 1115.331,508.893 		"/>
	</g>
	<g>
		<polygon fill="#FFFFFF" points="1594.964,83.191 1596.708,71.618 1585.222,69.375 1596.795,71.119 1599.038,59.632 
			1597.294,71.205 1608.78,73.448 1597.207,71.705 		"/>
	</g>
	<g opacity="0.9896" enable-background="new    ">
		<polygon fill="#FFFFFF" points="144.097,391.124 133.613,387.947 125.054,394.781 124.836,383.83 115.691,377.801 
			126.039,374.209 128.947,363.648 135.561,372.381 146.502,371.883 140.241,380.871 		"/>
	</g>
	<g opacity="0.9634" enable-background="new    ">
		<polygon fill="#FFFFFF" points="339.168,431.26 328.686,428.083 320.125,434.917 319.907,423.965 310.763,417.937 321.11,414.346 
			324.019,403.785 330.632,412.517 341.574,412.02 335.313,421.007 		"/>
	</g>
	<path opacity="0.9974" fill="#F9ED32" enable-background="new    " d="M199.407,426.107l-10.482-3.178l-8.56,6.834l-0.218-10.951
		l-9.146-6.029l10.349-3.591l2.908-10.56l6.613,8.73l10.941-0.497l-6.261,8.987L199.407,426.107z"/>
	<g>
		<polygon fill="#FFFFFF" points="240.189,398.536 241.934,386.963 230.447,384.721 242.02,386.465 244.263,374.979 242.52,386.551 
			254.006,388.794 242.433,387.051 		"/>
	</g>
	<g>
		<polygon fill="#FFFFFF" points="415.791,439.502 417.535,427.929 406.049,425.686 417.621,427.43 419.864,415.943 
			418.121,427.516 429.607,429.759 418.034,428.016 		"/>
	</g>
</g>
</svg>
