<?xml version="1.0" encoding="utf-8"?>
<!-- Generator: Adobe Illustrator 16.0.3, SVG Export Plug-In . SVG Version: 6.00 Build 0)  -->
<!DOCTYPE svg PUBLIC "-//W3C//DTD SVG 1.1//EN" "http://www.w3.org/Graphics/SVG/1.1/DTD/svg11.dtd">
<svg version="1.1" id="Layer_1" xmlns="http://www.w3.org/2000/svg" xmlns:xlink="http://www.w3.org/1999/xlink" x="0px" y="0px"
	 width="330.682px" height="333.643px" viewBox="-84.682 -135 330.682 333.643"
	 enable-background="new -84.682 -135 330.682 333.643" xml:space="preserve">
<g>
	<path fill="#002C3D" d="M121.477,164.226V27.446h-11.24v11.238H75.219v12.564h12.564v38.674H75.219v10.602h12.564v38.575H75.219
		v12.563h35.018v12.563H121.477z M119.047,142.4v3.287h-6.381V142.4H119.047z M119.047,135.582v3.289h-6.381v-3.289H119.047z
		 M119.047,128.811v3.287h-6.381v-3.287H119.047z M119.047,121.773v3.289h-6.381v-3.289H119.047z M110.236,72.615v17.307H92.93
		L110.236,72.615z M91.023,87.525V52.369L108.6,69.947L91.023,87.525z M108.6,120.258l-17.576,17.58v-35.156L108.6,120.258z
		 M93.169,100.523h17.067v17.068L93.169,100.523z M119.047,115.002v3.287h-6.381v-3.287H119.047z M119.047,108.05v3.288h-6.381
		v-3.288H119.047z M119.047,101.278v3.288h-6.381v-3.288H119.047z M119.047,94.24v3.289h-6.381V94.24H119.047z M119.047,87.468
		v3.288h-6.381v-3.288H119.047z M119.047,80.518v3.288h-6.381v-3.288H119.047z M119.047,73.743v3.288h-6.381v-3.288H119.047z
		 M119.047,66.708v3.288h-6.381v-3.288H119.047z M119.047,59.936v3.287h-6.381v-3.287H119.047z M119.047,52.936v3.289h-6.381v-3.289
		H119.047z M119.047,46.162v3.288h-6.381v-3.288H119.047z M119.047,39.126v3.288h-6.381v-3.288H119.047z M112.666,35.641v-3.288
		h6.381v3.288H112.666z M110.236,67.281L94.207,51.248h16.029V67.281z M94.065,139.099l16.171-16.173v16.173H94.065z
		 M112.666,152.724v-3.287h6.381v3.287H112.666z M112.666,159.496v-3.288h6.381v3.288H112.666z"/>
	<g>
		<rect x="91.094" y="-89.229" fill="#512D1D" width="25.511" height="10.652"/>
		<polygon fill="#6ABC45" points="114.602,-52.482 128.365,-65.248 128.365,-60.653 143.309,-70.912 143.309,-64.345 
			159.008,-73.409 159.008,-70.828 179.581,-83.901 159.008,-96.977 159.008,-94.395 143.309,-103.459 143.309,-96.892 
			128.365,-107.15 128.365,-102.558 114.602,-115.321 		"/>
	</g>
	<g>
		<rect x="91.025" y="-60.873" fill="#512D1D" width="20.521" height="8.568"/>
		<polygon fill="#19B14B" points="109.938,-31.313 121.006,-41.583 121.006,-37.887 133.029,-46.138 133.029,-40.857 
			145.656,-48.147 145.656,-46.071 162.209,-56.588 145.656,-67.106 145.656,-65.031 133.029,-72.321 133.029,-67.038 
			121.006,-75.291 121.006,-71.595 109.938,-81.862 		"/>
	</g>
	<g>
		<rect x="93.476" y="-102.289" fill="#512D1D" width="10.421" height="4.35"/>
		<polygon fill="#19B14B" points="103.078,-87.281 108.697,-92.495 108.697,-90.617 114.805,-94.808 114.805,-92.126 
			121.215,-95.827 121.215,-94.772 129.619,-100.113 121.215,-105.454 121.215,-104.399 114.805,-108.101 114.805,-105.42 
			108.697,-109.609 108.697,-107.734 103.078,-112.946 		"/>
	</g>
	<g>
		<path fill="#427741" d="M99.921-60.361c0,0,20.814-3.885,6.104-6.382c0,0,9.854-8.745,0.694-15.474c0,0,7.076-5.618-2.222-4.509
			c0,0,0.559-7.355-6.382-11.796c0,0,6.382-3.469-1.666-4.995c0,0-0.275-4.718-6.243-1.942c-5.966,2.775,0,0.694,0,0.694
			l-17.484,0.971l-1.941,9.297l-0.973,16.514L99.921-60.361z"/>
		<path fill="#3BB44A" d="M118.375,6.801L73.833,3.193l-6.798,26.921l8.878,4.856l-4.024-6.662l8.049,1.944l-6.521-5.551
			c0,0,1.805-2.635,7.632,0.833c0,0-4.024-3.885-6.798-4.44c0,0,7.77,0.693,20.953,8.326c0,0-15.543-9.714-18.457-13.599
			c0,0,15.266,7.216,19.843,7.77c0,0-11.239-8.604-13.183-9.296c0,0,13.877-0.971,22.758,3.747c0,0-8.326-6.245-14.985-8.048
			L118.375,6.801z"/>
		<path fill="#05773D" d="M71.611-81.176c0,0,14.85-5.272,20.539,7.91c0,0,13.184-0.971,13.461,18.457c0,0,3.746-1.25,3.746,2.219
			c0,0,12.764,1.805,1.525,4.718c0,0,11.517,9.159-0.834,18.457c0,0,7.91,0.278,7.633,3.469c-0.278,3.191-10.268,1.943-10.268,1.943
			s9.854,12.768-9.298,19.149c0,0,2.365,5.413-3.464,5.968c0,0-0.283,4.301-5.695,3.885c0,0-0.139,8.186-8.323,11.656h-9.022
			V-81.176z"/>
		<path fill="#009247" d="M73-121.694c0,0,9.575-4.025,14.014-8.326c0,0-5.549,5.688-9.434,9.019c0,0,11.377-1.387,17.067,0
			c0,0-7.356,0.417-12.072,2.359c0,0,4.577,2.083,7.354,4.996c0,0-6.107-2.083-10.131-1.389c0,0,2.221,3.054,5.551,3.885
			c0,0-1.943,0.972-6.106,0c0,0,7.909,3.193,14.016,2.222c0,0-7.215,1.387-11.933,1.664c-4.719,0.278-0.556,0-0.556,0
			s4.579,0.555,8.048,5.273c0,0-3.607-1.526-8.604-1.11c0,0,2.594,3.113,4.146,8.71c0.053,0.192,0.106,0.389,0.158,0.587
			c1.524,5.968-2.777-7.77-6.246-3.052c-3.469,4.719,4.024,5.55,5.549,6.104c1.527,0.557,10.825,1.805,10.825,1.805H79.243
			c0,0,3.886,1.387,5.552,3.607c0,0-5.688-0.833-7.493,0c-1.712,0.792,3.839,3.462,6.183,6.942c0.121,0.181,0.236,0.366,0.338,0.552
			c2.083,3.747-0.555-3.053-8.187-1.387l-5.688,3.608v-46.764L73-121.694z"/>
	</g>
	<path fill="#48B0E3" d="M72.252-119.767C-6.519-114.122-68.672-48.435-68.672,31.773C-68.674,111.984-6.52,177.67,72.252,183.313
		V-119.767z"/>
	<g>
		<defs>
			<path id="SVGID_1_" d="M-5.308-116.628c0,0-6.553,207.037,87.754,287.519v27.752l-114.954-18.316l-52.175-99.129l7.771-112.511
				L-5.308-116.628z"/>
		</defs>
		<clipPath id="SVGID_2_">
			<use xlink:href="#SVGID_1_"  overflow="visible"/>
		</clipPath>
		<path clip-path="url(#SVGID_2_)" fill="#03ADDD" d="M72.252-119.767C-6.519-114.122-68.672-48.435-68.672,31.773
			C-68.674,111.984-6.52,177.67,72.252,183.313V-119.767z"/>
	</g>
	<path fill="#40C4F2" d="M31.563-1.769c0,0-16.986-18.783-21.782-19.183c-4.796-0.401-19.911,3.396-19.911,3.396
		s-15.658,5.795-8.464,19.385c7.193,13.587-3.196,13.188-3.196,13.188s-4.996,0.799-3.598,4.196c0,0-9.989-1.799-14.586,2.398
		c-4.594,4.197-13.787,0.999-13.787,0.999s-20.982,0-20.383,7.394c0.6,7.393,1.174,9.991-0.015,13.189
		c-1.185,3.197,15.201,7.792,24.591,14.786c9.393,6.994,14.389,1,14.389,1s12.591,17.584,18.185,18.783
		c5.593,1.199,2.796-8.193,2.796-8.193s26.375-15.984,33.372-16.783c6.996-0.802,5.195-16.787,5.195-16.787l-3.598-0.399
		c0,0,9.592-19.583,11.992-20.382C35.161,14.417,31.563-1.769,31.563-1.769z"/>
	<path fill="#61C5F0" d="M71.733,184.768V168.61v-0.246v-18.011v-15.911V33.094c-0.616-0.658-1.274-1.26-1.976-1.745
		c0,0-6.47-10.969-6.752-13.5c0,0-0.844-4.499-3.374,0c0,0-4.782,3.656-6.468,1.125c-1.689-2.531-2.533-13.782-2.533-13.782
		S43.075-0.429,36.041,2.1c0,0-2.565,9.562,2.496,13.5c5.063,3.938,18.844,15.47,17.156,23.908
		c-1.686,8.437-13.22,10.687-15.468,10.687l1.97,7.032c0,0,1.969-6.081,11.813-5.572c0,0,3.091,5.009-5.064,9.229
		c-8.155,4.219-11.529,6.468-11.529,6.468s4.219,2.25,3.092,5.906c-1.123,3.657-6.752,1.688-7.03,5.625
		c-0.283,3.938,0,14.906,0,14.906s-6.467,3.656-11.251,0c-4.78-3.656-4.78-5.188-11.812,1.625
		c-7.032,6.813-33.47,15.531-33.47,15.531s-4.188,0.283,4.797,8.719c8.985,8.438,2.515,11.25,2.515,11.25s-5.342,8.438,10.686,7.875
		c16.033-0.563,9.282-12.094,9.282-12.094s-0.001-5.89,8.998-5.475c9.003,0.414-1.122,10.537-1.122,10.537
		s-8.027,9.039-6.783,22.604c-4.504,0.599-10.654,0.372-17.989-2.526c0,0,27.753,22.82,40.335,26.211c0,0,3.33,5.293,7.77,5.268
		C39.875,183.287,61.777,187.729,71.733,184.768z"/>
	<path fill="#5CC2EF" d="M72.296-116.9c0,0-6.481-8.898-16.433-7.212c-9.953,1.687-76.113,22.78-94.399,63.253
		c0,0-2.719,2.374,12.895-7.39c15.617-9.762,20.515-12.382,26.261-12.977c0,0,2.633,4.706,7.554,4.644
		c4.925-0.06,6.427-1.924,14.262-1.395c7.834,0.532,16.128-11.5,20.422-22.62l9.063-0.173
		C51.922-100.77,77.752-112.019,72.296-116.9z"/>
	<g>
		<path fill-rule="evenodd" clip-rule="evenodd" fill="#8CC442" d="M71.561-37.963c-0.08-7.69-0.227-15.38-0.225-23.07
			c0.003-12.111,0.105-24.224,0.164-36.333c3.378-0.45,6.287,0.25,8.18,3.383c0.418,0.692,1.086,0.916,1.792,1.239
			c2.404,1.092,4.307,2.22,4.083,5.719c-0.156,2.447-0.029,5.669,2.955,7.283c0.84,0.455,0.679,1.586,1.029,2.143
			c2.74,4.341-1.578,9.018,0.799,13.323c0.322,0.579-0.527,1.02-1.186,1.15c-0.814,0.162-1.503,0.46-1.221,1.479
			c1.995,7.14-4.489,10.241-7.371,14.993c-0.65,1.072-1.695,2.079-2,3.364C77.682-39.532,75.496-37.637,71.561-37.963z"/>
		<path fill-rule="evenodd" clip-rule="evenodd" fill="#44AF4F" d="M71.561-37.963c3.936,0.327,6.121-1.569,7-5.327
			c0.305-1.285,1.35-2.292,2-3.364c2.882-4.752,9.366-7.854,7.371-14.993c-0.282-1.019,0.406-1.317,1.221-1.479
			c0.658-0.13,1.508-0.571,1.186-1.15c-2.377-4.305,1.941-8.982-0.799-13.323c-0.351-0.557-0.189-1.688-1.029-2.143
			c-2.984-1.614-3.111-4.836-2.955-7.283c0.224-3.499-1.679-4.627-4.083-5.719c-0.706-0.323-1.374-0.547-1.792-1.239
			c-1.893-3.134-4.802-3.833-8.18-3.383c-0.527-4.614,1.006-5.797,5.2-3.993c1.792,0.772,3.237,1.946,4.204,3.693
			c0.458,0.824,0.719,1.599,2.188,1.537c2.662-0.108,4.285,3.053,4.628,5.734c0.437,3.394-0.382,7.676,4.116,9.451
			c0.557,0.221,1.455,1.026,1.426,1.072c-2.385,3.776,3.042,7.013,0.73,10.735c-1.035,1.325-3.795,2.586-1.311,4.402
			c2.704,1.976,0.977,2.368-0.555,3.181c-2.168-0.311-1.941,0.989-1.416,2.267c1.416,3.454,0.068,6.316-2.302,8.524
			c-2.97,2.765-3.384,7.729-7.95,9.076c-0.273,0.08-0.456,0.879-0.479,1.352c-0.227,4.957-3.273,7.315-7.688,8.44
			c-0.256-0.2-0.511-0.398-0.767-0.597C71.178-34.319,71.158-36.141,71.561-37.963z"/>
		<path fill-rule="evenodd" clip-rule="evenodd" fill="#1A6B3A" d="M97.349-30.339c3.444,6.633,1.603,13.412-4.757,17.414
			c-1.121,0.704-2.604,0.932-1.472,2.969c0.81,1.458,0.505,3.13-1.71,3.246c-1.232,0.064-1.361,0.878-1.664,1.697
			c-0.172,0.466-0.486,1.328-0.589,1.306c-5.671-1.194-2.977,3.581-3.729,5.554c-1.503,3.931-3.787,6.745-7.719,8.318
			c-2.943,1.176-4.307,0.242-4.348-2.818c-0.02-1.388,0.1-2.777,0.158-4.167c0.277-0.034,0.557-0.068,0.835-0.103
			c5.588-0.326,8.581-3.236,9.758-9.551c0.224-1.202,0.186-2.238,1.505-3.158c2.178-1.519,5.905-2.072,4.885-6.259
			c-0.174-0.713,0.807-1.173,1.447-1.583c2.793-1.791,4.428-4.404,5.29-7.551C98.481-25.789,96.387-28.672,97.349-30.339z"/>
		<path fill-rule="evenodd" clip-rule="evenodd" fill="#1D6F3B" d="M97.349-30.339c-0.962,1.667,1.133,4.55-2.112,5.313
			c-0.026-0.759-0.084-1.519-0.067-2.277c0.046-2.409-1.612-5.35,2.757-6.175c1.604-0.302,0.443-1.683-0.635-2.314
			c-0.994-0.579-2.705-0.877-1.229-2.66c3.162-3.814,2.889-7.86,0.701-11.987c-0.367-0.692-0.881-1.312-0.029-1.965
			c2.326-1.783,0.824-2.602-0.828-3.449c-2.311-1.187-4.518-2.475-3.777-5.7c1.529-0.813,3.257-1.206,0.553-3.181
			c-2.484-1.816,0.275-3.077,1.311-4.402c0.727,1.347,1.474,2.808,1.234,4.297c-0.691,4.336,2.225,5.851,5.318,7.388
			c1.291,0.642,3.463,1.866,1.176,3.057c-2.465,1.284-1.48,1.951-0.615,3.443c2.669,4.62,2.277,9.16-0.875,13.433
			c-0.758,1.03-1.953,1.915,0.229,2.609c0.022,1.298,2.146,2.173,0.76,3.758C100.061-30.256,98.389-31.807,97.349-30.339z"/>
		<path fill-rule="evenodd" clip-rule="evenodd" fill="#07793E" d="M72.354,3.076c-0.278,0.034-0.558,0.068-0.835,0.103
			c-0.314-11.891-0.347-23.783,0.007-35.673c0.256,0.201,0.511,0.399,0.767,0.599C72.315-20.239,72.338-8.581,72.354,3.076z"/>
		<path fill-rule="evenodd" clip-rule="evenodd" fill="#1A6B3A" d="M101.219-31.153c1.387-1.585-0.737-2.46-0.76-3.758
			c1.459,0.071,2.836,0.606,3.031,2.104C103.668-31.444,102.477-31.038,101.219-31.153z"/>
		<path fill-rule="evenodd" clip-rule="evenodd" fill="#0D9248" d="M72.354,3.076c-0.017-11.657-0.039-23.315-0.062-34.972
			c4.414-1.125,7.461-3.483,7.688-8.44c0.022-0.473,0.205-1.271,0.479-1.352c4.566-1.347,4.98-6.312,7.95-9.076
			c2.37-2.208,3.718-5.07,2.302-8.524c-0.525-1.277-0.752-2.577,1.416-2.267c-0.738,3.225,1.469,4.514,3.779,5.7
			c1.652,0.848,3.154,1.666,0.828,3.449c-0.852,0.654-0.338,1.273,0.029,1.965c2.188,4.126,2.461,8.172-0.701,11.987
			c-1.477,1.783,0.234,2.082,1.229,2.66c1.078,0.631,2.238,2.012,0.635,2.314c-4.369,0.826-2.711,3.766-2.757,6.175
			c-0.017,0.759,0.041,1.519,0.067,2.277c-0.859,3.147-2.494,5.761-5.287,7.551c-0.641,0.41-1.621,0.87-1.447,1.583
			c1.021,4.188-2.707,4.74-4.885,6.259c-1.319,0.92-1.281,1.956-1.505,3.158C80.936-0.16,77.942,2.75,72.354,3.076z"/>
	</g>
	<g>
		<path fill-rule="evenodd" clip-rule="evenodd" fill="#44AF4F" d="M86.855,5.851c-0.354,1.074,0.771,1.781,0.693,2.784
			c-2.359,1.722-3.568-1.447-5.556-1.308c-0.298-0.521-0.774-0.638-1.323-0.589c-0.447-0.01-0.894-0.019-1.34-0.027
			C78.805,6.703,77.933,6.467,77.874,7c-0.153,1.392,0.804,2.109,2.071,2.442c1.785,1.698,2.211,4.171,3.512,6.147
			c-0.523,2.378-2.373,0.281-3.471,1.009c-0.802,0.532-2.598,0.301-0.828,1.876c0.102,1.224,0.201,2.449,0.302,3.672
			c-0.212,0.261-0.146,1.067-0.802,0.5c-0.768-0.659-1.016-2.17-2.516-1.549c-0.559,0.231-0.707,0.809-0.572,1.41
			c0.326,1.452,1.495,1.816,2.721,2.049c1.047,0.197,2.17,0.716,3.057-0.408c1.283,0.311,2.574,0.664,3.447-0.798
			c3.037,0.238-0.055,1.909,0.633,2.697c-2.643,2.197-5.283,4.397-8.029,6.682c1.938,0.331,3.82-0.431,5.605,0.573
			c-1.379,1.918-3.773,1.405-5.018,2.949c-0.422,0.073-0.843,0.146-1.267,0.219c0.226,0.717,0.872,0.207,1.265,0.432
			c0.201,0.501,0.255,1.203,0.625,1.469c2.688,1.931,6.682,2.018,8.075,5.775c0.414,1.313,0.831,2.626,1.359,4.295
			c-2.351-0.809-3.863-2.617-6.058-2.895c-1.216-0.977-2.66-0.41-3.992-0.59c-0.232-0.15-0.461-0.303-0.702-0.439
			c-0.007-0.006-0.104,0.146-0.158,0.224c0.268,0.093,0.536,0.188,0.804,0.28c0.054,1.25,0.898,2.102,1.778,2.689
			c2.472,1.65,2.96,4.059,2.933,6.74c-1.315,0.459-3.52-0.968-3.756,1.773c0.146,1.643,0.292,3.285,0.438,4.927
			c-0.418-0.339-0.852-0.665-1.259-1.021c-0.478-0.42-0.887-1.121-1.632-0.726c-0.297,0.155-0.526,0.692-0.543,1.067
			c-0.029,0.777,0.1,1.617,1.018,1.855c1.1,0.285,2.258,0.497,2.395-1.208c1.089,0.489,2.178,0.979,3.27,1.47
			c0.548,1.146,2.392-0.05,2.584,1.914c-0.492,0.599-1.904-0.287-2.535,0.706c-1.708-0.733-3.416-1.37-5.111,0.024
			c0.627,1.163,1.252,2.326,1.922,3.566c-1.288,0.746-2.165-0.734-3.285-0.59c-0.551,1.824,1.686,2.292,1.748,4.056
			c-1.32,0.854-4.806-0.872-3.841,3.099c-3.079-1.205-4.331-2.898-4.312-6.141c0.129-24.727,0.109-49.454-0.027-74.178
			c-0.014-2.916,0.906-4.18,3.682-4.713c4.428-0.853,8.381-3.071,12.516-5.158c0.185,1.947-2.311,2.243-1.75,4.001
			C83.18-9.99,82.19-9.154,81.201-8.317c-1.337,0.534-2.207,1.584-3.164,2.502c1.525,0.771,3.279-0.452,4.475,1.068
			c-1.603,2.164-4.436,1.61-6.404,3.44c2.324-1.038,1.737,1.879,3.216,1.905C81.773,2.436,86.08,1.612,86.855,5.851z"/>
		<path fill-rule="evenodd" clip-rule="evenodd" fill="#2A793F" d="M77.986,36.25c1.244-1.544,3.639-1.031,5.018-2.949
			c-1.785-1.004-3.668-0.242-5.605-0.573c2.746-2.285,5.387-4.484,8.029-6.682c0.652,0.202,0.918,0.875,0.658,1.269
			c-2.854,4.297,1.098,4.396,3.361,5.539c-1.164,0.023-2.404-0.196-3.484,0.125c-1.702,0.501-0.791,0.982,0.191,1.293
			c0.825,2.751,2.193,4.943,5.229,5.761c2.715,0.729,5.014,2.199,7.547,4.947c-3.661-0.044-6.072-1.467-8.56-2.31
			c-1.937-0.655-3.12-0.698-3.688,1.476c-1.391-3.76-5.385-3.847-8.072-5.777c-0.37-0.266-0.424-0.968-0.625-1.469l-0.022,0.021
			c0.274-0.071,0.774-0.116,0.784-0.217c0.068-0.605-0.453-0.416-0.784-0.479L77.986,36.25z"/>
		<path fill-rule="evenodd" clip-rule="evenodd" fill="#2A793F" d="M86.855,5.851c-0.775-4.238-5.082-3.415-7.532-5.252
			c1.379-2.32,4.109-2.453,5.532-1.435c1.498,1.074,1.695-0.033,2.455-0.309c1.076,1.598,2.525,2.517,4.416,3.101
			c2.756,0.849,5.186,2.376,7.34,5.145c-2.514-0.08-4.236-1.063-6.031-1.688C90.885,4.667,88.777,3.732,86.855,5.851z"/>
		<path fill-rule="evenodd" clip-rule="evenodd" fill="#299249" d="M82.648,54.449c0.027-2.682-0.461-5.09-2.933-6.74
			c-0.88-0.588-1.725-1.439-1.778-2.689l0.057-0.064c1.332,0.18,2.776-0.387,3.992,0.59c-1.703,1.691,0.152,1.845,1.045,2.346
			c4.126,2.319,7.273,5.641,9.848,9.552c0.277,0.423,0.779,1.041,0.18,1.385c-0.323,0.187-1.016-0.269-1.541-0.434
			c-2.652-1.61-4.981-3.877-8.318-4.094c-0.193,0.013-0.375,0.056-0.551,0.128V54.449z"/>
		<path fill-rule="evenodd" clip-rule="evenodd" fill="#07793E" d="M87.311-1.145c-0.76,0.276-0.957,1.383-2.455,0.309
			c-1.423-1.018-4.153-0.885-5.532,1.435c-1.479-0.025-0.892-2.942-3.216-1.905c1.969-1.831,4.802-1.276,6.404-3.44
			c-1.195-1.52-2.949-0.297-4.475-1.068c0.957-0.918,1.827-1.968,3.167-2.502c0.339,0.578,0.87,0.785,1.508,0.775
			c3.753,0.184,6.969,2.392,10.657,2.818c-1.964,1.187-4.127,0.244-6.166,0.574c-0.696,0.113-2.146-0.284-1.145,1.335
			C86.475-2.258,86.895-1.702,87.311-1.145z"/>
		<path fill-rule="evenodd" clip-rule="evenodd" fill="#299249" d="M83.457,15.589c-1.301-1.976-1.727-4.449-3.512-6.148
			c-0.203-0.911-0.41-1.821-0.615-2.73c0.446,0.008,0.893,0.017,1.34,0.025c0.062,0.367,0.125,0.735,0.188,1.103
			c-0.304,0.752-0.002,1.23,0.66,1.612c1.98,1.144,3.949,2.314,5.922,3.474c2.436,2.157,4.567,4.545,5.995,7.539
			c-0.965,0.464-1.392-0.341-2.017-0.358C88.762,18.6,86.109,17.095,83.457,15.589z"/>
		<path fill-rule="evenodd" clip-rule="evenodd" fill="#1A6B3A" d="M79.33,61.149c-0.146-1.642-0.291-3.284-0.44-4.928
			c2.768,0.768,5.744,0.327,8.45,1.457c-1.364,1.232-3.379,0.445-5.025,1.518c1.055,0.989,1.969,1.849,3.086,2.896
			c-1.137,0.22-2.139-0.35-2.82,0.495c-1.094-0.489-2.183-0.979-3.271-1.469L79.33,61.149z"/>
		<path fill-rule="evenodd" clip-rule="evenodd" fill="#1A6B3A" d="M84.795,23.35c-0.873,1.462-2.164,1.108-3.447,0.797
			c-1.338,0.001-1.213-1.376-1.888-2c-0.101-1.223-0.2-2.448-0.302-3.671c2.533-0.792,4.947,0.799,7.48,0.363
			c0.74-0.127,1.211,0.425,1.305,1.198c-1.828,0.202-3.66,0.405-5.549,0.614C82.686,22.208,84.241,22.313,84.795,23.35z"/>
		<path fill-rule="evenodd" clip-rule="evenodd" fill="#D2E6B7" d="M87.439,12.924c-1.973-1.16-3.941-2.33-5.922-3.474
			c-0.662-0.382-0.964-0.86-0.66-1.612c0.378-0.17,0.756-0.341,1.136-0.512c1.987-0.139,3.196,3.03,5.556,1.308
			C90.253,10.135,89.459,11.546,87.439,12.924z"/>
		<path fill-rule="evenodd" clip-rule="evenodd" fill="#D2E6B7" d="M87.34,57.679c-2.706-1.13-5.683-0.689-8.45-1.457
			c0.239-2.74,2.443-1.313,3.759-1.772v-0.021c0.178,0.111,0.355,0.225,0.535,0.336c0.006-0.154,0.01-0.311,0.016-0.464
			c3.337,0.217,5.666,2.483,8.318,4.094C90.117,58.202,88.52,59.154,87.34,57.679z"/>
		<path fill-rule="evenodd" clip-rule="evenodd" fill="#D2E6B7" d="M87.943,20.037c-0.094-0.773-0.564-1.325-1.305-1.198
			c-2.533,0.436-4.947-1.155-7.48-0.363c-1.77-1.576,0.026-1.345,0.828-1.877c1.098-0.728,2.947,1.369,3.471-1.009
			c2.652,1.505,5.305,3.011,7.961,4.516C90.258,20.082,89.102,20.06,87.943,20.037z"/>
		<path fill-rule="evenodd" clip-rule="evenodd" fill="#1D6F3B" d="M77.516,65.232c1.695-1.395,3.403-0.758,5.111-0.024
			c1.039,1.62,2.633,2.966,2.762,5.556C82.495,68.83,81.15,65.317,77.516,65.232z"/>
		<path fill-rule="evenodd" clip-rule="evenodd" fill="#1A6B3A" d="M86.154,34.272c-0.982-0.312-1.894-0.792-0.191-1.293
			c1.08-0.32,2.32-0.101,3.484-0.125c1.676-0.19,3.168,0.411,4.662,1.418C91.457,34.272,88.804,34.272,86.154,34.272z"/>
		<path fill-rule="evenodd" clip-rule="evenodd" fill="#6E8F5F" d="M86.059-2.815c-1.001-1.619,0.448-1.222,1.145-1.335
			c2.039-0.33,4.202,0.613,6.166-0.574c0.572-0.058,1.275-0.031,1.381,0.568c0.16,0.906-0.678,0.53-1.115,0.597
			C91.12-3.185,88.458-4.372,86.059-2.815z"/>
		<path fill-rule="evenodd" clip-rule="evenodd" fill="#1A6B3A" d="M82.712-7.542c-0.638,0.01-1.169-0.197-1.508-0.775
			c0.986-0.837,1.976-1.672,2.964-2.508c0.539-0.042,1.077-0.083,1.856-0.144C85.436-9.091,83.605-8.755,82.712-7.542z"/>
		<path fill-rule="evenodd" clip-rule="evenodd" fill="#07793E" d="M79.46,22.146c0.675,0.624,0.55,2.001,1.888,2
			c-0.887,1.125-2.01,0.606-3.057,0.409c-1.226-0.232-2.395-0.597-2.721-2.049c-0.135-0.602,0.014-1.179,0.572-1.41
			c1.5-0.621,1.748,0.89,2.516,1.549C79.313,23.213,79.248,22.407,79.46,22.146z"/>
		<path fill-rule="evenodd" clip-rule="evenodd" fill="#1D6F3B" d="M79.309,61.118c-0.137,1.705-1.295,1.493-2.395,1.208
			c-0.918-0.238-1.047-1.078-1.018-1.855c0.017-0.375,0.246-0.912,0.543-1.067c0.745-0.396,1.154,0.306,1.632,0.726
			c0.407,0.355,0.841,0.682,1.259,1.021L79.309,61.118z"/>
		<path fill-rule="evenodd" clip-rule="evenodd" fill="#0D9248" d="M79.33,6.71c0.205,0.91,0.412,1.82,0.615,2.73
			C78.678,9.11,77.721,8.393,77.874,7C77.933,6.467,78.805,6.703,79.33,6.71z"/>
		<path fill-rule="evenodd" clip-rule="evenodd" fill="#2A793F" d="M77.984,36.9c-0.393-0.225-1.039,0.285-1.265-0.432
			c0.424-0.072,0.845-0.146,1.267-0.219l-0.024-0.024c0,0.231,0,0.464,0,0.696L77.984,36.9z"/>
		<path fill-rule="evenodd" clip-rule="evenodd" fill="#0D9248" d="M81.993,7.327c-0.38,0.17-0.758,0.341-1.136,0.512
			c-0.063-0.368-0.126-0.736-0.188-1.103C81.219,6.688,81.695,6.806,81.993,7.327z"/>
		<path fill-rule="evenodd" clip-rule="evenodd" fill="#299249" d="M77.938,45.02c-0.268-0.093-0.536-0.188-0.804-0.28
			c0.054-0.078,0.151-0.229,0.158-0.224c0.241,0.137,0.47,0.289,0.702,0.439L77.938,45.02z"/>
		<path fill-rule="evenodd" clip-rule="evenodd" fill="#44AF4F" d="M77.962,36.922c0-0.232,0-0.465,0-0.696
			c0.331,0.063,0.853-0.126,0.784,0.479C78.736,36.806,78.236,36.851,77.962,36.922z"/>
		<path fill-rule="evenodd" clip-rule="evenodd" fill="#44AF4F" d="M83.199,54.3c-0.006,0.153-0.01,0.31-0.016,0.464
			c-0.18-0.111-0.357-0.225-0.535-0.336C82.824,54.355,83.006,54.313,83.199,54.3z"/>
	</g>
	<g>
		<path fill-rule="evenodd" clip-rule="evenodd" fill="#44AF4F" d="M79.803,99.125c-0.16-0.484,0.35-0.805,0.313-1.258
			c-1.064-0.777-1.61,0.653-2.51,0.59c-0.133,0.235-0.348,0.289-0.596,0.268c-0.203,0.003-0.404,0.008-0.604,0.012
			c-0.239,0.004-0.631,0.111-0.66-0.131c-0.068-0.628,0.365-0.953,0.938-1.104c0.806-0.766,0.998-1.883,1.585-2.775
			c-0.239-1.072-1.071-0.127-1.565-0.457c-0.363-0.239-1.175-0.136-0.376-0.846c0.046-0.552,0.091-1.105,0.137-1.658
			c-0.098-0.117-0.065-0.482-0.363-0.227c-0.346,0.299-0.458,0.982-1.135,0.699c-0.253-0.104-0.319-0.363-0.259-0.636
			c0.146-0.655,0.676-0.821,1.229-0.925c0.473-0.09,0.981-0.323,1.381,0.185c0.58-0.142,1.162-0.3,1.557,0.36
			c1.371-0.107-0.027-0.862,0.285-1.218c-1.191-0.993-2.388-1.985-3.625-3.019c0.875-0.148,1.725,0.195,2.531-0.258
			c-0.624-0.865-1.705-0.633-2.268-1.332c-0.188-0.033-0.381-0.066-0.572-0.1c0.104-0.322,0.395-0.094,0.572-0.194
			c0.092-0.226,0.116-0.543,0.281-0.663c1.214-0.873,3.019-0.912,3.647-2.608c0.188-0.593,0.375-1.185,0.614-1.938
			c-1.063,0.363-1.744,1.183-2.736,1.307c-0.548,0.441-1.201,0.186-1.803,0.267c-0.104,0.067-0.209,0.136-0.318,0.198
			c0,0.003-0.045-0.065-0.07-0.102c0.121-0.042,0.242-0.084,0.362-0.127c0.026-0.564,0.407-0.947,0.804-1.213
			c1.115-0.747,1.338-1.833,1.325-3.044c-0.595-0.208-1.591,0.438-1.695-0.803c0.063-0.74,0.132-1.481,0.197-2.224
			c-0.19,0.153-0.388,0.299-0.567,0.461c-0.217,0.189-0.402,0.506-0.738,0.328c-0.134-0.07-0.238-0.314-0.246-0.482
			c-0.015-0.351,0.044-0.73,0.458-0.838c0.499-0.129,1.021-0.225,1.081,0.546c0.492-0.222,0.986-0.443,1.479-0.664
			c0.246-0.518,1.082,0.023,1.168-0.864c-0.223-0.271-0.86,0.13-1.148-0.318c-0.77,0.332-1.539,0.617-2.307-0.012
			c0.283-0.525,0.568-1.051,0.867-1.61c-0.58-0.337-0.977,0.331-1.48,0.266c-0.248-0.823,0.76-1.035,0.789-1.831
			c-0.594-0.386-2.17,0.394-1.734-1.398c-1.391,0.544-1.956,1.309-1.949,2.771c0.059,11.167,0.049,22.332-0.012,33.498
			c-0.008,1.316,0.409,1.888,1.664,2.129c2,0.385,3.785,1.387,5.648,2.328c0.086-0.879-1.04-1.013-0.789-1.805
			c-0.445-0.377-0.892-0.756-1.338-1.133c-0.604-0.242-0.996-0.716-1.43-1.13c0.689-0.349,1.481,0.202,2.02-0.483
			c-0.723-0.979-2.002-0.727-2.891-1.553c1.049,0.467,0.783-0.85,1.451-0.861C77.509,100.666,79.453,101.039,79.803,99.125z"/>
		<path fill-rule="evenodd" clip-rule="evenodd" fill="#2A793F" d="M75.797,85.396c0.563,0.699,1.644,0.467,2.268,1.332
			c-0.807,0.453-1.656,0.109-2.531,0.258c1.237,1.033,2.434,2.025,3.625,3.019c0.295-0.093,0.414-0.395,0.297-0.572
			c-1.289-1.941,0.496-1.987,1.52-2.505c-0.528-0.008-1.088,0.091-1.576-0.053c-0.767-0.229-0.355-0.445,0.088-0.585
			c0.373-1.242,0.989-2.232,2.363-2.602c1.225-0.329,2.263-0.993,3.408-2.233c-1.654,0.02-2.746,0.662-3.869,1.043
			c-0.874,0.295-1.408,0.314-1.666-0.668c-0.626,1.697-2.431,1.736-3.645,2.609c-0.165,0.12-0.189,0.438-0.281,0.663l-0.008-0.009
			c0.121,0.032,0.348,0.052,0.351,0.097c0.032,0.274-0.202,0.188-0.351,0.217L75.797,85.396z"/>
		<path fill-rule="evenodd" clip-rule="evenodd" fill="#2A793F" d="M79.803,99.125c-0.35,1.914-2.294,1.541-3.402,2.371
			c0.623,1.049,1.855,1.107,2.499,0.648c0.677-0.486,0.765,0.014,1.11,0.14c0.485-0.722,1.141-1.138,1.993-1.401
			c1.245-0.382,2.343-1.071,3.315-2.322c-1.138,0.035-1.912,0.479-2.724,0.762C81.621,99.658,80.67,100.081,79.803,99.125z"/>
		<path fill-rule="evenodd" clip-rule="evenodd" fill="#299249" d="M77.903,77.179c0.013,1.211-0.21,2.297-1.325,3.044
			c-0.396,0.266-0.777,0.648-0.804,1.213l0.026,0.03c0.602-0.081,1.255,0.175,1.803-0.267c-0.768-0.764,0.068-0.833,0.473-1.06
			c1.861-1.048,3.283-2.548,4.445-4.313c0.127-0.191,0.354-0.472,0.083-0.626c-0.146-0.084-0.458,0.12-0.694,0.195
			c-1.198,0.728-2.25,1.752-3.758,1.85c-0.088-0.005-0.171-0.024-0.252-0.059L77.903,77.179z"/>
		<path fill-rule="evenodd" clip-rule="evenodd" fill="#07793E" d="M80.01,102.284c-0.346-0.126-0.434-0.626-1.11-0.14
			c-0.644,0.459-1.876,0.4-2.499-0.648c-0.668,0.012-0.402,1.328-1.451,0.861c0.889,0.826,2.168,0.574,2.891,1.553
			c-0.538,0.686-1.33,0.135-2.02,0.483c0.434,0.414,0.826,0.888,1.43,1.129c0.154-0.261,0.393-0.354,0.683-0.35
			c1.695-0.083,3.147-1.079,4.813-1.274c-0.889-0.534-1.863-0.109-2.787-0.258c-0.314-0.051-0.969,0.128-0.516-0.603
			C79.631,102.785,79.82,102.535,80.01,102.284z"/>
		<path fill-rule="evenodd" clip-rule="evenodd" fill="#299249" d="M78.269,94.727c-0.587,0.893-0.779,2.01-1.585,2.775
			c-0.094,0.412-0.186,0.824-0.278,1.234c0.2-0.004,0.401-0.009,0.604-0.012c0.029-0.166,0.056-0.332,0.085-0.498
			c-0.14-0.34,0-0.557,0.3-0.727c0.894-0.519,1.78-1.047,2.672-1.57c1.102-0.973,2.063-2.052,2.709-3.404
			c-0.439-0.209-0.629,0.154-0.914,0.162C80.666,93.367,79.467,94.046,78.269,94.727z"/>
		<path fill-rule="evenodd" clip-rule="evenodd" fill="#1A6B3A" d="M76.405,74.152c-0.065,0.742-0.134,1.483-0.2,2.225
			c1.25-0.347,2.595-0.146,3.817-0.656c-0.616-0.558-1.527-0.202-2.271-0.687c0.479-0.447,0.89-0.835,1.394-1.308
			c-0.514-0.1-0.967,0.158-1.274-0.224c-0.492,0.221-0.986,0.442-1.479,0.664L76.405,74.152z"/>
		<path fill-rule="evenodd" clip-rule="evenodd" fill="#1A6B3A" d="M78.873,91.223c-0.395-0.66-0.977-0.502-1.557-0.36
			c-0.604,0-0.549,0.621-0.853,0.903c-0.046,0.553-0.091,1.106-0.137,1.658c1.146,0.356,2.233-0.361,3.379-0.164
			c0.333,0.057,0.546-0.193,0.589-0.541c-0.828-0.092-1.653-0.184-2.506-0.277C77.92,91.736,78.622,91.69,78.873,91.223z"/>
		<path fill-rule="evenodd" clip-rule="evenodd" fill="#D2E6B7" d="M80.066,95.93c-0.892,0.523-1.778,1.052-2.672,1.57
			c-0.3,0.17-0.439,0.387-0.3,0.727c0.171,0.077,0.341,0.154,0.511,0.23c0.899,0.063,1.445-1.367,2.51-0.59
			C81.338,97.19,80.98,96.553,80.066,95.93z"/>
		<path fill-rule="evenodd" clip-rule="evenodd" fill="#D2E6B7" d="M80.022,75.721c-1.223,0.51-2.567,0.31-3.817,0.656
			c0.107,1.239,1.104,0.594,1.698,0.802L77.9,77.188c0.084-0.051,0.164-0.1,0.244-0.151c0.002,0.071,0.005,0.14,0.008,0.21
			c1.508-0.098,2.56-1.122,3.758-1.85C81.274,75.483,80.554,75.054,80.022,75.721z"/>
		<path fill-rule="evenodd" clip-rule="evenodd" fill="#D2E6B7" d="M80.295,92.719c-0.043,0.348-0.256,0.598-0.589,0.541
			c-1.146-0.197-2.233,0.521-3.379,0.164c-0.799,0.71,0.013,0.606,0.376,0.846c0.494,0.33,1.326-0.615,1.565,0.457
			c1.198-0.681,2.397-1.359,3.593-2.039C81.34,92.699,80.816,92.707,80.295,92.719z"/>
		<path fill-rule="evenodd" clip-rule="evenodd" fill="#1D6F3B" d="M75.584,72.309c0.768,0.629,1.537,0.344,2.307,0.012
			c0.473-0.732,1.191-1.34,1.25-2.509C77.835,70.684,77.229,72.27,75.584,72.309z"/>
		<path fill-rule="evenodd" clip-rule="evenodd" fill="#1A6B3A" d="M79.486,86.29c-0.443,0.14-0.854,0.356-0.088,0.585
			c0.488,0.144,1.048,0.045,1.576,0.053c0.756,0.088,1.43-0.185,2.105-0.638C81.879,86.29,80.683,86.29,79.486,86.29z"/>
		<path fill-rule="evenodd" clip-rule="evenodd" fill="#6E8F5F" d="M79.443,103.038c-0.453,0.73,0.201,0.552,0.516,0.603
			c0.924,0.148,1.898-0.276,2.787,0.258c0.258,0.027,0.574,0.016,0.623-0.256c0.07-0.408-0.307-0.239-0.504-0.269
			C81.73,103.205,80.527,103.74,79.443,103.038z"/>
		<path fill-rule="evenodd" clip-rule="evenodd" fill="#1A6B3A" d="M77.933,105.173c-0.29-0.005-0.528,0.089-0.683,0.35
			c0.446,0.378,0.893,0.757,1.338,1.134c0.246,0.018,0.487,0.037,0.84,0.063C79.16,105.872,78.334,105.721,77.933,105.173z"/>
		<path fill-rule="evenodd" clip-rule="evenodd" fill="#07793E" d="M76.464,91.766c0.304-0.282,0.249-0.903,0.853-0.903
			c-0.399-0.508-0.908-0.274-1.381-0.185c-0.553,0.104-1.082,0.27-1.229,0.925c-0.061,0.272,0.006,0.532,0.259,0.636
			c0.677,0.283,0.789-0.4,1.135-0.699C76.398,91.283,76.366,91.648,76.464,91.766z"/>
		<path fill-rule="evenodd" clip-rule="evenodd" fill="#1D6F3B" d="M76.393,74.167c-0.061-0.771-0.582-0.675-1.081-0.546
			c-0.414,0.107-0.473,0.487-0.458,0.838c0.008,0.168,0.112,0.412,0.246,0.482c0.336,0.178,0.521-0.139,0.738-0.328
			c0.18-0.162,0.377-0.308,0.567-0.461L76.393,74.167z"/>
		<path fill-rule="evenodd" clip-rule="evenodd" fill="#0D9248" d="M76.405,98.736c0.093-0.41,0.185-0.822,0.278-1.234
			c-0.573,0.15-1.007,0.476-0.938,1.104C75.774,98.848,76.166,98.74,76.405,98.736z"/>
		<path fill-rule="evenodd" clip-rule="evenodd" fill="#2A793F" d="M75.797,85.103c-0.178,0.101-0.469-0.128-0.572,0.194
			c0.191,0.033,0.385,0.066,0.572,0.1l-0.008,0.011c0-0.104,0-0.21,0-0.313L75.797,85.103z"/>
		<path fill-rule="evenodd" clip-rule="evenodd" fill="#0D9248" d="M77.605,98.457c-0.17-0.076-0.34-0.153-0.511-0.23
			c-0.029,0.166-0.056,0.332-0.085,0.498C77.258,98.746,77.473,98.692,77.605,98.457z"/>
		<path fill-rule="evenodd" clip-rule="evenodd" fill="#299249" d="M75.774,81.436c-0.12,0.043-0.241,0.085-0.362,0.127
			c0.025,0.036,0.07,0.104,0.07,0.102c0.109-0.063,0.214-0.131,0.318-0.198L75.774,81.436z"/>
		<path fill-rule="evenodd" clip-rule="evenodd" fill="#44AF4F" d="M75.789,85.094c0,0.104,0,0.21,0,0.313
			c0.148-0.028,0.383,0.058,0.351-0.217C76.137,85.146,75.91,85.126,75.789,85.094z"/>
		<path fill-rule="evenodd" clip-rule="evenodd" fill="#44AF4F" d="M78.152,77.246c-0.003-0.07-0.006-0.139-0.008-0.21
			c-0.08,0.052-0.16,0.101-0.244,0.151C77.981,77.222,78.064,77.241,78.152,77.246z"/>
	</g>
	<g>
		<path fill-rule="evenodd" clip-rule="evenodd" fill="#44AF4F" d="M78.692-94.634c-0.158-0.485,0.349-0.804,0.314-1.257
			c-1.067-0.778-1.612,0.653-2.511,0.591c-0.133,0.235-0.35,0.289-0.598,0.267c-0.202,0.002-0.402,0.007-0.604,0.011
			c-0.236,0.004-0.631,0.111-0.658-0.13c-0.068-0.629,0.363-0.954,0.936-1.104c0.807-0.766,0.998-1.883,1.586-2.776
			c-0.236-1.073-1.072-0.126-1.566-0.457c-0.363-0.239-1.172-0.135-0.375-0.845c0.046-0.553,0.09-1.107,0.137-1.659
			c-0.096-0.117-0.066-0.482-0.363-0.226c-0.344,0.297-0.458,0.98-1.135,0.699c-0.254-0.104-0.32-0.364-0.259-0.637
			c0.146-0.655,0.675-0.821,1.228-0.924c0.475-0.089,0.982-0.323,1.381,0.184c0.58-0.14,1.162-0.3,1.557,0.36
			c1.371-0.107-0.023-0.862,0.285-1.218c-1.193-0.993-2.385-1.985-3.625-3.018c0.875-0.149,1.725,0.196,2.531-0.258
			c-0.621-0.866-1.705-0.633-2.268-1.331c-0.189-0.033-0.38-0.067-0.57-0.1c0.103-0.323,0.395-0.094,0.57-0.193
			c0.093-0.227,0.117-0.543,0.283-0.664c1.213-0.872,3.018-0.912,3.648-2.607c0.186-0.595,0.373-1.187,0.613-1.94
			c-1.062,0.367-1.744,1.183-2.737,1.307c-0.548,0.441-1.198,0.185-1.803,0.267c-0.104,0.067-0.21,0.138-0.317,0.199
			c-0.002,0.002-0.045-0.066-0.07-0.1c0.119-0.044,0.242-0.085,0.363-0.126c0.024-0.565,0.406-0.95,0.804-1.216
			c1.116-0.745,1.335-1.833,1.323-3.043c-0.595-0.207-1.588,0.437-1.698-0.803c0.068-0.74,0.134-1.482,0.2-2.224
			c-0.19,0.154-0.385,0.3-0.568,0.462c-0.217,0.188-0.401,0.505-0.738,0.328c-0.133-0.071-0.236-0.313-0.246-0.482
			c-0.012-0.351,0.047-0.731,0.461-0.838c0.497-0.129,1.018-0.224,1.082,0.545c0.492-0.22,0.984-0.442,1.476-0.664
			c0.249-0.518,1.079,0.023,1.167-0.864c-0.222-0.271-0.859,0.129-1.145-0.319c-0.772,0.332-1.543,0.619-2.31-0.012
			c0.285-0.523,0.567-1.05,0.87-1.61c-0.582-0.336-0.977,0.331-1.484,0.267c-0.25-0.823,0.76-1.035,0.789-1.832
			c-0.596-0.385-2.17,0.394-1.734-1.399c-1.391,0.544-1.955,1.31-1.948,2.775c0.059,11.165,0.052,22.331-0.01,33.495
			c-0.01,1.318,0.407,1.888,1.661,2.13c2,0.384,3.785,1.387,5.651,2.328c0.085-0.878-1.04-1.012-0.789-1.805
			c-0.446-0.377-0.894-0.755-1.34-1.133c-0.604-0.241-0.996-0.716-1.43-1.13c0.689-0.349,1.481,0.203,2.019-0.482
			c-0.721-0.978-1.999-0.729-2.889-1.554c1.048,0.468,0.782-0.849,1.452-0.86C76.398-93.092,78.342-92.719,78.692-94.634z"/>
		<path fill-rule="evenodd" clip-rule="evenodd" fill="#2A793F" d="M74.686-108.361c0.563,0.698,1.646,0.465,2.268,1.331
			c-0.807,0.454-1.656,0.109-2.531,0.258c1.24,1.033,2.432,2.025,3.625,3.018c0.295-0.093,0.416-0.395,0.297-0.573
			c-1.288-1.941,0.498-1.985,1.518-2.501c-0.525-0.011-1.084,0.088-1.573-0.056c-0.765-0.228-0.355-0.444,0.088-0.584
			c0.372-1.242,0.991-2.231,2.362-2.602c1.226-0.329,2.264-0.994,3.406-2.234c-1.652,0.02-2.74,0.663-3.863,1.043
			c-0.875,0.296-1.41,0.315-1.666-0.665c-0.629,1.695-2.434,1.735-3.646,2.607c-0.166,0.121-0.19,0.438-0.283,0.664l-0.01-0.01
			c0.124,0.031,0.351,0.051,0.355,0.097c0.029,0.273-0.205,0.188-0.355,0.217L74.686-108.361z"/>
		<path fill-rule="evenodd" clip-rule="evenodd" fill="#2A793F" d="M78.692-94.634c-0.351,1.915-2.294,1.542-3.4,2.373
			c0.624,1.047,1.854,1.108,2.499,0.647c0.675-0.485,0.766,0.016,1.105,0.14c0.488-0.721,1.143-1.136,1.996-1.4
			c1.244-0.382,2.343-1.072,3.314-2.323c-1.135,0.036-1.912,0.48-2.726,0.761C80.512-94.099,79.563-93.676,78.692-94.634z"/>
		<path fill-rule="evenodd" clip-rule="evenodd" fill="#299249" d="M76.793-116.58c0.012,1.21-0.207,2.298-1.323,3.043
			c-0.397,0.266-0.779,0.65-0.804,1.216l0.024,0.028c0.604-0.082,1.255,0.174,1.803-0.267c-0.768-0.764,0.07-0.833,0.472-1.06
			c1.864-1.047,3.284-2.545,4.449-4.313c0.123-0.191,0.35-0.47,0.082-0.625c-0.148-0.085-0.461,0.119-0.697,0.195
			c-1.197,0.728-2.25,1.751-3.758,1.849c-0.086-0.005-0.168-0.024-0.248-0.057V-116.58z"/>
		<path fill-rule="evenodd" clip-rule="evenodd" fill="#07793E" d="M78.896-91.475c-0.34-0.124-0.431-0.625-1.105-0.14
			c-0.645,0.461-1.875,0.4-2.499-0.647c-0.67,0.011-0.404,1.328-1.452,0.86c0.89,0.826,2.168,0.576,2.889,1.554
			c-0.537,0.686-1.329,0.134-2.019,0.482c0.434,0.414,0.825,0.889,1.43,1.13c0.153-0.262,0.392-0.355,0.683-0.351
			c1.692-0.083,3.146-1.079,4.813-1.273c-0.887-0.536-1.863-0.11-2.783-0.259c-0.317-0.051-0.971,0.128-0.518-0.602
			C78.521-90.973,78.712-91.224,78.896-91.475z"/>
		<path fill-rule="evenodd" clip-rule="evenodd" fill="#299249" d="M77.158-99.032c-0.588,0.893-0.779,2.01-1.586,2.776
			c-0.093,0.412-0.186,0.823-0.277,1.233c0.201-0.003,0.401-0.008,0.604-0.011c0.027-0.166,0.059-0.331,0.086-0.498
			c-0.137-0.34,0-0.556,0.297-0.727c0.896-0.517,1.785-1.045,2.674-1.569c1.102-0.974,2.064-2.053,2.709-3.405
			c-0.436-0.209-0.629,0.155-0.91,0.162C79.555-100.391,78.356-99.71,77.158-99.032z"/>
		<path fill-rule="evenodd" clip-rule="evenodd" fill="#1A6B3A" d="M75.295-119.606c-0.066,0.742-0.132,1.484-0.2,2.226
			c1.252-0.346,2.595-0.147,3.817-0.657c-0.617-0.557-1.525-0.202-2.271-0.686c0.478-0.448,0.892-0.834,1.394-1.309
			c-0.512-0.098-0.965,0.158-1.274-0.223c-0.491,0.222-0.983,0.443-1.476,0.664L75.295-119.606z"/>
		<path fill-rule="evenodd" clip-rule="evenodd" fill="#1A6B3A" d="M77.762-102.536c-0.395-0.66-0.977-0.5-1.557-0.36
			c-0.604,0-0.548,0.621-0.852,0.904c-0.047,0.551-0.091,1.105-0.137,1.659c1.143,0.357,2.233-0.363,3.379-0.165
			c0.333,0.057,0.547-0.192,0.589-0.542c-0.825-0.091-1.651-0.183-2.507-0.278C76.81-102.019,77.514-102.068,77.762-102.536z"/>
		<path fill-rule="evenodd" clip-rule="evenodd" fill="#D2E6B7" d="M78.955-97.827c-0.889,0.524-1.777,1.052-2.674,1.569
			c-0.297,0.171-0.434,0.387-0.297,0.728c0.17,0.076,0.34,0.154,0.512,0.23c0.898,0.062,1.443-1.369,2.511-0.591
			C80.227-96.568,79.869-97.206,78.955-97.827z"/>
		<path fill-rule="evenodd" clip-rule="evenodd" fill="#D2E6B7" d="M78.912-118.038c-1.223,0.509-2.565,0.311-3.817,0.657
			c0.11,1.238,1.104,0.594,1.698,0.801v0.01c0.08-0.051,0.16-0.101,0.24-0.152c0.006,0.071,0.006,0.14,0.008,0.209
			c1.508-0.098,2.561-1.121,3.758-1.849C80.166-118.275,79.445-118.705,78.912-118.038z"/>
		<path fill-rule="evenodd" clip-rule="evenodd" fill="#D2E6B7" d="M79.185-101.04c-0.042,0.35-0.256,0.599-0.589,0.542
			c-1.146-0.199-2.236,0.521-3.379,0.165c-0.797,0.71,0.012,0.606,0.375,0.845c0.494,0.33,1.33-0.616,1.566,0.457
			c1.198-0.678,2.396-1.359,3.596-2.039C80.229-101.06,79.709-101.051,79.185-101.04z"/>
		<path fill-rule="evenodd" clip-rule="evenodd" fill="#1D6F3B" d="M74.474-121.45c0.767,0.631,1.537,0.344,2.31,0.012
			c0.47-0.732,1.188-1.34,1.246-2.509C76.725-123.074,76.115-121.488,74.474-121.45z"/>
		<path fill-rule="evenodd" clip-rule="evenodd" fill="#1A6B3A" d="M78.376-107.468c-0.443,0.14-0.853,0.357-0.088,0.584
			c0.489,0.144,1.048,0.045,1.573,0.056c0.758,0.085,1.43-0.188,2.105-0.641C80.771-107.468,79.572-107.468,78.376-107.468z"/>
		<path fill-rule="evenodd" clip-rule="evenodd" fill="#6E8F5F" d="M78.334-90.719c-0.453,0.729,0.2,0.55,0.518,0.602
			c0.92,0.149,1.896-0.276,2.783,0.259c0.258,0.026,0.575,0.015,0.624-0.257c0.073-0.409-0.308-0.239-0.505-0.269
			C80.619-90.554,79.416-90.018,78.334-90.719z"/>
		<path fill-rule="evenodd" clip-rule="evenodd" fill="#1A6B3A" d="M76.822-88.585c-0.291-0.005-0.529,0.089-0.683,0.351
			c0.446,0.378,0.894,0.755,1.34,1.133c0.243,0.017,0.487,0.037,0.838,0.063C78.052-87.886,77.224-88.037,76.822-88.585z"/>
		<path fill-rule="evenodd" clip-rule="evenodd" fill="#07793E" d="M75.354-101.992c0.304-0.283,0.248-0.904,0.852-0.904
			c-0.398-0.507-0.906-0.273-1.381-0.184c-0.553,0.104-1.082,0.269-1.228,0.924c-0.062,0.273,0.005,0.534,0.259,0.637
			c0.677,0.281,0.791-0.402,1.135-0.699C75.287-102.475,75.258-102.109,75.354-101.992z"/>
		<path fill-rule="evenodd" clip-rule="evenodd" fill="#1D6F3B" d="M75.285-119.592c-0.064-0.77-0.585-0.674-1.082-0.545
			c-0.414,0.107-0.473,0.487-0.461,0.838c0.01,0.169,0.113,0.412,0.246,0.482c0.337,0.178,0.521-0.139,0.738-0.328
			c0.184-0.162,0.378-0.308,0.568-0.462L75.285-119.592z"/>
		<path fill-rule="evenodd" clip-rule="evenodd" fill="#0D9248" d="M75.295-95.022c0.092-0.41,0.185-0.822,0.277-1.233
			c-0.572,0.149-1.004,0.475-0.936,1.104C74.664-94.911,75.059-95.019,75.295-95.022z"/>
		<path fill-rule="evenodd" clip-rule="evenodd" fill="#2A793F" d="M74.686-108.654c-0.176,0.1-0.468-0.129-0.57,0.193
			c0.19,0.033,0.381,0.067,0.57,0.1l-0.01,0.011c0-0.104,0-0.209,0-0.314L74.686-108.654z"/>
		<path fill-rule="evenodd" clip-rule="evenodd" fill="#0D9248" d="M76.496-95.3c-0.172-0.077-0.342-0.155-0.512-0.23
			c-0.027,0.166-0.059,0.332-0.086,0.497C76.146-95.011,76.363-95.065,76.496-95.3z"/>
		<path fill-rule="evenodd" clip-rule="evenodd" fill="#299249" d="M74.666-112.32c-0.121,0.041-0.244,0.083-0.363,0.126
			c0.025,0.034,0.068,0.102,0.07,0.1c0.107-0.061,0.213-0.132,0.317-0.199L74.666-112.32z"/>
		<path fill-rule="evenodd" clip-rule="evenodd" fill="#44AF4F" d="M74.676-108.664c0,0.104,0,0.209,0,0.314
			c0.15-0.029,0.385,0.056,0.355-0.217C75.026-108.613,74.8-108.633,74.676-108.664z"/>
		<path fill-rule="evenodd" clip-rule="evenodd" fill="#44AF4F" d="M77.041-116.513c-0.002-0.069-0.002-0.139-0.008-0.209
			c-0.08,0.051-0.16,0.101-0.24,0.152C76.873-116.537,76.955-116.518,77.041-116.513z"/>
	</g>
	<g>
		<path fill-rule="evenodd" clip-rule="evenodd" fill="#44AF4F" d="M78.692-60.872c-0.158-0.484,0.349-0.802,0.314-1.257
			c-1.067-0.778-1.612,0.654-2.511,0.591c-0.133,0.235-0.35,0.288-0.598,0.266c-0.202,0.005-0.402,0.008-0.604,0.012
			c-0.236,0.005-0.631,0.109-0.658-0.13c-0.068-0.627,0.363-0.954,0.936-1.103c0.807-0.767,0.998-1.885,1.586-2.777
			c-0.236-1.074-1.072-0.126-1.566-0.455c-0.363-0.241-1.172-0.137-0.375-0.847c0.046-0.554,0.09-1.107,0.137-1.659
			c-0.096-0.118-0.066-0.481-0.363-0.226c-0.344,0.297-0.458,0.979-1.135,0.699c-0.254-0.105-0.32-0.365-0.259-0.636
			c0.146-0.655,0.675-0.821,1.228-0.926c0.475-0.09,0.982-0.324,1.381,0.185c0.58-0.141,1.162-0.301,1.557,0.359
			c1.371-0.107-0.023-0.862,0.285-1.218c-1.193-0.993-2.385-1.986-3.625-3.017c0.875-0.151,1.725,0.195,2.531-0.258
			c-0.621-0.867-1.705-0.636-2.268-1.333c-0.189-0.033-0.38-0.066-0.57-0.1c0.103-0.323,0.395-0.094,0.57-0.195
			c0.093-0.227,0.117-0.542,0.283-0.663c1.213-0.872,3.018-0.911,3.648-2.609c0.186-0.592,0.373-1.186,0.613-1.938
			c-1.062,0.365-1.744,1.181-2.737,1.308c-0.548,0.438-1.198,0.186-1.803,0.266c-0.104,0.068-0.21,0.137-0.317,0.2
			c-0.002,0.001-0.045-0.066-0.07-0.102c0.119-0.042,0.242-0.085,0.363-0.127c0.024-0.564,0.406-0.949,0.804-1.214
			c1.116-0.746,1.335-1.833,1.323-3.044c-0.595-0.207-1.588,0.438-1.698-0.801c0.068-0.741,0.134-1.483,0.2-2.224
			c-0.19,0.153-0.385,0.3-0.568,0.46c-0.217,0.19-0.401,0.507-0.738,0.329c-0.133-0.07-0.236-0.314-0.246-0.482
			c-0.012-0.352,0.047-0.731,0.461-0.839c0.497-0.129,1.018-0.224,1.082,0.547c0.492-0.222,0.984-0.443,1.476-0.665
			c0.249-0.516,1.079,0.024,1.167-0.865c-0.222-0.27-0.859,0.13-1.145-0.318c-0.772,0.33-1.543,0.618-2.31-0.011
			c0.285-0.526,0.567-1.052,0.87-1.61c-0.582-0.337-0.977,0.332-1.484,0.266c-0.25-0.823,0.76-1.035,0.789-1.832
			c-0.596-0.385-2.17,0.395-1.734-1.398c-1.391,0.543-1.955,1.308-1.948,2.772c0.059,11.166,0.052,22.332-0.01,33.498
			c-0.01,1.315,0.407,1.887,1.661,2.129c2,0.385,3.785,1.387,5.651,2.329c0.085-0.879-1.04-1.013-0.789-1.806
			c-0.446-0.377-0.894-0.755-1.34-1.132c-0.604-0.243-0.996-0.716-1.43-1.129c0.689-0.351,1.481,0.202,2.019-0.484
			c-0.721-0.977-1.999-0.726-2.889-1.553c1.048,0.469,0.782-0.849,1.452-0.86C76.398-59.328,78.342-58.958,78.692-60.872z"/>
		<path fill-rule="evenodd" clip-rule="evenodd" fill="#2A793F" d="M74.686-74.599c0.563,0.697,1.646,0.465,2.268,1.333
			c-0.807,0.453-1.656,0.107-2.531,0.258c1.24,1.031,2.432,2.024,3.625,3.017c0.295-0.091,0.416-0.395,0.297-0.572
			c-1.288-1.94,0.498-1.985,1.518-2.503c-0.525-0.01-1.084,0.09-1.573-0.055c-0.765-0.228-0.355-0.445,0.088-0.585
			c0.372-1.241,0.991-2.232,2.362-2.6c1.226-0.33,2.264-0.994,3.406-2.235c-1.652,0.021-2.74,0.663-3.863,1.042
			c-0.875,0.296-1.41,0.315-1.666-0.667c-0.629,1.698-2.434,1.737-3.646,2.609c-0.166,0.121-0.19,0.436-0.283,0.663l-0.01-0.01
			c0.124,0.033,0.351,0.054,0.355,0.098c0.029,0.275-0.205,0.188-0.355,0.217L74.686-74.599z"/>
		<path fill-rule="evenodd" clip-rule="evenodd" fill="#2A793F" d="M78.692-60.872c-0.351,1.914-2.294,1.543-3.4,2.373
			c0.624,1.048,1.854,1.107,2.499,0.647c0.675-0.485,0.766,0.016,1.105,0.141c0.488-0.724,1.143-1.138,1.996-1.4
			c1.244-0.384,2.343-1.074,3.314-2.324c-1.135,0.037-1.912,0.48-2.726,0.763C80.512-60.337,79.563-59.916,78.692-60.872z"/>
		<path fill-rule="evenodd" clip-rule="evenodd" fill="#299249" d="M76.793-82.817c0.012,1.211-0.207,2.298-1.323,3.044
			c-0.397,0.265-0.779,0.65-0.804,1.214l0.024,0.029c0.604-0.08,1.255,0.173,1.803-0.266c-0.768-0.765,0.07-0.833,0.472-1.061
			c1.864-1.046,3.284-2.547,4.449-4.313c0.123-0.191,0.35-0.47,0.082-0.626c-0.148-0.083-0.461,0.122-0.697,0.197
			c-1.197,0.726-2.25,1.751-3.758,1.848c-0.086-0.006-0.168-0.024-0.248-0.057V-82.817z"/>
		<path fill-rule="evenodd" clip-rule="evenodd" fill="#07793E" d="M78.896-57.711c-0.34-0.125-0.431-0.626-1.105-0.141
			c-0.645,0.46-1.875,0.401-2.499-0.647c-0.67,0.011-0.404,1.329-1.452,0.86c0.89,0.827,2.168,0.576,2.889,1.553
			c-0.537,0.687-1.329,0.134-2.019,0.484c0.434,0.413,0.825,0.887,1.43,1.129c0.153-0.262,0.392-0.354,0.683-0.351
			c1.692-0.084,3.146-1.08,4.813-1.272c-0.887-0.536-1.863-0.111-2.783-0.258c-0.317-0.051-0.971,0.126-0.518-0.604
			C78.521-57.209,78.712-57.46,78.896-57.711z"/>
		<path fill-rule="evenodd" clip-rule="evenodd" fill="#299249" d="M77.158-65.27c-0.588,0.892-0.779,2.01-1.586,2.777
			c-0.093,0.412-0.186,0.824-0.277,1.233c0.201-0.004,0.401-0.007,0.604-0.011c0.027-0.166,0.059-0.331,0.086-0.498
			c-0.137-0.338,0-0.555,0.297-0.728c0.896-0.517,1.785-1.045,2.674-1.569c1.102-0.973,2.064-2.052,2.709-3.404
			c-0.436-0.209-0.629,0.155-0.91,0.162C79.555-66.628,78.356-65.949,77.158-65.27z"/>
		<path fill-rule="evenodd" clip-rule="evenodd" fill="#1A6B3A" d="M75.295-85.843c-0.066,0.741-0.132,1.483-0.2,2.224
			c1.252-0.346,2.595-0.146,3.817-0.657c-0.617-0.557-1.525-0.202-2.271-0.686c0.478-0.448,0.892-0.835,1.394-1.308
			c-0.512-0.1-0.965,0.159-1.274-0.224c-0.491,0.222-0.983,0.443-1.476,0.665L75.295-85.843z"/>
		<path fill-rule="evenodd" clip-rule="evenodd" fill="#1A6B3A" d="M77.762-68.773c-0.395-0.66-0.977-0.5-1.557-0.359
			c-0.604,0-0.548,0.621-0.852,0.903c-0.047,0.552-0.091,1.104-0.137,1.659c1.143,0.357,2.233-0.362,3.379-0.165
			c0.333,0.057,0.547-0.192,0.589-0.542c-0.825-0.091-1.651-0.183-2.507-0.276C76.81-68.258,77.514-68.305,77.762-68.773z"/>
		<path fill-rule="evenodd" clip-rule="evenodd" fill="#D2E6B7" d="M78.955-64.066c-0.889,0.523-1.777,1.052-2.674,1.569
			c-0.297,0.173-0.434,0.39-0.297,0.729c0.17,0.077,0.34,0.153,0.512,0.23c0.898,0.063,1.443-1.369,2.511-0.591
			C80.227-62.807,79.869-63.442,78.955-64.066z"/>
		<path fill-rule="evenodd" clip-rule="evenodd" fill="#D2E6B7" d="M78.912-84.275c-1.223,0.511-2.565,0.311-3.817,0.657
			c0.11,1.239,1.104,0.594,1.698,0.801v0.01c0.08-0.051,0.16-0.101,0.24-0.152c0.006,0.069,0.006,0.14,0.008,0.209
			c1.508-0.096,2.561-1.122,3.758-1.848C80.166-84.513,79.445-84.941,78.912-84.275z"/>
		<path fill-rule="evenodd" clip-rule="evenodd" fill="#D2E6B7" d="M79.185-67.278c-0.042,0.35-0.256,0.599-0.589,0.542
			c-1.146-0.197-2.236,0.521-3.379,0.165c-0.797,0.71,0.012,0.605,0.375,0.847c0.494,0.329,1.33-0.619,1.566,0.455
			c1.198-0.68,2.396-1.359,3.596-2.039C80.229-67.298,79.709-67.289,79.185-67.278z"/>
		<path fill-rule="evenodd" clip-rule="evenodd" fill="#1D6F3B" d="M74.474-87.687c0.767,0.628,1.537,0.341,2.31,0.011
			c0.47-0.732,1.188-1.34,1.246-2.508C76.725-89.312,76.115-87.726,74.474-87.687z"/>
		<path fill-rule="evenodd" clip-rule="evenodd" fill="#1A6B3A" d="M78.376-73.706c-0.443,0.14-0.853,0.357-0.088,0.585
			c0.489,0.145,1.048,0.045,1.573,0.055c0.758,0.087,1.43-0.186,2.105-0.64C80.771-73.706,79.572-73.706,78.376-73.706z"/>
		<path fill-rule="evenodd" clip-rule="evenodd" fill="#6E8F5F" d="M78.334-56.958c-0.453,0.73,0.2,0.553,0.518,0.604
			c0.92,0.147,1.896-0.278,2.783,0.258c0.258,0.026,0.575,0.015,0.624-0.256c0.073-0.409-0.308-0.24-0.505-0.271
			C80.619-56.79,79.416-56.254,78.334-56.958z"/>
		<path fill-rule="evenodd" clip-rule="evenodd" fill="#1A6B3A" d="M76.822-54.823c-0.291-0.003-0.529,0.089-0.683,0.351
			c0.446,0.377,0.894,0.755,1.34,1.132c0.243,0.019,0.487,0.038,0.838,0.064C78.052-54.123,77.224-54.275,76.822-54.823z"/>
		<path fill-rule="evenodd" clip-rule="evenodd" fill="#07793E" d="M75.354-68.23c0.304-0.282,0.248-0.903,0.852-0.903
			c-0.398-0.509-0.906-0.275-1.381-0.185c-0.553,0.105-1.082,0.271-1.228,0.926c-0.062,0.271,0.005,0.531,0.259,0.636
			c0.677,0.28,0.791-0.402,1.135-0.699C75.287-68.711,75.258-68.348,75.354-68.23z"/>
		<path fill-rule="evenodd" clip-rule="evenodd" fill="#1D6F3B" d="M75.285-85.828c-0.064-0.771-0.585-0.676-1.082-0.547
			c-0.414,0.108-0.473,0.487-0.461,0.839c0.01,0.168,0.113,0.412,0.246,0.482c0.337,0.178,0.521-0.139,0.738-0.329
			c0.184-0.161,0.378-0.307,0.568-0.46L75.285-85.828z"/>
		<path fill-rule="evenodd" clip-rule="evenodd" fill="#0D9248" d="M75.295-61.26c0.092-0.409,0.185-0.821,0.277-1.233
			c-0.572,0.149-1.004,0.475-0.936,1.103C74.664-61.15,75.059-61.255,75.295-61.26z"/>
		<path fill-rule="evenodd" clip-rule="evenodd" fill="#2A793F" d="M74.686-74.894c-0.176,0.101-0.468-0.128-0.57,0.195
			c0.19,0.034,0.381,0.067,0.57,0.1l-0.01,0.01c0-0.104,0-0.208,0-0.314L74.686-74.894z"/>
		<path fill-rule="evenodd" clip-rule="evenodd" fill="#0D9248" d="M76.496-61.538c-0.172-0.077-0.342-0.153-0.512-0.23
			c-0.027,0.166-0.059,0.331-0.086,0.497C76.146-61.25,76.363-61.303,76.496-61.538z"/>
		<path fill-rule="evenodd" clip-rule="evenodd" fill="#299249" d="M74.666-78.56c-0.121,0.042-0.244,0.085-0.363,0.127
			c0.025,0.036,0.068,0.104,0.07,0.102c0.107-0.063,0.213-0.131,0.317-0.2L74.666-78.56z"/>
		<path fill-rule="evenodd" clip-rule="evenodd" fill="#44AF4F" d="M74.676-74.903c0,0.106,0,0.211,0,0.314
			c0.15-0.028,0.385,0.059,0.355-0.217C75.026-74.85,74.8-74.87,74.676-74.903z"/>
		<path fill-rule="evenodd" clip-rule="evenodd" fill="#44AF4F" d="M77.041-82.75c-0.002-0.069-0.002-0.14-0.008-0.209
			c-0.08,0.051-0.16,0.101-0.24,0.152C76.873-82.775,76.955-82.756,77.041-82.75z"/>
	</g>
	<g>
		<path fill-rule="evenodd" clip-rule="evenodd" fill="#44AF4F" d="M78.692-48.953c-0.158,0.485,0.349,0.804,0.314,1.258
			c-1.067,0.777-1.612-0.655-2.511-0.592c-0.133-0.235-0.35-0.287-0.598-0.265c-0.202-0.005-0.402-0.01-0.604-0.013
			c-0.236-0.004-0.631-0.109-0.658,0.13c-0.068,0.628,0.363,0.954,0.936,1.103c0.807,0.767,0.998,1.885,1.586,2.777
			c-0.236,1.074-1.072,0.126-1.566,0.456c-0.363,0.241-1.172,0.136-0.375,0.848c0.046,0.553,0.09,1.106,0.137,1.658
			c-0.096,0.118-0.066,0.482-0.363,0.225c-0.344-0.297-0.458-0.979-1.135-0.699c-0.254,0.105-0.32,0.366-0.259,0.637
			c0.146,0.655,0.675,0.819,1.228,0.924c0.475,0.09,0.982,0.324,1.381-0.184c0.58,0.14,1.162,0.3,1.557-0.36
			c1.371,0.107-0.023,0.863,0.285,1.219c-1.193,0.991-2.385,1.985-3.625,3.016c0.875,0.151,1.725-0.195,2.531,0.258
			c-0.621,0.867-1.705,0.636-2.268,1.332c-0.189,0.033-0.38,0.066-0.57,0.1c0.103,0.321,0.395,0.092,0.57,0.195
			c0.093,0.227,0.117,0.543,0.283,0.663c1.213,0.872,3.018,0.911,3.648,2.609c0.186,0.593,0.373,1.186,0.613,1.939
			c-1.062-0.366-1.744-1.182-2.737-1.307c-0.548-0.441-1.198-0.185-1.803-0.267c-0.104-0.068-0.21-0.136-0.317-0.2
			c-0.002-0.002-0.045,0.067-0.07,0.102c0.119,0.042,0.242,0.084,0.363,0.127c0.024,0.564,0.406,0.947,0.804,1.215
			c1.116,0.744,1.335,1.832,1.323,3.042c-0.595,0.207-1.588-0.436-1.698,0.801c0.068,0.741,0.134,1.484,0.2,2.224
			c-0.19-0.152-0.385-0.3-0.568-0.46c-0.217-0.19-0.401-0.506-0.738-0.329c-0.133,0.072-0.236,0.314-0.246,0.482
			c-0.012,0.352,0.047,0.731,0.461,0.839c0.497,0.128,1.018,0.224,1.082-0.545c0.492,0.22,0.984,0.442,1.476,0.664
			c0.249,0.518,1.079-0.023,1.167,0.865c-0.222,0.271-0.859-0.129-1.145,0.319c-0.772-0.331-1.543-0.619-2.31,0.01
			c0.285,0.526,0.567,1.051,0.87,1.61c-0.582,0.338-0.977-0.33-1.484-0.266c-0.25,0.823,0.76,1.035,0.789,1.832
			c-0.596,0.385-2.17-0.395-1.734,1.398c-1.391-0.543-1.955-1.308-1.948-2.772c0.059-11.166,0.052-22.332-0.01-33.498
			c-0.01-1.315,0.407-1.887,1.661-2.129c2-0.385,3.785-1.386,5.651-2.329c0.085,0.879-1.04,1.013-0.789,1.807
			c-0.446,0.376-0.894,0.755-1.34,1.132c-0.604,0.242-0.996,0.717-1.43,1.13c0.689,0.349,1.481-0.203,2.019,0.484
			c-0.721,0.977-1.999,0.726-2.889,1.553c1.048-0.469,0.782,0.849,1.452,0.861C76.398-50.496,78.342-50.866,78.692-48.953z"/>
		<path fill-rule="evenodd" clip-rule="evenodd" fill="#2A793F" d="M74.686-35.226c0.563-0.696,1.646-0.465,2.268-1.332
			c-0.807-0.453-1.656-0.107-2.531-0.258c1.24-1.03,2.432-2.024,3.625-3.016c0.295,0.09,0.416,0.393,0.297,0.571
			c-1.288,1.941,0.498,1.986,1.518,2.502c-0.525,0.01-1.084-0.089-1.573,0.056c-0.765,0.227-0.355,0.443,0.088,0.583
			c0.372,1.242,0.991,2.232,2.362,2.602c1.226,0.329,2.264,0.993,3.406,2.235c-1.652-0.021-2.74-0.663-3.863-1.042
			c-0.875-0.297-1.41-0.317-1.666,0.665c-0.629-1.698-2.434-1.737-3.646-2.609c-0.166-0.12-0.19-0.436-0.283-0.663l-0.01,0.01
			c0.124-0.033,0.351-0.054,0.355-0.098c0.029-0.275-0.205-0.188-0.355-0.217L74.686-35.226z"/>
		<path fill-rule="evenodd" clip-rule="evenodd" fill="#2A793F" d="M78.692-48.953c-0.351-1.914-2.294-1.543-3.4-2.372
			c0.624-1.047,1.854-1.108,2.499-0.648c0.675,0.485,0.766-0.014,1.105-0.14c0.488,0.722,1.143,1.136,1.996,1.399
			c1.244,0.385,2.343,1.074,3.314,2.324c-1.135-0.037-1.912-0.48-2.726-0.761C80.512-49.487,79.563-49.909,78.692-48.953z"/>
		<path fill-rule="evenodd" clip-rule="evenodd" fill="#299249" d="M76.793-27.007c0.012-1.21-0.207-2.298-1.323-3.042
			c-0.397-0.268-0.779-0.651-0.804-1.215l0.024-0.029c0.604,0.082,1.255-0.174,1.803,0.267c-0.768,0.764,0.07,0.833,0.472,1.061
			c1.864,1.045,3.284,2.545,4.449,4.312c0.123,0.191,0.35,0.47,0.082,0.626c-0.148,0.083-0.461-0.122-0.697-0.196
			c-1.197-0.727-2.25-1.751-3.758-1.85c-0.086,0.007-0.168,0.027-0.248,0.059V-27.007z"/>
		<path fill-rule="evenodd" clip-rule="evenodd" fill="#07793E" d="M78.896-52.112c-0.34,0.125-0.431,0.625-1.105,0.14
			c-0.645-0.46-1.875-0.399-2.499,0.648c-0.67-0.012-0.404-1.33-1.452-0.861c0.89-0.827,2.168-0.576,2.889-1.553
			c-0.537-0.687-1.329-0.135-2.019-0.484c0.434-0.413,0.825-0.888,1.43-1.129c0.153,0.261,0.392,0.354,0.683,0.35
			c1.692,0.083,3.146,1.08,4.813,1.273c-0.887,0.536-1.863,0.111-2.783,0.259c-0.317,0.05-0.971-0.128-0.518,0.603
			C78.521-52.615,78.712-52.364,78.896-52.112z"/>
		<path fill-rule="evenodd" clip-rule="evenodd" fill="#299249" d="M77.158-44.555c-0.588-0.892-0.779-2.01-1.586-2.777
			c-0.093-0.412-0.186-0.822-0.277-1.233c0.201,0.003,0.401,0.008,0.604,0.011c0.027,0.166,0.059,0.333,0.086,0.498
			c-0.137,0.34,0,0.556,0.297,0.727c0.896,0.518,1.785,1.046,2.674,1.57c1.102,0.974,2.064,2.052,2.709,3.403
			c-0.436,0.21-0.629-0.154-0.91-0.161C79.555-43.195,78.356-43.875,77.158-44.555z"/>
		<path fill-rule="evenodd" clip-rule="evenodd" fill="#1A6B3A" d="M75.295-23.981c-0.066-0.74-0.132-1.483-0.2-2.224
			c1.252,0.346,2.595,0.147,3.817,0.657c-0.617,0.557-1.525,0.203-2.271,0.686c0.478,0.448,0.892,0.835,1.394,1.31
			c-0.512,0.097-0.965-0.16-1.274,0.223c-0.491-0.222-0.983-0.443-1.476-0.664L75.295-23.981z"/>
		<path fill-rule="evenodd" clip-rule="evenodd" fill="#1A6B3A" d="M77.762-41.051c-0.395,0.66-0.977,0.5-1.557,0.36
			c-0.604,0-0.548-0.622-0.852-0.903c-0.047-0.552-0.091-1.105-0.137-1.658c1.143-0.358,2.233,0.36,3.379,0.163
			c0.333-0.057,0.547,0.192,0.589,0.543c-0.825,0.09-1.651,0.181-2.507,0.275C76.81-41.566,77.514-41.519,77.762-41.051z"/>
		<path fill-rule="evenodd" clip-rule="evenodd" fill="#D2E6B7" d="M78.955-45.758c-0.889-0.524-1.777-1.053-2.674-1.57
			c-0.297-0.171-0.434-0.387-0.297-0.727c0.17-0.078,0.34-0.155,0.512-0.231c0.898-0.063,1.443,1.369,2.511,0.592
			C80.227-47.018,79.869-46.382,78.955-45.758z"/>
		<path fill-rule="evenodd" clip-rule="evenodd" fill="#D2E6B7" d="M78.912-25.549c-1.223-0.509-2.565-0.311-3.817-0.657
			c0.11-1.237,1.104-0.594,1.698-0.801v-0.01c0.08,0.051,0.16,0.103,0.24,0.153c0.006-0.07,0.006-0.141,0.008-0.212
			c1.508,0.099,2.561,1.123,3.758,1.85C80.166-25.312,79.445-24.881,78.912-25.549z"/>
		<path fill-rule="evenodd" clip-rule="evenodd" fill="#D2E6B7" d="M79.185-42.545c-0.042-0.351-0.256-0.601-0.589-0.543
			c-1.146,0.197-2.236-0.521-3.379-0.163c-0.797-0.711,0.012-0.606,0.375-0.848c0.494-0.329,1.33,0.619,1.566-0.456
			c1.198,0.68,2.396,1.359,3.596,2.039C80.229-42.526,79.709-42.535,79.185-42.545z"/>
		<path fill-rule="evenodd" clip-rule="evenodd" fill="#1D6F3B" d="M74.474-22.138c0.767-0.628,1.537-0.341,2.31-0.01
			c0.47,0.731,1.188,1.34,1.246,2.508C76.725-20.513,76.115-22.099,74.474-22.138z"/>
		<path fill-rule="evenodd" clip-rule="evenodd" fill="#1A6B3A" d="M78.376-36.118c-0.443-0.14-0.853-0.357-0.088-0.583
			c0.489-0.145,1.048-0.046,1.573-0.056c0.758-0.086,1.43,0.187,2.105,0.64C80.771-36.118,79.572-36.118,78.376-36.118z"/>
		<path fill-rule="evenodd" clip-rule="evenodd" fill="#6E8F5F" d="M78.334-52.866c-0.453-0.731,0.2-0.553,0.518-0.603
			c0.92-0.148,1.896,0.276,2.783-0.259c0.258-0.027,0.575-0.015,0.624,0.257c0.073,0.408-0.308,0.239-0.505,0.269
			C80.619-53.033,79.416-53.569,78.334-52.866z"/>
		<path fill-rule="evenodd" clip-rule="evenodd" fill="#1A6B3A" d="M76.822-55.001c-0.291,0.005-0.529-0.089-0.683-0.35
			c0.446-0.377,0.894-0.756,1.34-1.133c0.243-0.02,0.487-0.039,0.838-0.065C78.052-55.7,77.224-55.549,76.822-55.001z"/>
		<path fill-rule="evenodd" clip-rule="evenodd" fill="#07793E" d="M75.354-41.594c0.304,0.281,0.248,0.903,0.852,0.903
			c-0.398,0.508-0.906,0.274-1.381,0.184c-0.553-0.105-1.082-0.269-1.228-0.924c-0.062-0.271,0.005-0.532,0.259-0.637
			c0.677-0.28,0.791,0.402,1.135,0.699C75.287-41.112,75.258-41.476,75.354-41.594z"/>
		<path fill-rule="evenodd" clip-rule="evenodd" fill="#1D6F3B" d="M75.285-23.995c-0.064,0.77-0.585,0.673-1.082,0.545
			c-0.414-0.107-0.473-0.487-0.461-0.839c0.01-0.168,0.113-0.411,0.246-0.482c0.337-0.178,0.521,0.139,0.738,0.329
			c0.184,0.161,0.378,0.308,0.568,0.46L75.285-23.995z"/>
		<path fill-rule="evenodd" clip-rule="evenodd" fill="#0D9248" d="M75.295-48.564c0.092,0.411,0.185,0.821,0.277,1.233
			c-0.572-0.149-1.004-0.474-0.936-1.103C74.664-48.674,75.059-48.569,75.295-48.564z"/>
		<path fill-rule="evenodd" clip-rule="evenodd" fill="#2A793F" d="M74.686-34.931c-0.176-0.103-0.468,0.126-0.57-0.195
			c0.19-0.034,0.381-0.067,0.57-0.1l-0.01-0.01c0,0.105,0,0.208,0,0.314L74.686-34.931z"/>
		<path fill-rule="evenodd" clip-rule="evenodd" fill="#0D9248" d="M76.496-48.287c-0.172,0.077-0.342,0.154-0.512,0.231
			c-0.027-0.166-0.059-0.333-0.086-0.498C76.146-48.574,76.363-48.521,76.496-48.287z"/>
		<path fill-rule="evenodd" clip-rule="evenodd" fill="#299249" d="M74.666-31.265c-0.121-0.042-0.244-0.085-0.363-0.127
			c0.025-0.035,0.068-0.104,0.07-0.102c0.107,0.063,0.213,0.131,0.317,0.2L74.666-31.265z"/>
		<path fill-rule="evenodd" clip-rule="evenodd" fill="#44AF4F" d="M74.676-34.921c0-0.106,0-0.209,0-0.314
			c0.15,0.029,0.385-0.058,0.355,0.217C75.026-34.975,74.8-34.954,74.676-34.921z"/>
		<path fill-rule="evenodd" clip-rule="evenodd" fill="#44AF4F" d="M77.041-27.075c-0.002,0.071-0.002,0.142-0.008,0.212
			c-0.08-0.051-0.16-0.102-0.24-0.153C76.873-27.048,76.955-27.068,77.041-27.075z"/>
	</g>
	<g>
		<path fill-rule="evenodd" clip-rule="evenodd" fill="#44AF4F" d="M78.692-34.358c-0.158,0.485,0.349,0.804,0.314,1.257
			c-1.067,0.78-1.612-0.652-2.511-0.589c-0.133-0.235-0.35-0.289-0.598-0.267c-0.202-0.003-0.402-0.008-0.604-0.012
			c-0.236-0.003-0.631-0.109-0.658,0.13c-0.068,0.629,0.363,0.954,0.936,1.104c0.807,0.766,0.998,1.885,1.586,2.775
			c-0.236,1.074-1.072,0.128-1.566,0.457c-0.363,0.24-1.172,0.136-0.375,0.848c0.046,0.552,0.09,1.104,0.137,1.656
			c-0.096,0.12-0.066,0.482-0.363,0.227c-0.344-0.297-0.458-0.98-1.135-0.699c-0.254,0.104-0.32,0.364-0.259,0.637
			c0.146,0.655,0.675,0.819,1.228,0.924c0.475,0.09,0.982,0.323,1.381-0.184c0.58,0.14,1.162,0.3,1.557-0.361
			c1.371,0.107-0.023,0.862,0.285,1.218c-1.193,0.994-2.385,1.986-3.625,3.018c0.875,0.151,1.725-0.195,2.531,0.258
			c-0.621,0.866-1.705,0.634-2.268,1.332c-0.189,0.033-0.38,0.066-0.57,0.1c0.103,0.322,0.395,0.092,0.57,0.195
			c0.093,0.226,0.117,0.543,0.283,0.663c1.213,0.872,3.018,0.911,3.648,2.607c0.186,0.593,0.373,1.187,0.613,1.94
			c-1.062-0.366-1.744-1.183-2.737-1.308c-0.548-0.44-1.198-0.185-1.803-0.266c-0.104-0.068-0.21-0.136-0.317-0.2
			c-0.002-0.002-0.045,0.067-0.07,0.102c0.119,0.042,0.242,0.084,0.363,0.127c0.024,0.564,0.406,0.947,0.804,1.213
			c1.116,0.747,1.335,1.833,1.323,3.045c-0.595,0.207-1.588-0.438-1.698,0.801c0.068,0.741,0.134,1.484,0.2,2.224
			c-0.19-0.153-0.385-0.3-0.568-0.46c-0.217-0.19-0.401-0.506-0.738-0.329c-0.133,0.07-0.236,0.314-0.246,0.482
			c-0.012,0.352,0.047,0.73,0.461,0.838C74.7-8.726,75.221-8.629,75.285-9.4c0.492,0.222,0.984,0.443,1.476,0.664
			c0.249,0.518,1.079-0.022,1.167,0.866c-0.222,0.269-0.859-0.131-1.145,0.317c-0.772-0.33-1.543-0.618-2.31,0.012
			c0.285,0.525,0.567,1.051,0.87,1.61c-0.582,0.337-0.977-0.33-1.484-0.266c-0.25,0.823,0.76,1.035,0.789,1.832
			c-0.596,0.385-2.17-0.395-1.734,1.398c-1.391-0.543-1.955-1.309-1.948-2.772c0.059-11.166,0.052-22.332-0.01-33.498
			c-0.01-1.316,0.407-1.888,1.661-2.129c2-0.385,3.785-1.387,5.651-2.329c0.085,0.879-1.04,1.013-0.789,1.807
			c-0.446,0.376-0.894,0.754-1.34,1.13c-0.604,0.243-0.996,0.716-1.43,1.131c0.689,0.349,1.481-0.203,2.019,0.484
			c-0.721,0.977-1.999,0.726-2.889,1.553c1.048-0.469,0.782,0.849,1.452,0.86C76.398-35.9,78.342-36.271,78.692-34.358z"/>
		<path fill-rule="evenodd" clip-rule="evenodd" fill="#2A793F" d="M74.686-20.63c0.563-0.698,1.646-0.466,2.268-1.332
			c-0.807-0.453-1.656-0.107-2.531-0.258c1.24-1.032,2.432-2.024,3.625-3.018c0.295,0.093,0.416,0.395,0.297,0.572
			c-1.288,1.941,0.498,1.988,1.518,2.504c-0.525,0.01-1.084-0.09-1.573,0.054c-0.765,0.228-0.355,0.445,0.088,0.585
			c0.372,1.243,0.991,2.233,2.362,2.602c1.226,0.329,2.264,0.994,3.406,2.234c-1.652-0.021-2.74-0.661-3.863-1.043
			c-0.875-0.295-1.41-0.314-1.666,0.667c-0.629-1.698-2.434-1.737-3.646-2.609c-0.166-0.12-0.19-0.437-0.283-0.663l-0.01,0.009
			c0.124-0.033,0.351-0.053,0.355-0.098c0.029-0.274-0.205-0.189-0.355-0.217L74.686-20.63z"/>
		<path fill-rule="evenodd" clip-rule="evenodd" fill="#2A793F" d="M78.692-34.358c-0.351-1.913-2.294-1.542-3.4-2.371
			c0.624-1.049,1.854-1.107,2.499-0.648c0.675,0.486,0.766-0.013,1.105-0.14c0.488,0.722,1.143,1.138,1.996,1.4
			c1.244,0.385,2.343,1.073,3.314,2.324c-1.135-0.037-1.912-0.48-2.726-0.763C80.512-34.892,79.563-35.314,78.692-34.358z"/>
		<path fill-rule="evenodd" clip-rule="evenodd" fill="#299249" d="M76.793-12.411c0.012-1.212-0.207-2.298-1.323-3.045
			c-0.397-0.266-0.779-0.649-0.804-1.213l0.024-0.029c0.604,0.081,1.255-0.174,1.803,0.266c-0.768,0.764,0.07,0.833,0.472,1.06
			c1.864,1.047,3.284,2.548,4.449,4.314c0.123,0.19,0.35,0.47,0.082,0.625c-0.148,0.084-0.461-0.12-0.697-0.195
			c-1.197-0.728-2.25-1.752-3.758-1.85c-0.086,0.007-0.168,0.024-0.248,0.059V-12.411z"/>
		<path fill-rule="evenodd" clip-rule="evenodd" fill="#07793E" d="M78.896-37.518c-0.34,0.127-0.431,0.626-1.105,0.14
			c-0.645-0.459-1.875-0.401-2.499,0.648c-0.67-0.011-0.404-1.329-1.452-0.86c0.89-0.827,2.168-0.576,2.889-1.553
			c-0.537-0.687-1.329-0.135-2.019-0.484c0.434-0.415,0.825-0.889,1.43-1.129c0.153,0.261,0.392,0.354,0.683,0.349
			c1.692,0.084,3.146,1.081,4.813,1.274c-0.887,0.535-1.863,0.109-2.783,0.258c-0.317,0.051-0.971-0.126-0.518,0.604
			C78.521-38.02,78.712-37.769,78.896-37.518z"/>
		<path fill-rule="evenodd" clip-rule="evenodd" fill="#299249" d="M77.158-29.96c-0.588-0.89-0.779-2.009-1.586-2.775
			c-0.093-0.412-0.186-0.822-0.277-1.234c0.201,0.004,0.401,0.009,0.604,0.012c0.027,0.166,0.059,0.332,0.086,0.498
			c-0.137,0.34,0,0.556,0.297,0.727c0.896,0.518,1.785,1.046,2.674,1.57c1.102,0.974,2.064,2.052,2.709,3.403
			c-0.436,0.209-0.629-0.154-0.91-0.161C79.555-28.6,78.356-29.279,77.158-29.96z"/>
		<path fill-rule="evenodd" clip-rule="evenodd" fill="#1A6B3A" d="M75.295-9.386c-0.066-0.74-0.132-1.483-0.2-2.225
			c1.252,0.347,2.595,0.147,3.817,0.658c-0.617,0.557-1.525,0.201-2.271,0.686c0.478,0.447,0.892,0.834,1.394,1.308
			c-0.512,0.099-0.965-0.158-1.274,0.223C76.27-8.957,75.777-9.179,75.285-9.4L75.295-9.386z"/>
		<path fill-rule="evenodd" clip-rule="evenodd" fill="#1A6B3A" d="M77.762-26.456c-0.395,0.661-0.977,0.501-1.557,0.361
			c-0.604,0-0.548-0.622-0.852-0.905c-0.047-0.552-0.091-1.104-0.137-1.656c1.143-0.358,2.233,0.36,3.379,0.163
			c0.333-0.057,0.547,0.192,0.589,0.541c-0.825,0.092-1.651,0.183-2.507,0.278C76.81-26.97,77.514-26.923,77.762-26.456z"/>
		<path fill-rule="evenodd" clip-rule="evenodd" fill="#D2E6B7" d="M78.955-31.162c-0.889-0.524-1.777-1.053-2.674-1.57
			c-0.297-0.171-0.434-0.387-0.297-0.727c0.17-0.078,0.34-0.155,0.512-0.231c0.898-0.063,1.443,1.369,2.511,0.589
			C80.227-32.423,79.869-31.786,78.955-31.162z"/>
		<path fill-rule="evenodd" clip-rule="evenodd" fill="#D2E6B7" d="M78.912-10.953c-1.223-0.51-2.565-0.311-3.817-0.658
			c0.11-1.239,1.104-0.593,1.698-0.8v-0.01c0.08,0.051,0.16,0.1,0.24,0.151c0.006-0.07,0.006-0.139,0.008-0.21
			c1.508,0.098,2.561,1.122,3.758,1.85C80.166-10.716,79.445-10.286,78.912-10.953z"/>
		<path fill-rule="evenodd" clip-rule="evenodd" fill="#D2E6B7" d="M79.185-27.952c-0.042-0.348-0.256-0.598-0.589-0.541
			c-1.146,0.197-2.236-0.521-3.379-0.163c-0.797-0.711,0.012-0.608,0.375-0.848c0.494-0.329,1.33,0.617,1.566-0.457
			c1.198,0.681,2.396,1.361,3.596,2.04C80.229-27.931,79.709-27.941,79.185-27.952z"/>
		<path fill-rule="evenodd" clip-rule="evenodd" fill="#1D6F3B" d="M74.474-7.542c0.767-0.629,1.537-0.342,2.31-0.012
			c0.47,0.733,1.188,1.339,1.246,2.51C76.725-5.917,76.115-7.503,74.474-7.542z"/>
		<path fill-rule="evenodd" clip-rule="evenodd" fill="#1A6B3A" d="M78.376-21.523c-0.443-0.14-0.853-0.357-0.088-0.585
			c0.489-0.144,1.048-0.044,1.573-0.054c0.758-0.086,1.43,0.186,2.105,0.639C80.771-21.523,79.572-21.523,78.376-21.523z"/>
		<path fill-rule="evenodd" clip-rule="evenodd" fill="#6E8F5F" d="M78.334-38.27c-0.453-0.731,0.2-0.553,0.518-0.604
			c0.92-0.148,1.896,0.277,2.783-0.258c0.258-0.027,0.575-0.015,0.624,0.255c0.073,0.409-0.308,0.24-0.505,0.27
			C80.619-38.438,79.416-38.973,78.334-38.27z"/>
		<path fill-rule="evenodd" clip-rule="evenodd" fill="#1A6B3A" d="M76.822-40.406c-0.291,0.005-0.529-0.088-0.683-0.349
			c0.446-0.379,0.894-0.756,1.34-1.133c0.243-0.02,0.487-0.039,0.838-0.065C78.052-41.105,77.224-40.955,76.822-40.406z"/>
		<path fill-rule="evenodd" clip-rule="evenodd" fill="#07793E" d="M75.354-27c0.304,0.283,0.248,0.905,0.852,0.905
			c-0.398,0.507-0.906,0.274-1.381,0.184c-0.553-0.105-1.082-0.269-1.228-0.924c-0.062-0.273,0.005-0.534,0.259-0.637
			c0.677-0.281,0.791,0.402,1.135,0.699C75.287-26.517,75.258-26.88,75.354-27z"/>
		<path fill-rule="evenodd" clip-rule="evenodd" fill="#1D6F3B" d="M75.285-9.4c-0.064,0.771-0.585,0.675-1.082,0.546
			c-0.414-0.107-0.473-0.486-0.461-0.838c0.01-0.168,0.113-0.412,0.246-0.482c0.337-0.178,0.521,0.139,0.738,0.329
			c0.184,0.161,0.378,0.307,0.568,0.46L75.285-9.4z"/>
		<path fill-rule="evenodd" clip-rule="evenodd" fill="#0D9248" d="M75.295-33.97c0.092,0.412,0.185,0.822,0.277,1.234
			c-0.572-0.15-1.004-0.474-0.936-1.104C74.664-34.079,75.059-33.973,75.295-33.97z"/>
		<path fill-rule="evenodd" clip-rule="evenodd" fill="#2A793F" d="M74.686-20.335c-0.176-0.103-0.468,0.127-0.57-0.195
			c0.19-0.034,0.381-0.067,0.57-0.1l-0.01-0.011c0,0.106,0,0.209,0,0.314L74.686-20.335z"/>
		<path fill-rule="evenodd" clip-rule="evenodd" fill="#0D9248" d="M76.496-33.691c-0.172,0.077-0.342,0.154-0.512,0.231
			c-0.027-0.167-0.059-0.333-0.086-0.498C76.146-33.979,76.363-33.926,76.496-33.691z"/>
		<path fill-rule="evenodd" clip-rule="evenodd" fill="#299249" d="M74.666-16.669c-0.121-0.042-0.244-0.085-0.363-0.127
			c0.025-0.035,0.068-0.104,0.07-0.102c0.107,0.063,0.213,0.131,0.317,0.2L74.666-16.669z"/>
		<path fill-rule="evenodd" clip-rule="evenodd" fill="#44AF4F" d="M74.676-20.326c0-0.105,0-0.208,0-0.314
			c0.15,0.028,0.385-0.057,0.355,0.217C75.026-20.379,74.8-20.359,74.676-20.326z"/>
		<path fill-rule="evenodd" clip-rule="evenodd" fill="#44AF4F" d="M77.041-12.479c-0.002,0.071-0.002,0.14-0.008,0.21
			c-0.08-0.051-0.16-0.1-0.24-0.151C76.873-12.455,76.955-12.472,77.041-12.479z"/>
	</g>
	<g>
		<path fill-rule="evenodd" clip-rule="evenodd" fill="#44AF4F" d="M83.17,155.118c0.18,1.013-0.688,2.178,0.84,3.009
			c0.943,0.508,0.018,1.588-0.533,1.729c-1.805,0.469-1.141,1.533-0.73,2.536c-1.452,0.511-3.247-0.384-4.17,1.374
			c-0.831,0.527-2.151,0.67-1.734,2.186c-1.557-0.725-3.111-1.451-4.668-2.179c0.003-3.313,0.003-6.628,0.006-9.942
			c0.938-0.757,1.877-1.512,2.815-2.269c0.173-0.237,0.349-0.476,0.521-0.712c0.2,0.003,0.402,0.006,0.6,0.008
			c0.024,0.205,0.051,0.407,0.078,0.609c-1.152,4.026,1.4,1.775,2.723,1.606c1.684-0.14,3.365-0.278,5.048-0.417
			C83.757,153.496,80.764,153.438,83.17,155.118z M79.633,157.395c1.247,0.57,2.16,0.988,2.853-0.08
			c0.197-0.304,0.058-1.242-0.14-1.314C81.221,155.581,80.65,156.538,79.633,157.395z"/>
		<path fill-rule="evenodd" clip-rule="evenodd" fill="#44AF4F" d="M84.339,106.057c1.249,0.598,2.726-0.291,3.938,0.589
			c-1.234,0.235-2.463,0.579-3.707,0.676c-1.503,0.12-2.144,0.743-1.793,2.249c-1.739,1.734-3.646-0.084-5.518,0.223
			c0.269,1.071,1.863,1.531,1.184,3.113c-1.008-0.954-1.922-1.156-2.371,0.412c-0.938-0.324-1.877-0.646-2.814-0.969
			c-0.104-0.617-0.563-0.815-1.096-0.929c0-3.327-0.002-6.655-0.005-9.981c1.503-0.469,2.241-2.23,3.958-2.333
			c-0.072,1.828,0.125,3.274,2.432,1.699c2.842-0.19,2.842-0.19,3.58,2.203c-1.079,0.69-2.153,1.382-3.746,2.405
			C80.795,105.675,82.565,105.867,84.339,106.057z"/>
		<path fill-rule="evenodd" clip-rule="evenodd" fill="#1D6F3B" d="M82.777,109.57c-0.351-1.506,0.29-2.129,1.793-2.249
			c1.244-0.097,2.473-0.44,3.707-0.676c0.787,0.854,1.135,2.118,2.531,2.41c0.678,0.144,1.41,1.048,1.001,1.509
			c-2.341,2.631,1.479,4.971,0.224,7.477c1.416,0.283,1.902,1.941,3.348,2.227c0.936,0.185,2.109,0.41,2.172,1.557
			c0.057,1.087-1.479,0.692-2.033,1.637c3.953,3.954,2.275,7.749-0.561,11.477L94.898,135c-0.772-0.662-3.51-0.572-2.238-1.774
			c3.593-3.397-0.285-7.313,1.4-10.661c0.212-0.418-0.429-0.855-0.906-0.967c-4.426-1.021-3.992-4.752-4.266-7.936
			c-0.085-0.976-0.326-1.482-0.923-2.195C86.549,109.779,84.738,109.561,82.777,109.57z"/>
		<path fill-rule="evenodd" clip-rule="evenodd" fill="#1D6F3B" d="M83.17,155.118c-2.406-1.681,0.587-1.622,0.789-2.462
			c0.424-0.105,1.412,0.248,0.765-0.787c-0.47-0.748-0.263-1.256,0.278-1.779c1.98-1.902,3.239-4.438,5.67-5.986
			c1.258-0.802,1.607-2.507,1.284-3.971c-0.536-2.413-0.521-4.264,2.646-4.355c0.104-0.002,0.197-0.507,0.297-0.777l0.061-0.063
			c0.795-0.105,1.552,0.01,2.268,0.381c0.518,0.27,1.17,0.518,1.119,1.191c-0.071,0.929-0.88,0.965-1.547,0.867
			c-2.371-0.35-2.818,0.469-2.171,2.743c1.081,3.79-0.628,6.983-4.526,9.091c-1.006,0.543-2.309,0.789-1.166,2.405
			c0.348,0.497,0.078,1.35-0.523,1.45c-1.359,0.229-2.041,0.934-2.704,2.129C85.213,156.088,84.078,154.396,83.17,155.118z"/>
		<path fill-rule="evenodd" clip-rule="evenodd" fill="#2A793F" d="M72.162,111.421c0.533,0.113,0.991,0.312,1.096,0.929
			c-0.031,11.941-0.023,23.881-0.139,35.818c-0.018,1.646,0.901,2.461,1.876,3.395c-0.938,0.756-1.878,1.511-2.815,2.268
			C72.174,139.693,72.17,125.557,72.162,111.421z"/>
		<path fill-rule="evenodd" clip-rule="evenodd" fill="#1A6B3A" d="M72.174,163.772c1.557,0.728,3.111,1.454,4.665,2.177
			c0.563,0.646,1.123,1.296,1.686,1.945c0.46,0.34,2.103,0.627,0.733,1.252c-2.406,1.098-1.423,2.106-0.549,3.65
			c-1.809-0.589-3.604-1.246-5.441-1.748c-1.143-0.313-1.232-1.054-1.201-1.995C72.121,167.293,72.141,165.533,72.174,163.772z"/>
		<path fill-rule="evenodd" clip-rule="evenodd" fill="#1A6B3A" d="M76.115,99.106c-1.717,0.103-2.455,1.864-3.958,2.333
			c-0.246-5.335-0.246-5.335,5.992-7.202c0.485,1.277-0.631,2.435-0.29,3.679c-0.38,0.105-0.762,0.213-1.145,0.32
			c-0.207,0.297-0.414,0.594-0.624,0.89L76.115,99.106z"/>
		<path fill-rule="evenodd" clip-rule="evenodd" fill="#2A793F" d="M84.339,106.057c-1.773-0.189-3.544-0.382-5.958-0.643
			c1.593-1.023,2.667-1.715,3.746-2.405C82.865,104.025,83.604,105.041,84.339,106.057z"/>
		<path fill-rule="evenodd" clip-rule="evenodd" fill="#1D6F3B" d="M76.715,98.236c0.383-0.107,0.765-0.215,1.145-0.32
			c4.075,0.052,0.789,1.847,0.688,2.89c-2.307,1.575-2.504,0.129-2.432-1.699l-0.024,0.02
			C76.537,98.997,76.664,98.643,76.715,98.236z"/>
		<path fill-rule="evenodd" clip-rule="evenodd" fill="#2A793F" d="M78.524,167.895c-0.563-0.649-1.123-1.299-1.686-1.945
			c-0.414-1.514,0.906-1.656,1.737-2.184c0.832,0.045,1.663,0.088,2.555,0.137C80.697,165.637,78.446,165.999,78.524,167.895z"/>
		<path fill-rule="evenodd" clip-rule="evenodd" fill="#0D9248" d="M94.898,135c-0.1,0.271-0.192,0.775-0.297,0.777
			c-3.167,0.092-3.182,1.942-2.646,4.355c0.323,1.464-0.026,3.169-1.284,3.971c-2.431,1.549-3.689,4.084-5.67,5.986
			c-0.541,0.523-0.748,1.031-0.278,1.779c0.647,1.035-0.341,0.682-0.765,0.787c-1.678,0.139-3.359,0.277-5.043,0.418
			c0.748-1.445,0.57-3.27,1.941-4.479c0.586-0.519,0.246-1.113-0.382-1.376c-2.409-1.015,0.288-3.928-1.89-5.006
			c0.279-0.245,0.523-0.559,0.845-0.724c2.36-1.223,1.069-3.519,0.326-4.187c-1.356-1.223-1.04-1.691-0.046-2.676
			c1.373-1.363,1.13-3.437,0.538-4.645c-0.446-0.908-1.271-1.172-0.132-2.039c0.49-0.371,0.561-0.908-0.01-1.156
			c-2.387-1.045-0.523-1.913-0.209-3.19c0.574-2.321-0.816-4.89,0.479-7.374c0.14-0.263-1.802-1.534-3.069-1.855
			c-0.411-0.35-0.822-0.699-1.236-1.049c0.449-1.568,1.363-1.366,2.371-0.412c0.68-1.582-0.915-2.042-1.184-3.113
			c1.871-0.307,3.778,1.512,5.518-0.223c1.961-0.01,3.771,0.209,5.188,1.896c0.597,0.713,0.838,1.22,0.923,2.195
			c0.273,3.184-0.16,6.914,4.266,7.936c0.478,0.111,1.118,0.549,0.906,0.967c-1.686,3.349,2.192,7.264-1.4,10.661
			C91.389,134.428,94.126,134.338,94.898,135z"/>
		<path fill-rule="evenodd" clip-rule="evenodd" fill="#07793E" d="M76.072,113.318c0.414,0.35,0.825,0.699,1.236,1.049
			c-1.596,3.272-0.467,6.822-0.742,10.207c-0.151,1.854-0.896,3.886-0.48,5.643c1.654,6.969,0.604,13.786-0.57,20.633
			c-0.172,0.236-0.348,0.475-0.521,0.712c-0.975-0.933-1.894-1.747-1.876-3.394c0.115-11.938,0.107-23.877,0.139-35.818
			C74.195,112.673,75.134,112.994,76.072,113.318z"/>
		<path fill-rule="evenodd" clip-rule="evenodd" fill="#0B6836" d="M75.516,150.85c1.175-6.847,2.225-13.664,0.57-20.633
			c-0.416-1.757,0.329-3.789,0.48-5.643c0.275-3.385-0.854-6.935,0.742-10.207c1.268,0.321,3.209,1.593,3.069,1.855
			c-1.296,2.484,0.095,5.053-0.479,7.374c-0.314,1.277-2.178,2.146,0.209,3.19c0.57,0.248,0.5,0.785,0.01,1.156
			c-1.14,0.867-0.314,1.131,0.132,2.039c0.592,1.208,0.835,3.281-0.538,4.645c-0.994,0.984-1.311,1.453,0.046,2.676
			c0.743,0.668,2.034,2.964-0.326,4.187c-0.321,0.165-0.565,0.479-0.845,0.724c2.178,1.078-0.52,3.991,1.89,5.006
			c0.628,0.263,0.968,0.857,0.382,1.376c-1.371,1.21-1.193,3.034-1.941,4.479c-1.322,0.168-3.875,2.419-2.723-1.607
			c0.212-0.118,0.422-0.236,0.633-0.355c-0.238-0.084-0.475-0.168-0.711-0.254C75.918,150.855,75.716,150.853,75.516,150.85z"/>
		<path fill-rule="evenodd" clip-rule="evenodd" fill="#07793E" d="M79.633,157.395c1.018-0.856,1.588-1.813,2.713-1.395
			c0.197,0.072,0.337,1.011,0.14,1.314C81.793,158.383,80.88,157.965,79.633,157.395z"/>
		<path fill-rule="evenodd" clip-rule="evenodd" fill="#07793E" d="M76.115,150.857c0.236,0.086,0.473,0.17,0.711,0.254
			c-0.211,0.119-0.421,0.237-0.633,0.355C76.166,151.265,76.14,151.063,76.115,150.857z"/>
		<path fill-rule="evenodd" clip-rule="evenodd" fill="#44AF4F" d="M76.715,98.236c-0.051,0.406-0.178,0.761-0.624,0.89
			C76.301,98.83,76.508,98.533,76.715,98.236z"/>
	</g>
	<g>
		<path fill-rule="evenodd" clip-rule="evenodd" fill="#44AF4F" d="M79.803,182.238c-0.16-0.482,0.35-0.802,0.313-1.255
			c-1.064-0.778-1.61,0.653-2.51,0.591c-0.133,0.233-0.348,0.287-0.596,0.266c-0.203,0.004-0.404,0.008-0.604,0.012
			c-0.239,0.004-0.631,0.109-0.66-0.131c-0.068-0.629,0.365-0.953,0.938-1.104c0.806-0.766,0.998-1.883,1.585-2.775
			c-0.239-1.074-1.071-0.127-1.565-0.455c-0.363-0.241-1.175-0.137-0.376-0.848c0.046-0.553,0.091-1.105,0.137-1.658
			c-0.098-0.117-0.065-0.482-0.363-0.225c-0.346,0.297-0.458,0.979-1.135,0.699c-0.253-0.105-0.319-0.365-0.259-0.639
			c0.146-0.655,0.676-0.819,1.229-0.923c0.473-0.091,0.981-0.324,1.381,0.183c0.58-0.141,1.162-0.3,1.557,0.361
			c1.371-0.107-0.027-0.863,0.285-1.218c-1.191-0.993-2.388-1.986-3.625-3.019c0.875-0.149,1.725,0.195,2.531-0.258
			c-0.624-0.865-1.705-0.635-2.268-1.331c-0.188-0.034-0.381-0.065-0.572-0.1c0.104-0.323,0.395-0.094,0.572-0.194
			c0.092-0.227,0.116-0.544,0.281-0.663c1.214-0.872,3.019-0.911,3.647-2.608c0.188-0.592,0.375-1.188,0.614-1.939
			c-1.063,0.365-1.744,1.182-2.736,1.306c-0.548,0.44-1.201,0.187-1.803,0.269c-0.104,0.067-0.209,0.136-0.318,0.197
			c0,0.003-0.045-0.066-0.07-0.101c0.121-0.042,0.242-0.085,0.362-0.126c0.026-0.566,0.407-0.949,0.804-1.215
			c1.115-0.746,1.338-1.833,1.325-3.044c-0.595-0.208-1.591,0.437-1.695-0.802c0.063-0.741,0.132-1.482,0.197-2.225
			c-0.19,0.153-0.388,0.301-0.567,0.461c-0.217,0.189-0.402,0.505-0.738,0.328c-0.134-0.07-0.238-0.313-0.246-0.482
			c-0.015-0.352,0.044-0.731,0.458-0.838c0.499-0.129,1.021-0.225,1.081,0.546c0.492-0.22,0.986-0.442,1.479-0.663
			c0.246-0.52,1.082,0.021,1.168-0.865c-0.223-0.271-0.86,0.129-1.148-0.318c-0.77,0.33-1.539,0.617-2.307-0.011
			c0.283-0.526,0.568-1.052,0.867-1.611c-0.58-0.337-0.977,0.33-1.48,0.267c-0.248-0.823,0.76-1.035,0.789-1.832
			c-0.594-0.385-2.17,0.395-1.734-1.398c-1.391,0.543-1.956,1.309-1.949,2.773c0.059,11.166,0.049,22.332-0.012,33.498
			c-0.008,1.314,0.409,1.885,1.664,2.129c2,0.382,3.785,1.385,5.648,2.328c0.086-0.881-1.04-1.015-0.789-1.808
			c-0.445-0.376-0.892-0.755-1.338-1.133c-0.604-0.241-0.996-0.716-1.43-1.13c0.689-0.349,1.481,0.205,2.02-0.482
			c-0.723-0.977-2.002-0.727-2.891-1.555c1.049,0.47,0.783-0.848,1.451-0.859C77.509,183.781,79.453,184.153,79.803,182.238z"/>
		<path fill-rule="evenodd" clip-rule="evenodd" fill="#2A793F" d="M75.797,168.513c0.563,0.696,1.644,0.466,2.268,1.331
			c-0.807,0.453-1.656,0.108-2.531,0.258c1.237,1.032,2.434,2.025,3.625,3.019c0.295-0.091,0.414-0.395,0.297-0.572
			c-1.289-1.941,0.496-1.986,1.52-2.503c-0.528-0.01-1.088,0.089-1.576-0.057c-0.767-0.227-0.355-0.443,0.088-0.582
			c0.373-1.244,0.989-2.233,2.363-2.604c1.225-0.328,2.263-0.992,3.408-2.233c-1.654,0.021-2.746,0.662-3.869,1.044
			c-0.874,0.295-1.408,0.314-1.666-0.666c-0.626,1.697-2.431,1.736-3.645,2.608c-0.165,0.119-0.189,0.437-0.281,0.663l-0.008-0.01
			c0.121,0.031,0.348,0.053,0.351,0.097c0.032,0.275-0.202,0.188-0.351,0.217L75.797,168.513z"/>
		<path fill-rule="evenodd" clip-rule="evenodd" fill="#2A793F" d="M79.803,182.238c-0.35,1.915-2.294,1.543-3.402,2.373
			c0.623,1.047,1.855,1.107,2.499,0.648c0.677-0.485,0.765,0.014,1.11,0.139c0.485-0.721,1.141-1.135,1.993-1.4
			c1.245-0.383,2.343-1.072,3.315-2.322c-1.138,0.037-1.912,0.48-2.724,0.762C81.621,182.775,80.67,183.196,79.803,182.238z"/>
		<path fill-rule="evenodd" clip-rule="evenodd" fill="#299249" d="M77.903,160.294c0.013,1.211-0.21,2.298-1.325,3.044
			c-0.396,0.266-0.777,0.648-0.804,1.215l0.026,0.029c0.602-0.082,1.255,0.172,1.803-0.269c-0.768-0.763,0.068-0.831,0.473-1.059
			c1.861-1.046,3.283-2.546,4.445-4.313c0.127-0.191,0.354-0.472,0.083-0.626c-0.146-0.083-0.458,0.121-0.694,0.195
			c-1.198,0.728-2.25,1.751-3.758,1.85c-0.088-0.006-0.171-0.025-0.252-0.059L77.903,160.294z"/>
		<path fill-rule="evenodd" clip-rule="evenodd" fill="#07793E" d="M80.01,185.398c-0.346-0.125-0.434-0.624-1.11-0.139
			c-0.644,0.459-1.876,0.398-2.499-0.648c-0.668,0.012-0.402,1.329-1.451,0.859c0.889,0.828,2.168,0.578,2.891,1.555
			c-0.538,0.688-1.33,0.134-2.02,0.482c0.434,0.414,0.826,0.889,1.43,1.13c0.154-0.261,0.393-0.353,0.683-0.349
			c1.695-0.085,3.147-1.081,4.813-1.273c-0.889-0.536-1.863-0.111-2.787-0.261c-0.314-0.049-0.969,0.13-0.516-0.603
			C79.631,185.901,79.82,185.648,80.01,185.398z"/>
		<path fill-rule="evenodd" clip-rule="evenodd" fill="#299249" d="M78.269,177.842c-0.587,0.893-0.779,2.01-1.585,2.777
			c-0.094,0.409-0.186,0.822-0.278,1.232c0.2-0.004,0.401-0.008,0.604-0.012c0.029-0.166,0.056-0.332,0.085-0.498
			c-0.14-0.34,0-0.556,0.3-0.727c0.894-0.518,1.78-1.046,2.672-1.57c1.102-0.974,2.063-2.053,2.709-3.403
			c-0.439-0.21-0.629,0.154-0.914,0.161C80.666,176.482,79.467,177.162,78.269,177.842z"/>
		<path fill-rule="evenodd" clip-rule="evenodd" fill="#1A6B3A" d="M76.405,157.268c-0.065,0.742-0.134,1.483-0.2,2.225
			c1.25-0.346,2.595-0.146,3.817-0.657c-0.616-0.556-1.527-0.202-2.271-0.685c0.479-0.447,0.89-0.836,1.394-1.308
			c-0.514-0.101-0.967,0.157-1.274-0.224c-0.492,0.221-0.986,0.443-1.479,0.663L76.405,157.268z"/>
		<path fill-rule="evenodd" clip-rule="evenodd" fill="#1A6B3A" d="M78.873,174.338c-0.395-0.661-0.977-0.502-1.557-0.361
			c-0.604,0-0.549,0.622-0.853,0.904c-0.046,0.553-0.091,1.105-0.137,1.658c1.146,0.357,2.233-0.361,3.379-0.164
			c0.333,0.057,0.546-0.191,0.589-0.543c-0.828-0.09-1.653-0.182-2.506-0.275C77.92,174.854,78.622,174.805,78.873,174.338z"/>
		<path fill-rule="evenodd" clip-rule="evenodd" fill="#D2E6B7" d="M80.066,179.045c-0.892,0.524-1.778,1.053-2.672,1.57
			c-0.3,0.171-0.439,0.387-0.3,0.727c0.171,0.078,0.341,0.154,0.511,0.232c0.899,0.063,1.445-1.369,2.51-0.591
			C81.338,180.305,80.98,179.668,80.066,179.045z"/>
		<path fill-rule="evenodd" clip-rule="evenodd" fill="#D2E6B7" d="M80.022,158.835c-1.223,0.511-2.567,0.312-3.817,0.657
			c0.107,1.238,1.104,0.594,1.698,0.802l-0.003,0.009c0.084-0.05,0.164-0.102,0.244-0.15c0.002,0.068,0.005,0.14,0.008,0.209
			c1.508-0.099,2.56-1.122,3.758-1.85C81.274,158.599,80.554,158.168,80.022,158.835z"/>
		<path fill-rule="evenodd" clip-rule="evenodd" fill="#D2E6B7" d="M80.295,175.832c-0.043,0.352-0.256,0.6-0.589,0.543
			c-1.146-0.197-2.233,0.521-3.379,0.164c-0.799,0.711,0.013,0.606,0.376,0.848c0.494,0.328,1.326-0.619,1.565,0.455
			c1.198-0.68,2.397-1.359,3.593-2.039C81.34,175.813,80.816,175.822,80.295,175.832z"/>
		<path fill-rule="evenodd" clip-rule="evenodd" fill="#1D6F3B" d="M75.584,155.425c0.768,0.628,1.537,0.341,2.307,0.011
			c0.473-0.731,1.191-1.341,1.25-2.51C77.835,153.801,77.229,155.386,75.584,155.425z"/>
		<path fill-rule="evenodd" clip-rule="evenodd" fill="#1A6B3A" d="M79.486,169.406c-0.443,0.139-0.854,0.355-0.088,0.582
			c0.488,0.146,1.048,0.047,1.576,0.057c0.756,0.086,1.43-0.187,2.105-0.639C81.879,169.406,80.683,169.406,79.486,169.406z"/>
		<path fill-rule="evenodd" clip-rule="evenodd" fill="#6E8F5F" d="M79.443,186.152c-0.453,0.732,0.201,0.554,0.516,0.603
			c0.924,0.149,1.898-0.275,2.787,0.261c0.258,0.027,0.574,0.012,0.623-0.257c0.07-0.408-0.307-0.24-0.504-0.27
			C81.73,186.318,80.527,186.855,79.443,186.152z"/>
		<path fill-rule="evenodd" clip-rule="evenodd" fill="#1A6B3A" d="M77.933,188.289c-0.29-0.004-0.528,0.088-0.683,0.349
			c0.446,0.378,0.893,0.757,1.338,1.133c0.246,0.019,0.487,0.036,0.84,0.064C79.16,188.986,78.334,188.836,77.933,188.289z"/>
		<path fill-rule="evenodd" clip-rule="evenodd" fill="#07793E" d="M76.464,174.881c0.304-0.282,0.249-0.904,0.853-0.904
			c-0.399-0.507-0.908-0.273-1.381-0.183c-0.553,0.104-1.082,0.268-1.229,0.923c-0.061,0.273,0.006,0.533,0.259,0.639
			c0.677,0.279,0.789-0.402,1.135-0.699C76.398,174.398,76.366,174.764,76.464,174.881z"/>
		<path fill-rule="evenodd" clip-rule="evenodd" fill="#1D6F3B" d="M76.393,157.282c-0.061-0.771-0.582-0.675-1.081-0.546
			c-0.414,0.106-0.473,0.486-0.458,0.838c0.008,0.17,0.112,0.412,0.246,0.482c0.336,0.177,0.521-0.139,0.738-0.328
			c0.18-0.16,0.377-0.308,0.567-0.461L76.393,157.282z"/>
		<path fill-rule="evenodd" clip-rule="evenodd" fill="#0D9248" d="M76.405,181.852c0.093-0.41,0.185-0.823,0.278-1.232
			c-0.573,0.148-1.007,0.473-0.938,1.102C75.774,181.961,76.166,181.855,76.405,181.852z"/>
		<path fill-rule="evenodd" clip-rule="evenodd" fill="#2A793F" d="M75.797,168.219c-0.178,0.101-0.469-0.129-0.572,0.194
			c0.191,0.034,0.385,0.065,0.572,0.1l-0.008,0.01c0-0.104,0-0.21,0-0.313L75.797,168.219z"/>
		<path fill-rule="evenodd" clip-rule="evenodd" fill="#0D9248" d="M77.605,181.574c-0.17-0.078-0.34-0.154-0.511-0.232
			c-0.029,0.166-0.056,0.332-0.085,0.498C77.258,181.861,77.473,181.808,77.605,181.574z"/>
		<path fill-rule="evenodd" clip-rule="evenodd" fill="#299249" d="M75.774,164.553c-0.12,0.041-0.241,0.084-0.362,0.126
			c0.025,0.034,0.07,0.104,0.07,0.101c0.109-0.062,0.214-0.13,0.318-0.197L75.774,164.553z"/>
		<path fill-rule="evenodd" clip-rule="evenodd" fill="#44AF4F" d="M75.789,168.209c0,0.104,0,0.209,0,0.313
			c0.148-0.028,0.383,0.059,0.351-0.217C76.137,168.262,75.91,168.24,75.789,168.209z"/>
		<path fill-rule="evenodd" clip-rule="evenodd" fill="#44AF4F" d="M78.152,160.361c-0.003-0.069-0.006-0.141-0.008-0.209
			c-0.08,0.049-0.16,0.101-0.244,0.15C77.981,160.336,78.064,160.355,78.152,160.361z"/>
	</g>
	<path fill="#44AF4F" d="M32.08,1.561c0,0-16.985-18.783-21.781-19.183c-4.796-0.399-19.911,3.397-19.911,3.397
		S-25.27-8.43-18.077,5.159c7.196,13.587-3.193,13.188-3.193,13.188s-4.996,0.8-3.598,4.197c0,0-9.992-1.799-14.588,2.398
		c-4.594,4.196-13.79,0.998-13.79,0.998s-20.98,0.001-20.381,7.395s1.173,9.991-0.013,13.188c-1.187,3.198,15.2,7.792,24.591,14.786
		c9.393,6.994,14.388,0.999,14.388,0.999s12.59,17.585,18.184,18.784c5.597,1.199,2.798-8.193,2.798-8.193
		s26.375-15.984,33.37-16.785c6.997-0.8,5.197-16.784,5.197-16.784l-3.598-0.399c0,0,9.592-19.584,11.992-20.383
		C35.678,17.748,32.08,1.561,32.08,1.561z"/>
	<path fill="#44AF4F" d="M73.36,186.988V170.83v-0.246v-18.01v-15.912V35.314c-0.616-0.657-1.274-1.26-1.978-1.744
		c0,0-6.47-10.968-6.75-13.5c0,0-0.843-4.499-3.376,0c0,0-4.779,3.656-6.468,1.125c-1.688-2.53-2.531-13.78-2.531-13.78
		S44.7,1.791,37.668,4.32c0,0-2.568,9.562,2.494,13.5c5.064,3.938,18.846,15.468,17.158,23.906
		c-1.688,8.438-13.219,10.688-15.468,10.688l1.968,7.031c0,0,1.969-6.08,11.813-5.572c0,0,3.093,5.01-5.063,9.228
		c-8.155,4.22-11.531,6.47-11.531,6.47s4.219,2.251,3.094,5.907c-1.123,3.656-6.752,1.686-7.033,5.623
		c-0.277,3.938,0,14.906,0,14.906s-6.466,3.656-11.246,0c-4.784-3.656-4.783-5.187-11.814,1.625
		c-7.034,6.813-33.471,15.532-33.471,15.532s-4.186,0.281,4.797,8.719c8.985,8.438,2.518,11.249,2.518,11.249
		s-5.344,8.438,10.686,7.875c16.032-0.562,9.281-12.093,9.281-12.093s0-5.89,8.999-5.477c9.004,0.414-1.123,10.539-1.123,10.539
		s-8.026,9.039-6.782,22.604c-4.505,0.599-10.657,0.373-17.99-2.526c0,0,27.752,22.82,40.333,26.212c0,0,3.332,5.292,7.77,5.267
		C41.5,185.508,63.408,189.948,73.36,186.988z"/>
	<path fill="#44AF4F" d="M72.813-120.23c0,0-6.482-8.899-16.433-7.212c-9.952,1.687-76.113,22.78-94.399,63.252
		c0,0-2.718,2.374,12.896-7.39C-9.508-81.342-4.609-83.962,1.137-84.557c0,0,2.633,4.705,7.556,4.643
		c4.923-0.059,6.426-1.924,14.26-1.394c7.834,0.531,16.125-11.5,20.42-22.62l9.063-0.173C52.437-104.1,78.269-115.35,72.813-120.23z
		"/>
	<path fill="#002C3D" d="M181.193,92.933v-1.78v-0.986v-1.908V87.27v-1.778v-1.113v-1.782v-0.986v-1.906v-0.988v-1.779v-1.113V74.04
		v-0.986v-1.907v-0.938v-1.83v-1.062v-1.783v-0.983v-1.389h0.668h2.738h4.951h3.094h4.942h2.745h5.301h2.738h4.949l8.119-6.853
		l4.301-3.747v-0.07h2.498v-1.039h2.491c0.399,1.495,1.751,2.601,3.371,2.601c1.935,0,3.503-1.568,3.503-3.503
		c0-1.936-1.568-3.505-3.503-3.505c-1.671,0-3.066,1.175-3.415,2.74h-2.447v-1.179h-2.498v-0.068l-12.42-9.65h-4.949h-2.738h-5.301
		h-2.745h-4.942h-3.094H184.6h-2.738h-5.299h-2.747h-4.94h-3.096h-4.949h-2.736h-5.3h-2.606h-5.084h-2.951h-4.953h-2.734h-5.299
		l-7.689-1.832v6.621h4.789v4.861h-6.541v4.023h6.541v5.811h-4.789v0.049v4.042v2.588l7.689-1.89h5.299h2.734h4.953h2.951h1.708
		v15.162h-25.335v2.299h50.982v0.986v0.986h-50.982v2.299h50.982v0.597v1.778v0.988v1.908v0.986v1.78l2.467,2.923l1.348,1.549h1.449
		L181.193,92.933z M127.502,48.539v-4.434l4.434,4.434H127.502z M133.575,48.539l-4.862-4.861h0.453h4.789v4.861H133.575z
		 M135.189,48.539v-4.434l4.434,4.434H135.189z M141.263,48.539l-4.86-4.861h0.797h4.791v4.861H141.263z M143.227,48.539v-4.434
		l4.433,4.434H143.227z M149.299,48.539l-4.859-4.861h0.664h4.792v4.861H149.299z M151.131,48.539v-4.434l4.433,4.434H151.131z
		 M157.203,48.539l-4.859-4.861h0.45h4.792v4.861H157.203z M158.818,48.539v-4.434l4.436,4.434H158.818z M164.893,48.539
		l-4.859-4.861h0.797h4.791v4.861H164.893z M166.854,48.539v-4.434l4.434,4.434H166.854z M172.929,48.539l-4.859-4.861h0.806h4.792
		v4.861H172.929z M174.899,48.539v-4.434l4.433,4.434H174.899z M180.975,48.539l-4.859-4.861h0.447h4.792v4.861H180.975z
		 M182.59,48.539v-4.434l4.431,4.434H182.59z M188.662,48.539l-4.859-4.861h0.797h4.791v4.861H188.662z M190.625,48.539v-4.434
		l4.434,4.434H190.625z M196.698,48.539l-4.86-4.861h0.807h4.791v4.861H196.698z M198.671,48.539v-4.434l4.431,4.434H198.671z
		 M204.744,48.539l-4.859-4.861h0.447h4.791v4.861H204.744z M206.359,48.539v-4.434l4.433,4.434H206.359z M212.432,48.539
		l-4.857-4.861h0.797h4.791v4.861H212.432z M214.395,48.539v-4.434l4.434,4.434H214.395z M220.47,48.539l-4.862-4.861l5.545,4.861
		H220.47z M219.34,52.563l-4.945,4.945v-4.945H219.34z M211.307,52.563l-4.947,4.945v-4.945H211.307z M203.615,52.563l-4.944,4.945
		v-4.945H203.615z M195.57,52.563l-4.945,4.945v-4.945H195.57z M187.534,52.563l-4.944,4.945v-4.945H187.534z M179.847,52.563
		l-4.947,4.945v-4.945H179.847z M171.801,52.563l-4.947,4.945v-4.945H171.801z M163.766,52.563l-4.947,4.945v-4.945H163.766z
		 M156.078,52.563l-4.947,4.945v-4.945H156.078z M148.171,52.563l-4.944,4.945v-4.945H148.171z M140.135,52.563l-4.945,4.945v-4.945
		H140.135z M127.502,52.563h4.945l-4.945,4.945V52.563z M129.166,58.373h-0.889l5.678-5.678v5.678H129.166z M137.199,58.373h-1.232
		l5.807-5.811h0.217v5.811H137.199z M145.104,58.373h-1.101l5.81-5.811h0.083v5.811H145.104z M152.794,58.373h-0.887l5.679-5.678
		v5.678H152.794z M160.83,58.373h-1.235l5.812-5.811h0.215v5.811H160.83z M168.875,58.373h-1.244l5.81-5.811h0.227v5.811H168.875z
		 M176.563,58.373h-0.887l5.679-5.678v5.678H176.563z M184.6,58.373h-1.232l5.809-5.811h0.215v5.811H184.6z M192.645,58.373H191.4
		l5.812-5.811h0.224v5.811H192.645z M200.332,58.373h-0.884l5.675-5.678v5.678H200.332z M208.371,58.373h-1.235l5.81-5.811h0.217
		v5.811H208.371z M220.98,52.563h0.437l-6.243,5.811L220.98,52.563z M179.318,79.104l-1.596,1.595v-1.595H179.318z M176.273,79.104
		v1.78l-1.781-1.78H176.273z M174.184,78.66v-1.725v-0.447l2.09,2.092v0.08H174.184z M179.472,76.936v1.725h-1.749v-0.265
		l1.749-1.75V76.936z M179.318,76.208l-1.596,1.596v-1.596H179.318z M176.273,76.208v1.78l-1.781-1.78H176.273z M179.472,74.04
		v1.725h-1.749v-0.263l1.749-1.749V74.04z M176.273,75.765h-2.09V74.04v-0.444l2.09,2.092V75.765z M179.318,73.316l-1.596,1.596
		v-1.596H179.318z M176.273,73.316v1.781l-1.781-1.781H176.273z M179.472,71.146v1.725h-1.749v-0.137l1.749-1.748V71.146z
		 M176.225,72.871h-2.041v-1.725v-0.318L176.225,72.871z M179.318,70.55l-1.596,1.595V70.55H179.318z M176.273,70.55v1.779
		l-1.781-1.779H176.273z M179.472,68.379v1.725h-1.749V69.89l1.749-1.749V68.379z M176.273,70.104h-2.09v-1.725v-0.396l2.09,2.092
		V70.104z M179.318,67.703l-1.596,1.596v-1.596H179.318z M176.273,67.703v1.781l-1.781-1.781H176.273z M179.472,65.534v1.725h-1.749
		v-0.262l1.749-1.749V65.534z M176.273,67.259h-2.09v-1.725v-0.443l2.09,2.091V67.259z M179.318,64.811l-1.596,1.596v-1.596H179.318
		z M176.273,64.811v1.781l-1.781-1.781H176.273z M179.472,64.366h-1.749v-0.137l1.066-1.067h0.683V64.366z M176.273,63.162v0.662
		l-0.662-0.662H176.273z M177.723,63.162h0.478l-0.478,0.477V63.162z M175.021,63.162l1.203,1.204h-2.041v-1.204H175.021z
		 M149.108,63.162h1.079h2.606h5.3h2.736h4.949h3.096h3.584v1.389v0.983v1.783v1.062v1.83v0.938v1.907v0.986v1.782v1.113v1.389
		h-23.351V63.162z M174.184,81.428v-1.725v-0.318l2.041,2.043H174.184z M177.723,81.428v-0.137l1.749-1.75v0.162v1.725H177.723z
		 M179.318,84.764l-1.596,1.595v-1.595H179.318z M179.472,82.596v1.724h-1.749v-0.262l1.749-1.749V82.596z M179.318,81.871
		l-1.596,1.596v-1.596H179.318z M176.273,81.871v1.781l-1.781-1.781H176.273z M174.184,82.151l2.09,2.091v0.077h-2.09v-1.724V82.151
		z M174.492,84.764h1.781v1.779L174.492,84.764z M174.184,87.216v-1.725v-0.448l2.09,2.092v0.081H174.184z M177.723,87.216V86.95
		l1.749-1.749v0.29v1.725H177.723z M179.318,87.66l-1.596,1.596V87.66H179.318z M176.273,87.66v1.779l-1.781-1.779H176.273z
		 M174.184,89.982v-1.725v-0.318l2.041,2.043H174.184z M177.723,89.982v-0.136l1.749-1.749v0.16v1.725H177.723z M179.318,90.426
		l-1.596,1.598v-1.598H179.318z M176.273,90.426v1.781l-1.781-1.781H176.273z M174.184,92.875v-1.723v-0.445l2.09,2.092v0.076
		H174.184z M177.723,92.875v-0.262l1.749-1.748v0.287v1.723H177.723z M177.723,95.751v-0.246l1.749-1.749L177.723,95.751z
		 M179.318,93.32l-1.596,1.596V93.32H179.318z M176.273,93.32v1.78l-1.781-1.78H176.273z M174.184,93.6l2.09,2.091v0.155
		L174.184,93.6z"/>
</g>
</svg>
