<?xml version="1.0" encoding="utf-8"?>
<!-- Generator: Adobe Illustrator 16.0.3, SVG Export Plug-In . SVG Version: 6.00 Build 0)  -->
<!DOCTYPE svg PUBLIC "-//W3C//DTD SVG 1.1//EN" "http://www.w3.org/Graphics/SVG/1.1/DTD/svg11.dtd">
<svg version="1.1" id="Layer_1" xmlns="http://www.w3.org/2000/svg" xmlns:xlink="http://www.w3.org/1999/xlink" x="0px" y="0px"
	 width="76.875px" height="68px" viewBox="17.375 -51.75 76.875 68" enable-background="new 17.375 -51.75 76.875 68"
	 xml:space="preserve">
<g>
	<rect x="33.725" y="-21.281" fill="#58595B" width="10.25" height="2.834"/>
	<rect x="68.642" y="-21.281" fill="#58595B" width="10.25" height="2.834"/>
	<path fill="#3B2314" d="M55.894-44.904c0,0-26.169-8.039-35.713,1.166l3.417,23.129h32.296h32.494l3.219-23.129
		C82.063-52.943,55.894-44.904,55.894-44.904z"/>
	<path fill="#603813" d="M91.75-43.738l0.057-1.143c0-2.521-5.374-4.566-12.001-4.566H32.181c-6.627,0-12,2.045-12,4.566v1.143
		H91.75z"/>
	<polygon fill="#8A5D3B" points="24.37,-21.9 22.826,-21.9 20.181,-43.738 21.725,-43.738 	"/>
	<polygon fill="#8A5D3B" points="88.77,-22.197 87.095,-21.281 90.206,-43.738 91.75,-43.738 	"/>
	<rect x="20.47" y="-16.652" fill="#603813" width="70.922" height="30.352"/>
	<path opacity="0.7" fill="#3B2314" d="M20.47-4.068c0,0,19.047-7.916,33.486-7.834h35.185v-4.75H20.47V-4.068z"/>
	<polygon fill="#FFDD15" points="91.75,-19.318 20.181,-19.318 21.741,-14.15 89.96,-14.15 	"/>
	<polygon fill="#FFDD15" points="56.749,-23.434 55.249,-23.434 53.749,-23.434 49.624,-23.434 49.624,-14.391 53.062,-9.871 
		55.249,-9.871 57.437,-9.871 60.874,-14.391 60.874,-23.434 	"/>
	<path fill="#404041" d="M58.062-18.775c0-1.727-1.398-3.125-3.125-3.125c-1.725,0-3.125,1.398-3.125,3.125
		c0,1.305,0.801,2.42,1.938,2.889v3.066h2.289v-3.039C57.218-16.305,58.062-17.438,58.062-18.775z"/>
	<rect x="20.892" y="-43.738" fill="#8A5D3B" width="69.917" height="1.457"/>
	<path fill="#FFDD15" d="M20.142-43.738c-0.082-0.232-1.926-4.443,8.877-5.553v1.135c0,0-4.481,1.168-4.481,4.418H20.142z"/>
	<path fill="#FFDD15" d="M91.734-43.738c0.082-0.232,1.926-4.443-8.877-5.553v1.135c0,0,4.481,1.168,4.481,4.418H91.734z"/>
	<rect x="20.181" y="-11.781" fill="#E7C82C" width="2.095" height="21.293"/>
	<rect x="89.71" y="-11.781" fill="#E7C82C" width="2.095" height="21.293"/>
	<path fill="#FFDD15" d="M84.972-16.652L84.972-16.652c0,3.773,3.06,6.832,6.833,6.834v-6.834l0,0v-6.832
		C88.031-23.484,84.974-20.426,84.972-16.652z"/>
	<path fill="#FFDD15" d="M27.015-16.65h-0.002c0-3.773-3.059-6.832-6.832-6.834v6.834l0,0v6.832
		C23.954-9.818,27.013-12.877,27.015-16.65z"/>
	<rect x="24.89" y="12.041" fill="#E7C82C" width="62.336" height="2.096"/>
	<path fill="#FFDD15" d="M20.181,14.137h6.832c0-3.773-3.059-6.832-6.832-6.834V14.137z"/>
	<path fill="#FFDD15" d="M91.805,14.137V7.305c-3.773,0-6.831,3.059-6.833,6.832H91.805z"/>
</g>
</svg>
