<?xml version="1.0" encoding="utf-8"?>
<!-- Generator: Adobe Illustrator 16.0.3, SVG Export Plug-In . SVG Version: 6.00 Build 0)  -->
<!DOCTYPE svg PUBLIC "-//W3C//DTD SVG 1.1//EN" "http://www.w3.org/Graphics/SVG/1.1/DTD/svg11.dtd">
<svg version="1.1" id="Layer_1" xmlns="http://www.w3.org/2000/svg" xmlns:xlink="http://www.w3.org/1999/xlink" x="0px" y="0px"
	 width="68.625px" height="186.25px" viewBox="17.375 -51.75 68.625 186.25" enable-background="new 17.375 -51.75 68.625 186.25"
	 xml:space="preserve">
<g>
	<g>
		
			<linearGradient id="SVGID_1_" gradientUnits="userSpaceOnUse" x1="-56.7856" y1="49.9258" x2="-38.7243" y2="30.3137" gradientTransform="matrix(0.7071 -0.7071 0.7071 0.7071 57.7633 53.6339)">
			<stop  offset="0" style="stop-color:#FFFFFF;stop-opacity:0"/>
			<stop  offset="1" style="stop-color:#FFF100"/>
		</linearGradient>
		<polygon opacity="0.8" fill="url(#SVGID_1_)" points="46.199,82.141 45.401,82.939 40.114,89.736 44.121,88.489 44.646,92.363 
			46.123,90.887 47.504,145.527 49.984,100.329 51.508,132.326 52.719,92.426 53.396,135.396 54.984,100.6 55.448,136.266 
			56.229,90.868 57.838,92.477 58.143,88.26 62.473,89.83 56.123,81.853 		"/>
		
			<linearGradient id="SVGID_2_" gradientUnits="userSpaceOnUse" x1="-46.7363" y1="32.2051" x2="-27.2656" y2="14.1504" gradientTransform="matrix(0.7071 -0.7071 0.7071 0.7071 57.7633 53.6339)">
			<stop  offset="0" style="stop-color:#FFFFFF;stop-opacity:0"/>
			<stop  offset="1" style="stop-color:#FAAD18"/>
		</linearGradient>
		<polygon opacity="0.7" fill="url(#SVGID_2_)" points="47.318,82.107 47.293,128.545 49.725,82.037 		"/>
		
			<linearGradient id="SVGID_3_" gradientUnits="userSpaceOnUse" x1="-38.876" y1="29.333" x2="-24.9289" y2="15.8387" gradientTransform="matrix(0.7071 -0.7071 0.7071 0.7071 57.7633 53.6339)">
			<stop  offset="0" style="stop-color:#FFFFFF;stop-opacity:0"/>
			<stop  offset="1" style="stop-color:#FAAD18"/>
		</linearGradient>
		<polygon opacity="0.7" fill="url(#SVGID_3_)" points="50.125,82.027 51.146,116.528 52.56,81.953 		"/>
		
			<linearGradient id="SVGID_4_" gradientUnits="userSpaceOnUse" x1="-30.3755" y1="25.249" x2="-22.6733" y2="17.8065" gradientTransform="matrix(0.7071 -0.7071 0.7071 0.7071 57.7633 53.6339)">
			<stop  offset="0" style="stop-color:#FFFFFF;stop-opacity:0"/>
			<stop  offset="1" style="stop-color:#FAAD18"/>
		</linearGradient>
		<polygon fill="url(#SVGID_4_)" points="53.723,81.922 53.68,98.504 54.932,81.887 		"/>
	</g>
	<g>
		<g>
			
				<linearGradient id="SVGID_5_" gradientUnits="userSpaceOnUse" x1="-35.3574" y1="53.3027" x2="-25.0722" y2="42.1344" gradientTransform="matrix(0.7071 -0.7071 0.7071 0.7071 57.7633 53.6339)">
				<stop  offset="0" style="stop-color:#FFFFFF;stop-opacity:0"/>
				<stop  offset="1" style="stop-color:#FFF100"/>
			</linearGradient>
			<polygon opacity="0.8" fill="url(#SVGID_5_)" points="66.632,89.59 66.178,90.045 63.166,93.914 65.447,93.205 65.747,95.41 
				66.588,94.57 67.375,125.686 68.787,99.947 69.654,118.168 70.344,95.445 70.729,119.916 71.634,100.102 71.898,120.41 
				72.343,94.559 73.259,95.475 73.433,93.074 75.898,93.969 72.283,89.426 			"/>
			
				<linearGradient id="SVGID_6_" gradientUnits="userSpaceOnUse" x1="-29.6323" y1="43.2129" x2="-18.5454" y2="32.9323" gradientTransform="matrix(0.7071 -0.7071 0.7071 0.7071 57.7633 53.6339)">
				<stop  offset="0" style="stop-color:#FFFFFF;stop-opacity:0"/>
				<stop  offset="1" style="stop-color:#FAAD18"/>
			</linearGradient>
			<polygon opacity="0.7" fill="url(#SVGID_6_)" points="67.27,89.57 67.254,116.014 68.639,89.531 			"/>
			
				<linearGradient id="SVGID_7_" gradientUnits="userSpaceOnUse" x1="-25.1563" y1="41.5771" x2="-17.2136" y2="33.8923" gradientTransform="matrix(0.7071 -0.7071 0.7071 0.7071 57.7633 53.6339)">
				<stop  offset="0" style="stop-color:#FFFFFF;stop-opacity:0"/>
				<stop  offset="1" style="stop-color:#FAAD18"/>
			</linearGradient>
			<polygon opacity="0.7" fill="url(#SVGID_7_)" points="68.867,89.525 69.448,109.172 70.254,89.482 			"/>
			
				<linearGradient id="SVGID_8_" gradientUnits="userSpaceOnUse" x1="-20.3169" y1="39.252" x2="-15.9309" y2="35.0138" gradientTransform="matrix(0.7071 -0.7071 0.7071 0.7071 57.7633 53.6339)">
				<stop  offset="0" style="stop-color:#FFFFFF;stop-opacity:0"/>
				<stop  offset="1" style="stop-color:#FAAD18"/>
			</linearGradient>
			<polygon fill="url(#SVGID_8_)" points="70.916,89.465 70.891,98.908 71.604,89.445 			"/>
		</g>
		<g>
			
				<linearGradient id="SVGID_9_" gradientUnits="userSpaceOnUse" x1="-61.3691" y1="27.2905" x2="-51.0842" y2="16.1225" gradientTransform="matrix(0.7071 -0.7071 0.7071 0.7071 57.7633 53.6339)">
				<stop  offset="0" style="stop-color:#FFFFFF;stop-opacity:0"/>
				<stop  offset="1" style="stop-color:#FFF100"/>
			</linearGradient>
			<polygon opacity="0.8" fill="url(#SVGID_9_)" points="29.843,89.59 29.389,90.045 26.378,93.914 28.659,93.205 28.958,95.41 
				29.799,94.57 30.586,125.686 31.999,99.947 32.866,118.168 33.555,95.445 33.941,119.916 34.845,100.102 35.109,120.41 
				35.555,94.559 36.471,95.475 36.645,93.074 39.109,93.969 35.494,89.426 			"/>
			
				<linearGradient id="SVGID_10_" gradientUnits="userSpaceOnUse" x1="-55.646" y1="17.1987" x2="-44.5588" y2="6.9179" gradientTransform="matrix(0.7071 -0.7071 0.7071 0.7071 57.7633 53.6339)">
				<stop  offset="0" style="stop-color:#FFFFFF;stop-opacity:0"/>
				<stop  offset="1" style="stop-color:#FAAD18"/>
			</linearGradient>
			<polygon opacity="0.7" fill="url(#SVGID_10_)" points="30.481,89.57 30.465,116.014 31.85,89.531 			"/>
			
				<linearGradient id="SVGID_11_" gradientUnits="userSpaceOnUse" x1="-51.1704" y1="15.564" x2="-43.228" y2="7.8794" gradientTransform="matrix(0.7071 -0.7071 0.7071 0.7071 57.7633 53.6339)">
				<stop  offset="0" style="stop-color:#FFFFFF;stop-opacity:0"/>
				<stop  offset="1" style="stop-color:#FAAD18"/>
			</linearGradient>
			<polygon opacity="0.7" fill="url(#SVGID_11_)" points="32.079,89.525 32.66,109.172 33.465,89.482 			"/>
			
				<linearGradient id="SVGID_12_" gradientUnits="userSpaceOnUse" x1="-46.3301" y1="13.2388" x2="-41.9439" y2="9.0004" gradientTransform="matrix(0.7071 -0.7071 0.7071 0.7071 57.7633 53.6339)">
				<stop  offset="0" style="stop-color:#FFFFFF;stop-opacity:0"/>
				<stop  offset="1" style="stop-color:#FAAD18"/>
			</linearGradient>
			<polygon fill="url(#SVGID_12_)" points="34.127,89.465 34.102,98.908 34.815,89.445 			"/>
		</g>
		<g>
			
				<linearGradient id="SVGID_13_" gradientUnits="userSpaceOnUse" x1="-52.6953" y1="45.083" x2="-42.4104" y2="33.915" gradientTransform="matrix(0.7071 -0.7071 0.7071 0.7071 57.7633 53.6339)">
				<stop  offset="0" style="stop-color:#FFFFFF;stop-opacity:0"/>
				<stop  offset="1" style="stop-color:#FFF100"/>
			</linearGradient>
			<polygon opacity="0.8" fill="url(#SVGID_13_)" points="48.558,96.037 48.104,96.492 45.092,100.363 47.373,99.652 
				47.673,101.859 48.514,101.018 49.301,132.133 50.713,106.395 51.58,124.615 52.27,101.895 52.655,126.363 53.56,106.549 
				53.824,126.859 54.269,101.008 55.185,101.924 55.358,99.521 57.824,100.416 54.209,95.873 			"/>
			
				<linearGradient id="SVGID_14_" gradientUnits="userSpaceOnUse" x1="-46.9731" y1="34.9922" x2="-35.8852" y2="24.7106" gradientTransform="matrix(0.7071 -0.7071 0.7071 0.7071 57.7633 53.6339)">
				<stop  offset="0" style="stop-color:#FFFFFF;stop-opacity:0"/>
				<stop  offset="1" style="stop-color:#FAAD18"/>
			</linearGradient>
			<polygon opacity="0.7" fill="url(#SVGID_14_)" points="49.195,96.02 49.18,122.463 50.564,95.979 			"/>
			
				<linearGradient id="SVGID_15_" gradientUnits="userSpaceOnUse" x1="-42.4966" y1="33.3555" x2="-34.5549" y2="25.6716" gradientTransform="matrix(0.7071 -0.7071 0.7071 0.7071 57.7633 53.6339)">
				<stop  offset="0" style="stop-color:#FFFFFF;stop-opacity:0"/>
				<stop  offset="1" style="stop-color:#FAAD18"/>
			</linearGradient>
			<polygon opacity="0.7" fill="url(#SVGID_15_)" points="50.793,95.973 51.374,115.619 52.18,95.932 			"/>
			
				<linearGradient id="SVGID_16_" gradientUnits="userSpaceOnUse" x1="-37.6558" y1="31.0303" x2="-33.2698" y2="26.7921" gradientTransform="matrix(0.7071 -0.7071 0.7071 0.7071 57.7633 53.6339)">
				<stop  offset="0" style="stop-color:#FFFFFF;stop-opacity:0"/>
				<stop  offset="1" style="stop-color:#FAAD18"/>
			</linearGradient>
			<polygon fill="url(#SVGID_16_)" points="52.842,95.912 52.816,105.355 53.529,95.893 			"/>
		</g>
		<g>
			<polygon opacity="0.6" fill="#C1B49A" points="48.09,94.578 46.156,120.443 47.123,120.443 48.717,94.795 			"/>
			<polygon opacity="0.6" fill="#C1B49A" points="50.514,92.666 49.047,121.244 50.014,121.229 51.145,92.895 			"/>
			<polygon opacity="0.6" fill="#C1B49A" points="54.57,94.578 56.504,120.443 55.537,120.443 53.941,94.795 			"/>
			<polygon opacity="0.6" fill="#C1B49A" points="52.697,95.561 53.197,122.926 52.23,122.863 52.059,95.75 			"/>
			<path fill="#C1B49A" d="M58.166,110.715c0-0.592-0.414-1.1-1.01-1.334c0.012-0.205-0.066-0.465-0.232-0.707
				c-0.277-0.408-0.691-0.609-0.922-0.451c-0.232,0.158-0.195,0.615,0.084,1.023c0.016,0.025,0.035,0.047,0.053,0.068
				c-0.379,0.148-0.648,0.514-0.648,0.945c0,0.137,0.027,0.268,0.076,0.389c-0.395,0.084-0.705,0.398-0.783,0.795
				c-0.008,0-0.014-0.002-0.02-0.002c-0.307,0-0.576,0.139-0.762,0.352c-0.188-0.213-0.457-0.352-0.762-0.352
				c-0.561,0-1.016,0.455-1.016,1.016c0,0.008,0.002,0.016,0.002,0.023c-0.094-0.041-0.197-0.063-0.305-0.063
				c-0.154,0-0.299,0.047-0.422,0.127c-0.043-0.221-0.18-0.404-0.367-0.516c0.006-0.039,0.012-0.078,0.012-0.119
				c0-0.43-0.348-0.777-0.777-0.777c-0.338,0-0.625,0.219-0.73,0.521c-0.045-0.008-0.094-0.014-0.141-0.014
				c-0.277,0-0.518,0.145-0.654,0.359c-0.143-0.193-0.371-0.32-0.627-0.32c-0.195,0-0.371,0.074-0.508,0.193
				c-0.018-0.377-0.305-0.684-0.674-0.73c-0.008-0.037-0.018-0.072-0.029-0.109c0.135-0.139,0.217-0.326,0.217-0.535
				c0-0.43-0.348-0.777-0.777-0.777c-0.078,0-0.152,0.016-0.225,0.037c-0.021-0.059-0.047-0.115-0.08-0.168
				c0.127-0.096,0.246-0.242,0.326-0.428c0.174-0.4,0.107-0.816-0.15-0.928s-0.605,0.121-0.781,0.523
				c-0.074,0.17-0.102,0.34-0.092,0.492c-0.406,0.025-0.729,0.359-0.729,0.771c0,0.02,0.006,0.039,0.008,0.057
				c-0.365,0.271-0.596,0.666-0.596,1.107c0,0.615,0.447,1.141,1.08,1.363c-0.039,0.104-0.061,0.213-0.061,0.326
				c0,0.598,0.574,1.08,1.281,1.08c0.477,0,0.891-0.219,1.111-0.543c0.221,0.324,0.635,0.543,1.111,0.543
				c0.084,0,0.164-0.008,0.244-0.02c0.133,0.477,0.639,0.832,1.246,0.832c0.344,0,0.654-0.115,0.883-0.299
				c0.314,0.404,0.854,0.674,1.469,0.674c0.83,0,1.523-0.486,1.705-1.139c0.234,0.211,0.566,0.346,0.938,0.346
				c0.707,0,1.281-0.484,1.281-1.08c0-0.141-0.033-0.273-0.092-0.396c0.031,0.002,0.061,0.002,0.092,0.002
				c0.707,0,1.281-0.482,1.281-1.078c0-0.025-0.004-0.049-0.004-0.074C57.984,111.459,58.166,111.104,58.166,110.715z"/>
			<path fill="#C1B49A" d="M56.99,100.783c0-0.48-0.334-0.893-0.818-1.084c0.01-0.164-0.055-0.375-0.188-0.572
				c-0.227-0.332-0.563-0.494-0.75-0.367c-0.188,0.129-0.158,0.5,0.068,0.832c0.014,0.02,0.029,0.037,0.043,0.055
				c-0.309,0.119-0.527,0.418-0.527,0.768c0,0.111,0.023,0.217,0.064,0.314c-0.322,0.068-0.574,0.322-0.637,0.646
				c-0.006,0-0.012-0.002-0.018-0.002c-0.246,0-0.467,0.111-0.617,0.285c-0.152-0.174-0.371-0.285-0.619-0.285
				c-0.455,0-0.824,0.369-0.824,0.824c0,0.006,0.002,0.012,0.004,0.018c-0.076-0.031-0.16-0.049-0.248-0.049
				c-0.127,0-0.244,0.037-0.342,0.102c-0.037-0.178-0.146-0.328-0.299-0.418c0.006-0.031,0.01-0.064,0.01-0.096
				c0-0.35-0.283-0.631-0.631-0.631c-0.275,0-0.508,0.176-0.594,0.424c-0.037-0.008-0.074-0.014-0.115-0.014
				c-0.223,0-0.418,0.117-0.529,0.293c-0.115-0.156-0.301-0.26-0.51-0.26c-0.158,0-0.301,0.061-0.412,0.156
				c-0.014-0.307-0.246-0.555-0.547-0.592c-0.004-0.031-0.014-0.061-0.021-0.088c0.107-0.113,0.174-0.268,0.174-0.436
				c0-0.35-0.283-0.631-0.631-0.631c-0.063,0-0.123,0.012-0.182,0.029c-0.016-0.049-0.037-0.094-0.066-0.135
				c0.104-0.08,0.201-0.197,0.266-0.348c0.143-0.324,0.088-0.662-0.121-0.754s-0.492,0.1-0.635,0.426
				c-0.059,0.137-0.082,0.277-0.074,0.398c-0.33,0.021-0.59,0.293-0.59,0.627c0,0.016,0.004,0.031,0.004,0.047
				c-0.295,0.219-0.482,0.539-0.482,0.896c0,0.5,0.361,0.926,0.877,1.107c-0.033,0.084-0.049,0.172-0.049,0.266
				c0,0.484,0.465,0.877,1.039,0.877c0.387,0,0.723-0.18,0.902-0.443c0.18,0.264,0.516,0.443,0.9,0.443
				c0.068,0,0.135-0.006,0.199-0.018c0.107,0.387,0.52,0.676,1.01,0.676c0.279,0,0.531-0.092,0.719-0.244
				c0.254,0.33,0.691,0.549,1.191,0.549c0.674,0,1.236-0.396,1.383-0.924c0.191,0.172,0.461,0.279,0.762,0.279
				c0.572,0,1.039-0.393,1.039-0.877c0-0.113-0.025-0.221-0.074-0.322c0.025,0.002,0.049,0.004,0.074,0.004
				c0.574,0,1.041-0.393,1.041-0.877c0-0.02-0.002-0.039-0.004-0.059C56.844,101.387,56.99,101.1,56.99,100.783z"/>
			<path fill="#C1B49A" d="M59.584,118.65c0-0.67-0.498-1.246-1.213-1.514c0.014-0.232-0.08-0.527-0.279-0.803
				c-0.334-0.463-0.83-0.691-1.109-0.512s-0.232,0.699,0.102,1.162c0.02,0.027,0.041,0.053,0.063,0.078
				c-0.455,0.168-0.779,0.584-0.779,1.072c0,0.156,0.033,0.305,0.094,0.439c-0.477,0.096-0.85,0.453-0.943,0.904
				c-0.008,0-0.016-0.002-0.023-0.002c-0.367,0-0.691,0.156-0.916,0.398c-0.223-0.242-0.549-0.398-0.916-0.398
				c-0.674,0-1.219,0.516-1.219,1.152c0,0.008,0,0.016,0.002,0.025c-0.113-0.045-0.236-0.07-0.365-0.07
				c-0.189,0-0.361,0.053-0.508,0.145c-0.053-0.25-0.219-0.459-0.441-0.586c0.008-0.043,0.014-0.088,0.014-0.135
				c0-0.486-0.418-0.883-0.934-0.883c-0.408,0-0.752,0.248-0.879,0.594c-0.055-0.012-0.111-0.018-0.17-0.018
				c-0.332,0-0.621,0.164-0.787,0.41c-0.17-0.221-0.443-0.365-0.754-0.365c-0.234,0-0.445,0.084-0.609,0.219
				c-0.021-0.428-0.365-0.773-0.811-0.828c-0.006-0.043-0.02-0.082-0.033-0.123c0.16-0.158,0.26-0.373,0.26-0.607
				c0-0.488-0.418-0.885-0.934-0.885c-0.094,0-0.184,0.018-0.27,0.043c-0.025-0.066-0.057-0.131-0.1-0.189
				c0.156-0.109,0.297-0.275,0.395-0.484c0.209-0.457,0.129-0.928-0.18-1.055c-0.311-0.127-0.73,0.139-0.939,0.594
				c-0.09,0.193-0.123,0.387-0.111,0.559c-0.488,0.029-0.875,0.408-0.875,0.877c0,0.021,0.006,0.043,0.008,0.064
				c-0.438,0.307-0.715,0.756-0.715,1.256c0,0.697,0.535,1.295,1.299,1.547c-0.049,0.117-0.072,0.242-0.072,0.371
				c0,0.678,0.688,1.227,1.539,1.227c0.572,0,1.07-0.25,1.336-0.617c0.266,0.367,0.762,0.617,1.336,0.617
				c0.1,0,0.197-0.01,0.293-0.023c0.16,0.541,0.77,0.945,1.498,0.945c0.412,0,0.785-0.131,1.063-0.34
				c0.375,0.459,1.025,0.764,1.766,0.764c0.996,0,1.83-0.551,2.047-1.291c0.281,0.24,0.682,0.393,1.127,0.393
				c0.85,0,1.541-0.551,1.541-1.227c0-0.158-0.041-0.311-0.109-0.451c0.035,0.002,0.072,0.004,0.109,0.004
				c0.85,0,1.539-0.547,1.539-1.225c0-0.027-0.002-0.055-0.006-0.084C59.365,119.496,59.584,119.094,59.584,118.65z"/>
		</g>
		<g>
			<polygon opacity="0.6" fill="#C1B49A" points="66.291,87.824 64.355,113.689 65.322,113.689 66.918,88.041 			"/>
			<polygon opacity="0.6" fill="#C1B49A" points="68.713,85.914 67.246,114.49 68.215,114.475 69.346,86.143 			"/>
			<polygon opacity="0.6" fill="#C1B49A" points="72.771,87.824 74.705,113.689 73.738,113.689 72.143,88.041 			"/>
			<polygon opacity="0.6" fill="#C1B49A" points="70.898,88.809 71.396,116.174 70.432,116.111 70.258,88.996 			"/>
			<path fill="#C1B49A" d="M76.365,103.961c0-0.59-0.412-1.098-1.008-1.334c0.012-0.203-0.066-0.463-0.232-0.707
				c-0.279-0.406-0.691-0.609-0.924-0.451s-0.193,0.617,0.086,1.025c0.016,0.023,0.033,0.045,0.051,0.068
				c-0.379,0.146-0.648,0.514-0.648,0.943c0,0.139,0.027,0.27,0.078,0.389c-0.396,0.084-0.707,0.398-0.785,0.797
				c-0.006,0-0.012-0.002-0.02-0.002c-0.305,0-0.576,0.137-0.762,0.35c-0.186-0.213-0.457-0.35-0.762-0.35
				c-0.561,0-1.016,0.453-1.016,1.014c0,0.01,0.002,0.016,0.002,0.023c-0.092-0.039-0.195-0.061-0.303-0.061
				c-0.156,0-0.301,0.047-0.424,0.125c-0.043-0.221-0.18-0.404-0.365-0.514c0.006-0.041,0.012-0.08,0.012-0.121
				c0-0.428-0.348-0.777-0.777-0.777c-0.34,0-0.625,0.219-0.732,0.523c-0.045-0.01-0.092-0.016-0.141-0.016
				c-0.275,0-0.518,0.145-0.654,0.361c-0.143-0.193-0.369-0.32-0.627-0.32c-0.195,0-0.371,0.074-0.508,0.191
				c-0.018-0.377-0.305-0.682-0.672-0.729c-0.008-0.039-0.018-0.074-0.029-0.109c0.133-0.141,0.217-0.328,0.217-0.537
				c0-0.428-0.35-0.777-0.777-0.777c-0.08,0-0.154,0.016-0.225,0.037c-0.021-0.059-0.047-0.115-0.082-0.166
				c0.129-0.098,0.246-0.244,0.326-0.428c0.176-0.4,0.107-0.816-0.148-0.93c-0.258-0.111-0.607,0.123-0.783,0.523
				c-0.072,0.17-0.1,0.342-0.092,0.492c-0.406,0.027-0.727,0.361-0.727,0.773c0,0.018,0.004,0.037,0.006,0.057
				c-0.363,0.27-0.594,0.664-0.594,1.105c0,0.615,0.445,1.141,1.08,1.363c-0.041,0.104-0.061,0.213-0.061,0.328
				c0,0.598,0.572,1.08,1.279,1.08c0.477,0,0.891-0.219,1.111-0.545c0.223,0.326,0.637,0.545,1.111,0.545
				c0.084,0,0.166-0.008,0.244-0.021c0.135,0.479,0.641,0.832,1.246,0.832c0.344,0,0.654-0.113,0.885-0.299
				c0.313,0.406,0.854,0.674,1.469,0.674c0.828,0,1.523-0.484,1.705-1.137c0.232,0.211,0.564,0.344,0.936,0.344
				c0.707,0,1.281-0.482,1.281-1.08c0-0.139-0.033-0.273-0.09-0.396c0.029,0.002,0.061,0.004,0.09,0.004
				c0.709,0,1.281-0.484,1.281-1.078c0-0.027-0.002-0.051-0.004-0.076C76.184,104.707,76.365,104.352,76.365,103.961z"/>
			<path fill="#C1B49A" d="M75.191,94.029c0-0.479-0.336-0.891-0.818-1.082c0.008-0.166-0.055-0.377-0.189-0.574
				c-0.225-0.33-0.561-0.494-0.748-0.365c-0.189,0.127-0.158,0.5,0.068,0.83c0.014,0.02,0.027,0.037,0.043,0.057
				c-0.309,0.119-0.527,0.416-0.527,0.766c0,0.111,0.023,0.219,0.063,0.314c-0.322,0.068-0.572,0.324-0.637,0.646
				c-0.004,0-0.012,0-0.016,0c-0.248,0-0.467,0.109-0.619,0.283c-0.15-0.174-0.369-0.283-0.617-0.283
				c-0.455,0-0.824,0.367-0.824,0.824c0,0.006,0.002,0.01,0.002,0.018c-0.076-0.033-0.16-0.051-0.246-0.051
				c-0.129,0-0.244,0.039-0.344,0.104c-0.035-0.18-0.146-0.328-0.297-0.418c0.004-0.033,0.008-0.064,0.008-0.098
				c0-0.348-0.281-0.631-0.631-0.631c-0.275,0-0.506,0.178-0.592,0.424c-0.037-0.008-0.076-0.012-0.115-0.012
				c-0.225,0-0.42,0.117-0.531,0.293c-0.115-0.158-0.299-0.262-0.508-0.262c-0.158,0-0.303,0.061-0.412,0.158
				c-0.016-0.309-0.248-0.555-0.547-0.594c-0.006-0.029-0.014-0.059-0.023-0.088c0.109-0.113,0.176-0.266,0.176-0.436
				c0-0.348-0.283-0.631-0.631-0.631c-0.063,0-0.123,0.014-0.182,0.029c-0.018-0.047-0.039-0.094-0.066-0.135
				c0.104-0.078,0.199-0.197,0.266-0.346c0.141-0.326,0.086-0.664-0.123-0.756c-0.207-0.09-0.492,0.1-0.633,0.426
				c-0.061,0.139-0.082,0.277-0.076,0.398c-0.328,0.021-0.59,0.293-0.59,0.627c0,0.016,0.004,0.031,0.006,0.047
				c-0.297,0.221-0.484,0.541-0.484,0.898c0,0.498,0.363,0.926,0.877,1.105c-0.031,0.084-0.049,0.174-0.049,0.266
				c0,0.484,0.465,0.877,1.041,0.877c0.385,0,0.721-0.178,0.9-0.441c0.18,0.264,0.516,0.441,0.902,0.441
				c0.068,0,0.135-0.006,0.199-0.018c0.107,0.389,0.52,0.676,1.01,0.676c0.279,0,0.531-0.092,0.719-0.242
				c0.252,0.328,0.691,0.547,1.191,0.547c0.674,0,1.236-0.395,1.383-0.924c0.189,0.172,0.459,0.281,0.76,0.281
				c0.574,0,1.041-0.395,1.041-0.877c0-0.115-0.027-0.223-0.074-0.322c0.025,0.002,0.049,0.002,0.074,0.002
				c0.572,0,1.039-0.391,1.039-0.875c0-0.02-0.002-0.041-0.004-0.061C75.043,94.635,75.191,94.348,75.191,94.029z"/>
			<path fill="#C1B49A" d="M77.783,111.898c0-0.672-0.496-1.248-1.211-1.514c0.012-0.232-0.082-0.527-0.279-0.803
				c-0.336-0.463-0.832-0.693-1.111-0.514c-0.277,0.18-0.232,0.701,0.102,1.164c0.021,0.027,0.043,0.051,0.064,0.078
				c-0.455,0.166-0.779,0.582-0.779,1.07c0,0.156,0.031,0.307,0.092,0.441c-0.475,0.096-0.85,0.451-0.943,0.904
				c-0.008,0-0.016-0.002-0.021-0.002c-0.367,0-0.693,0.154-0.918,0.396c-0.223-0.242-0.549-0.396-0.914-0.396
				c-0.674,0-1.221,0.516-1.221,1.15c0,0.01,0.002,0.018,0.002,0.027c-0.111-0.047-0.234-0.07-0.365-0.07
				c-0.188,0-0.361,0.053-0.508,0.143c-0.053-0.25-0.217-0.459-0.441-0.584c0.008-0.045,0.016-0.09,0.016-0.137
				c0-0.486-0.418-0.881-0.936-0.881c-0.408,0-0.75,0.248-0.879,0.592c-0.055-0.01-0.111-0.016-0.17-0.016
				c-0.33,0-0.621,0.164-0.785,0.408c-0.172-0.219-0.443-0.363-0.754-0.363c-0.234,0-0.445,0.084-0.609,0.219
				c-0.023-0.428-0.367-0.773-0.811-0.828c-0.008-0.043-0.02-0.084-0.035-0.125c0.16-0.158,0.26-0.371,0.26-0.607
				c0-0.488-0.418-0.883-0.934-0.883c-0.094,0-0.184,0.018-0.268,0.041c-0.027-0.066-0.059-0.131-0.1-0.189
				c0.154-0.109,0.297-0.275,0.393-0.484c0.209-0.455,0.129-0.928-0.18-1.055s-0.73,0.139-0.939,0.596
				c-0.088,0.191-0.123,0.387-0.111,0.557c-0.486,0.031-0.873,0.41-0.873,0.877c0,0.023,0.004,0.043,0.006,0.064
				c-0.438,0.307-0.715,0.756-0.715,1.258c0,0.697,0.537,1.293,1.299,1.545c-0.047,0.117-0.072,0.244-0.072,0.373
				c0,0.676,0.689,1.225,1.539,1.225c0.572,0,1.07-0.248,1.336-0.617c0.266,0.369,0.764,0.617,1.336,0.617
				c0.102,0,0.199-0.008,0.293-0.021c0.16,0.541,0.77,0.943,1.5,0.943c0.41,0,0.785-0.129,1.061-0.34
				c0.377,0.461,1.025,0.766,1.766,0.766c0.996,0,1.83-0.553,2.049-1.291c0.281,0.24,0.682,0.391,1.125,0.391
				c0.852,0,1.541-0.549,1.541-1.225c0-0.16-0.039-0.313-0.109-0.451c0.037,0.002,0.072,0.004,0.109,0.004
				c0.852,0,1.539-0.549,1.539-1.225c0-0.029-0.002-0.057-0.004-0.086C77.566,112.742,77.783,112.342,77.783,111.898z"/>
		</g>
		<g>
			<polygon opacity="0.6" fill="#C1B49A" points="29.596,88.523 27.661,114.389 28.627,114.389 30.223,88.74 			"/>
			<polygon opacity="0.6" fill="#C1B49A" points="32.018,86.611 30.551,115.189 31.52,115.174 32.65,86.84 			"/>
			<polygon opacity="0.6" fill="#C1B49A" points="36.076,88.523 38.01,114.389 37.043,114.389 35.447,88.74 			"/>
			<polygon opacity="0.6" fill="#C1B49A" points="34.203,89.506 34.701,116.871 33.736,116.809 33.563,89.695 			"/>
			<path fill="#C1B49A" d="M39.67,104.66c0-0.592-0.412-1.1-1.008-1.334c0.012-0.205-0.066-0.465-0.232-0.707
				c-0.279-0.408-0.691-0.609-0.924-0.451s-0.193,0.615,0.086,1.023c0.016,0.025,0.033,0.047,0.051,0.068
				c-0.379,0.148-0.648,0.514-0.648,0.945c0,0.137,0.027,0.268,0.078,0.389c-0.396,0.084-0.707,0.398-0.785,0.795
				c-0.006,0-0.012-0.002-0.02-0.002c-0.305,0-0.576,0.139-0.762,0.352c-0.186-0.213-0.457-0.352-0.762-0.352
				c-0.561,0-1.016,0.455-1.016,1.016c0,0.008,0.002,0.016,0.002,0.023c-0.092-0.041-0.195-0.063-0.303-0.063
				c-0.156,0-0.301,0.047-0.424,0.127c-0.043-0.221-0.18-0.404-0.365-0.516c0.006-0.039,0.012-0.078,0.012-0.119
				c0-0.43-0.348-0.777-0.777-0.777c-0.34,0-0.625,0.219-0.732,0.521c-0.045-0.008-0.092-0.014-0.141-0.014
				c-0.275,0-0.518,0.145-0.654,0.359c-0.143-0.193-0.369-0.32-0.627-0.32c-0.195,0-0.371,0.074-0.508,0.193
				c-0.018-0.377-0.304-0.684-0.672-0.73c-0.008-0.037-0.018-0.072-0.029-0.109c0.134-0.139,0.217-0.326,0.217-0.535
				c0-0.43-0.349-0.777-0.777-0.777c-0.079,0-0.153,0.016-0.225,0.037c-0.021-0.059-0.047-0.115-0.081-0.168
				c0.128-0.096,0.246-0.242,0.326-0.428c0.175-0.4,0.107-0.816-0.149-0.928c-0.258-0.111-0.606,0.121-0.782,0.523
				c-0.073,0.17-0.101,0.34-0.092,0.492c-0.406,0.025-0.728,0.359-0.728,0.771c0,0.02,0.005,0.039,0.007,0.057
				c-0.364,0.271-0.595,0.666-0.595,1.107c0,0.615,0.446,1.141,1.08,1.363c-0.04,0.104-0.061,0.213-0.061,0.326
				c0,0.598,0.573,1.08,1.28,1.08c0.477,0,0.891-0.219,1.111-0.543c0.222,0.324,0.636,0.543,1.111,0.543
				c0.084,0,0.166-0.008,0.244-0.02c0.135,0.477,0.641,0.832,1.246,0.832c0.344,0,0.654-0.115,0.885-0.299
				c0.313,0.404,0.854,0.674,1.469,0.674c0.828,0,1.523-0.486,1.705-1.139c0.232,0.211,0.564,0.346,0.936,0.346
				c0.707,0,1.281-0.484,1.281-1.08c0-0.141-0.033-0.273-0.09-0.396c0.029,0.002,0.061,0.002,0.09,0.002
				c0.709,0,1.281-0.482,1.281-1.078c0-0.025-0.002-0.049-0.004-0.074C39.488,105.404,39.67,105.049,39.67,104.66z"/>
			<path fill="#C1B49A" d="M38.496,94.729c0-0.48-0.336-0.893-0.818-1.084c0.008-0.164-0.055-0.375-0.189-0.572
				c-0.225-0.332-0.561-0.494-0.748-0.367c-0.189,0.129-0.158,0.5,0.068,0.832c0.014,0.02,0.027,0.037,0.043,0.055
				c-0.309,0.119-0.527,0.418-0.527,0.768c0,0.111,0.023,0.217,0.063,0.314c-0.322,0.068-0.572,0.322-0.637,0.646
				c-0.004,0-0.012-0.002-0.016-0.002c-0.248,0-0.467,0.111-0.619,0.285c-0.15-0.174-0.369-0.285-0.617-0.285
				c-0.455,0-0.824,0.369-0.824,0.824c0,0.006,0.002,0.012,0.002,0.018c-0.076-0.031-0.16-0.049-0.246-0.049
				c-0.129,0-0.244,0.037-0.344,0.102c-0.035-0.178-0.146-0.328-0.297-0.418c0.004-0.031,0.008-0.064,0.008-0.096
				c0-0.35-0.281-0.631-0.631-0.631c-0.275,0-0.506,0.176-0.592,0.424c-0.037-0.008-0.076-0.014-0.115-0.014
				c-0.225,0-0.42,0.117-0.531,0.293c-0.115-0.156-0.299-0.26-0.508-0.26c-0.158,0-0.303,0.061-0.412,0.156
				c-0.016-0.307-0.248-0.555-0.547-0.592c-0.006-0.031-0.014-0.061-0.023-0.088c0.109-0.113,0.176-0.268,0.176-0.436
				c0-0.35-0.283-0.631-0.631-0.631c-0.063,0-0.123,0.012-0.182,0.029c-0.017-0.049-0.038-0.094-0.066-0.135
				c0.104-0.08,0.2-0.197,0.266-0.348c0.141-0.324,0.087-0.662-0.122-0.754c-0.208-0.092-0.492,0.1-0.634,0.426
				c-0.06,0.137-0.082,0.277-0.075,0.398c-0.329,0.021-0.59,0.293-0.59,0.627c0,0.016,0.004,0.031,0.005,0.047
				c-0.296,0.219-0.483,0.539-0.483,0.896c0,0.5,0.362,0.926,0.877,1.107c-0.032,0.084-0.049,0.172-0.049,0.266
				c0,0.484,0.465,0.877,1.04,0.877c0.385,0,0.721-0.18,0.901-0.443c0.18,0.264,0.516,0.443,0.902,0.443
				c0.068,0,0.135-0.006,0.199-0.018c0.107,0.387,0.52,0.676,1.01,0.676c0.279,0,0.531-0.092,0.719-0.244
				c0.252,0.33,0.691,0.549,1.191,0.549c0.674,0,1.236-0.396,1.383-0.924c0.189,0.172,0.459,0.279,0.76,0.279
				c0.574,0,1.041-0.393,1.041-0.877c0-0.113-0.027-0.221-0.074-0.322c0.025,0.002,0.049,0.004,0.074,0.004
				c0.572,0,1.039-0.393,1.039-0.877c0-0.02-0.002-0.039-0.004-0.059C38.348,95.332,38.496,95.045,38.496,94.729z"/>
			<path fill="#C1B49A" d="M41.088,112.596c0-0.67-0.496-1.246-1.211-1.514c0.012-0.232-0.082-0.527-0.279-0.803
				c-0.336-0.463-0.832-0.691-1.111-0.512c-0.277,0.18-0.232,0.699,0.102,1.162c0.021,0.027,0.043,0.053,0.064,0.078
				c-0.455,0.168-0.779,0.584-0.779,1.072c0,0.156,0.031,0.305,0.092,0.439c-0.475,0.096-0.85,0.453-0.943,0.904
				c-0.008,0-0.016-0.002-0.021-0.002c-0.367,0-0.693,0.156-0.918,0.398c-0.223-0.242-0.549-0.398-0.914-0.398
				c-0.674,0-1.221,0.516-1.221,1.152c0,0.008,0.002,0.016,0.002,0.025c-0.111-0.045-0.234-0.07-0.365-0.07
				c-0.188,0-0.361,0.053-0.508,0.145c-0.053-0.25-0.217-0.459-0.441-0.586c0.008-0.043,0.016-0.088,0.016-0.135
				c0-0.486-0.418-0.883-0.936-0.883c-0.408,0-0.75,0.248-0.879,0.594c-0.055-0.012-0.111-0.018-0.17-0.018
				c-0.33,0-0.621,0.164-0.785,0.41c-0.172-0.221-0.443-0.365-0.754-0.365c-0.234,0-0.445,0.084-0.609,0.219
				c-0.022-0.428-0.366-0.773-0.811-0.828c-0.007-0.043-0.02-0.082-0.034-0.123c0.16-0.158,0.26-0.373,0.26-0.607
				c0-0.488-0.418-0.885-0.934-0.885c-0.094,0-0.184,0.018-0.269,0.043c-0.026-0.066-0.058-0.131-0.1-0.189
				c0.155-0.109,0.297-0.275,0.394-0.484c0.209-0.457,0.129-0.928-0.18-1.055c-0.31-0.127-0.73,0.139-0.939,0.594
				c-0.089,0.193-0.123,0.387-0.111,0.559c-0.487,0.029-0.874,0.408-0.874,0.877c0,0.021,0.005,0.043,0.007,0.064
				c-0.438,0.307-0.715,0.756-0.715,1.256c0,0.697,0.536,1.295,1.299,1.547c-0.048,0.117-0.072,0.242-0.072,0.371
				c0,0.678,0.688,1.227,1.539,1.227c0.572,0,1.07-0.25,1.336-0.617c0.266,0.367,0.763,0.617,1.335,0.617
				c0.102,0,0.199-0.01,0.293-0.023c0.16,0.541,0.77,0.945,1.5,0.945c0.41,0,0.785-0.131,1.061-0.34
				c0.377,0.459,1.025,0.764,1.766,0.764c0.996,0,1.83-0.551,2.049-1.291c0.281,0.24,0.682,0.393,1.125,0.393
				c0.852,0,1.541-0.551,1.541-1.227c0-0.158-0.039-0.311-0.109-0.451c0.037,0.002,0.072,0.004,0.109,0.004
				c0.852,0,1.539-0.547,1.539-1.225c0-0.027-0.002-0.055-0.004-0.084C40.871,113.441,41.088,113.039,41.088,112.596z"/>
		</g>
		<path fill="#231E1E" d="M51.541-30.972v-0.357c-0.044,0.057-0.085,0.115-0.129,0.18c-0.044-0.064-0.087-0.123-0.13-0.18v0.357
			C21.189,11.12,44.346,85.035,44.346,85.035h6.937h0.259h6.937C58.478,85.035,81.636,11.12,51.541-30.972z"/>
		<g>
			<defs>
				<rect id="SVGID_17_" x="36.886" y="-20.992" width="29.388" height="10.207"/>
			</defs>
			<clipPath id="SVGID_18_">
				<use xlink:href="#SVGID_17_"  overflow="visible"/>
			</clipPath>
			<path clip-path="url(#SVGID_18_)" fill="#F4F4F4" d="M51.541-30.972v-0.357c-0.044,0.057-0.085,0.115-0.129,0.18
				c-0.044-0.064-0.087-0.123-0.13-0.18v0.357C21.189,11.12,44.346,85.035,44.346,85.035h6.937h0.259h6.937
				C58.478,85.035,81.636,11.12,51.541-30.972z"/>
		</g>
		<g>
			<defs>
				<rect id="SVGID_19_" x="34.53" y="32.498" width="35.612" height="14.196"/>
			</defs>
			<clipPath id="SVGID_20_">
				<use xlink:href="#SVGID_19_"  overflow="visible"/>
			</clipPath>
			<path clip-path="url(#SVGID_20_)" fill="#F4F4F4" d="M51.541-30.972v-0.357c-0.044,0.057-0.085,0.115-0.129,0.18
				c-0.044-0.064-0.087-0.123-0.13-0.18v0.357C21.189,11.12,44.346,85.035,44.346,85.035h6.937h0.259h6.937
				C58.478,85.035,81.636,11.12,51.541-30.972z"/>
		</g>
		<g>
			<defs>
				<rect id="SVGID_21_" x="38.507" y="68.1" width="28.523" height="20.129"/>
			</defs>
			<clipPath id="SVGID_22_">
				<use xlink:href="#SVGID_21_"  overflow="visible"/>
			</clipPath>
			<path clip-path="url(#SVGID_22_)" fill="#F4F4F4" d="M51.541-30.972v-0.357c-0.044,0.057-0.085,0.115-0.129,0.18
				c-0.044-0.064-0.087-0.123-0.13-0.18v0.357C21.189,11.12,44.346,85.035,44.346,85.035h6.937h0.259h6.937
				C58.478,85.035,81.636,11.12,51.541-30.972z"/>
		</g>
		<linearGradient id="SVGID_23_" gradientUnits="userSpaceOnUse" x1="41.4463" y1="25.0625" x2="56.1407" y2="-33.3888">
			<stop  offset="0" style="stop-color:#FFFFFF;stop-opacity:0"/>
			<stop  offset="1" style="stop-color:#FFFFFF"/>
		</linearGradient>
		<path fill="url(#SVGID_23_)" d="M50.238-26.441c0,0-10.871,14.662-11.731,65.005h5.866C44.373,38.564,41.564,20.178,50.238-26.441
			z"/>
		<g>
			<ellipse fill="#FFFFFF" cx="40.456" cy="48.328" rx="0.935" ry="1.137"/>
			<ellipse fill="#FFFFFF" cx="43.158" cy="48.328" rx="0.934" ry="1.137"/>
			<ellipse fill="#FFFFFF" cx="45.861" cy="48.328" rx="0.934" ry="1.137"/>
			<ellipse fill="#FFFFFF" cx="48.563" cy="48.328" rx="0.934" ry="1.137"/>
			<ellipse fill="#FFFFFF" cx="54.705" cy="48.328" rx="0.934" ry="1.137"/>
			<ellipse fill="#FFFFFF" cx="51.757" cy="48.328" rx="0.934" ry="1.137"/>
			<ellipse fill="#FFFFFF" cx="57.407" cy="48.328" rx="0.934" ry="1.137"/>
			<ellipse fill="#FFFFFF" cx="60.109" cy="48.328" rx="0.934" ry="1.137"/>
			<ellipse fill="#FFFFFF" cx="62.812" cy="48.328" rx="0.934" ry="1.137"/>
		</g>
		<g>
			<path fill="#FFFFFF" d="M41.391,30.845c0,0.627-0.419,1.139-0.934,1.139c-0.517,0-0.936-0.512-0.936-1.139
				c0-0.626,0.419-1.136,0.936-1.136C40.972,29.709,41.391,30.219,41.391,30.845z"/>
			<path fill="#FFFFFF" d="M44.092,30.845c0,0.627-0.418,1.139-0.932,1.139c-0.518,0-0.936-0.512-0.936-1.139
				c0-0.626,0.418-1.136,0.936-1.136C43.674,29.709,44.092,30.219,44.092,30.845z"/>
			<path fill="#FFFFFF" d="M46.795,30.845c0,0.627-0.418,1.139-0.934,1.139s-0.935-0.512-0.935-1.139
				c0-0.626,0.419-1.136,0.935-1.136S46.795,30.219,46.795,30.845z"/>
			<path fill="#FFFFFF" d="M49.497,30.845c0,0.627-0.417,1.139-0.935,1.139c-0.516,0-0.934-0.512-0.934-1.139
				c0-0.626,0.418-1.136,0.934-1.136C49.08,29.709,49.497,30.219,49.497,30.845z"/>
			<path fill="#FFFFFF" d="M55.639,30.845c0,0.627-0.418,1.139-0.934,1.139s-0.935-0.512-0.935-1.139
				c0-0.626,0.419-1.136,0.935-1.136S55.639,30.219,55.639,30.845z"/>
			<path fill="#FFFFFF" d="M52.691,30.845c0,0.627-0.419,1.139-0.935,1.139c-0.515,0-0.934-0.512-0.934-1.139
				c0-0.626,0.419-1.136,0.934-1.136C52.272,29.709,52.691,30.219,52.691,30.845z"/>
			<path fill="#FFFFFF" d="M58.341,30.845c0,0.627-0.419,1.139-0.934,1.139s-0.935-0.512-0.935-1.139
				c0-0.626,0.42-1.136,0.935-1.136S58.341,30.219,58.341,30.845z"/>
			<path fill="#FFFFFF" d="M61.043,30.845c0,0.627-0.418,1.139-0.934,1.139s-0.934-0.512-0.934-1.139
				c0-0.626,0.418-1.136,0.934-1.136S61.043,30.219,61.043,30.845z"/>
			<path fill="#FFFFFF" d="M63.746,30.845c0,0.627-0.418,1.139-0.934,1.139c-0.517,0-0.935-0.512-0.935-1.139
				c0-0.626,0.418-1.136,0.935-1.136C63.328,29.709,63.746,30.219,63.746,30.845z"/>
		</g>
		<path fill="#A6A8AB" d="M49.605-28.505c0,0,0.271,1.049,1.807,1.049v-20.078h-0.455C50.957-47.535,50.676-31.007,49.605-28.505z"
			/>
		<path fill="#F4F4F4" d="M53.125-28.505c0,0-0.269,1.049-1.805,1.049v-20.078h0.455C51.775-47.535,52.057-31.007,53.125-28.505z"/>
		<g>
			<circle fill="#A6A8AB" cx="51.097" cy="6.071" r="6.491"/>
			<circle fill="#B9E3ED" cx="51.097" cy="6.073" r="5.798"/>
			<g>
				<defs>
					<path id="SVGID_24_" d="M43.463,10.37c0,0,13.727-3,14.125-9.492c0.398-6.49,3.32,6.006,3.32,6.006l-2.84,7.588l-10.225,1.176
						L43.463,10.37z"/>
				</defs>
				<clipPath id="SVGID_25_">
					<use xlink:href="#SVGID_24_"  overflow="visible"/>
				</clipPath>
				<circle clip-path="url(#SVGID_25_)" fill="#E5F3F2" cx="51.097" cy="6.073" r="5.798"/>
			</g>
		</g>
		<g>
			<polygon fill="#231E1E" points="64.955,77.539 60.518,77.461 61.303,74.248 64.955,74.248 			"/>
			<g>
				<path fill="#F4F4F4" d="M74.909,47.98c-0.042-0.195-0.098-0.389-0.164-0.576c-0.019-0.066-0.035-0.131-0.055-0.197h-0.021
					c-0.745-1.855-2.642-3.178-4.87-3.178s-4.126,1.322-4.871,3.178h-0.02c-0.02,0.063-0.035,0.129-0.055,0.193
					c-0.066,0.191-0.123,0.385-0.166,0.586c-5.428,18.945,1.878,42.297,1.878,42.297h3.174h0.119h3.174
					C73.032,90.283,80.341,66.928,74.909,47.98z"/>
				<g opacity="0.4">
					<defs>
						<path id="SVGID_26_" opacity="0.4" d="M74.909,47.98c-0.042-0.195-0.098-0.389-0.164-0.576
							c-0.019-0.066-0.035-0.131-0.055-0.197h-0.021c-0.745-1.855-2.642-3.178-4.87-3.178s-4.126,1.322-4.871,3.178h-0.02
							c-0.02,0.063-0.035,0.129-0.055,0.193c-0.066,0.191-0.123,0.385-0.166,0.586c-5.428,18.945,1.878,42.297,1.878,42.297h3.174
							h0.119h3.174C73.032,90.283,80.341,66.928,74.909,47.98z"/>
					</defs>
					<clipPath id="SVGID_27_">
						<use xlink:href="#SVGID_26_"  overflow="visible"/>
					</clipPath>
					<path opacity="0.4" clip-path="url(#SVGID_27_)" fill="#838383" d="M65.258,37.27c0,0,12.378,35.725,6.282,55.781l5.377-2.768
						l2.857-47.791L65.258,37.27z"/>
				</g>
			</g>
		</g>
		<g>
			<path opacity="0.2" fill="#231E1E" d="M43.109,65.318c0,0,1.64,13.711,3.277,19.781l5.799-1.383l-0.551-17.791L43.109,65.318z"/>
			<path opacity="0.2" fill="#231E1E" d="M60.072,65.318c0,0-1.64,13.711-3.277,19.781l-5.798-1.383l0.551-17.791L60.072,65.318z"/>
			<g>
				<path fill="#F4F4F4" d="M56.744,54.256c-0.042-0.197-0.098-0.389-0.164-0.578c-0.02-0.064-0.035-0.131-0.056-0.195h-0.021
					c-0.746-1.855-2.643-3.178-4.871-3.178s-4.125,1.322-4.87,3.178h-0.02c-0.02,0.064-0.036,0.127-0.056,0.191
					c-0.066,0.191-0.123,0.385-0.165,0.588C41.095,73.205,48.4,96.557,48.4,96.557h3.174h0.118h3.175
					C54.867,96.557,62.176,73.201,56.744,54.256z"/>
				<g opacity="0.4">
					<defs>
						<path id="SVGID_28_" opacity="0.4" d="M56.744,54.256c-0.042-0.197-0.098-0.389-0.164-0.578
							c-0.02-0.064-0.035-0.131-0.056-0.195h-0.021c-0.746-1.855-2.643-3.178-4.871-3.178s-4.125,1.322-4.87,3.178h-0.02
							c-0.02,0.064-0.036,0.127-0.056,0.191c-0.066,0.191-0.123,0.385-0.165,0.588C41.095,73.205,48.4,96.557,48.4,96.557h3.174
							h0.118h3.175C54.867,96.557,62.176,73.201,56.744,54.256z"/>
					</defs>
					<clipPath id="SVGID_29_">
						<use xlink:href="#SVGID_28_"  overflow="visible"/>
					</clipPath>
					<path opacity="0.4" clip-path="url(#SVGID_29_)" fill="#838383" d="M47.094,43.545c0,0,12.377,35.723,6.281,55.781l5.377-2.77
						l2.857-47.791L47.094,43.545z"/>
				</g>
			</g>
		</g>
		<g>
			<polygon fill="#231E1E" points="37.855,77.539 42.293,77.461 41.506,74.248 37.855,74.248 			"/>
			<g>
				<path fill="#F4F4F4" d="M27.901,47.98c0.042-0.195,0.098-0.389,0.164-0.576c0.019-0.066,0.035-0.131,0.055-0.197h0.021
					c0.744-1.855,2.642-3.178,4.871-3.178s4.125,1.322,4.869,3.178h0.021c0.019,0.063,0.035,0.129,0.056,0.193
					c0.065,0.191,0.123,0.385,0.165,0.586c5.428,18.945-1.878,42.297-1.878,42.297h-3.173h-0.119h-3.175
					C29.777,90.283,22.47,66.928,27.901,47.98z"/>
				<g opacity="0.4">
					<defs>
						<path id="SVGID_30_" opacity="0.4" d="M27.901,47.98c0.042-0.195,0.098-0.389,0.164-0.576
							c0.019-0.066,0.035-0.131,0.055-0.197h0.021c0.744-1.855,2.642-3.178,4.871-3.178s4.125,1.322,4.869,3.178h0.021
							c0.019,0.063,0.035,0.129,0.056,0.193c0.065,0.191,0.123,0.385,0.165,0.586c5.428,18.945-1.878,42.297-1.878,42.297h-3.173
							h-0.119h-3.175C29.777,90.283,22.47,66.928,27.901,47.98z"/>
					</defs>
					<clipPath id="SVGID_31_">
						<use xlink:href="#SVGID_30_"  overflow="visible"/>
					</clipPath>
					<path opacity="0.4" clip-path="url(#SVGID_31_)" fill="#838383" d="M37.551,37.27c0,0-12.376,35.725-6.28,55.781l-5.377-2.768
						l-2.857-47.791L37.551,37.27z"/>
				</g>
			</g>
		</g>
		<polygon fill="#231E1E" points="65.956,88.643 73.512,88.643 73.088,90.568 66.387,90.568 		"/>
		<polygon fill="#231E1E" points="29.167,88.643 36.725,88.643 36.3,90.568 29.599,90.568 		"/>
		<polygon fill="#231E1E" points="47.791,94.916 55.348,94.916 54.923,96.842 48.223,96.842 		"/>
	</g>
</g>
</svg>
