<?xml version="1.0" encoding="utf-8"?>
<!-- Generator: Adobe Illustrator 16.0.3, SVG Export Plug-In . SVG Version: 6.00 Build 0)  -->
<!DOCTYPE svg PUBLIC "-//W3C//DTD SVG 1.1//EN" "http://www.w3.org/Graphics/SVG/1.1/DTD/svg11.dtd">
<svg version="1.1" id="Layer_1" xmlns="http://www.w3.org/2000/svg" xmlns:xlink="http://www.w3.org/1999/xlink" x="0px" y="0px"
	 width="68.625px" height="186.25px" viewBox="17.375 -51.75 68.625 186.25" enable-background="new 17.375 -51.75 68.625 186.25"
	 xml:space="preserve">
<g>
	<g>
		
			<linearGradient id="SVGID_1_" gradientUnits="userSpaceOnUse" x1="-55.1309" y1="51.084" x2="-37.0697" y2="31.4722" gradientTransform="matrix(0.7071 -0.7071 0.7071 0.7071 57.7633 53.6339)">
			<stop  offset="0" style="stop-color:#FFFFFF;stop-opacity:0"/>
			<stop  offset="1" style="stop-color:#FFF100"/>
		</linearGradient>
		<polygon opacity="0.8" fill="url(#SVGID_1_)" points="48.189,81.789 47.392,82.588 42.104,89.385 46.111,88.137 46.637,92.012 
			48.113,90.535 49.494,145.176 51.975,99.977 53.498,131.975 54.709,92.074 55.386,135.045 56.975,100.248 57.438,135.914 
			58.219,90.516 59.828,92.125 60.133,87.908 64.463,89.479 58.113,81.5 		"/>
		
			<linearGradient id="SVGID_2_" gradientUnits="userSpaceOnUse" x1="-45.0806" y1="33.3643" x2="-25.6094" y2="15.3092" gradientTransform="matrix(0.7071 -0.7071 0.7071 0.7071 57.7633 53.6339)">
			<stop  offset="0" style="stop-color:#FFFFFF;stop-opacity:0"/>
			<stop  offset="1" style="stop-color:#FAAD18"/>
		</linearGradient>
		<polygon opacity="0.7" fill="url(#SVGID_2_)" points="49.309,81.756 49.283,128.193 51.715,81.686 		"/>
		
			<linearGradient id="SVGID_3_" gradientUnits="userSpaceOnUse" x1="-37.2197" y1="30.4902" x2="-23.273" y2="16.9963" gradientTransform="matrix(0.7071 -0.7071 0.7071 0.7071 57.7633 53.6339)">
			<stop  offset="0" style="stop-color:#FFFFFF;stop-opacity:0"/>
			<stop  offset="1" style="stop-color:#FAAD18"/>
		</linearGradient>
		<polygon opacity="0.7" fill="url(#SVGID_3_)" points="52.115,81.676 53.136,116.176 54.55,81.602 		"/>
		
			<linearGradient id="SVGID_4_" gradientUnits="userSpaceOnUse" x1="-28.7192" y1="26.4077" x2="-21.0171" y2="18.9652" gradientTransform="matrix(0.7071 -0.7071 0.7071 0.7071 57.7633 53.6339)">
			<stop  offset="0" style="stop-color:#FFFFFF;stop-opacity:0"/>
			<stop  offset="1" style="stop-color:#FAAD18"/>
		</linearGradient>
		<polygon fill="url(#SVGID_4_)" points="55.713,81.57 55.67,98.152 56.922,81.535 		"/>
	</g>
	<g>
		<polygon opacity="0.6" fill="#C1B49A" points="47.369,79.225 43.973,124.646 45.67,124.646 48.471,79.605 		"/>
		<polygon opacity="0.6" fill="#C1B49A" points="51.624,75.869 49.049,126.053 50.748,126.025 52.734,76.27 		"/>
		<polygon opacity="0.6" fill="#C1B49A" points="58.75,79.225 62.146,124.646 60.447,124.646 57.646,79.605 		"/>
		<polygon opacity="0.6" fill="#C1B49A" points="55.461,80.951 56.337,129.008 54.641,128.898 54.338,81.283 		"/>
		<path fill="#C1B49A" d="M65.063,107.563c0-1.037-0.726-1.93-1.771-2.342c0.021-0.359-0.117-0.814-0.408-1.242
			c-0.488-0.715-1.215-1.07-1.621-0.793c-0.408,0.279-0.341,1.082,0.149,1.799c0.028,0.043,0.06,0.082,0.091,0.121
			c-0.665,0.258-1.139,0.902-1.139,1.658c0,0.242,0.049,0.471,0.136,0.682c-0.694,0.148-1.239,0.701-1.377,1.398
			c-0.013,0-0.022-0.004-0.034-0.004c-0.537,0-1.012,0.242-1.338,0.615c-0.328-0.373-0.803-0.615-1.338-0.615
			c-0.984,0-1.783,0.797-1.783,1.781c0,0.016,0.004,0.029,0.004,0.043c-0.164-0.07-0.346-0.109-0.534-0.109
			c-0.272,0-0.526,0.082-0.742,0.221c-0.075-0.387-0.315-0.709-0.644-0.902c0.011-0.07,0.021-0.139,0.021-0.211
			c0-0.754-0.611-1.365-1.365-1.365c-0.596,0-1.098,0.385-1.285,0.918c-0.078-0.016-0.162-0.027-0.246-0.027
			c-0.486,0-0.91,0.254-1.15,0.633c-0.25-0.338-0.649-0.563-1.1-0.563c-0.344,0-0.652,0.131-0.893,0.338
			c-0.031-0.662-0.535-1.197-1.182-1.281c-0.014-0.066-0.031-0.127-0.051-0.191c0.234-0.244,0.381-0.574,0.381-0.941
			c0-0.752-0.613-1.365-1.365-1.365c-0.139,0-0.27,0.027-0.395,0.066c-0.038-0.104-0.082-0.203-0.143-0.295
			c0.225-0.17,0.432-0.426,0.572-0.75c0.308-0.703,0.189-1.434-0.262-1.631c-0.453-0.195-1.065,0.215-1.374,0.918
			c-0.128,0.299-0.177,0.6-0.161,0.865c-0.713,0.047-1.277,0.633-1.277,1.357c0,0.031,0.008,0.066,0.012,0.098
			c-0.64,0.477-1.045,1.168-1.045,1.943c0,1.08,0.784,2.004,1.897,2.395c-0.07,0.182-0.106,0.373-0.106,0.574
			c0,1.051,1.007,1.896,2.248,1.896c0.837,0,1.564-0.383,1.951-0.955c0.391,0.572,1.117,0.955,1.952,0.955
			c0.147,0,0.29-0.014,0.429-0.035c0.234,0.838,1.123,1.461,2.188,1.461c0.604,0,1.149-0.201,1.552-0.525
			c0.551,0.713,1.499,1.184,2.58,1.184c1.455,0,2.675-0.852,2.994-1.998c0.409,0.371,0.992,0.605,1.645,0.605
			c1.241,0,2.25-0.85,2.25-1.896c0-0.246-0.059-0.48-0.16-0.695c0.053,0.002,0.106,0.004,0.16,0.004c1.242,0,2.25-0.848,2.25-1.893
			c0-0.047-0.006-0.088-0.008-0.133C64.744,108.871,65.063,108.246,65.063,107.563z"/>
		<path fill="#C1B49A" d="M63,90.121c0-0.842-0.589-1.564-1.438-1.9c0.016-0.291-0.096-0.66-0.331-1.008
			c-0.396-0.582-0.986-0.867-1.315-0.643c-0.331,0.225-0.277,0.877,0.12,1.459c0.024,0.035,0.05,0.064,0.075,0.098
			c-0.542,0.209-0.926,0.732-0.926,1.346c0,0.197,0.041,0.383,0.111,0.553c-0.566,0.121-1.007,0.568-1.118,1.135
			c-0.009,0-0.021,0-0.029,0c-0.434,0-0.819,0.193-1.085,0.498c-0.266-0.305-0.65-0.498-1.086-0.498
			c-0.799,0-1.447,0.646-1.447,1.447c0,0.01,0.004,0.018,0.005,0.029c-0.134-0.057-0.281-0.086-0.435-0.086
			c-0.225,0-0.428,0.066-0.602,0.18c-0.063-0.314-0.257-0.576-0.523-0.734c0.01-0.057,0.016-0.113,0.016-0.17
			c0-0.611-0.495-1.107-1.107-1.107c-0.483,0-0.891,0.311-1.041,0.744c-0.064-0.014-0.132-0.021-0.202-0.021
			c-0.393,0-0.735,0.205-0.931,0.514c-0.203-0.275-0.527-0.457-0.895-0.457c-0.277,0-0.529,0.105-0.723,0.275
			c-0.026-0.541-0.435-0.975-0.961-1.041c-0.009-0.053-0.023-0.105-0.039-0.154c0.189-0.199,0.307-0.469,0.307-0.766
			c0-0.611-0.498-1.107-1.107-1.107c-0.11,0-0.217,0.021-0.319,0.051c-0.029-0.084-0.067-0.164-0.116-0.236
			c0.182-0.139,0.352-0.346,0.466-0.607c0.249-0.572,0.153-1.166-0.214-1.326c-0.365-0.16-0.865,0.174-1.113,0.748
			c-0.104,0.24-0.145,0.486-0.133,0.699c-0.577,0.037-1.035,0.514-1.035,1.102c0,0.027,0.007,0.055,0.009,0.082
			c-0.521,0.385-0.849,0.947-0.849,1.576c0,0.875,0.636,1.625,1.539,1.941c-0.057,0.148-0.086,0.305-0.086,0.467
			c0,0.852,0.816,1.541,1.827,1.541c0.677,0,1.267-0.314,1.583-0.777c0.315,0.463,0.905,0.777,1.582,0.777
			c0.121,0,0.237-0.012,0.351-0.031c0.188,0.682,0.912,1.188,1.772,1.188c0.491,0,0.934-0.162,1.263-0.428
			c0.444,0.578,1.214,0.963,2.093,0.963c1.184,0,2.171-0.695,2.428-1.623c0.334,0.301,0.809,0.492,1.336,0.492
			c1.007,0,1.826-0.691,1.826-1.541c0-0.199-0.046-0.389-0.13-0.564c0.044,0.002,0.086,0.004,0.13,0.004
			c1.008,0,1.826-0.688,1.826-1.537c0-0.035-0.003-0.07-0.006-0.105C62.74,91.184,63,90.68,63,90.121z"/>
		<path fill="#C1B49A" d="M67.553,121.5c0-1.178-0.873-2.189-2.129-2.658c0.023-0.408-0.143-0.926-0.49-1.41
			c-0.588-0.813-1.459-1.215-1.949-0.9c-0.489,0.316-0.408,1.23,0.178,2.043c0.036,0.049,0.074,0.092,0.111,0.137
			c-0.799,0.293-1.368,1.023-1.368,1.881c0,0.275,0.057,0.537,0.163,0.773c-0.836,0.168-1.492,0.795-1.656,1.588
			c-0.014,0-0.027-0.002-0.04-0.002c-0.646,0-1.216,0.271-1.61,0.697c-0.391-0.426-0.964-0.697-1.607-0.697
			c-1.183,0-2.142,0.904-2.142,2.021c0,0.016,0.002,0.029,0.003,0.047c-0.196-0.082-0.412-0.125-0.641-0.125
			c-0.331,0-0.635,0.094-0.892,0.254c-0.093-0.439-0.383-0.807-0.775-1.027c0.014-0.078,0.026-0.156,0.026-0.238
			c0-0.855-0.734-1.549-1.642-1.549c-0.718,0-1.319,0.436-1.544,1.041c-0.096-0.02-0.195-0.029-0.299-0.029
			c-0.58,0-1.09,0.287-1.38,0.719c-0.3-0.387-0.778-0.641-1.323-0.641c-0.412,0-0.783,0.148-1.07,0.385
			c-0.04-0.752-0.644-1.359-1.424-1.455c-0.012-0.074-0.034-0.145-0.061-0.217c0.281-0.279,0.457-0.654,0.457-1.066
			c0-0.859-0.734-1.553-1.64-1.553c-0.165,0-0.323,0.031-0.472,0.074c-0.047-0.117-0.102-0.23-0.175-0.334
			c0.272-0.191,0.521-0.482,0.69-0.85c0.367-0.801,0.227-1.629-0.314-1.852c-0.545-0.225-1.283,0.242-1.65,1.043
			c-0.156,0.338-0.216,0.68-0.195,0.98c-0.855,0.053-1.535,0.717-1.535,1.539c0,0.039,0.009,0.076,0.012,0.113
			c-0.768,0.539-1.255,1.328-1.255,2.207c0,1.225,0.941,2.271,2.28,2.715c-0.084,0.205-0.127,0.428-0.127,0.654
			c0,1.188,1.209,2.152,2.703,2.152c1.006,0,1.88-0.438,2.346-1.084c0.467,0.646,1.34,1.084,2.347,1.084
			c0.177,0,0.349-0.016,0.515-0.041c0.281,0.951,1.352,1.658,2.633,1.658c0.721,0,1.378-0.227,1.863-0.596
			c0.66,0.807,1.801,1.342,3.101,1.342c1.749,0,3.214-0.969,3.597-2.266c0.494,0.422,1.197,0.688,1.977,0.688
			c1.494,0,2.707-0.967,2.707-2.152c0-0.279-0.07-0.547-0.192-0.793c0.063,0.004,0.127,0.008,0.192,0.008
			c1.493,0,2.702-0.963,2.702-2.152c0-0.049-0.003-0.098-0.009-0.148C67.17,122.982,67.553,122.279,67.553,121.5z"/>
	</g>
	<g>
		<path fill="#231E1E" d="M52.862-32.104v-0.357c-0.044,0.057-0.085,0.115-0.129,0.18c-0.044-0.064-0.087-0.123-0.13-0.18v0.357
			C22.511,9.987,45.668,83.902,45.668,83.902h6.936h0.259h6.937C59.799,83.902,82.957,9.987,52.862-32.104z"/>
		<g>
			<defs>
				<rect id="SVGID_5_" x="38.207" y="-22.124" width="29.389" height="10.207"/>
			</defs>
			<clipPath id="SVGID_6_">
				<use xlink:href="#SVGID_5_"  overflow="visible"/>
			</clipPath>
			<path clip-path="url(#SVGID_6_)" fill="#F4F4F4" d="M52.862-32.104v-0.357c-0.044,0.057-0.085,0.115-0.129,0.18
				c-0.044-0.064-0.087-0.123-0.13-0.18v0.357C22.511,9.987,45.668,83.902,45.668,83.902h6.936h0.259h6.937
				C59.799,83.902,82.957,9.987,52.862-32.104z"/>
		</g>
		<g>
			<defs>
				<rect id="SVGID_7_" x="35.852" y="31.365" width="35.613" height="14.195"/>
			</defs>
			<clipPath id="SVGID_8_">
				<use xlink:href="#SVGID_7_"  overflow="visible"/>
			</clipPath>
			<path clip-path="url(#SVGID_8_)" fill="#F4F4F4" d="M52.862-32.104v-0.357c-0.044,0.057-0.085,0.115-0.129,0.18
				c-0.044-0.064-0.087-0.123-0.13-0.18v0.357C22.511,9.987,45.668,83.902,45.668,83.902h6.936h0.259h6.937
				C59.799,83.902,82.957,9.987,52.862-32.104z"/>
		</g>
		<g>
			<defs>
				<rect id="SVGID_9_" x="39.828" y="66.967" width="28.523" height="20.129"/>
			</defs>
			<clipPath id="SVGID_10_">
				<use xlink:href="#SVGID_9_"  overflow="visible"/>
			</clipPath>
			<path clip-path="url(#SVGID_10_)" fill="#F4F4F4" d="M52.862-32.104v-0.357c-0.044,0.057-0.085,0.115-0.129,0.18
				c-0.044-0.064-0.087-0.123-0.13-0.18v0.357C22.511,9.987,45.668,83.902,45.668,83.902h6.936h0.259h6.937
				C59.799,83.902,82.957,9.987,52.862-32.104z"/>
		</g>
		<linearGradient id="SVGID_11_" gradientUnits="userSpaceOnUse" x1="42.7676" y1="23.9297" x2="57.4619" y2="-34.5212">
			<stop  offset="0" style="stop-color:#FFFFFF;stop-opacity:0"/>
			<stop  offset="1" style="stop-color:#FFFFFF"/>
		</linearGradient>
		<path fill="url(#SVGID_11_)" d="M51.56-27.573c0,0-10.87,14.662-11.731,65.005h5.866C45.694,37.432,42.887,19.046,51.56-27.573z"
			/>
		<g>
			<ellipse fill="#FFFFFF" cx="41.778" cy="47.195" rx="0.935" ry="1.137"/>
			<ellipse fill="#FFFFFF" cx="44.48" cy="47.195" rx="0.934" ry="1.137"/>
			<ellipse fill="#FFFFFF" cx="47.183" cy="47.195" rx="0.935" ry="1.137"/>
			<ellipse fill="#FFFFFF" cx="49.884" cy="47.195" rx="0.934" ry="1.137"/>
			<ellipse fill="#FFFFFF" cx="56.026" cy="47.195" rx="0.934" ry="1.137"/>
			<ellipse fill="#FFFFFF" cx="53.079" cy="47.195" rx="0.934" ry="1.137"/>
			<ellipse fill="#FFFFFF" cx="58.729" cy="47.195" rx="0.934" ry="1.137"/>
			<ellipse fill="#FFFFFF" cx="61.432" cy="47.195" rx="0.934" ry="1.137"/>
			<ellipse fill="#FFFFFF" cx="64.134" cy="47.195" rx="0.935" ry="1.137"/>
		</g>
		<g>
			<path fill="#FFFFFF" d="M42.713,29.713c0,0.627-0.42,1.139-0.935,1.139c-0.517,0-0.935-0.512-0.935-1.139
				c0-0.626,0.418-1.136,0.935-1.136C42.293,28.577,42.713,29.087,42.713,29.713z"/>
			<path fill="#FFFFFF" d="M45.414,29.713c0,0.627-0.419,1.139-0.933,1.139c-0.517,0-0.935-0.512-0.935-1.139
				c0-0.626,0.418-1.136,0.935-1.136C44.995,28.577,45.414,29.087,45.414,29.713z"/>
			<path fill="#FFFFFF" d="M48.117,29.713c0,0.627-0.419,1.139-0.934,1.139c-0.516,0-0.936-0.512-0.936-1.139
				c0-0.626,0.42-1.136,0.936-1.136C47.698,28.577,48.117,29.087,48.117,29.713z"/>
			<path fill="#FFFFFF" d="M50.818,29.713c0,0.627-0.417,1.139-0.934,1.139c-0.516,0-0.935-0.512-0.935-1.139
				c0-0.626,0.419-1.136,0.935-1.136C50.401,28.577,50.818,29.087,50.818,29.713z"/>
			<path fill="#FFFFFF" d="M56.96,29.713c0,0.627-0.417,1.139-0.933,1.139c-0.517,0-0.936-0.512-0.936-1.139
				c0-0.626,0.419-1.136,0.936-1.136C56.543,28.577,56.96,29.087,56.96,29.713z"/>
			<path fill="#FFFFFF" d="M54.013,29.713c0,0.627-0.419,1.139-0.935,1.139c-0.515,0-0.934-0.512-0.934-1.139
				c0-0.626,0.419-1.136,0.934-1.136C53.594,28.577,54.013,29.087,54.013,29.713z"/>
			<path fill="#FFFFFF" d="M59.662,29.713c0,0.627-0.418,1.139-0.934,1.139c-0.515,0-0.934-0.512-0.934-1.139
				c0-0.626,0.419-1.136,0.934-1.136C59.244,28.577,59.662,29.087,59.662,29.713z"/>
			<path fill="#FFFFFF" d="M62.365,29.713c0,0.627-0.418,1.139-0.935,1.139c-0.515,0-0.933-0.512-0.933-1.139
				c0-0.626,0.418-1.136,0.933-1.136C61.947,28.577,62.365,29.087,62.365,29.713z"/>
			<path fill="#FFFFFF" d="M65.068,29.713c0,0.627-0.419,1.139-0.935,1.139c-0.517,0-0.935-0.512-0.935-1.139
				c0-0.626,0.418-1.136,0.935-1.136C64.649,28.577,65.068,29.087,65.068,29.713z"/>
		</g>
		<path fill="#A6A8AB" d="M50.928-29.638c0,0,0.271,1.049,1.806,1.049v-20.078h-0.454C52.279-48.667,51.997-32.14,50.928-29.638z"/>
		<path fill="#F4F4F4" d="M54.447-29.638c0,0-0.27,1.049-1.805,1.049v-20.078h0.454C53.097-48.667,53.379-32.14,54.447-29.638z"/>
		<g>
			<circle fill="#A6A8AB" cx="52.418" cy="4.938" r="6.491"/>
			<circle fill="#B9E3ED" cx="52.418" cy="4.94" r="5.798"/>
			<g>
				<defs>
					<path id="SVGID_12_" d="M44.785,9.237c0,0,13.726-3,14.124-9.492c0.398-6.49,3.32,6.006,3.32,6.006l-2.84,7.588l-10.224,1.176
						L44.785,9.237z"/>
				</defs>
				<clipPath id="SVGID_13_">
					<use xlink:href="#SVGID_12_"  overflow="visible"/>
				</clipPath>
				<circle clip-path="url(#SVGID_13_)" fill="#E5F3F2" cx="52.418" cy="4.94" r="5.798"/>
			</g>
		</g>
	</g>
</g>
</svg>
