<?xml version="1.0" encoding="utf-8"?>
<!-- Generator: Adobe Illustrator 16.0.3, SVG Export Plug-In . SVG Version: 6.00 Build 0)  -->
<!DOCTYPE svg PUBLIC "-//W3C//DTD SVG 1.1//EN" "http://www.w3.org/Graphics/SVG/1.1/DTD/svg11.dtd">
<svg version="1.1" id="Layer_1" xmlns="http://www.w3.org/2000/svg" xmlns:xlink="http://www.w3.org/1999/xlink" x="0px" y="0px"
	 width="68.625px" height="186.25px" viewBox="17.375 -51.75 68.625 186.25" enable-background="new 17.375 -51.75 68.625 186.25"
	 xml:space="preserve">
<g>
	<g>
		<path fill="#231E1E" d="M52.508-15.097v-0.357c-0.043,0.057-0.084,0.115-0.129,0.18c-0.043-0.064-0.086-0.123-0.129-0.18v0.357
			C22.156,26.995,45.313,100.91,45.313,100.91h6.938h0.258h6.938C59.445,100.91,82.604,26.995,52.508-15.097z"/>
		<g>
			<defs>
				<rect id="SVGID_1_" x="37.854" y="-5.117" width="29.388" height="10.207"/>
			</defs>
			<clipPath id="SVGID_2_">
				<use xlink:href="#SVGID_1_"  overflow="visible"/>
			</clipPath>
			<path clip-path="url(#SVGID_2_)" fill="#F4F4F4" d="M52.508-15.097v-0.357c-0.043,0.057-0.084,0.115-0.129,0.18
				c-0.043-0.064-0.086-0.123-0.129-0.18v0.357C22.156,26.995,45.313,100.91,45.313,100.91h6.938h0.258h6.938
				C59.445,100.91,82.604,26.995,52.508-15.097z"/>
		</g>
		<g>
			<defs>
				<rect id="SVGID_3_" x="35.498" y="48.373" width="35.611" height="14.195"/>
			</defs>
			<clipPath id="SVGID_4_">
				<use xlink:href="#SVGID_3_"  overflow="visible"/>
			</clipPath>
			<path clip-path="url(#SVGID_4_)" fill="#F4F4F4" d="M52.508-15.097v-0.357c-0.043,0.057-0.084,0.115-0.129,0.18
				c-0.043-0.064-0.086-0.123-0.129-0.18v0.357C22.156,26.995,45.313,100.91,45.313,100.91h6.938h0.258h6.938
				C59.445,100.91,82.604,26.995,52.508-15.097z"/>
		</g>
		<g>
			<defs>
				<rect id="SVGID_5_" x="39.475" y="83.975" width="28.523" height="20.129"/>
			</defs>
			<clipPath id="SVGID_6_">
				<use xlink:href="#SVGID_5_"  overflow="visible"/>
			</clipPath>
			<path clip-path="url(#SVGID_6_)" fill="#F4F4F4" d="M52.508-15.097v-0.357c-0.043,0.057-0.084,0.115-0.129,0.18
				c-0.043-0.064-0.086-0.123-0.129-0.18v0.357C22.156,26.995,45.313,100.91,45.313,100.91h6.938h0.258h6.938
				C59.445,100.91,82.604,26.995,52.508-15.097z"/>
		</g>
		<linearGradient id="SVGID_7_" gradientUnits="userSpaceOnUse" x1="42.4131" y1="40.9375" x2="57.1076" y2="-17.5143">
			<stop  offset="0" style="stop-color:#FFFFFF;stop-opacity:0"/>
			<stop  offset="1" style="stop-color:#FFFFFF"/>
		</linearGradient>
		<path fill="url(#SVGID_7_)" d="M51.205-10.566c0,0-10.87,14.662-11.73,65.005h5.865C45.34,54.439,42.532,36.053,51.205-10.566z"/>
		<g>
			<ellipse fill="#FFFFFF" cx="41.423" cy="64.203" rx="0.934" ry="1.137"/>
			<ellipse fill="#FFFFFF" cx="44.126" cy="64.203" rx="0.934" ry="1.137"/>
			<ellipse fill="#FFFFFF" cx="46.828" cy="64.203" rx="0.934" ry="1.137"/>
			<ellipse fill="#FFFFFF" cx="49.53" cy="64.203" rx="0.935" ry="1.137"/>
			<ellipse fill="#FFFFFF" cx="55.672" cy="64.203" rx="0.934" ry="1.137"/>
			<ellipse fill="#FFFFFF" cx="52.725" cy="64.203" rx="0.934" ry="1.137"/>
			<ellipse fill="#FFFFFF" cx="58.375" cy="64.203" rx="0.934" ry="1.137"/>
			<ellipse fill="#FFFFFF" cx="61.077" cy="64.203" rx="0.933" ry="1.137"/>
			<ellipse fill="#FFFFFF" cx="63.779" cy="64.203" rx="0.934" ry="1.137"/>
		</g>
		<g>
			<ellipse fill="#FFFFFF" cx="41.423" cy="46.721" rx="0.934" ry="1.139"/>
			<ellipse fill="#FFFFFF" cx="44.126" cy="46.721" rx="0.934" ry="1.139"/>
			<ellipse fill="#FFFFFF" cx="46.828" cy="46.721" rx="0.934" ry="1.139"/>
			<ellipse fill="#FFFFFF" cx="49.53" cy="46.721" rx="0.935" ry="1.139"/>
			<ellipse fill="#FFFFFF" cx="55.672" cy="46.721" rx="0.934" ry="1.139"/>
			<ellipse fill="#FFFFFF" cx="52.725" cy="46.721" rx="0.934" ry="1.139"/>
			<ellipse fill="#FFFFFF" cx="58.375" cy="46.721" rx="0.934" ry="1.139"/>
			<ellipse fill="#FFFFFF" cx="61.077" cy="46.721" rx="0.933" ry="1.139"/>
			<ellipse fill="#FFFFFF" cx="63.779" cy="46.721" rx="0.934" ry="1.139"/>
		</g>
		<path fill="#A6A8AB" d="M50.573-12.63c0,0,0.271,1.049,1.806,1.049V-31.66h-0.455C51.924-31.66,51.643-15.132,50.573-12.63z"/>
		<path fill="#F4F4F4" d="M54.093-12.63c0,0-0.269,1.049-1.805,1.049V-31.66h0.454C52.742-31.66,53.024-15.132,54.093-12.63z"/>
		<g>
			<circle fill="#A6A8AB" cx="52.064" cy="21.946" r="6.49"/>
			<circle fill="#B9E3ED" cx="52.064" cy="21.948" r="5.799"/>
			<g>
				<defs>
					<path id="SVGID_8_" d="M44.43,26.245c0,0,13.727-3,14.125-9.492c0.398-6.49,3.32,6.006,3.32,6.006l-2.84,7.588l-10.225,1.176
						L44.43,26.245z"/>
				</defs>
				<clipPath id="SVGID_9_">
					<use xlink:href="#SVGID_8_"  overflow="visible"/>
				</clipPath>
				<circle clip-path="url(#SVGID_9_)" fill="#E5F3F2" cx="52.064" cy="21.948" r="5.799"/>
			</g>
		</g>
	</g>
</g>
</svg>
