<?xml version="1.0" encoding="utf-8"?>
<!-- Generator: Adobe Illustrator 16.0.3, SVG Export Plug-In . SVG Version: 6.00 Build 0)  -->
<!DOCTYPE svg PUBLIC "-//W3C//DTD SVG 1.1//EN" "http://www.w3.org/Graphics/SVG/1.1/DTD/svg11.dtd">
<svg version="1.1" id="Layer_1" xmlns="http://www.w3.org/2000/svg" xmlns:xlink="http://www.w3.org/1999/xlink" x="0px" y="0px"
	 width="68.625px" height="186.25px" viewBox="17.375 -51.75 68.625 186.25" enable-background="new 17.375 -51.75 68.625 186.25"
	 xml:space="preserve">
<g>
	<path fill="#231E1E" d="M51.824-14.25v-0.357c-0.045,0.057-0.086,0.115-0.129,0.18c-0.045-0.064-0.088-0.123-0.131-0.18v0.357
		c-30.092,42.092-6.936,116.007-6.936,116.007h6.936h0.26h6.936C58.76,101.757,81.918,27.841,51.824-14.25z"/>
	<g>
		<defs>
			<rect id="SVGID_1_" x="37.168" y="-4.27" width="29.389" height="10.207"/>
		</defs>
		<clipPath id="SVGID_2_">
			<use xlink:href="#SVGID_1_"  overflow="visible"/>
		</clipPath>
		<path clip-path="url(#SVGID_2_)" fill="#F4F4F4" d="M51.824-14.25v-0.357c-0.045,0.057-0.086,0.115-0.129,0.18
			c-0.045-0.064-0.088-0.123-0.131-0.18v0.357c-30.092,42.092-6.936,116.007-6.936,116.007h6.936h0.26h6.936
			C58.76,101.757,81.918,27.841,51.824-14.25z"/>
	</g>
	<g>
		<defs>
			<rect id="SVGID_3_" x="34.813" y="49.22" width="35.613" height="14.195"/>
		</defs>
		<clipPath id="SVGID_4_">
			<use xlink:href="#SVGID_3_"  overflow="visible"/>
		</clipPath>
		<path clip-path="url(#SVGID_4_)" fill="#F4F4F4" d="M51.824-14.25v-0.357c-0.045,0.057-0.086,0.115-0.129,0.18
			c-0.045-0.064-0.088-0.123-0.131-0.18v0.357c-30.092,42.092-6.936,116.007-6.936,116.007h6.936h0.26h6.936
			C58.76,101.757,81.918,27.841,51.824-14.25z"/>
	</g>
	<g>
		<defs>
			<rect id="SVGID_5_" x="38.789" y="84.821" width="28.523" height="20.129"/>
		</defs>
		<clipPath id="SVGID_6_">
			<use xlink:href="#SVGID_5_"  overflow="visible"/>
		</clipPath>
		<path clip-path="url(#SVGID_6_)" fill="#F4F4F4" d="M51.824-14.25v-0.357c-0.045,0.057-0.086,0.115-0.129,0.18
			c-0.045-0.064-0.088-0.123-0.131-0.18v0.357c-30.092,42.092-6.936,116.007-6.936,116.007h6.936h0.26h6.936
			C58.76,101.757,81.918,27.841,51.824-14.25z"/>
	</g>
	<linearGradient id="SVGID_7_" gradientUnits="userSpaceOnUse" x1="41.7295" y1="41.7842" x2="56.4241" y2="-16.668">
		<stop  offset="0" style="stop-color:#FFFFFF;stop-opacity:0"/>
		<stop  offset="1" style="stop-color:#FFFFFF"/>
	</linearGradient>
	<path fill="url(#SVGID_7_)" d="M50.521-9.719c0,0-10.871,14.662-11.732,65.005h5.867C44.656,55.286,41.848,36.9,50.521-9.719z"/>
	<g>
		<ellipse fill="#FFFFFF" cx="40.739" cy="65.05" rx="0.935" ry="1.137"/>
		<ellipse fill="#FFFFFF" cx="43.441" cy="65.05" rx="0.934" ry="1.137"/>
		<ellipse fill="#FFFFFF" cx="46.144" cy="65.05" rx="0.935" ry="1.137"/>
		<ellipse fill="#FFFFFF" cx="48.846" cy="65.05" rx="0.934" ry="1.137"/>
		<ellipse fill="#FFFFFF" cx="54.987" cy="65.05" rx="0.935" ry="1.137"/>
		<ellipse fill="#FFFFFF" cx="52.04" cy="65.05" rx="0.935" ry="1.137"/>
		<ellipse fill="#FFFFFF" cx="57.689" cy="65.05" rx="0.934" ry="1.137"/>
		<ellipse fill="#FFFFFF" cx="60.393" cy="65.05" rx="0.934" ry="1.137"/>
		<ellipse fill="#FFFFFF" cx="63.095" cy="65.05" rx="0.935" ry="1.137"/>
	</g>
	<g>
		<ellipse fill="#FFFFFF" cx="40.739" cy="47.567" rx="0.935" ry="1.139"/>
		<ellipse fill="#FFFFFF" cx="43.441" cy="47.567" rx="0.934" ry="1.139"/>
		<ellipse fill="#FFFFFF" cx="46.144" cy="47.567" rx="0.935" ry="1.139"/>
		<ellipse fill="#FFFFFF" cx="48.846" cy="47.567" rx="0.934" ry="1.139"/>
		<ellipse fill="#FFFFFF" cx="54.987" cy="47.567" rx="0.935" ry="1.139"/>
		<ellipse fill="#FFFFFF" cx="52.04" cy="47.567" rx="0.935" ry="1.139"/>
		<ellipse fill="#FFFFFF" cx="57.689" cy="47.567" rx="0.934" ry="1.139"/>
		<ellipse fill="#FFFFFF" cx="60.393" cy="47.567" rx="0.934" ry="1.139"/>
		<ellipse fill="#FFFFFF" cx="63.095" cy="47.567" rx="0.935" ry="1.139"/>
	</g>
	<path fill="#A6A8AB" d="M49.889-11.784c0,0,0.271,1.049,1.807,1.049v-20.078H51.24C51.24-30.813,50.959-14.286,49.889-11.784z"/>
	<path fill="#F4F4F4" d="M53.408-11.784c0,0-0.27,1.049-1.805,1.049v-20.078h0.455C52.059-30.813,52.34-14.286,53.408-11.784z"/>
	<g>
		<circle fill="#A6A8AB" cx="51.38" cy="22.792" r="6.491"/>
		<circle fill="#B9E3ED" cx="51.38" cy="22.794" r="5.798"/>
		<g>
			<defs>
				<path id="SVGID_8_" d="M43.746,27.091c0,0,13.727-3,14.125-9.492c0.398-6.49,3.32,6.006,3.32,6.006l-2.84,7.588l-10.225,1.176
					L43.746,27.091z"/>
			</defs>
			<clipPath id="SVGID_9_">
				<use xlink:href="#SVGID_8_"  overflow="visible"/>
			</clipPath>
			<circle clip-path="url(#SVGID_9_)" fill="#E5F3F2" cx="51.38" cy="22.794" r="5.798"/>
		</g>
	</g>
	<g>
		<polygon fill="#231E1E" points="65.238,94.261 60.801,94.183 61.586,90.97 65.238,90.97 		"/>
		<g>
			<path fill="#F4F4F4" d="M75.191,64.702c-0.041-0.195-0.098-0.389-0.164-0.576c-0.018-0.066-0.035-0.131-0.055-0.197h-0.021
				c-0.744-1.855-2.641-3.178-4.869-3.178s-4.127,1.322-4.871,3.178h-0.02c-0.02,0.063-0.035,0.129-0.055,0.193
				c-0.066,0.191-0.123,0.385-0.166,0.586c-5.428,18.945,1.877,42.297,1.877,42.297h3.174h0.119h3.174
				C73.314,107.005,80.623,83.649,75.191,64.702z"/>
			<g opacity="0.4">
				<defs>
					<path id="SVGID_10_" opacity="0.4" d="M75.191,64.702c-0.041-0.195-0.098-0.389-0.164-0.576
						c-0.018-0.066-0.035-0.131-0.055-0.197h-0.021c-0.744-1.855-2.641-3.178-4.869-3.178s-4.127,1.322-4.871,3.178h-0.02
						c-0.02,0.063-0.035,0.129-0.055,0.193c-0.066,0.191-0.123,0.385-0.166,0.586c-5.428,18.945,1.877,42.297,1.877,42.297h3.174
						h0.119h3.174C73.314,107.005,80.623,83.649,75.191,64.702z"/>
				</defs>
				<clipPath id="SVGID_11_">
					<use xlink:href="#SVGID_10_"  overflow="visible"/>
				</clipPath>
				<path opacity="0.4" clip-path="url(#SVGID_11_)" fill="#838383" d="M65.541,53.991c0,0,12.377,35.725,6.281,55.781l5.377-2.768
					l2.857-47.791L65.541,53.991z"/>
			</g>
		</g>
	</g>
	<g>
		<path opacity="0.2" fill="#231E1E" d="M43.393,82.04c0,0,1.639,13.711,3.277,19.781l5.799-1.383l-0.551-17.791L43.393,82.04z"/>
		<path opacity="0.2" fill="#231E1E" d="M60.355,82.04c0,0-1.641,13.711-3.277,19.781l-5.799-1.383l0.551-17.791L60.355,82.04z"/>
		<g>
			<path fill="#F4F4F4" d="M57.027,70.978c-0.043-0.197-0.098-0.389-0.164-0.578c-0.02-0.064-0.035-0.131-0.057-0.195h-0.02
				c-0.746-1.855-2.643-3.178-4.871-3.178s-4.125,1.322-4.871,3.178h-0.02c-0.02,0.064-0.035,0.127-0.055,0.191
				c-0.066,0.191-0.123,0.385-0.166,0.588c-5.428,18.943,1.879,42.295,1.879,42.295h3.174h0.117h3.176
				C55.15,113.278,62.459,89.923,57.027,70.978z"/>
			<g opacity="0.4">
				<defs>
					<path id="SVGID_12_" opacity="0.4" d="M57.027,70.978c-0.043-0.197-0.098-0.389-0.164-0.578
						c-0.02-0.064-0.035-0.131-0.057-0.195h-0.02c-0.746-1.855-2.643-3.178-4.871-3.178s-4.125,1.322-4.871,3.178h-0.02
						c-0.02,0.064-0.035,0.127-0.055,0.191c-0.066,0.191-0.123,0.385-0.166,0.588c-5.428,18.943,1.879,42.295,1.879,42.295h3.174
						h0.117h3.176C55.15,113.278,62.459,89.923,57.027,70.978z"/>
				</defs>
				<clipPath id="SVGID_13_">
					<use xlink:href="#SVGID_12_"  overflow="visible"/>
				</clipPath>
				<path opacity="0.4" clip-path="url(#SVGID_13_)" fill="#838383" d="M47.377,60.267c0,0,12.377,35.723,6.281,55.781l5.377-2.77
					l2.857-47.791L47.377,60.267z"/>
			</g>
		</g>
	</g>
	<g>
		<polygon fill="#231E1E" points="38.139,94.261 42.576,94.183 41.789,90.97 38.139,90.97 		"/>
		<g>
			<path fill="#F4F4F4" d="M28.184,64.702c0.042-0.195,0.098-0.389,0.164-0.576c0.02-0.066,0.035-0.131,0.056-0.197h0.021
				c0.744-1.855,2.643-3.178,4.871-3.178s4.125,1.322,4.869,3.178h0.02c0.02,0.063,0.035,0.129,0.057,0.193
				c0.064,0.191,0.123,0.385,0.164,0.586c5.428,18.945-1.877,42.297-1.877,42.297h-3.174h-0.119h-3.174
				C30.061,107.005,22.753,83.649,28.184,64.702z"/>
			<g opacity="0.4">
				<defs>
					<path id="SVGID_14_" opacity="0.4" d="M28.184,64.702c0.042-0.195,0.098-0.389,0.164-0.576c0.02-0.066,0.035-0.131,0.056-0.197
						h0.021c0.744-1.855,2.643-3.178,4.871-3.178s4.125,1.322,4.869,3.178h0.02c0.02,0.063,0.035,0.129,0.057,0.193
						c0.064,0.191,0.123,0.385,0.164,0.586c5.428,18.945-1.877,42.297-1.877,42.297h-3.174h-0.119h-3.174
						C30.061,107.005,22.753,83.649,28.184,64.702z"/>
				</defs>
				<clipPath id="SVGID_15_">
					<use xlink:href="#SVGID_14_"  overflow="visible"/>
				</clipPath>
				<path opacity="0.4" clip-path="url(#SVGID_15_)" fill="#838383" d="M37.834,53.991c0,0-12.377,35.725-6.281,55.781l-5.377-2.768
					l-2.857-47.791L37.834,53.991z"/>
			</g>
		</g>
	</g>
	<polygon fill="#231E1E" points="66.238,105.364 73.795,105.364 73.371,107.29 66.67,107.29 	"/>
	<polygon fill="#231E1E" points="29.451,105.364 37.008,105.364 36.582,107.29 29.882,107.29 	"/>
	<polygon fill="#231E1E" points="48.074,111.638 55.631,111.638 55.205,113.563 48.506,113.563 	"/>
</g>
</svg>
