<?xml version="1.0" encoding="utf-8"?>
<!-- Generator: Adobe Illustrator 16.0.3, SVG Export Plug-In . SVG Version: 6.00 Build 0)  -->
<!DOCTYPE svg PUBLIC "-//W3C//DTD SVG 1.1//EN" "http://www.w3.org/Graphics/SVG/1.1/DTD/svg11.dtd">
<svg version="1.1" id="Layer_1" xmlns="http://www.w3.org/2000/svg" xmlns:xlink="http://www.w3.org/1999/xlink" x="0px" y="0px"
	 width="33.375px" height="58.75px" viewBox="17.375 -51.75 33.375 58.75" enable-background="new 17.375 -51.75 33.375 58.75"
	 xml:space="preserve">
<g>
	<polygon opacity="0.6" fill="#C1B49A" points="29.014,-45.556 25.617,-0.135 27.314,-0.135 30.115,-45.175 	"/>
	<polygon opacity="0.6" fill="#C1B49A" points="33.269,-48.912 30.693,1.271 32.393,1.244 34.379,-48.511 	"/>
	<polygon opacity="0.6" fill="#C1B49A" points="40.395,-45.556 43.79,-0.135 42.092,-0.135 39.29,-45.175 	"/>
	<polygon opacity="0.6" fill="#C1B49A" points="37.105,-43.829 37.981,4.227 36.285,4.117 35.982,-43.498 	"/>
	<path fill="#C1B49A" d="M46.707-17.219c0-1.037-0.726-1.93-1.771-2.342c0.021-0.359-0.117-0.814-0.408-1.242
		c-0.488-0.715-1.215-1.07-1.621-0.792c-0.408,0.278-0.341,1.082,0.149,1.799c0.028,0.043,0.06,0.081,0.091,0.12
		c-0.665,0.259-1.139,0.902-1.139,1.658c0,0.242,0.049,0.472,0.136,0.683c-0.694,0.147-1.239,0.7-1.377,1.397
		c-0.013,0-0.022-0.004-0.034-0.004c-0.537,0-1.012,0.242-1.338,0.616c-0.328-0.374-0.803-0.616-1.338-0.616
		c-0.984,0-1.783,0.798-1.783,1.782c0,0.016,0.004,0.028,0.004,0.042c-0.164-0.07-0.346-0.109-0.534-0.109
		c-0.272,0-0.526,0.083-0.742,0.222c-0.075-0.388-0.315-0.71-0.644-0.903c0.011-0.07,0.021-0.139,0.021-0.211
		c0-0.753-0.611-1.365-1.365-1.365c-0.596,0-1.098,0.385-1.285,0.918c-0.078-0.016-0.162-0.026-0.246-0.026
		c-0.486,0-0.91,0.254-1.15,0.633c-0.25-0.339-0.649-0.563-1.1-0.563c-0.344,0-0.652,0.13-0.893,0.338
		c-0.031-0.662-0.535-1.198-1.182-1.281c-0.014-0.067-0.031-0.128-0.051-0.192c0.234-0.244,0.381-0.574,0.381-0.941
		c0-0.752-0.613-1.365-1.365-1.365c-0.139,0-0.27,0.027-0.395,0.066c-0.038-0.104-0.082-0.203-0.143-0.294
		c0.225-0.17,0.432-0.427,0.572-0.751c0.308-0.703,0.189-1.434-0.262-1.631c-0.453-0.195-1.065,0.215-1.374,0.919
		c-0.128,0.298-0.177,0.599-0.161,0.864c-0.713,0.047-1.277,0.633-1.277,1.357c0,0.031,0.008,0.066,0.012,0.099
		c-0.64,0.476-1.045,1.168-1.045,1.942c0,1.081,0.784,2.004,1.897,2.395c-0.07,0.182-0.106,0.374-0.106,0.574
		c0,1.051,1.007,1.897,2.248,1.897c0.837,0,1.564-0.384,1.951-0.956c0.391,0.572,1.117,0.956,1.952,0.956
		c0.147,0,0.29-0.015,0.429-0.036c0.234,0.838,1.123,1.461,2.188,1.461c0.604,0,1.149-0.201,1.552-0.525
		c0.551,0.713,1.499,1.184,2.58,1.184c1.455,0,2.675-0.852,2.994-1.998c0.409,0.371,0.992,0.605,1.645,0.605
		c1.241,0,2.25-0.849,2.25-1.896c0-0.245-0.059-0.48-0.16-0.695c0.053,0.003,0.106,0.004,0.16,0.004c1.242,0,2.25-0.848,2.25-1.893
		c0-0.047-0.006-0.088-0.008-0.133C46.389-15.91,46.707-16.534,46.707-17.219z"/>
	<path fill="#C1B49A" d="M44.645-34.659c0-0.842-0.589-1.566-1.438-1.902c0.016-0.29-0.096-0.66-0.331-1.007
		c-0.396-0.582-0.986-0.868-1.315-0.643c-0.331,0.225-0.277,0.878,0.12,1.459c0.024,0.034,0.05,0.065,0.075,0.098
		c-0.542,0.209-0.926,0.732-0.926,1.346c0,0.196,0.041,0.382,0.111,0.552c-0.566,0.12-1.007,0.568-1.118,1.135
		c-0.009,0-0.021-0.001-0.029-0.001c-0.434,0-0.819,0.193-1.085,0.499c-0.266-0.306-0.65-0.499-1.086-0.499
		c-0.799,0-1.447,0.646-1.447,1.447c0,0.01,0.004,0.019,0.005,0.031c-0.134-0.057-0.281-0.087-0.435-0.087
		c-0.225,0-0.428,0.067-0.602,0.18c-0.063-0.314-0.257-0.576-0.523-0.734c0.01-0.057,0.016-0.113,0.016-0.17
		c0-0.612-0.495-1.108-1.107-1.108c-0.483,0-0.891,0.311-1.041,0.744c-0.064-0.014-0.132-0.022-0.202-0.022
		c-0.393,0-0.735,0.206-0.931,0.514c-0.203-0.276-0.527-0.458-0.895-0.458c-0.277,0-0.529,0.106-0.723,0.276
		c-0.026-0.54-0.435-0.974-0.961-1.041c-0.009-0.053-0.023-0.104-0.039-0.154c0.189-0.199,0.307-0.468,0.307-0.765
		c0-0.612-0.498-1.108-1.107-1.108c-0.11,0-0.217,0.022-0.319,0.051c-0.029-0.084-0.067-0.165-0.116-0.237
		c0.182-0.139,0.352-0.346,0.466-0.608c0.249-0.571,0.153-1.165-0.214-1.326c-0.365-0.16-0.865,0.175-1.113,0.748
		c-0.104,0.242-0.145,0.487-0.133,0.7c-0.577,0.038-1.035,0.515-1.035,1.101c0,0.027,0.007,0.055,0.009,0.082
		c-0.521,0.386-0.849,0.949-0.849,1.576c0,0.876,0.636,1.626,1.539,1.943c-0.057,0.147-0.086,0.304-0.086,0.467
		c0,0.851,0.816,1.54,1.827,1.54c0.677,0,1.267-0.314,1.583-0.777c0.315,0.463,0.905,0.777,1.582,0.777
		c0.121,0,0.237-0.011,0.351-0.031c0.188,0.681,0.912,1.187,1.772,1.187c0.491,0,0.934-0.161,1.263-0.427
		c0.444,0.578,1.214,0.962,2.093,0.962c1.184,0,2.171-0.695,2.428-1.623c0.334,0.302,0.809,0.492,1.336,0.492
		c1.007,0,1.826-0.691,1.826-1.54c0-0.201-0.046-0.389-0.13-0.566c0.044,0.003,0.086,0.005,0.13,0.005
		c1.008,0,1.826-0.688,1.826-1.539c0-0.034-0.003-0.07-0.006-0.104C44.385-33.598,44.645-34.102,44.645-34.659z"/>
	<path fill="#C1B49A" d="M49.197-3.281c0-1.178-0.873-2.189-2.129-2.658c0.023-0.408-0.143-0.926-0.49-1.41
		c-0.588-0.813-1.459-1.215-1.949-0.9c-0.489,0.316-0.408,1.23,0.178,2.043c0.036,0.049,0.074,0.092,0.111,0.137
		c-0.799,0.294-1.368,1.024-1.368,1.882c0,0.274,0.057,0.536,0.163,0.773c-0.836,0.168-1.492,0.794-1.656,1.588
		c-0.014,0-0.027-0.003-0.04-0.003c-0.646,0-1.216,0.272-1.61,0.697c-0.391-0.425-0.964-0.697-1.607-0.697
		c-1.183,0-2.142,0.905-2.142,2.021c0,0.016,0.002,0.029,0.003,0.047c-0.196-0.081-0.412-0.124-0.641-0.124
		c-0.331,0-0.635,0.093-0.892,0.253c-0.093-0.439-0.383-0.807-0.775-1.027c0.014-0.078,0.026-0.156,0.026-0.238
		c0-0.855-0.734-1.549-1.642-1.549c-0.718,0-1.319,0.436-1.544,1.041c-0.096-0.02-0.195-0.029-0.299-0.029
		c-0.58,0-1.09,0.287-1.38,0.719c-0.3-0.387-0.778-0.641-1.323-0.641c-0.412,0-0.783,0.148-1.07,0.385
		c-0.04-0.752-0.644-1.358-1.424-1.455c-0.012-0.074-0.034-0.145-0.061-0.217c0.281-0.278,0.457-0.654,0.457-1.066
		c0-0.858-0.734-1.553-1.64-1.553c-0.165,0-0.323,0.031-0.472,0.074c-0.047-0.117-0.102-0.23-0.175-0.333
		c0.272-0.192,0.521-0.483,0.69-0.851c0.367-0.801,0.227-1.629-0.314-1.852c-0.545-0.224-1.283,0.242-1.65,1.043
		c-0.156,0.338-0.216,0.68-0.195,0.98c-0.855,0.053-1.535,0.718-1.535,1.539c0,0.04,0.009,0.076,0.012,0.113
		C20.047-4.01,19.56-3.221,19.56-2.342c0,1.225,0.941,2.272,2.28,2.715c-0.084,0.206-0.127,0.428-0.127,0.654
		c0,1.188,1.209,2.152,2.703,2.152c1.006,0,1.88-0.438,2.346-1.084c0.467,0.646,1.34,1.084,2.347,1.084
		c0.177,0,0.349-0.016,0.515-0.04c0.281,0.95,1.352,1.658,2.633,1.658c0.721,0,1.378-0.228,1.863-0.597
		c0.66,0.808,1.801,1.343,3.101,1.343c1.749,0,3.214-0.97,3.597-2.267c0.494,0.422,1.197,0.688,1.977,0.688
		c1.494,0,2.707-0.966,2.707-2.152c0-0.279-0.07-0.547-0.192-0.793c0.063,0.004,0.127,0.008,0.192,0.008
		c1.493,0,2.702-0.963,2.702-2.151c0-0.05-0.003-0.098-0.009-0.149C48.814-1.798,49.197-2.502,49.197-3.281z"/>
</g>
</svg>
