<?xml version="1.0" encoding="utf-8"?>
<!-- Generator: Adobe Illustrator 16.0.3, SVG Export Plug-In . SVG Version: 6.00 Build 0)  -->
<!DOCTYPE svg PUBLIC "-//W3C//DTD SVG 1.1//EN" "http://www.w3.org/Graphics/SVG/1.1/DTD/svg11.dtd">
<svg version="1.1" id="Layer_1" xmlns="http://www.w3.org/2000/svg" xmlns:xlink="http://www.w3.org/1999/xlink" x="0px" y="0px"
	 width="157px" height="821px" viewBox="-134 -293 157 821" enable-background="new -134 -293 157 821" xml:space="preserve">
<g>
	<path fill="#F7FBF9" d="M-55.167-112.549c-0.617-0.203-1.262-0.323-1.93-0.323c-4.326,0-7.832,4.541-7.832,10.141
		c0,0.21,0.014,0.415,0.023,0.622c-1.068-0.396-2.191-0.622-3.359-0.622c-6.719,0-12.166,7.052-12.166,15.75
		c0,1.852,0.26,3.621,0.713,5.271c-8.76,1.691-15.379,9.392-15.379,18.646c0,7.688,4.576,14.293,11.145,17.284
		c-1.363,2.619-2.145,5.589-2.145,8.745c0,9.892,7.561,18.011,17.217,18.91c0.492,3.191,1.955,5.928,3.975,7.674
		c0.078,6.227,3.996,11.246,8.826,11.246c4.877,0,8.832-5.12,8.832-11.436c0-1.345-0.188-2.629-0.518-3.827
		c6.361-1.229,11.166-6.819,11.166-13.538c0-0.891-0.092-1.759-0.252-2.603c6.484-1.749,11.418-10.501,11.418-21.059
		c0-5.471-1.334-10.446-3.512-14.229c0.266-1.325,0.41-2.734,0.41-4.195c0-6.316-2.686-11.659-6.383-13.432
		c0.006-0.209,0.02-0.414,0.02-0.625c0-5.997-2.424-11.102-5.834-13.122c1.23-2.046,1.969-4.61,1.969-7.403
		c0-6.673-4.178-12.083-9.334-12.083C-50.926-116.757-53.456-115.122-55.167-112.549z"/>
	<path fill="#F7FBF9" d="M-46.889-154.812c-0.617-0.203-1.262-0.323-1.93-0.323c-4.326,0-7.832,4.541-7.832,10.141
		c0,0.21,0.014,0.415,0.023,0.622c-1.068-0.396-2.191-0.622-3.359-0.622c-6.719,0-12.166,7.052-12.166,15.75
		c0,1.852,0.26,3.621,0.713,5.271c-8.76,1.691-15.379,9.392-15.379,18.646c0,7.688,4.576,14.293,11.145,17.284
		c-1.363,2.619-2.145,5.589-2.145,8.745c0,9.892,7.561,18.011,17.217,18.91c0.492,3.191,1.955,5.928,3.975,7.674
		c0.078,6.227,3.996,11.246,8.826,11.246c4.877,0,8.832-5.12,8.832-11.436c0-1.345-0.188-2.629-0.518-3.827
		c6.361-1.229,11.166-6.819,11.166-13.538c0-0.891-0.092-1.759-0.252-2.603c6.484-1.749,11.418-10.501,11.418-21.059
		c0-5.471-1.334-10.446-3.512-14.229c0.266-1.325,0.41-2.734,0.41-4.195c0-6.316-2.686-11.659-6.383-13.432
		c0.006-0.209,0.02-0.414,0.02-0.625c0-5.997-2.424-11.102-5.834-13.122c1.23-2.046,1.969-4.61,1.969-7.403
		c0-6.673-4.178-12.083-9.334-12.083C-42.649-159.02-45.178-157.385-46.889-154.812z"/>
	<path opacity="0.5" fill="#A6A8AB" d="M-90.325-128.954c-0.545-0.179-1.111-0.284-1.699-0.284c-3.809,0-6.895,3.997-6.895,8.928
		c0,0.185,0.012,0.365,0.021,0.548c-0.941-0.35-1.932-0.548-2.959-0.548c-5.914,0-10.711,6.208-10.711,13.865
		c0,1.63,0.23,3.188,0.629,4.641c-7.713,1.489-13.539,8.269-13.539,16.415c0,6.769,4.027,12.584,9.811,15.217
		c-1.199,2.306-1.889,4.921-1.889,7.699c0,8.708,6.656,15.855,15.158,16.647c0.434,2.81,1.721,5.219,3.498,6.756
		c0.068,5.482,3.52,9.9,7.77,9.9c4.295,0,7.777-4.508,7.777-10.067c0-1.184-0.166-2.314-0.455-3.369
		c5.6-1.081,9.83-6.004,9.83-11.919c0-0.783-0.082-1.548-0.223-2.29c5.709-1.541,10.053-9.245,10.053-18.54
		c0-4.816-1.176-9.196-3.094-12.527c0.236-1.167,0.363-2.406,0.363-3.693c0-5.561-2.365-10.264-5.621-11.824
		c0.006-0.185,0.018-0.365,0.018-0.551c0-5.279-2.133-9.773-5.135-11.552c1.082-1.802,1.732-4.06,1.732-6.519
		c0-5.874-3.678-10.637-8.217-10.637C-86.592-132.658-88.819-131.219-90.325-128.954z"/>
	<path fill="#F7FBF9" d="M-12.879-154.372c-0.258-0.085-0.527-0.135-0.807-0.135c-1.813,0-3.279,1.9-3.279,4.245
		c0,0.088,0.006,0.174,0.01,0.261c-0.447-0.166-0.918-0.261-1.406-0.261c-2.813,0-5.094,2.952-5.094,6.594
		c0,0.775,0.109,1.516,0.299,2.207c-3.666,0.708-6.438,3.932-6.438,7.806c0,3.218,1.914,5.983,4.664,7.235
		c-0.57,1.097-0.896,2.34-0.896,3.661c0,4.141,3.164,7.54,7.207,7.917c0.207,1.336,0.818,2.481,1.664,3.212
		c0.033,2.607,1.674,4.708,3.695,4.708c2.041,0,3.697-2.144,3.697-4.787c0-0.563-0.078-1.101-0.217-1.603
		c2.662-0.514,4.674-2.854,4.674-5.667c0-0.373-0.037-0.736-0.105-1.09c2.715-0.732,4.781-4.396,4.781-8.815
		c0-2.291-0.559-4.374-1.471-5.957c0.111-0.555,0.172-1.145,0.172-1.757c0-2.645-1.125-4.881-2.672-5.623
		c0.002-0.087,0.008-0.173,0.008-0.262c0-2.51-1.016-4.647-2.441-5.493c0.514-0.856,0.824-1.93,0.824-3.1
		c0-2.793-1.75-5.059-3.908-5.059C-11.104-156.134-12.163-155.449-12.879-154.372z"/>
	<path fill="#F7FBF9" d="M-31.129-41.872c-0.258-0.085-0.527-0.135-0.807-0.135c-1.813,0-3.279,1.9-3.279,4.245
		c0,0.088,0.006,0.174,0.01,0.261c-0.447-0.166-0.918-0.261-1.406-0.261c-2.813,0-5.094,2.952-5.094,6.594
		c0,0.775,0.109,1.516,0.299,2.207c-3.666,0.708-6.438,3.932-6.438,7.806c0,3.218,1.914,5.983,4.664,7.235
		c-0.57,1.097-0.896,2.34-0.896,3.661c0,4.141,3.164,7.54,7.207,7.917c0.207,1.336,0.818,2.481,1.664,3.212
		c0.033,2.607,1.674,4.708,3.695,4.708c2.041,0,3.697-2.144,3.697-4.787c0-0.563-0.078-1.101-0.217-1.603
		c2.662-0.514,4.674-2.854,4.674-5.667c0-0.373-0.037-0.736-0.105-1.09c2.715-0.732,4.781-4.396,4.781-8.815
		c0-2.291-0.559-4.374-1.471-5.957c0.111-0.555,0.172-1.145,0.172-1.757c0-2.645-1.125-4.881-2.672-5.623
		c0.002-0.087,0.008-0.173,0.008-0.262c0-2.51-1.016-4.647-2.441-5.493c0.514-0.856,0.824-1.93,0.824-3.1
		c0-2.793-1.75-5.059-3.908-5.059C-29.354-43.634-30.413-42.949-31.129-41.872z"/>
	<path opacity="0.5" fill="#A6A8AB" d="M-79.122-131.337c-0.248-0.082-0.508-0.13-0.775-0.13c-1.738,0-3.148,1.824-3.148,4.075
		c0,0.084,0.006,0.167,0.01,0.25c-0.43-0.159-0.881-0.25-1.35-0.25c-2.699,0-4.889,2.834-4.889,6.329
		c0,0.744,0.104,1.455,0.287,2.118c-3.521,0.68-6.182,3.774-6.182,7.493c0,3.089,1.84,5.744,4.479,6.945
		c-0.547,1.053-0.861,2.246-0.861,3.515c0,3.975,3.039,7.237,6.918,7.599c0.199,1.282,0.787,2.382,1.598,3.084
		c0.031,2.502,1.605,4.52,3.547,4.52c1.961,0,3.549-2.059,3.549-4.596c0-0.54-0.076-1.057-0.207-1.538
		c2.557-0.493,4.486-2.74,4.486-5.44c0-0.357-0.037-0.707-0.102-1.045c2.605-0.704,4.59-4.221,4.59-8.463
		c0-2.199-0.537-4.198-1.412-5.719c0.107-0.532,0.166-1.098,0.166-1.686c0-2.538-1.08-4.686-2.566-5.397
		c0.002-0.084,0.008-0.167,0.008-0.251c0-2.41-0.975-4.462-2.344-5.273c0.494-0.822,0.791-1.853,0.791-2.976
		c0-2.681-1.68-4.854-3.752-4.854C-77.418-133.027-78.434-132.371-79.122-131.337z"/>
	<path opacity="0.5" fill="#A6A8AB" d="M-46.549-60.587c-0.248-0.082-0.508-0.13-0.775-0.13c-1.738,0-3.148,1.824-3.148,4.075
		c0,0.084,0.006,0.167,0.01,0.25c-0.43-0.159-0.881-0.25-1.35-0.25c-2.699,0-4.889,2.834-4.889,6.329
		c0,0.744,0.104,1.455,0.287,2.118c-3.521,0.68-6.182,3.774-6.182,7.493c0,3.089,1.84,5.744,4.479,6.945
		c-0.547,1.053-0.861,2.246-0.861,3.515c0,3.975,3.039,7.237,6.918,7.599c0.199,1.282,0.787,2.382,1.598,3.084
		c0.031,2.502,1.605,4.52,3.547,4.52c1.961,0,3.549-2.059,3.549-4.596c0-0.54-0.076-1.057-0.207-1.538
		c2.557-0.493,4.486-2.74,4.486-5.44c0-0.357-0.037-0.707-0.102-1.045c2.605-0.704,4.59-4.221,4.59-8.463
		c0-2.199-0.537-4.198-1.412-5.719c0.107-0.532,0.166-1.098,0.166-1.686c0-2.538-1.08-4.686-2.566-5.397
		c0.002-0.084,0.008-0.167,0.008-0.251c0-2.41-0.975-4.462-2.344-5.273c0.494-0.822,0.791-1.853,0.791-2.976
		c0-2.681-1.68-4.854-3.752-4.854C-44.846-62.277-45.862-61.621-46.549-60.587z"/>
	<path opacity="0.5" fill="#A6A8AB" d="M-73.692-51.55c-0.328-0.108-0.668-0.171-1.021-0.171c-2.287,0-4.143,2.4-4.143,5.363
		c0,0.111,0.008,0.22,0.014,0.329c-0.566-0.209-1.16-0.329-1.777-0.329c-3.555,0-6.436,3.73-6.436,8.331
		c0,0.979,0.139,1.915,0.377,2.788c-4.633,0.895-8.135,4.968-8.135,9.862c0,4.065,2.422,7.561,5.895,9.142
		c-0.721,1.386-1.135,2.957-1.135,4.626c0,5.231,4,9.526,9.107,10.002c0.26,1.688,1.035,3.135,2.104,4.06
		c0.041,3.293,2.113,5.948,4.666,5.948c2.582,0,4.674-2.709,4.674-6.049c0-0.711-0.102-1.391-0.273-2.024
		c3.363-0.649,5.906-3.606,5.906-7.161c0-0.47-0.049-0.931-0.135-1.375c3.43-0.927,6.039-5.556,6.039-11.14
		c0-2.895-0.705-5.525-1.857-7.527c0.141-0.7,0.219-1.444,0.219-2.218c0-3.341-1.422-6.168-3.377-7.104
		c0.002-0.11,0.01-0.22,0.01-0.33c0-3.173-1.281-5.873-3.086-6.941c0.65-1.082,1.041-2.438,1.041-3.917
		c0-3.528-2.209-6.39-4.938-6.39C-71.45-53.775-72.788-52.911-73.692-51.55z"/>
	<path fill="#F7FBF9" d="M-55.167-236.265c-0.617-0.203-1.262-0.323-1.93-0.323c-4.326,0-7.832,4.541-7.832,10.141
		c0,0.21,0.014,0.415,0.023,0.622c-1.068-0.396-2.191-0.622-3.359-0.622c-6.719,0-12.166,7.052-12.166,15.75
		c0,1.852,0.26,3.621,0.713,5.271c-8.76,1.691-15.379,9.392-15.379,18.646c0,7.688,4.576,14.293,11.145,17.284
		c-1.363,2.619-2.145,5.589-2.145,8.745c0,9.892,7.561,18.011,17.217,18.91c0.492,3.191,1.955,5.928,3.975,7.674
		c0.078,6.227,3.996,11.246,8.826,11.246c4.877,0,8.832-5.12,8.832-11.436c0-1.345-0.188-2.629-0.518-3.827
		c6.361-1.229,11.166-6.819,11.166-13.538c0-0.891-0.092-1.759-0.252-2.603c6.484-1.749,11.418-10.501,11.418-21.059
		c0-5.471-1.334-10.446-3.512-14.229c0.266-1.325,0.41-2.734,0.41-4.195c0-6.316-2.686-11.659-6.383-13.432
		c0.006-0.209,0.02-0.414,0.02-0.625c0-5.997-2.424-11.102-5.834-13.122c1.23-2.046,1.969-4.61,1.969-7.403
		c0-6.673-4.178-12.083-9.334-12.083C-50.926-240.473-53.456-238.838-55.167-236.265z"/>
	<path fill="#F7FBF9" d="M-46.889-278.527c-0.617-0.203-1.262-0.323-1.93-0.323c-4.326,0-7.832,4.541-7.832,10.141
		c0,0.21,0.014,0.415,0.023,0.622c-1.068-0.396-2.191-0.622-3.359-0.622c-6.719,0-12.166,7.052-12.166,15.75
		c0,1.852,0.26,3.621,0.713,5.271c-8.76,1.691-15.379,9.392-15.379,18.646c0,7.688,4.576,14.293,11.145,17.284
		c-1.363,2.619-2.145,5.589-2.145,8.745c0,9.892,7.561,18.011,17.217,18.91c0.492,3.191,1.955,5.928,3.975,7.674
		c0.078,6.227,3.996,11.246,8.826,11.246c4.877,0,8.832-5.12,8.832-11.436c0-1.345-0.188-2.629-0.518-3.827
		c6.361-1.229,11.166-6.819,11.166-13.538c0-0.891-0.092-1.759-0.252-2.603c6.484-1.749,11.418-10.501,11.418-21.059
		c0-5.471-1.334-10.446-3.512-14.229c0.266-1.325,0.41-2.734,0.41-4.195c0-6.316-2.686-11.659-6.383-13.432
		c0.006-0.209,0.02-0.414,0.02-0.625c0-5.997-2.424-11.102-5.834-13.122c1.23-2.046,1.969-4.61,1.969-7.403
		c0-6.673-4.178-12.083-9.334-12.083C-42.649-282.735-45.178-281.101-46.889-278.527z"/>
	<path opacity="0.5" fill="#A6A8AB" d="M-14.194-264.356c-0.543-0.179-1.111-0.284-1.697-0.284c-3.809,0-6.896,3.997-6.896,8.928
		c0,0.185,0.014,0.365,0.021,0.548c-0.941-0.35-1.93-0.548-2.957-0.548c-5.916,0-10.711,6.208-10.711,13.865
		c0,1.63,0.229,3.188,0.627,4.641c-7.711,1.489-13.539,8.269-13.539,16.415c0,6.769,4.029,12.584,9.811,15.217
		c-1.199,2.306-1.887,4.921-1.887,7.699c0,8.708,6.656,15.855,15.156,16.647c0.434,2.81,1.723,5.219,3.5,6.756
		c0.068,5.482,3.518,9.9,7.77,9.9c4.295,0,7.775-4.508,7.775-10.067c0-1.184-0.166-2.314-0.455-3.369
		c5.6-1.081,9.83-6.004,9.83-11.919c0-0.783-0.08-1.548-0.223-2.29c5.709-1.541,10.053-9.245,10.053-18.54
		c0-4.816-1.176-9.196-3.092-12.527c0.234-1.167,0.361-2.406,0.361-3.693c0-5.561-2.365-10.264-5.619-11.824
		c0.004-0.185,0.018-0.365,0.018-0.551c0-5.279-2.135-9.773-5.137-11.552c1.082-1.802,1.734-4.06,1.734-6.519
		c0-5.874-3.68-10.637-8.219-10.637C-10.459-268.061-12.686-266.621-14.194-264.356z"/>
	<path fill="#F7FBF9" d="M-12.879-278.088c-0.258-0.085-0.527-0.135-0.807-0.135c-1.813,0-3.279,1.9-3.279,4.245
		c0,0.088,0.006,0.174,0.01,0.261c-0.447-0.166-0.918-0.261-1.406-0.261c-2.813,0-5.094,2.952-5.094,6.594
		c0,0.775,0.109,1.516,0.299,2.207c-3.666,0.708-6.438,3.932-6.438,7.806c0,3.218,1.914,5.983,4.664,7.235
		c-0.57,1.097-0.896,2.34-0.896,3.661c0,4.141,3.164,7.54,7.207,7.917c0.207,1.336,0.818,2.481,1.664,3.212
		c0.033,2.607,1.674,4.708,3.695,4.708c2.041,0,3.697-2.144,3.697-4.787c0-0.563-0.078-1.101-0.217-1.603
		c2.662-0.514,4.674-2.854,4.674-5.667c0-0.373-0.037-0.736-0.105-1.09c2.715-0.732,4.781-4.396,4.781-8.815
		c0-2.291-0.559-4.374-1.471-5.957c0.111-0.555,0.172-1.145,0.172-1.757c0-2.645-1.125-4.881-2.672-5.623
		c0.002-0.087,0.008-0.173,0.008-0.262c0-2.51-1.016-4.647-2.441-5.493c0.514-0.856,0.824-1.93,0.824-3.1
		c0-2.793-1.75-5.059-3.908-5.059C-11.104-279.85-12.163-279.165-12.879-278.088z"/>
	<path fill="#F7FBF9" d="M-31.129-165.588c-0.258-0.085-0.527-0.135-0.807-0.135c-1.813,0-3.279,1.9-3.279,4.245
		c0,0.088,0.006,0.174,0.01,0.261c-0.447-0.166-0.918-0.261-1.406-0.261c-2.813,0-5.094,2.952-5.094,6.594
		c0,0.775,0.109,1.516,0.299,2.207c-3.666,0.708-6.438,3.932-6.438,7.806c0,3.218,1.914,5.983,4.664,7.235
		c-0.57,1.097-0.896,2.34-0.896,3.661c0,4.141,3.164,7.54,7.207,7.917c0.207,1.336,0.818,2.481,1.664,3.212
		c0.033,2.607,1.674,4.708,3.695,4.708c2.041,0,3.697-2.144,3.697-4.787c0-0.563-0.078-1.101-0.217-1.603
		c2.662-0.514,4.674-2.854,4.674-5.667c0-0.373-0.037-0.736-0.105-1.09c2.715-0.732,4.781-4.396,4.781-8.815
		c0-2.291-0.559-4.374-1.471-5.957c0.111-0.555,0.172-1.145,0.172-1.757c0-2.645-1.125-4.881-2.672-5.623
		c0.002-0.087,0.008-0.173,0.008-0.262c0-2.51-1.016-4.647-2.441-5.493c0.514-0.856,0.824-1.93,0.824-3.1
		c0-2.793-1.75-5.059-3.908-5.059C-29.354-167.35-30.413-166.665-31.129-165.588z"/>
	<path opacity="0.5" fill="#A6A8AB" d="M-79.122-255.053c-0.248-0.082-0.508-0.13-0.775-0.13c-1.738,0-3.148,1.824-3.148,4.075
		c0,0.084,0.006,0.167,0.01,0.25c-0.43-0.159-0.881-0.25-1.35-0.25c-2.699,0-4.889,2.834-4.889,6.329
		c0,0.744,0.104,1.455,0.287,2.118c-3.521,0.68-6.182,3.774-6.182,7.493c0,3.089,1.84,5.744,4.479,6.945
		c-0.547,1.053-0.861,2.246-0.861,3.515c0,3.975,3.039,7.237,6.918,7.599c0.199,1.282,0.787,2.382,1.598,3.084
		c0.031,2.502,1.605,4.52,3.547,4.52c1.961,0,3.549-2.059,3.549-4.596c0-0.54-0.076-1.057-0.207-1.538
		c2.557-0.493,4.486-2.74,4.486-5.44c0-0.357-0.037-0.707-0.102-1.045c2.605-0.704,4.59-4.221,4.59-8.463
		c0-2.199-0.537-4.198-1.412-5.719c0.107-0.532,0.166-1.098,0.166-1.686c0-2.538-1.08-4.686-2.566-5.397
		c0.002-0.084,0.008-0.167,0.008-0.251c0-2.41-0.975-4.462-2.344-5.273c0.494-0.822,0.791-1.853,0.791-2.976
		c0-2.681-1.68-4.854-3.752-4.854C-77.418-256.743-78.434-256.087-79.122-255.053z"/>
	<path opacity="0.5" fill="#A6A8AB" d="M-46.549-184.303c-0.248-0.082-0.508-0.13-0.775-0.13c-1.738,0-3.148,1.824-3.148,4.075
		c0,0.084,0.006,0.167,0.01,0.25c-0.43-0.159-0.881-0.25-1.35-0.25c-2.699,0-4.889,2.834-4.889,6.329
		c0,0.744,0.104,1.455,0.287,2.118c-3.521,0.68-6.182,3.774-6.182,7.493c0,3.089,1.84,5.744,4.479,6.945
		c-0.547,1.053-0.861,2.246-0.861,3.515c0,3.975,3.039,7.237,6.918,7.599c0.199,1.282,0.787,2.382,1.598,3.084
		c0.031,2.502,1.605,4.52,3.547,4.52c1.961,0,3.549-2.059,3.549-4.596c0-0.54-0.076-1.057-0.207-1.538
		c2.557-0.493,4.486-2.74,4.486-5.44c0-0.357-0.037-0.707-0.102-1.045c2.605-0.704,4.59-4.221,4.59-8.463
		c0-2.199-0.537-4.198-1.412-5.719c0.107-0.532,0.166-1.098,0.166-1.686c0-2.538-1.08-4.686-2.566-5.397
		c0.002-0.084,0.008-0.167,0.008-0.251c0-2.41-0.975-4.462-2.344-5.273c0.494-0.822,0.791-1.853,0.791-2.976
		c0-2.681-1.68-4.854-3.752-4.854C-44.846-185.993-45.862-185.337-46.549-184.303z"/>
	<path opacity="0.5" fill="#A6A8AB" d="M-73.692-175.266c-0.328-0.108-0.668-0.171-1.021-0.171c-2.287,0-4.143,2.4-4.143,5.363
		c0,0.111,0.008,0.22,0.014,0.329c-0.566-0.209-1.16-0.329-1.777-0.329c-3.555,0-6.436,3.73-6.436,8.331
		c0,0.979,0.139,1.915,0.377,2.788c-4.633,0.895-8.135,4.968-8.135,9.862c0,4.065,2.422,7.561,5.895,9.142
		c-0.721,1.386-1.135,2.957-1.135,4.626c0,5.231,4,9.526,9.107,10.002c0.26,1.688,1.035,3.135,2.104,4.06
		c0.041,3.293,2.113,5.948,4.666,5.948c2.582,0,4.674-2.709,4.674-6.049c0-0.711-0.102-1.391-0.273-2.024
		c3.363-0.649,5.906-3.606,5.906-7.161c0-0.47-0.049-0.931-0.135-1.375c3.43-0.927,6.039-5.556,6.039-11.14
		c0-2.895-0.705-5.525-1.857-7.527c0.141-0.7,0.219-1.444,0.219-2.218c0-3.341-1.422-6.168-3.377-7.104
		c0.002-0.11,0.01-0.22,0.01-0.33c0-3.173-1.281-5.873-3.086-6.941c0.65-1.082,1.041-2.438,1.041-3.917
		c0-3.528-2.209-6.39-4.938-6.39C-71.45-177.491-72.788-176.627-73.692-175.266z"/>
	<path fill="#F7FBF9" d="M-55.167,18.432c-0.617-0.203-1.262-0.323-1.93-0.323c-4.326,0-7.832,4.541-7.832,10.141
		c0,0.21,0.014,0.415,0.023,0.622c-1.068-0.396-2.191-0.622-3.359-0.622c-6.719,0-12.166,7.052-12.166,15.75
		c0,1.852,0.26,3.621,0.713,5.271c-8.76,1.691-15.379,9.392-15.379,18.646c0,7.688,4.576,14.293,11.145,17.284
		c-1.363,2.619-2.145,5.589-2.145,8.745c0,9.892,7.561,18.011,17.217,18.91c0.492,3.191,1.955,5.928,3.975,7.674
		c0.078,6.227,3.996,11.246,8.826,11.246c4.877,0,8.832-5.12,8.832-11.436c0-1.345-0.188-2.629-0.518-3.827
		c6.361-1.229,11.166-6.819,11.166-13.538c0-0.891-0.092-1.759-0.252-2.603c6.484-1.749,11.418-10.501,11.418-21.059
		c0-5.471-1.334-10.446-3.512-14.229c0.266-1.325,0.41-2.734,0.41-4.195c0-6.316-2.686-11.659-6.383-13.432
		c0.006-0.209,0.02-0.414,0.02-0.625c0-5.997-2.424-11.102-5.834-13.122c1.23-2.046,1.969-4.61,1.969-7.403
		c0-6.673-4.178-12.083-9.334-12.083C-50.926,14.224-53.456,15.858-55.167,18.432z"/>
	<path fill="#F7FBF9" d="M-46.889-23.831c-0.617-0.203-1.262-0.323-1.93-0.323c-4.326,0-7.832,4.541-7.832,10.141
		c0,0.21,0.014,0.415,0.023,0.622c-1.068-0.396-2.191-0.622-3.359-0.622c-6.719,0-12.166,7.052-12.166,15.75
		c0,1.852,0.26,3.621,0.713,5.271c-8.76,1.691-15.379,9.392-15.379,18.646c0,7.688,4.576,14.293,11.145,17.284
		c-1.363,2.619-2.145,5.589-2.145,8.745c0,9.892,7.561,18.011,17.217,18.91c0.492,3.191,1.955,5.928,3.975,7.674
		c0.078,6.227,3.996,11.246,8.826,11.246c4.877,0,8.832-5.12,8.832-11.436c0-1.345-0.188-2.629-0.518-3.827
		c6.361-1.229,11.166-6.819,11.166-13.538c0-0.891-0.092-1.759-0.252-2.603c6.484-1.749,11.418-10.501,11.418-21.059
		c0-5.471-1.334-10.446-3.512-14.229c0.266-1.325,0.41-2.734,0.41-4.195c0-6.316-2.686-11.659-6.383-13.432
		c0.006-0.209,0.02-0.414,0.02-0.625c0-5.997-2.424-11.102-5.834-13.122c1.23-2.046,1.969-4.61,1.969-7.403
		c0-6.673-4.178-12.083-9.334-12.083C-42.649-28.039-45.178-26.404-46.889-23.831z"/>
	<path opacity="0.5" fill="#A6A8AB" d="M-25.108-17.303c-0.543-0.179-1.111-0.284-1.697-0.284c-3.809,0-6.896,3.997-6.896,8.928
		c0,0.185,0.014,0.365,0.021,0.548c-0.941-0.35-1.93-0.548-2.957-0.548c-5.916,0-10.711,6.208-10.711,13.865
		c0,1.63,0.229,3.188,0.627,4.641c-7.711,1.489-13.539,8.269-13.539,16.415c0,6.769,4.029,12.584,9.811,15.217
		c-1.199,2.306-1.887,4.921-1.887,7.699c0,8.708,6.656,15.855,15.156,16.647c0.434,2.81,1.723,5.219,3.5,6.756
		c0.068,5.482,3.518,9.9,7.77,9.9c4.295,0,7.775-4.508,7.775-10.067c0-1.184-0.166-2.314-0.455-3.369
		c5.6-1.081,9.83-6.004,9.83-11.919c0-0.783-0.08-1.548-0.223-2.29c5.709-1.541,10.053-9.245,10.053-18.54
		c0-4.816-1.176-9.196-3.092-12.527c0.234-1.167,0.361-2.406,0.361-3.693c0-5.561-2.365-10.264-5.619-11.824
		C-7.276,8.066-7.262,7.886-7.262,7.7c0-5.279-2.135-9.773-5.137-11.552c1.082-1.802,1.734-4.06,1.734-6.519
		c0-5.874-3.68-10.637-8.219-10.637C-21.374-21.007-23.6-19.567-25.108-17.303z"/>
	<path fill="#F7FBF9" d="M-12.879-23.392c-0.258-0.085-0.527-0.135-0.807-0.135c-1.813,0-3.279,1.9-3.279,4.245
		c0,0.088,0.006,0.174,0.01,0.261c-0.447-0.166-0.918-0.261-1.406-0.261c-2.813,0-5.094,2.952-5.094,6.594
		c0,0.775,0.109,1.516,0.299,2.207c-3.666,0.708-6.438,3.932-6.438,7.806c0,3.218,1.914,5.983,4.664,7.235
		c-0.57,1.097-0.896,2.34-0.896,3.661c0,4.141,3.164,7.54,7.207,7.917c0.207,1.336,0.818,2.481,1.664,3.212
		c0.033,2.607,1.674,4.708,3.695,4.708c2.041,0,3.697-2.144,3.697-4.787c0-0.563-0.078-1.101-0.217-1.603
		c2.662-0.514,4.674-2.854,4.674-5.667c0-0.373-0.037-0.736-0.105-1.09C-2.497,10.18-0.43,6.517-0.43,2.097
		c0-2.291-0.559-4.374-1.471-5.957c0.111-0.555,0.172-1.145,0.172-1.757c0-2.645-1.125-4.881-2.672-5.623
		c0.002-0.087,0.008-0.173,0.008-0.262c0-2.51-1.016-4.647-2.441-5.493c0.514-0.856,0.824-1.93,0.824-3.1
		c0-2.793-1.75-5.059-3.908-5.059C-11.104-25.153-12.163-24.469-12.879-23.392z"/>
	<path fill="#F7FBF9" d="M-31.129,89.108c-0.258-0.085-0.527-0.135-0.807-0.135c-1.813,0-3.279,1.9-3.279,4.245
		c0,0.088,0.006,0.174,0.01,0.261c-0.447-0.166-0.918-0.261-1.406-0.261c-2.813,0-5.094,2.952-5.094,6.594
		c0,0.775,0.109,1.516,0.299,2.207c-3.666,0.708-6.438,3.932-6.438,7.806c0,3.218,1.914,5.983,4.664,7.235
		c-0.57,1.097-0.896,2.34-0.896,3.661c0,4.141,3.164,7.54,7.207,7.917c0.207,1.336,0.818,2.481,1.664,3.212
		c0.033,2.607,1.674,4.708,3.695,4.708c2.041,0,3.697-2.144,3.697-4.787c0-0.563-0.078-1.101-0.217-1.603
		c2.662-0.514,4.674-2.854,4.674-5.667c0-0.373-0.037-0.736-0.105-1.09c2.715-0.732,4.781-4.396,4.781-8.815
		c0-2.291-0.559-4.374-1.471-5.957c0.111-0.555,0.172-1.145,0.172-1.757c0-2.645-1.125-4.881-2.672-5.623
		c0.002-0.087,0.008-0.173,0.008-0.262c0-2.51-1.016-4.647-2.441-5.493c0.514-0.856,0.824-1.93,0.824-3.1
		c0-2.793-1.75-5.059-3.908-5.059C-29.354,87.347-30.413,88.031-31.129,89.108z"/>
	<path opacity="0.5" fill="#A6A8AB" d="M-79.122-0.356c-0.248-0.082-0.508-0.13-0.775-0.13c-1.738,0-3.148,1.824-3.148,4.075
		c0,0.084,0.006,0.167,0.01,0.25c-0.43-0.159-0.881-0.25-1.35-0.25c-2.699,0-4.889,2.834-4.889,6.329
		c0,0.744,0.104,1.455,0.287,2.118c-3.521,0.68-6.182,3.774-6.182,7.493c0,3.089,1.84,5.744,4.479,6.945
		c-0.547,1.053-0.861,2.246-0.861,3.515c0,3.975,3.039,7.237,6.918,7.599c0.199,1.282,0.787,2.382,1.598,3.084
		c0.031,2.502,1.605,4.52,3.547,4.52c1.961,0,3.549-2.059,3.549-4.596c0-0.54-0.076-1.057-0.207-1.538
		c2.557-0.493,4.486-2.74,4.486-5.44c0-0.357-0.037-0.707-0.102-1.045c2.605-0.704,4.59-4.221,4.59-8.463
		c0-2.199-0.537-4.198-1.412-5.719c0.107-0.532,0.166-1.098,0.166-1.686c0-2.538-1.08-4.686-2.566-5.397
		c0.002-0.084,0.008-0.167,0.008-0.251c0-2.41-0.975-4.462-2.344-5.273c0.494-0.822,0.791-1.853,0.791-2.976
		c0-2.681-1.68-4.854-3.752-4.854C-77.418-2.047-78.434-1.391-79.122-0.356z"/>
	<path opacity="0.5" fill="#A6A8AB" d="M-46.549,70.394c-0.248-0.082-0.508-0.13-0.775-0.13c-1.738,0-3.148,1.824-3.148,4.075
		c0,0.084,0.006,0.167,0.01,0.25c-0.43-0.159-0.881-0.25-1.35-0.25c-2.699,0-4.889,2.834-4.889,6.329
		c0,0.744,0.104,1.455,0.287,2.118c-3.521,0.68-6.182,3.774-6.182,7.493c0,3.089,1.84,5.744,4.479,6.945
		c-0.547,1.053-0.861,2.246-0.861,3.515c0,3.975,3.039,7.237,6.918,7.599c0.199,1.282,0.787,2.382,1.598,3.084
		c0.031,2.502,1.605,4.52,3.547,4.52c1.961,0,3.549-2.059,3.549-4.596c0-0.54-0.076-1.057-0.207-1.538
		c2.557-0.493,4.486-2.74,4.486-5.44c0-0.357-0.037-0.707-0.102-1.045c2.605-0.704,4.59-4.221,4.59-8.463
		c0-2.199-0.537-4.198-1.412-5.719c0.107-0.532,0.166-1.098,0.166-1.686c0-2.538-1.08-4.686-2.566-5.397
		c0.002-0.084,0.008-0.167,0.008-0.251c0-2.41-0.975-4.462-2.344-5.273c0.494-0.822,0.791-1.853,0.791-2.976
		c0-2.681-1.68-4.854-3.752-4.854C-44.846,68.703-45.862,69.359-46.549,70.394z"/>
	<path opacity="0.5" fill="#A6A8AB" d="M-73.692,79.431c-0.328-0.108-0.668-0.171-1.021-0.171c-2.287,0-4.143,2.4-4.143,5.363
		c0,0.111,0.008,0.22,0.014,0.329c-0.566-0.209-1.16-0.329-1.777-0.329c-3.555,0-6.436,3.73-6.436,8.331
		c0,0.979,0.139,1.915,0.377,2.788c-4.633,0.895-8.135,4.968-8.135,9.862c0,4.065,2.422,7.561,5.895,9.142
		c-0.721,1.386-1.135,2.957-1.135,4.626c0,5.231,4,9.526,9.107,10.002c0.26,1.688,1.035,3.135,2.104,4.06
		c0.041,3.293,2.113,5.948,4.666,5.948c2.582,0,4.674-2.709,4.674-6.049c0-0.711-0.102-1.391-0.273-2.024
		c3.363-0.649,5.906-3.606,5.906-7.161c0-0.47-0.049-0.931-0.135-1.375c3.43-0.927,6.039-5.556,6.039-11.14
		c0-2.895-0.705-5.525-1.857-7.527c0.141-0.7,0.219-1.444,0.219-2.218c0-3.341-1.422-6.168-3.377-7.104
		c0.002-0.11,0.01-0.22,0.01-0.33c0-3.173-1.281-5.873-3.086-6.941c0.65-1.082,1.041-2.438,1.041-3.917
		c0-3.528-2.209-6.39-4.938-6.39C-71.45,77.205-72.788,78.069-73.692,79.431z"/>
	<path fill="#F7FBF9" d="M-55.167,262.509c-0.617-0.203-1.262-0.323-1.93-0.323c-4.326,0-7.832,4.541-7.832,10.141
		c0,0.21,0.014,0.415,0.023,0.622c-1.068-0.396-2.191-0.622-3.359-0.622c-6.719,0-12.166,7.052-12.166,15.75
		c0,1.852,0.26,3.621,0.713,5.271c-8.76,1.691-15.379,9.392-15.379,18.646c0,7.688,4.576,14.293,11.145,17.284
		c-1.363,2.619-2.145,5.589-2.145,8.745c0,9.892,7.561,18.011,17.217,18.91c0.492,3.191,1.955,5.928,3.975,7.674
		c0.078,6.227,3.996,11.246,8.826,11.246c4.877,0,8.832-5.12,8.832-11.436c0-1.345-0.188-2.629-0.518-3.827
		c6.361-1.229,11.166-6.819,11.166-13.538c0-0.891-0.092-1.759-0.252-2.603c6.484-1.749,11.418-10.501,11.418-21.059
		c0-5.471-1.334-10.446-3.512-14.229c0.266-1.325,0.41-2.734,0.41-4.195c0-6.316-2.686-11.659-6.383-13.432
		c0.006-0.209,0.02-0.414,0.02-0.625c0-5.997-2.424-11.102-5.834-13.122c1.23-2.046,1.969-4.61,1.969-7.403
		c0-6.673-4.178-12.083-9.334-12.083C-50.926,258.301-53.456,259.936-55.167,262.509z"/>
	<path fill="#F7FBF9" d="M-46.889,220.246c-0.617-0.203-1.262-0.323-1.93-0.323c-4.326,0-7.832,4.541-7.832,10.141
		c0,0.21,0.014,0.415,0.023,0.622c-1.068-0.396-2.191-0.622-3.359-0.622c-6.719,0-12.166,7.052-12.166,15.75
		c0,1.852,0.26,3.621,0.713,5.271c-8.76,1.691-15.379,9.392-15.379,18.646c0,7.688,4.576,14.293,11.145,17.284
		c-1.363,2.619-2.145,5.589-2.145,8.745c0,9.892,7.561,18.011,17.217,18.91c0.492,3.191,1.955,5.928,3.975,7.674
		c0.078,6.227,3.996,11.246,8.826,11.246c4.877,0,8.832-5.12,8.832-11.436c0-1.345-0.188-2.629-0.518-3.827
		c6.361-1.229,11.166-6.819,11.166-13.538c0-0.891-0.092-1.759-0.252-2.603c6.484-1.749,11.418-10.501,11.418-21.059
		c0-5.471-1.334-10.446-3.512-14.229c0.266-1.325,0.41-2.734,0.41-4.195c0-6.316-2.686-11.659-6.383-13.432
		c0.006-0.209,0.02-0.414,0.02-0.625c0-5.997-2.424-11.102-5.834-13.122c1.23-2.046,1.969-4.61,1.969-7.403
		c0-6.673-4.178-12.083-9.334-12.083C-42.649,216.038-45.178,217.673-46.889,220.246z"/>
	<path opacity="0.5" fill="#A6A8AB" d="M-90.325,246.104c-0.545-0.179-1.111-0.284-1.699-0.284c-3.809,0-6.895,3.997-6.895,8.928
		c0,0.185,0.012,0.365,0.021,0.548c-0.941-0.35-1.932-0.548-2.959-0.548c-5.914,0-10.711,6.208-10.711,13.865
		c0,1.63,0.23,3.188,0.629,4.641c-7.713,1.489-13.539,8.269-13.539,16.415c0,6.769,4.027,12.584,9.811,15.217
		c-1.199,2.306-1.889,4.921-1.889,7.699c0,8.708,6.656,15.855,15.158,16.647c0.434,2.81,1.721,5.219,3.498,6.756
		c0.068,5.482,3.52,9.9,7.77,9.9c4.295,0,7.777-4.508,7.777-10.067c0-1.184-0.166-2.314-0.455-3.369
		c5.6-1.081,9.83-6.004,9.83-11.919c0-0.783-0.082-1.548-0.223-2.29c5.709-1.541,10.053-9.245,10.053-18.54
		c0-4.816-1.176-9.196-3.094-12.527c0.236-1.167,0.363-2.406,0.363-3.693c0-5.561-2.365-10.264-5.621-11.824
		c0.006-0.185,0.018-0.365,0.018-0.551c0-5.279-2.133-9.773-5.135-11.552c1.082-1.802,1.732-4.06,1.732-6.519
		c0-5.874-3.678-10.637-8.217-10.637C-86.592,242.399-88.819,243.839-90.325,246.104z"/>
	<path fill="#F7FBF9" d="M-12.879,220.686c-0.258-0.085-0.527-0.135-0.807-0.135c-1.813,0-3.279,1.9-3.279,4.245
		c0,0.088,0.006,0.174,0.01,0.261c-0.447-0.166-0.918-0.261-1.406-0.261c-2.813,0-5.094,2.952-5.094,6.594
		c0,0.775,0.109,1.516,0.299,2.207c-3.666,0.708-6.438,3.932-6.438,7.806c0,3.218,1.914,5.983,4.664,7.235
		c-0.57,1.097-0.896,2.34-0.896,3.661c0,4.141,3.164,7.54,7.207,7.917c0.207,1.336,0.818,2.481,1.664,3.212
		c0.033,2.607,1.674,4.708,3.695,4.708c2.041,0,3.697-2.144,3.697-4.787c0-0.563-0.078-1.101-0.217-1.603
		c2.662-0.514,4.674-2.854,4.674-5.667c0-0.373-0.037-0.736-0.105-1.09c2.715-0.732,4.781-4.396,4.781-8.815
		c0-2.291-0.559-4.374-1.471-5.957c0.111-0.555,0.172-1.145,0.172-1.757c0-2.645-1.125-4.881-2.672-5.623
		c0.002-0.087,0.008-0.173,0.008-0.262c0-2.51-1.016-4.647-2.441-5.493c0.514-0.856,0.824-1.93,0.824-3.1
		c0-2.793-1.75-5.059-3.908-5.059C-11.104,218.924-12.163,219.608-12.879,220.686z"/>
	<path fill="#F7FBF9" d="M-31.129,333.186c-0.258-0.085-0.527-0.135-0.807-0.135c-1.813,0-3.279,1.9-3.279,4.245
		c0,0.088,0.006,0.174,0.01,0.261c-0.447-0.166-0.918-0.261-1.406-0.261c-2.813,0-5.094,2.952-5.094,6.594
		c0,0.775,0.109,1.516,0.299,2.207c-3.666,0.708-6.438,3.932-6.438,7.806c0,3.218,1.914,5.983,4.664,7.235
		c-0.57,1.097-0.896,2.34-0.896,3.661c0,4.141,3.164,7.54,7.207,7.917c0.207,1.336,0.818,2.481,1.664,3.212
		c0.033,2.607,1.674,4.708,3.695,4.708c2.041,0,3.697-2.144,3.697-4.787c0-0.563-0.078-1.101-0.217-1.603
		c2.662-0.514,4.674-2.854,4.674-5.667c0-0.373-0.037-0.736-0.105-1.09c2.715-0.732,4.781-4.396,4.781-8.815
		c0-2.291-0.559-4.374-1.471-5.957c0.111-0.555,0.172-1.145,0.172-1.757c0-2.645-1.125-4.881-2.672-5.623
		c0.002-0.087,0.008-0.173,0.008-0.262c0-2.51-1.016-4.647-2.441-5.493c0.514-0.856,0.824-1.93,0.824-3.1
		c0-2.793-1.75-5.059-3.908-5.059C-29.354,331.424-30.413,332.108-31.129,333.186z"/>
	<path opacity="0.5" fill="#A6A8AB" d="M-79.122,243.721c-0.248-0.082-0.508-0.13-0.775-0.13c-1.738,0-3.148,1.824-3.148,4.075
		c0,0.084,0.006,0.167,0.01,0.25c-0.43-0.159-0.881-0.25-1.35-0.25c-2.699,0-4.889,2.834-4.889,6.329
		c0,0.744,0.104,1.455,0.287,2.118c-3.521,0.68-6.182,3.774-6.182,7.493c0,3.089,1.84,5.744,4.479,6.945
		c-0.547,1.053-0.861,2.246-0.861,3.515c0,3.975,3.039,7.237,6.918,7.599c0.199,1.282,0.787,2.382,1.598,3.084
		c0.031,2.502,1.605,4.52,3.547,4.52c1.961,0,3.549-2.059,3.549-4.596c0-0.54-0.076-1.057-0.207-1.538
		c2.557-0.493,4.486-2.74,4.486-5.44c0-0.357-0.037-0.707-0.102-1.045c2.605-0.704,4.59-4.221,4.59-8.463
		c0-2.199-0.537-4.198-1.412-5.719c0.107-0.532,0.166-1.098,0.166-1.686c0-2.538-1.08-4.686-2.566-5.397
		c0.002-0.084,0.008-0.167,0.008-0.251c0-2.41-0.975-4.462-2.344-5.273c0.494-0.822,0.791-1.853,0.791-2.976
		c0-2.681-1.68-4.854-3.752-4.854C-77.418,242.03-78.434,242.687-79.122,243.721z"/>
	<path opacity="0.5" fill="#A6A8AB" d="M-46.549,314.471c-0.248-0.082-0.508-0.13-0.775-0.13c-1.738,0-3.148,1.824-3.148,4.075
		c0,0.084,0.006,0.167,0.01,0.25c-0.43-0.159-0.881-0.25-1.35-0.25c-2.699,0-4.889,2.834-4.889,6.329
		c0,0.744,0.104,1.455,0.287,2.118c-3.521,0.68-6.182,3.774-6.182,7.493c0,3.089,1.84,5.744,4.479,6.945
		c-0.547,1.053-0.861,2.246-0.861,3.515c0,3.975,3.039,7.237,6.918,7.599c0.199,1.282,0.787,2.382,1.598,3.084
		c0.031,2.502,1.605,4.52,3.547,4.52c1.961,0,3.549-2.059,3.549-4.596c0-0.54-0.076-1.057-0.207-1.538
		c2.557-0.493,4.486-2.74,4.486-5.44c0-0.357-0.037-0.707-0.102-1.045c2.605-0.704,4.59-4.221,4.59-8.463
		c0-2.199-0.537-4.198-1.412-5.719c0.107-0.532,0.166-1.098,0.166-1.686c0-2.538-1.08-4.686-2.566-5.397
		c0.002-0.084,0.008-0.167,0.008-0.251c0-2.41-0.975-4.462-2.344-5.273c0.494-0.822,0.791-1.853,0.791-2.976
		c0-2.681-1.68-4.854-3.752-4.854C-44.846,312.78-45.862,313.437-46.549,314.471z"/>
	<path opacity="0.5" fill="#A6A8AB" d="M-73.692,323.508c-0.328-0.108-0.668-0.171-1.021-0.171c-2.287,0-4.143,2.4-4.143,5.363
		c0,0.111,0.008,0.22,0.014,0.329c-0.566-0.209-1.16-0.329-1.777-0.329c-3.555,0-6.436,3.73-6.436,8.331
		c0,0.979,0.139,1.915,0.377,2.788c-4.633,0.895-8.135,4.968-8.135,9.862c0,4.065,2.422,7.561,5.895,9.142
		c-0.721,1.386-1.135,2.957-1.135,4.626c0,5.231,4,9.526,9.107,10.002c0.26,1.688,1.035,3.135,2.104,4.06
		c0.041,3.293,2.113,5.948,4.666,5.948c2.582,0,4.674-2.709,4.674-6.049c0-0.711-0.102-1.391-0.273-2.024
		c3.363-0.649,5.906-3.606,5.906-7.161c0-0.47-0.049-0.931-0.135-1.375c3.43-0.927,6.039-5.556,6.039-11.14
		c0-2.895-0.705-5.525-1.857-7.527c0.141-0.7,0.219-1.444,0.219-2.218c0-3.341-1.422-6.168-3.377-7.104
		c0.002-0.11,0.01-0.22,0.01-0.33c0-3.173-1.281-5.873-3.086-6.941c0.65-1.082,1.041-2.438,1.041-3.917
		c0-3.528-2.209-6.39-4.938-6.39C-71.45,321.282-72.788,322.146-73.692,323.508z"/>
	<path fill="#F7FBF9" d="M-55.167,138.793c-0.617-0.203-1.262-0.323-1.93-0.323c-4.326,0-7.832,4.541-7.832,10.141
		c0,0.21,0.014,0.415,0.023,0.622c-1.068-0.396-2.191-0.622-3.359-0.622c-6.719,0-12.166,7.052-12.166,15.75
		c0,1.852,0.26,3.621,0.713,5.271c-8.76,1.691-15.379,9.392-15.379,18.646c0,7.688,4.576,14.293,11.145,17.284
		c-1.363,2.619-2.145,5.589-2.145,8.745c0,9.892,7.561,18.011,17.217,18.91c0.492,3.191,1.955,5.928,3.975,7.674
		c0.078,6.227,3.996,11.246,8.826,11.246c4.877,0,8.832-5.12,8.832-11.436c0-1.345-0.188-2.629-0.518-3.827
		c6.361-1.229,11.166-6.819,11.166-13.538c0-0.891-0.092-1.759-0.252-2.603c6.484-1.749,11.418-10.501,11.418-21.059
		c0-5.471-1.334-10.446-3.512-14.229c0.266-1.325,0.41-2.734,0.41-4.195c0-6.316-2.686-11.659-6.383-13.432
		c0.006-0.209,0.02-0.414,0.02-0.625c0-5.997-2.424-11.102-5.834-13.122c1.23-2.046,1.969-4.61,1.969-7.403
		c0-6.673-4.178-12.083-9.334-12.083C-50.926,134.585-53.456,136.22-55.167,138.793z"/>
	<path fill="#F7FBF9" d="M-46.889,96.53c-0.617-0.203-1.262-0.323-1.93-0.323c-4.326,0-7.832,4.541-7.832,10.141
		c0,0.21,0.014,0.415,0.023,0.622c-1.068-0.396-2.191-0.622-3.359-0.622c-6.719,0-12.166,7.052-12.166,15.75
		c0,1.852,0.26,3.621,0.713,5.271c-8.76,1.691-15.379,9.392-15.379,18.646c0,7.688,4.576,14.293,11.145,17.284
		c-1.363,2.619-2.145,5.589-2.145,8.745c0,9.892,7.561,18.011,17.217,18.91c0.492,3.191,1.955,5.928,3.975,7.674
		c0.078,6.227,3.996,11.246,8.826,11.246c4.877,0,8.832-5.12,8.832-11.436c0-1.345-0.188-2.629-0.518-3.827
		c6.361-1.229,11.166-6.819,11.166-13.538c0-0.891-0.092-1.759-0.252-2.603c6.484-1.749,11.418-10.501,11.418-21.059
		c0-5.471-1.334-10.446-3.512-14.229c0.266-1.325,0.41-2.734,0.41-4.195c0-6.316-2.686-11.659-6.383-13.432
		c0.006-0.209,0.02-0.414,0.02-0.625c0-5.997-2.424-11.102-5.834-13.122c1.23-2.046,1.969-4.61,1.969-7.403
		c0-6.673-4.178-12.083-9.334-12.083C-42.649,92.322-45.178,93.957-46.889,96.53z"/>
	<path opacity="0.5" fill="#A6A8AB" d="M-14.194,110.701c-0.543-0.179-1.111-0.284-1.697-0.284c-3.809,0-6.896,3.997-6.896,8.928
		c0,0.185,0.014,0.365,0.021,0.548c-0.941-0.35-1.93-0.548-2.957-0.548c-5.916,0-10.711,6.208-10.711,13.865
		c0,1.63,0.229,3.188,0.627,4.641c-7.711,1.489-13.539,8.269-13.539,16.415c0,6.769,4.029,12.584,9.811,15.217
		c-1.199,2.306-1.887,4.921-1.887,7.699c0,8.708,6.656,15.855,15.156,16.647c0.434,2.81,1.723,5.219,3.5,6.756
		c0.068,5.482,3.518,9.9,7.77,9.9c4.295,0,7.775-4.508,7.775-10.067c0-1.184-0.166-2.314-0.455-3.369
		c5.6-1.081,9.83-6.004,9.83-11.919c0-0.783-0.08-1.548-0.223-2.29c5.709-1.541,10.053-9.245,10.053-18.54
		c0-4.816-1.176-9.196-3.092-12.527c0.234-1.167,0.361-2.406,0.361-3.693c0-5.561-2.365-10.264-5.619-11.824
		c0.004-0.185,0.018-0.365,0.018-0.551c0-5.279-2.135-9.773-5.137-11.552c1.082-1.802,1.734-4.06,1.734-6.519
		c0-5.874-3.68-10.637-8.219-10.637C-10.459,106.997-12.686,108.437-14.194,110.701z"/>
	<path fill="#F7FBF9" d="M-12.879,96.97c-0.258-0.085-0.527-0.135-0.807-0.135c-1.813,0-3.279,1.9-3.279,4.245
		c0,0.088,0.006,0.174,0.01,0.261c-0.447-0.166-0.918-0.261-1.406-0.261c-2.813,0-5.094,2.952-5.094,6.594
		c0,0.775,0.109,1.516,0.299,2.207c-3.666,0.708-6.438,3.932-6.438,7.806c0,3.218,1.914,5.983,4.664,7.235
		c-0.57,1.097-0.896,2.34-0.896,3.661c0,4.141,3.164,7.54,7.207,7.917c0.207,1.336,0.818,2.481,1.664,3.212
		c0.033,2.607,1.674,4.708,3.695,4.708c2.041,0,3.697-2.144,3.697-4.787c0-0.563-0.078-1.101-0.217-1.603
		c2.662-0.514,4.674-2.854,4.674-5.667c0-0.373-0.037-0.736-0.105-1.09c2.715-0.732,4.781-4.396,4.781-8.815
		c0-2.291-0.559-4.374-1.471-5.957c0.111-0.555,0.172-1.145,0.172-1.757c0-2.645-1.125-4.881-2.672-5.623
		c0.002-0.087,0.008-0.173,0.008-0.262c0-2.51-1.016-4.647-2.441-5.493c0.514-0.856,0.824-1.93,0.824-3.1
		c0-2.793-1.75-5.059-3.908-5.059C-11.104,95.208-12.163,95.893-12.879,96.97z"/>
	<path fill="#F7FBF9" d="M-31.129,209.47c-0.258-0.085-0.527-0.135-0.807-0.135c-1.813,0-3.279,1.9-3.279,4.245
		c0,0.088,0.006,0.174,0.01,0.261c-0.447-0.166-0.918-0.261-1.406-0.261c-2.813,0-5.094,2.952-5.094,6.594
		c0,0.775,0.109,1.516,0.299,2.207c-3.666,0.708-6.438,3.932-6.438,7.806c0,3.218,1.914,5.983,4.664,7.235
		c-0.57,1.097-0.896,2.34-0.896,3.661c0,4.141,3.164,7.54,7.207,7.917c0.207,1.336,0.818,2.481,1.664,3.212
		c0.033,2.607,1.674,4.708,3.695,4.708c2.041,0,3.697-2.144,3.697-4.787c0-0.563-0.078-1.101-0.217-1.603
		c2.662-0.514,4.674-2.854,4.674-5.667c0-0.373-0.037-0.736-0.105-1.09c2.715-0.732,4.781-4.396,4.781-8.815
		c0-2.291-0.559-4.374-1.471-5.957c0.111-0.555,0.172-1.145,0.172-1.757c0-2.645-1.125-4.881-2.672-5.623
		c0.002-0.087,0.008-0.173,0.008-0.262c0-2.51-1.016-4.647-2.441-5.493c0.514-0.856,0.824-1.93,0.824-3.1
		c0-2.793-1.75-5.059-3.908-5.059C-29.354,207.708-30.413,208.393-31.129,209.47z"/>
	<path opacity="0.5" fill="#A6A8AB" d="M-79.122,120.005c-0.248-0.082-0.508-0.13-0.775-0.13c-1.738,0-3.148,1.824-3.148,4.075
		c0,0.084,0.006,0.167,0.01,0.25c-0.43-0.159-0.881-0.25-1.35-0.25c-2.699,0-4.889,2.834-4.889,6.329
		c0,0.744,0.104,1.455,0.287,2.118c-3.521,0.68-6.182,3.774-6.182,7.493c0,3.089,1.84,5.744,4.479,6.945
		c-0.547,1.053-0.861,2.246-0.861,3.515c0,3.975,3.039,7.237,6.918,7.599c0.199,1.282,0.787,2.382,1.598,3.084
		c0.031,2.502,1.605,4.52,3.547,4.52c1.961,0,3.549-2.059,3.549-4.596c0-0.54-0.076-1.057-0.207-1.538
		c2.557-0.493,4.486-2.74,4.486-5.44c0-0.357-0.037-0.707-0.102-1.045c2.605-0.704,4.59-4.221,4.59-8.463
		c0-2.199-0.537-4.198-1.412-5.719c0.107-0.532,0.166-1.098,0.166-1.686c0-2.538-1.08-4.686-2.566-5.397
		c0.002-0.084,0.008-0.167,0.008-0.251c0-2.41-0.975-4.462-2.344-5.273c0.494-0.822,0.791-1.853,0.791-2.976
		c0-2.681-1.68-4.854-3.752-4.854C-77.418,118.314-78.434,118.971-79.122,120.005z"/>
	<path opacity="0.5" fill="#A6A8AB" d="M-46.549,190.755c-0.248-0.082-0.508-0.13-0.775-0.13c-1.738,0-3.148,1.824-3.148,4.075
		c0,0.084,0.006,0.167,0.01,0.25c-0.43-0.159-0.881-0.25-1.35-0.25c-2.699,0-4.889,2.834-4.889,6.329
		c0,0.744,0.104,1.455,0.287,2.118c-3.521,0.68-6.182,3.774-6.182,7.493c0,3.089,1.84,5.744,4.479,6.945
		c-0.547,1.053-0.861,2.246-0.861,3.515c0,3.975,3.039,7.237,6.918,7.599c0.199,1.282,0.787,2.382,1.598,3.084
		c0.031,2.502,1.605,4.52,3.547,4.52c1.961,0,3.549-2.059,3.549-4.596c0-0.54-0.076-1.057-0.207-1.538
		c2.557-0.493,4.486-2.74,4.486-5.44c0-0.357-0.037-0.707-0.102-1.045c2.605-0.704,4.59-4.221,4.59-8.463
		c0-2.199-0.537-4.198-1.412-5.719c0.107-0.532,0.166-1.098,0.166-1.686c0-2.538-1.08-4.686-2.566-5.397
		c0.002-0.084,0.008-0.167,0.008-0.251c0-2.41-0.975-4.462-2.344-5.273c0.494-0.822,0.791-1.853,0.791-2.976
		c0-2.681-1.68-4.854-3.752-4.854C-44.846,189.064-45.862,189.721-46.549,190.755z"/>
	<path opacity="0.5" fill="#A6A8AB" d="M-73.692,199.792c-0.328-0.108-0.668-0.171-1.021-0.171c-2.287,0-4.143,2.4-4.143,5.363
		c0,0.111,0.008,0.22,0.014,0.329c-0.566-0.209-1.16-0.329-1.777-0.329c-3.555,0-6.436,3.73-6.436,8.331
		c0,0.979,0.139,1.915,0.377,2.788c-4.633,0.895-8.135,4.968-8.135,9.862c0,4.065,2.422,7.561,5.895,9.142
		c-0.721,1.386-1.135,2.957-1.135,4.626c0,5.231,4,9.526,9.107,10.002c0.26,1.688,1.035,3.135,2.104,4.06
		c0.041,3.293,2.113,5.948,4.666,5.948c2.582,0,4.674-2.709,4.674-6.049c0-0.711-0.102-1.391-0.273-2.024
		c3.363-0.649,5.906-3.606,5.906-7.161c0-0.47-0.049-0.931-0.135-1.375c3.43-0.927,6.039-5.556,6.039-11.14
		c0-2.895-0.705-5.525-1.857-7.527c0.141-0.7,0.219-1.444,0.219-2.218c0-3.341-1.422-6.168-3.377-7.104
		c0.002-0.11,0.01-0.22,0.01-0.33c0-3.173-1.281-5.873-3.086-6.941c0.65-1.082,1.041-2.438,1.041-3.917
		c0-3.528-2.209-6.39-4.938-6.39C-71.45,197.566-72.788,198.431-73.692,199.792z"/>
	<path fill="#F7FBF9" d="M-55.167,393.489c-0.617-0.203-1.262-0.323-1.93-0.323c-4.326,0-7.832,4.541-7.832,10.141
		c0,0.21,0.014,0.415,0.023,0.622c-1.068-0.396-2.191-0.622-3.359-0.622c-6.719,0-12.166,7.052-12.166,15.75
		c0,1.852,0.26,3.621,0.713,5.271c-8.76,1.691-15.379,9.392-15.379,18.646c0,7.688,4.576,14.293,11.145,17.284
		c-1.363,2.619-2.145,5.589-2.145,8.745c0,9.892,7.561,18.011,17.217,18.91c0.492,3.191,1.955,5.928,3.975,7.674
		c0.078,6.227,3.996,11.246,8.826,11.246c4.877,0,8.832-5.12,8.832-11.436c0-1.345-0.188-2.629-0.518-3.827
		c6.361-1.229,11.166-6.819,11.166-13.538c0-0.891-0.092-1.759-0.252-2.603c6.484-1.749,11.418-10.501,11.418-21.059
		c0-5.471-1.334-10.446-3.512-14.229c0.266-1.325,0.41-2.734,0.41-4.195c0-6.316-2.686-11.659-6.383-13.432
		c0.006-0.209,0.02-0.414,0.02-0.625c0-5.997-2.424-11.102-5.834-13.122c1.23-2.046,1.969-4.61,1.969-7.403
		c0-6.673-4.178-12.083-9.334-12.083C-50.926,389.281-53.456,390.916-55.167,393.489z"/>
	<path fill="#F7FBF9" d="M-46.889,351.227c-0.617-0.203-1.262-0.323-1.93-0.323c-4.326,0-7.832,4.541-7.832,10.141
		c0,0.21,0.014,0.415,0.023,0.622c-1.068-0.396-2.191-0.622-3.359-0.622c-6.719,0-12.166,7.052-12.166,15.75
		c0,1.852,0.26,3.621,0.713,5.271c-8.76,1.691-15.379,9.392-15.379,18.646c0,7.688,4.576,14.293,11.145,17.284
		c-1.363,2.619-2.145,5.589-2.145,8.745c0,9.892,7.561,18.011,17.217,18.91c0.492,3.191,1.955,5.928,3.975,7.674
		c0.078,6.227,3.996,11.246,8.826,11.246c4.877,0,8.832-5.12,8.832-11.436c0-1.345-0.188-2.629-0.518-3.827
		c6.361-1.229,11.166-6.819,11.166-13.538c0-0.891-0.092-1.759-0.252-2.603c6.484-1.749,11.418-10.501,11.418-21.059
		c0-5.471-1.334-10.446-3.512-14.229c0.266-1.325,0.41-2.734,0.41-4.195c0-6.316-2.686-11.659-6.383-13.432
		c0.006-0.209,0.02-0.414,0.02-0.625c0-5.997-2.424-11.102-5.834-13.122c1.23-2.046,1.969-4.61,1.969-7.403
		c0-6.673-4.178-12.083-9.334-12.083C-42.649,347.019-45.178,348.653-46.889,351.227z"/>
	<path opacity="0.5" fill="#A6A8AB" d="M-25.108,357.755c-0.543-0.179-1.111-0.284-1.697-0.284c-3.809,0-6.896,3.997-6.896,8.928
		c0,0.185,0.014,0.365,0.021,0.548c-0.941-0.35-1.93-0.548-2.957-0.548c-5.916,0-10.711,6.208-10.711,13.865
		c0,1.63,0.229,3.188,0.627,4.641c-7.711,1.489-13.539,8.269-13.539,16.415c0,6.769,4.029,12.584,9.811,15.217
		c-1.199,2.306-1.887,4.921-1.887,7.699c0,8.708,6.656,15.855,15.156,16.647c0.434,2.81,1.723,5.219,3.5,6.756
		c0.068,5.482,3.518,9.9,7.77,9.9c4.295,0,7.775-4.508,7.775-10.067c0-1.184-0.166-2.314-0.455-3.369
		c5.6-1.081,9.83-6.004,9.83-11.919c0-0.783-0.08-1.548-0.223-2.29c5.709-1.541,10.053-9.245,10.053-18.54
		c0-4.816-1.176-9.196-3.092-12.527c0.234-1.167,0.361-2.406,0.361-3.693c0-5.561-2.365-10.264-5.619-11.824
		c0.004-0.185,0.018-0.365,0.018-0.551c0-5.279-2.135-9.773-5.137-11.552c1.082-1.802,1.734-4.06,1.734-6.519
		c0-5.874-3.68-10.637-8.219-10.637C-21.374,354.051-23.6,355.49-25.108,357.755z"/>
	<path fill="#F7FBF9" d="M-12.879,351.666c-0.258-0.085-0.527-0.135-0.807-0.135c-1.813,0-3.279,1.9-3.279,4.245
		c0,0.088,0.006,0.174,0.01,0.261c-0.447-0.166-0.918-0.261-1.406-0.261c-2.813,0-5.094,2.952-5.094,6.594
		c0,0.775,0.109,1.516,0.299,2.207c-3.666,0.708-6.438,3.932-6.438,7.806c0,3.218,1.914,5.983,4.664,7.235
		c-0.57,1.097-0.896,2.34-0.896,3.661c0,4.141,3.164,7.54,7.207,7.917c0.207,1.336,0.818,2.481,1.664,3.212
		c0.033,2.607,1.674,4.708,3.695,4.708c2.041,0,3.697-2.144,3.697-4.787c0-0.563-0.078-1.101-0.217-1.603
		c2.662-0.514,4.674-2.854,4.674-5.667c0-0.373-0.037-0.736-0.105-1.09c2.715-0.732,4.781-4.396,4.781-8.815
		c0-2.291-0.559-4.374-1.471-5.957c0.111-0.555,0.172-1.145,0.172-1.757c0-2.645-1.125-4.881-2.672-5.623
		c0.002-0.087,0.008-0.173,0.008-0.262c0-2.51-1.016-4.647-2.441-5.493c0.514-0.856,0.824-1.93,0.824-3.1
		c0-2.793-1.75-5.059-3.908-5.059C-11.104,349.904-12.163,350.589-12.879,351.666z"/>
	<path fill="#F7FBF9" d="M-31.129,464.166c-0.258-0.085-0.527-0.135-0.807-0.135c-1.813,0-3.279,1.9-3.279,4.245
		c0,0.088,0.006,0.174,0.01,0.261c-0.447-0.166-0.918-0.261-1.406-0.261c-2.813,0-5.094,2.952-5.094,6.594
		c0,0.775,0.109,1.516,0.299,2.207c-3.666,0.708-6.438,3.932-6.438,7.806c0,3.218,1.914,5.983,4.664,7.235
		c-0.57,1.097-0.896,2.34-0.896,3.661c0,4.141,3.164,7.54,7.207,7.917c0.207,1.336,0.818,2.481,1.664,3.212
		c0.033,2.607,1.674,4.708,3.695,4.708c2.041,0,3.697-2.144,3.697-4.787c0-0.563-0.078-1.101-0.217-1.603
		c2.662-0.514,4.674-2.854,4.674-5.667c0-0.373-0.037-0.736-0.105-1.09c2.715-0.732,4.781-4.396,4.781-8.815
		c0-2.291-0.559-4.374-1.471-5.957c0.111-0.555,0.172-1.145,0.172-1.757c0-2.645-1.125-4.881-2.672-5.623
		c0.002-0.087,0.008-0.173,0.008-0.262c0-2.51-1.016-4.647-2.441-5.493c0.514-0.856,0.824-1.93,0.824-3.1
		c0-2.793-1.75-5.059-3.908-5.059C-29.354,462.404-30.413,463.089-31.129,464.166z"/>
	<path opacity="0.5" fill="#A6A8AB" d="M-79.122,374.701c-0.248-0.082-0.508-0.13-0.775-0.13c-1.738,0-3.148,1.824-3.148,4.075
		c0,0.084,0.006,0.167,0.01,0.25c-0.43-0.159-0.881-0.25-1.35-0.25c-2.699,0-4.889,2.834-4.889,6.329
		c0,0.744,0.104,1.455,0.287,2.118c-3.521,0.68-6.182,3.774-6.182,7.493c0,3.089,1.84,5.744,4.479,6.945
		c-0.547,1.053-0.861,2.246-0.861,3.515c0,3.975,3.039,7.237,6.918,7.599c0.199,1.282,0.787,2.382,1.598,3.084
		c0.031,2.502,1.605,4.52,3.547,4.52c1.961,0,3.549-2.059,3.549-4.596c0-0.54-0.076-1.057-0.207-1.538
		c2.557-0.493,4.486-2.74,4.486-5.44c0-0.357-0.037-0.707-0.102-1.045c2.605-0.704,4.59-4.221,4.59-8.463
		c0-2.199-0.537-4.198-1.412-5.719c0.107-0.532,0.166-1.098,0.166-1.686c0-2.538-1.08-4.686-2.566-5.397
		c0.002-0.084,0.008-0.167,0.008-0.251c0-2.41-0.975-4.462-2.344-5.273c0.494-0.822,0.791-1.853,0.791-2.976
		c0-2.681-1.68-4.854-3.752-4.854C-77.418,373.011-78.434,373.667-79.122,374.701z"/>
	<path opacity="0.5" fill="#A6A8AB" d="M-46.549,445.451c-0.248-0.082-0.508-0.13-0.775-0.13c-1.738,0-3.148,1.824-3.148,4.075
		c0,0.084,0.006,0.167,0.01,0.25c-0.43-0.159-0.881-0.25-1.35-0.25c-2.699,0-4.889,2.834-4.889,6.329
		c0,0.744,0.104,1.455,0.287,2.118c-3.521,0.68-6.182,3.774-6.182,7.493c0,3.089,1.84,5.744,4.479,6.945
		c-0.547,1.053-0.861,2.246-0.861,3.515c0,3.975,3.039,7.237,6.918,7.599c0.199,1.282,0.787,2.382,1.598,3.084
		c0.031,2.502,1.605,4.52,3.547,4.52c1.961,0,3.549-2.059,3.549-4.596c0-0.54-0.076-1.057-0.207-1.538
		c2.557-0.493,4.486-2.74,4.486-5.44c0-0.357-0.037-0.707-0.102-1.045c2.605-0.704,4.59-4.221,4.59-8.463
		c0-2.199-0.537-4.198-1.412-5.719c0.107-0.532,0.166-1.098,0.166-1.686c0-2.538-1.08-4.686-2.566-5.397
		c0.002-0.084,0.008-0.167,0.008-0.251c0-2.41-0.975-4.462-2.344-5.273c0.494-0.822,0.791-1.853,0.791-2.976
		c0-2.681-1.68-4.854-3.752-4.854C-44.846,443.761-45.862,444.417-46.549,445.451z"/>
	<path opacity="0.5" fill="#A6A8AB" d="M-73.692,454.488c-0.328-0.108-0.668-0.171-1.021-0.171c-2.287,0-4.143,2.4-4.143,5.363
		c0,0.111,0.008,0.22,0.014,0.329c-0.566-0.209-1.16-0.329-1.777-0.329c-3.555,0-6.436,3.73-6.436,8.331
		c0,0.979,0.139,1.915,0.377,2.788c-4.633,0.895-8.135,4.968-8.135,9.862c0,4.065,2.422,7.561,5.895,9.142
		c-0.721,1.386-1.135,2.957-1.135,4.626c0,5.231,4,9.526,9.107,10.002c0.26,1.688,1.035,3.135,2.104,4.06
		c0.041,3.293,2.113,5.948,4.666,5.948c2.582,0,4.674-2.709,4.674-6.049c0-0.711-0.102-1.391-0.273-2.024
		c3.363-0.649,5.906-3.606,5.906-7.161c0-0.47-0.049-0.931-0.135-1.375c3.43-0.927,6.039-5.556,6.039-11.14
		c0-2.895-0.705-5.525-1.857-7.527c0.141-0.7,0.219-1.444,0.219-2.218c0-3.341-1.422-6.168-3.377-7.104
		c0.002-0.11,0.01-0.22,0.01-0.33c0-3.173-1.281-5.873-3.086-6.941c0.65-1.082,1.041-2.438,1.041-3.917
		c0-3.528-2.209-6.39-4.938-6.39C-71.45,452.263-72.788,453.127-73.692,454.488z"/>
</g>
</svg>
