<?xml version="1.0" encoding="utf-8"?>
<!-- Generator: Adobe Illustrator 16.0.3, SVG Export Plug-In . SVG Version: 6.00 Build 0)  -->
<!DOCTYPE svg PUBLIC "-//W3C//DTD SVG 1.1//EN" "http://www.w3.org/Graphics/SVG/1.1/DTD/svg11.dtd">
<svg version="1.1" id="Layer_1" xmlns="http://www.w3.org/2000/svg" xmlns:xlink="http://www.w3.org/1999/xlink" x="0px" y="0px"
	 width="73.527px" height="45.47px" viewBox="17.375 -51.75 73.527 45.47" enable-background="new 17.375 -51.75 73.527 45.47"
	 xml:space="preserve">
<path fill="#002C3D" d="M90.902-28.782L76.084-43.886h-2.449L65.77-51.75h-5.354v6.104l-2.25,1h-2.082l-1.334-1.333h-3.084
	l-1.125,1.125H49l-1.23-1.229h-2.02l-1.301,1.301h-1.531l-1.125-1.126h-3.084l-1.334,1.334h-2.082l-2.25-1v-6.104h-5.354
	l-7.866,7.865h-2.448v2.229h3.151l12.712,12.712L20.739-16.374h-3.364v2.229h2.449l7.863,7.864h5.354v-6.104l2.25-1h2.084
	l1.332,1.333h3.084l1.125-1.125h1.543l1.229,1.229h2.021l1.301-1.301h1.531l1.125,1.126h3.084l1.332-1.334h2.084l2.25,1v6.104h5.354
	l7.866-7.865h2.448L90.902-28.782z M87.798-29.858H60.92l11.798-11.798h3.325l-0.001,0.042L87.798-29.858z M50.875-41.584v-0.072
	h7.805V-30.7L47.796-41.584H50.875z M58.417-29.159L46.585-17.327L35.041-28.871l11.832-11.832L58.417-29.159z M47.506-16.446
	L58.68-27.619v11.173H47.506z M59.955-41.656h10.96l-10.96,10.959V-41.656z M45.951-41.584L34.778-30.412l0.001-11.172H45.951z
	 M45.663-16.446h-3.081v0.072h-7.805l0.001-10.957L45.663-16.446z M59.955-16.446V-27.62l11.174,11.174H59.955z M33.504-41.584
	l-0.001,11.175L22.33-41.584H33.504z M33.503-27.333l-0.001,10.959H22.544L33.503-27.333z M72.933-16.446L61.437-27.942h26.261
	L76.084-16.446H72.933z"/>
</svg>
