<?xml version="1.0" encoding="utf-8"?>
<!-- Generator: Adobe Illustrator 16.0.3, SVG Export Plug-In . SVG Version: 6.00 Build 0)  -->
<!DOCTYPE svg PUBLIC "-//W3C//DTD SVG 1.1//EN" "http://www.w3.org/Graphics/SVG/1.1/DTD/svg11.dtd">
<svg version="1.1" id="Layer_1" xmlns="http://www.w3.org/2000/svg" xmlns:xlink="http://www.w3.org/1999/xlink" x="0px" y="0px"
	 width="21.125px" height="50.75px" viewBox="17.375 -51.75 21.125 50.75" enable-background="new 17.375 -51.75 21.125 50.75"
	 xml:space="preserve">
<g>
	<g>
		<path opacity="0.2" fill="#231E1E" d="M19.457-34.63c0,0,1.64,13.712,3.276,19.783l5.799-1.385l-0.551-17.79L19.457-34.63z"/>
		<path opacity="0.2" fill="#231E1E" d="M36.418-34.63c0,0-1.638,13.712-3.276,19.783l-5.798-1.385l0.551-17.79L36.418-34.63z"/>
		<g>
			<path fill="#F4F4F4" d="M33.09-45.692c-0.041-0.198-0.098-0.39-0.163-0.578c-0.02-0.065-0.036-0.131-0.056-0.195H32.85
				c-0.745-1.855-2.642-3.179-4.87-3.179s-4.126,1.323-4.87,3.179h-0.02c-0.02,0.063-0.036,0.126-0.056,0.19
				c-0.066,0.191-0.124,0.386-0.165,0.588c-5.428,18.945,1.877,42.296,1.877,42.296h3.174h0.119h3.174
				C31.213-3.391,38.521-26.746,33.09-45.692z"/>
			<g opacity="0.4">
				<defs>
					<path id="SVGID_1_" opacity="0.4" d="M33.09-45.692c-0.041-0.198-0.098-0.39-0.163-0.578c-0.02-0.065-0.036-0.131-0.056-0.195
						H32.85c-0.745-1.855-2.642-3.179-4.87-3.179s-4.126,1.323-4.87,3.179h-0.02c-0.02,0.063-0.036,0.126-0.056,0.19
						c-0.066,0.191-0.124,0.386-0.165,0.588c-5.428,18.945,1.877,42.296,1.877,42.296h3.174h0.119h3.174
						C31.213-3.391,38.521-26.746,33.09-45.692z"/>
				</defs>
				<clipPath id="SVGID_2_">
					<use xlink:href="#SVGID_1_"  overflow="visible"/>
				</clipPath>
				<path opacity="0.4" clip-path="url(#SVGID_2_)" fill="#838383" d="M23.44-56.403c0,0,12.376,35.723,6.281,55.78l5.376-2.768
					l2.857-47.792L23.44-56.403z"/>
			</g>
		</g>
	</g>
	<polygon fill="#231E1E" points="24.137,-5.032 31.694,-5.032 31.27,-3.106 24.57,-3.106 	"/>
</g>
</svg>
