<?xml version="1.0" encoding="utf-8"?>
<!-- Generator: Adobe Illustrator 16.0.3, SVG Export Plug-In . SVG Version: 6.00 Build 0)  -->
<!DOCTYPE svg PUBLIC "-//W3C//DTD SVG 1.1//EN" "http://www.w3.org/Graphics/SVG/1.1/DTD/svg11.dtd">
<svg version="1.1" id="Layer_1" xmlns="http://www.w3.org/2000/svg" xmlns:xlink="http://www.w3.org/1999/xlink" x="0px" y="0px"
	 width="21.125px" height="50.75px" viewBox="17.375 -51.75 21.125 50.75" enable-background="new 17.375 -51.75 21.125 50.75"
	 xml:space="preserve">
<g>
	<g>
		<polygon fill="#231E1E" points="23.681,-16.136 19.243,-16.214 20.029,-19.425 23.681,-19.425 		"/>
		<g>
			<path fill="#F4F4F4" d="M33.635-45.694c-0.041-0.195-0.098-0.389-0.164-0.575c-0.018-0.066-0.035-0.132-0.055-0.197h-0.021
				c-0.744-1.856-2.641-3.178-4.869-3.178s-4.127,1.321-4.871,3.178h-0.02c-0.02,0.063-0.036,0.128-0.055,0.192
				c-0.066,0.191-0.123,0.385-0.166,0.587C17.986-26.741,25.291-3.39,25.291-3.39h3.174h0.119h3.174
				C31.758-3.39,39.066-26.745,33.635-45.694z"/>
			<g opacity="0.4">
				<defs>
					<path id="SVGID_1_" opacity="0.4" d="M33.635-45.694c-0.041-0.195-0.098-0.389-0.164-0.575
						c-0.018-0.066-0.035-0.132-0.055-0.197h-0.021c-0.744-1.856-2.641-3.178-4.869-3.178s-4.127,1.321-4.871,3.178h-0.02
						c-0.02,0.063-0.036,0.128-0.055,0.192c-0.066,0.191-0.123,0.385-0.166,0.587C17.986-26.741,25.291-3.39,25.291-3.39h3.174
						h0.119h3.174C31.758-3.39,39.066-26.745,33.635-45.694z"/>
				</defs>
				<clipPath id="SVGID_2_">
					<use xlink:href="#SVGID_1_"  overflow="visible"/>
				</clipPath>
				<path opacity="0.4" clip-path="url(#SVGID_2_)" fill="#838383" d="M23.984-56.405c0,0,12.377,35.724,6.281,55.781l5.377-2.766
					L38.5-51.181L23.984-56.405z"/>
			</g>
		</g>
	</g>
	<polygon fill="#231E1E" points="24.682,-5.031 32.238,-5.031 31.814,-3.105 25.113,-3.105 	"/>
</g>
</svg>
